<?xml version="1.0" encoding="utf-8"?>
<!-- Generator: Adobe Illustrator 16.0.0, SVG Export Plug-In . SVG Version: 6.00 Build 0)  -->
<!DOCTYPE svg PUBLIC "-//W3C//DTD SVG 1.1//EN" "http://www.w3.org/Graphics/SVG/1.1/DTD/svg11.dtd">
<svg version="1.1" xmlns="http://www.w3.org/2000/svg" xmlns:xlink="http://www.w3.org/1999/xlink" x="0px" y="0px"
	 width="282.231px" height="282.232px" viewBox="452.604 1511.289 282.231 282.232"
	 enable-background="new 452.604 1511.289 282.231 282.232" xml:space="preserve">
<g id="_x2D_--" display="none">
	<rect x="116.272" y="-356.429" display="inline" fill="#FFFFFF" width="4471.75" height="5688"/>
</g>
<g id="fond">
	<circle display="none" fill="#C89108" cx="593.718" cy="1652.405" r="141.116"/>
</g>
<g id="A" display="none">
	<g display="inline">
		<path fill="#FFFFFF" d="M659.016,1643.316h-125l62.5-62.5L659.016,1643.316z"/>
	</g>
	<g id="Calque_2" display="inline">
	</g>
	<g id="Calque_7" display="inline">
		<g>
			<path fill="#FFFFFF" d="M532.498,1665.193h125l-62.5,62.5L532.498,1665.193z"/>
		</g>
	</g>
</g>
<g id="B" display="none">
	<g display="inline">
		<path fill="#FFFFFF" d="M533.597,1598.2h122.042v16.336H533.597V1598.2z"/>
		<path fill="#FFFFFF" d="M533.597,1641.2h122.042v16.336H533.597V1641.2z"/>
		<path fill="#FFFFFF" d="M533.597,1684.2h122.042v16.336H533.597V1684.2z"/>
	</g>
</g>
<g id="C">
	<circle fill="#FFFFFF" cx="593.718" cy="1652.405" r="141.116"/>
	<g>
		<g>
			<path fill="#C89108" d="M533.597,1598.2h122.042v16.336H533.597V1598.2z"/>
			<path fill="#C89108" d="M533.597,1641.2h122.042v16.336H533.597V1641.2z"/>
			<path fill="#C89108" d="M533.597,1684.2h122.042v16.336H533.597V1684.2z"/>
		</g>
	</g>
</g>
</svg>
