<?xml version="1.0" encoding="utf-8"?>
<!-- Generator: Adobe Illustrator 16.0.0, SVG Export Plug-In . SVG Version: 6.00 Build 0)  -->
<!DOCTYPE svg PUBLIC "-//W3C//DTD SVG 1.1//EN" "http://www.w3.org/Graphics/SVG/1.1/DTD/svg11.dtd">
<svg version="1.1" xmlns="http://www.w3.org/2000/svg" xmlns:xlink="http://www.w3.org/1999/xlink" x="0px" y="0px"
	 width="282.231px" height="282.232px" viewBox="452.604 1511.289 282.231 282.232"
	 enable-background="new 452.604 1511.289 282.231 282.232" xml:space="preserve">
<g id="_x2D_--" display="none">
	<rect x="116.272" y="-356.429" display="inline" fill="#FFFFFF" width="4471.75" height="5688"/>
</g>
<g id="fond">
	<circle fill="#C89108" cx="593.718" cy="1652.405" r="141.116"/>
</g>
<g id="A" display="none">
	<g display="inline">
		<path fill="#FFFFFF" d="M659.016,1643.316h-125l62.5-62.5L659.016,1643.316z"/>
	</g>
	<g id="Calque_2" display="inline">
	</g>
	<g id="Calque_7" display="inline">
		<g>
			<path fill="#FFFFFF" d="M532.498,1665.193h125l-62.5,62.5L532.498,1665.193z"/>
		</g>
	</g>
</g>
<g id="B">
	<g>
		<path fill="#FFFFFF" stroke="#FFFFFF" stroke-width="8" stroke-miterlimit="10" d="M591.316,1577.574
			c-8.76,0-15.254,2.02-19.48,6.056c-4.229,4.038-3.981,7.961,0.742,11.769c5.637,4.495,7.674,9.655,6.113,15.481
			c-1.563,5.828-5.771,8.741-12.626,8.741c-4.342,0-7.998-1.809-10.969-5.427c-2.971-3.617-4.456-8.017-4.456-13.197
			c0-9.369,4.398-17.348,13.197-23.938c8.797-6.587,19.48-9.883,32.049-9.883c12.949,0,23.709,3.79,32.277,11.369
			c8.57,7.58,12.854,17.12,12.854,28.621c0,7.847-1.733,14.95-5.198,21.309c-3.467,6.361-9.084,12.779-16.854,19.253
			c-9.294,7.618-15.596,14.396-18.91,20.338c-3.313,5.941-4.97,13.368-4.97,22.28v3.428h-9.369v-8.455
			c0-7.388,1.446-14.72,4.342-21.994c2.894-7.273,7.273-14.568,13.14-21.881c4.799-6.017,8.341-11.786,10.626-17.311
			c2.285-5.521,3.428-11.177,3.428-16.967c0-9.749-2.21-17.139-6.627-22.166C606.284,1580.051,599.847,1577.574,591.316,1577.574z
			 M590.402,1713.998c4.037,0,7.465,1.41,10.283,4.228c2.817,2.819,4.228,6.247,4.228,10.283c0,4.038-1.41,7.446-4.228,10.227
			c-2.818,2.779-6.246,4.17-10.283,4.17c-4.038,0-7.466-1.391-10.283-4.17c-2.818-2.78-4.228-6.188-4.228-10.227
			c0-4.036,1.409-7.464,4.228-10.283C582.937,1715.408,586.364,1713.998,590.402,1713.998z"/>
	</g>
</g>
<g id="C" display="none">
	<circle display="inline" fill="#FFFFFF" cx="593.718" cy="1652.405" r="141.116"/>
	<g display="inline">
		<g>
			<path fill="#C89108" d="M533.597,1598.199h122.042v16.337H533.597V1598.199z"/>
			<path fill="#C89108" d="M533.597,1641.199h122.042v16.337H533.597V1641.199z"/>
			<path fill="#C89108" d="M533.597,1684.199h122.042v16.337H533.597V1684.199z"/>
		</g>
	</g>
	<g display="inline">
		<path fill="#FFFFFF" d="M533.597,1598.199h122.042v16.337H533.597V1598.199z"/>
		<path fill="#FFFFFF" d="M533.597,1641.199h122.042v16.337H533.597V1641.199z"/>
		<path fill="#FFFFFF" d="M533.597,1684.199h122.042v16.337H533.597V1684.199z"/>
	</g>
</g>
</svg>
