<?xml version="1.0" encoding="utf-8"?>
<!-- Generator: Adobe Illustrator 16.0.0, SVG Export Plug-In . SVG Version: 6.00 Build 0)  -->
<!DOCTYPE svg PUBLIC "-//W3C//DTD SVG 1.1//EN" "http://www.w3.org/Graphics/SVG/1.1/DTD/svg11.dtd">
<svg version="1.1" xmlns="http://www.w3.org/2000/svg" xmlns:xlink="http://www.w3.org/1999/xlink" x="0px" y="0px"
	 width="282.231px" height="282.232px" viewBox="-151.546 1813.364 282.231 282.232"
	 enable-background="new -151.546 1813.364 282.231 282.232" xml:space="preserve">
<g id="_x2D_--" display="none">
	<rect x="116.272" y="-356.429" display="inline" fill="#FFFFFF" width="4471.75" height="5688"/>
</g>
<g id="fond">
	<circle display="none" fill="#20558A" cx="-10.432" cy="1954.48" r="141.116"/>
</g>
<g id="A" display="none">
	<g id="Calque_2" display="inline">
	</g>
	<g id="Calque_7" display="inline">
	</g>
	<path display="inline" opacity="0.5" fill="#FFFFFF" d="M130.685,1954.479c0,77.938-63.179,141.117-141.117,141.117
		c-77.935,0-141.114-63.18-141.114-141.117"/>
	<path display="inline" opacity="0.4" fill="#FFFFFF" d="M-149.768,1955.232c45.813,7.779,93.12,4.352,139.338,1.342v-143.209
		c-77.938,0-141.117,63.18-141.117,141.113c0,77.939,63.18,141.118,141.117,141.118v-139.022
		C-56.648,1959.584-103.955,1963.012-149.768,1955.232z"/>
	<g display="inline">
		<path fill="#FFFFFF" d="M-21.763,1863.334l1.758,3.047c-11.446,8.086-22.052,18.32-31.816,30.703
			c-9.766,12.383-16.816,24.512-21.152,36.387l-2.578,1.699c-2.227,1.445-4.141,2.891-5.742,4.336
			c-0.273-1.406-1.035-3.672-2.285-6.797l-1.348-3.34c-2.93-7.227-5.4-12.275-7.412-15.146c-2.013-2.871-4.189-4.424-6.533-4.658
			c3.164-2.891,5.918-4.336,8.262-4.336c3.242,0,6.797,4.355,10.664,13.066l2.109,4.688c6.914-12.383,15.264-23.789,25.049-34.219
			S-32.662,1869.857-21.763,1863.334z"/>
	</g>
	<g display="inline">
		<path fill="#FFFFFF" d="M90.237,1968.334l1.758,3.047c-11.446,8.086-22.052,18.32-31.816,30.703
			c-9.766,12.383-16.816,24.512-21.152,36.387l-2.578,1.699c-2.227,1.445-4.141,2.891-5.742,4.336
			c-0.273-1.406-1.035-3.672-2.285-6.797l-1.348-3.34c-2.93-7.227-5.4-12.275-7.412-15.146c-2.013-2.871-4.189-4.424-6.533-4.658
			c3.164-2.891,5.918-4.336,8.262-4.336c3.242,0,6.797,4.355,10.664,13.066l2.109,4.688c6.914-12.383,15.264-23.789,25.049-34.219
			S79.339,1974.857,90.237,1968.334z"/>
	</g>
	<g display="inline">
		<path fill="#20558A" d="M-65.501,2020.961l-1.587,2.031c-7.914,10.369-14.071,15.552-18.472,15.552
			c-3.301,0-6.665-2.708-10.093-8.125c1.185,0.254,2.095,0.381,2.729,0.381c5.543,0,11.849-4.548,18.916-13.647l2.476-3.11
			l-1.777-2.158c-8.549-9.944-12.822-16.927-12.822-20.947c0-2.878,2.327-6.538,6.982-10.981
			c1.946,8.719,6.009,16.948,12.188,24.692l1.396,1.777l2.666-3.237c8.717-10.791,15.657-16.187,20.82-16.187
			c2.539,0,4.634,1.249,6.284,3.745c0.296,0.424,0.719,1.016,1.27,1.777c-6.56,2.963-13.901,8.95-22.026,17.964l-2.603,2.92
			l1.904,2.095c7.701,8.465,14.811,12.695,21.328,12.695c1.904,0,3.682-0.211,5.332-0.635c-2.116,4.402-3.883,7.279-5.3,8.633
			c-1.419,1.355-3.354,2.031-5.809,2.031c-5.332,0-12.272-4.676-20.82-14.028L-65.501,2020.961z"/>
	</g>
</g>
<g id="B">
	<g>
		<path fill="#FFFFFF" d="M33.479,1906.607l-10.73,10.73c-11.844-11.843-26.15-17.764-42.924-17.764
			c-16.772-0.001-31.08,5.921-42.924,17.764c-11.842,11.843-17.764,26.15-17.765,42.925c0.002,16.771,5.922,31.079,17.765,42.923
			c11.795,11.793,25.971,17.752,42.525,17.872c16.556,0.121,30.658-5.644,42.307-17.292l10.73,10.73
			c-14.646,14.646-32.326,21.908-53.037,21.789c-20.713-0.121-38.465-7.578-53.256-22.369c-14.84-14.84-22.26-32.725-22.26-53.654
			c0-20.932,7.42-38.814,22.26-53.654s32.725-22.26,53.654-22.26S18.639,1891.768,33.479,1906.607z M87.133,1960.262l-37.92,37.921
			v-30.39l-69.389-0.029v-15.042l69.389-0.073v-30.307L87.133,1960.262z"/>
	</g>
</g>
<g id="C" display="none">
</g>
</svg>
