<?xml version="1.0" encoding="utf-8"?>
<!-- Generator: Adobe Illustrator 16.0.0, SVG Export Plug-In . SVG Version: 6.00 Build 0)  -->
<!DOCTYPE svg PUBLIC "-//W3C//DTD SVG 1.1//EN" "http://www.w3.org/Graphics/SVG/1.1/DTD/svg11.dtd">
<svg version="1.1" xmlns="http://www.w3.org/2000/svg" xmlns:xlink="http://www.w3.org/1999/xlink" x="0px" y="0px"
	 width="283.465px" height="283.465px" viewBox="760.844 -1812.768 283.465 283.465"
	 enable-background="new 760.844 -1812.768 283.465 283.465" xml:space="preserve">
<g id="_x2D_--" display="none">
</g>
<g id="fond">
	<circle fill="#20558A" cx="903.191" cy="-1670.417" r="141.116"/>
</g>
<g id="A" display="none">
	<g id="Calque_2" display="inline">
	</g>
	<g id="Calque_7" display="inline">
	</g>
	<g display="inline">
		<path fill="#FFFFFF" d="M812.032-1701.427c2.85-1.383,12.371-6.836,28.564-16.357c16.113-9.521,30.478-14.282,43.091-14.282h0.977
			c5.453,0,14.648,2.89,27.588,8.667c12.859,5.697,22.299,8.545,28.32,8.545c5.941,0,13.144-3.254,21.606-9.766
			c8.383-6.51,14.12-9.766,17.212-9.766c4.965,0,10.662,3.582,17.09,10.742c6.43,7.162,11.963,10.742,16.602,10.742
			c0.896,0,2.035,0.042,3.418,0.122c1.303,0,1.953,0.448,1.953,1.343c0,1.303-2.766,2.563-8.301,3.784
			c-5.615,1.221-10.742,1.831-15.381,1.831c-3.824,0-8.301-1.383-13.428-4.15c-5.207-2.766-8.503-4.15-9.888-4.15
			c-5.695,0-11.555,2.93-17.578,8.789c-6.021,5.779-11.677,10.254-16.968,13.428c-4.639,3.338-7.893,5.819-9.766,7.446
			c-1.871,1.547-2.808,3.866-2.808,6.958v56.152c0,13.836,4.681,28.402,14.038,43.701c-16.52-8.301-28.32-15.991-35.4-23.071
			c-7.16-7.08-12.531-14.811-16.113-23.193c-3.174-7.893-7.853-17.008-14.038-27.344c-6.184-10.416-11.515-15.625-15.991-15.625
			c-8.707,0-13.996,0.774-15.869,2.319c-1.139,1.059-3.458,1.587-6.958,1.587c-5.533,0-9.806,0.53-12.817,1.587
			c0.732-1.709,3.784-3.296,9.155-4.761c0.732-3.58,2.483-5.371,5.249-5.371c1.791,0,3.622,0.122,5.493,0.366
			c1.791,0.244,3.216,0.366,4.272,0.366c5.371,0,9.441-0.488,12.207-1.465c0.326-1.221,0.53-2.604,0.61-4.15
			c0.082-1.545,0.122-3.296,0.122-5.249c0-2.359-1.627-3.54-4.883-3.54c-1.301,0-5.411,0.774-12.329,2.319
			c-6.998,1.547-12.653,2.319-16.968,2.319c-5.451,0-10.904-2.197-16.357-6.592c-5.533-4.475-10.822-7.16-15.869-8.057
			C797.914-1695.852,804.628-1697.927,812.032-1701.427z"/>
	</g>
</g>
<g id="B">
	<g opacity="0.7">
		<path fill="#FFFFFF" d="M759.8-1582.351v-9.277c0-7.893,0.996-14.139,2.991-18.738c1.993-4.597,6.122-10.233,12.39-16.907
			l16.113-16.968c5.127-5.451,7.69-8.991,7.69-10.62c0-1.789-3.134-5.859-9.399-12.207l-16.113-16.602
			c-5.453-5.533-9.095-10.66-10.925-15.381c-1.832-4.719-2.747-11.23-2.747-19.531v-10.01c0-6.916,4.517-12.104,13.55-15.564
			c9.033-3.458,22.583-5.188,40.649-5.188c36.133,0,54.199,6.918,54.199,20.752v10.01c0,8.301-0.915,14.813-2.747,19.531
			c-1.83,4.721-5.474,9.848-10.925,15.381l-16.113,16.602c-6.186,6.348-9.277,10.418-9.277,12.207c0,1.629,2.521,5.169,7.568,10.62
			l16.113,16.968c6.266,6.674,10.396,12.31,12.39,16.907c1.994,4.599,2.991,10.845,2.991,18.738v9.277
			c0,7.488-4.599,13.144-13.794,16.968c-9.197,3.824-22.665,5.737-40.405,5.737c-17.742,0-31.21-1.913-40.405-5.737
			C764.396-1569.208,759.8-1574.863,759.8-1582.351z M765.781-1725.417v11.719c0,5.615,0.813,9.949,2.441,13
			c1.627,3.052,5.817,8.2,12.573,15.442l13.794,14.648c6.916,7.568,10.376,12.899,10.376,15.991c0,3.174-3.174,8.179-9.521,15.015
			l-15.869,16.968c-6.186,6.592-10.03,11.517-11.536,14.771c-1.506,3.256-2.258,8.179-2.258,14.771v8.789
			c0,5.291,1.911,8.953,5.737,10.986c9.357,5.127,23.518,7.69,42.48,7.69c19.043,0,33.203-2.563,42.48-7.69
			c3.824-2.033,5.737-5.695,5.737-10.986v-8.789c0-6.592-0.752-11.515-2.253-14.771c-1.501-3.254-5.333-8.179-11.497-14.771
			l-15.821-16.968c-6.329-6.836-9.491-12.003-9.491-15.503c0-2.766,3.488-7.935,10.466-15.503l13.63-14.648
			c6.732-7.242,10.91-12.39,12.533-15.442c1.621-3.052,2.434-7.385,2.434-13v-11.719c-11.15,7.08-27.222,10.62-48.218,10.62
			c-10.498,0-19.756-0.895-27.771-2.686C778.212-1719.272,771.396-1721.917,765.781-1725.417z M813.999-1720.779
			c11.23,0,21.606-1.261,31.128-3.784c9.521-2.521,14.2-5.249,14.038-8.179c-0.164-3.01-4.537-5.533-13.122-7.568
			c-8.587-2.033-19.269-3.052-32.044-3.052c-12.859,0-23.602,1.038-32.227,3.113c-8.627,2.075-12.939,4.66-12.939,7.751
			c0,2.85,4.78,5.514,14.343,7.996C792.738-1722.019,803.013-1720.779,813.999-1720.779z M771.885-1581.985
			c1.303-4.883,6.193-9.521,14.669-13.916l10.758-5.493c6.764-3.498,10.818-5.859,12.163-7.08s2.873-3.946,4.586-8.179
			c1.787,4.232,3.33,6.958,4.631,8.179s5.323,3.582,12.067,7.08l10.727,5.493c8.45,4.395,13.327,9.033,14.628,13.916
			c-10.336,5.209-24.374,7.813-42.114,7.813C796.257-1574.172,782.219-1576.776,771.885-1581.985z M778.721-1701.248
			c12.043,7.65,23.804,11.475,35.278,11.475s23.273-3.824,35.4-11.475c-2.031,3.256-6.5,8.627-13.405,16.113l-10.114,11.108
			c-4.551,4.965-7.313,8.404-8.287,10.315c-0.975,1.913-1.787,5.554-2.436,10.925c-0.164,1.629-0.528,4.07-1.097,7.324
			c-0.572-3.254-0.938-5.695-1.101-7.324c-0.652-5.371-1.469-9.012-2.447-10.925c-0.979-1.911-3.75-5.35-8.314-10.315
			l-10.149-11.108C785.12-1692.621,780.678-1697.992,778.721-1701.248z"/>
	</g>
	<g opacity="0.9">
		<path fill="#FFFFFF" d="M978.345-1627.55c-3.711,12.68-9.062,22.033-16.05,28.064c-6.989,6.029-16.267,9.045-27.832,9.045
			c-11.999,0-22.297-4.307-30.894-12.92c-8.598-8.613-14.35-20.572-17.256-35.879h-13.267v-10.762h11.968
			c-0.124-1.545-0.186-4.082-0.186-7.607c0-2.783,0.062-4.824,0.186-6.123h-11.968v-10.854h13.081
			c2.906-16.143,9.046-28.125,18.416-35.95c9.37-7.823,19.775-11.735,31.218-11.735c22.266,0,36.397,11.845,42.397,35.532
			l-15.4,2.134c-4.516-16.76-13.576-25.142-27.183-25.142c-7.546,0-14.318,2.714-20.317,8.14c-6,5.427-10.175,14.434-12.524,27.021
			h37.202v10.854h-38.594c-0.124,1.547-0.186,4.021-0.186,7.422c0,2.908,0.062,5.01,0.186,6.309h38.594v10.762h-37.388
			c2.35,13.366,6.741,22.754,13.174,28.162c6.432,5.409,12.803,8.112,19.111,8.112c14.534,0,24.151-9.06,28.853-27.183
			L978.345-1627.55z"/>
	</g>
</g>
<g id="C" display="none">
	<g display="inline" opacity="0.8">
		<path fill="#FFFFFF" d="M969.762-1761.134l6.23,33.73l-160.488,29.863l-6.23-33.73L969.762-1761.134z M978.57-1693.243v34.375
			H815.289v-34.375H978.57z M978.57-1661.017v83.789H815.289v-83.789H978.57z M823.238-1703.341l12.676-2.363l7.949-27.715
			l-12.676,2.363L823.238-1703.341z M823.883-1663.165h12.891l12.891-25.781h-12.891L823.883-1663.165z M823.883-1645.978h69.824
			v60.156h6.445v-60.156h69.824v-6.445H823.883V-1645.978z M852.672-1708.927l12.676-2.363l7.949-27.715l-12.676,2.363
			L852.672-1708.927z M853.961-1663.165h12.891l12.891-25.781h-12.891L853.961-1663.165z M882.32-1714.298l12.676-2.363
			l7.949-27.715l-12.676,2.363L882.32-1714.298z M884.039-1663.165h12.891l12.891-25.781H896.93L884.039-1663.165z
			 M911.969-1719.884l12.676-2.363l7.949-27.715l-12.676,2.363L911.969-1719.884z M914.117-1663.165h12.891l12.891-25.781h-12.891
			L914.117-1663.165z M941.402-1725.47l12.676-2.363l7.949-27.5l-12.676,2.363L941.402-1725.47z M944.195-1663.165h12.891
			l12.891-25.781h-12.891L944.195-1663.165z"/>
	</g>
</g>
</svg>
