<?xml version="1.0" encoding="utf-8"?>
<!-- Generator: Adobe Illustrator 16.0.0, SVG Export Plug-In . SVG Version: 6.00 Build 0)  -->
<!DOCTYPE svg PUBLIC "-//W3C//DTD SVG 1.1//EN" "http://www.w3.org/Graphics/SVG/1.1/DTD/svg11.dtd">
<svg version="1.1" xmlns="http://www.w3.org/2000/svg" xmlns:xlink="http://www.w3.org/1999/xlink" x="0px" y="0px"
	 width="282.232px" height="282.232px" viewBox="-453.618 -905.311 282.232 282.232"
	 enable-background="new -453.618 -905.311 282.232 282.232" xml:space="preserve">
<g id="_x2D_--" display="none">
</g>
<g id="fond">
	<circle fill="#20558A" cx="-312.503" cy="-764.195" r="141.116"/>
</g>
<g id="A" display="none">
	
		<line display="inline" fill="none" stroke="#FFFFFF" stroke-width="8" stroke-miterlimit="10" x1="-312.828" y1="-882.065" x2="-312.828" y2="-856.062"/>
	
		<line display="inline" fill="none" stroke="#FFFFFF" stroke-width="8" stroke-miterlimit="10" x1="-312.828" y1="-675.029" x2="-312.828" y2="-649.026"/>
	
		<line display="inline" fill="none" stroke="#FFFFFF" stroke-width="8" stroke-miterlimit="10" x1="-194.364" y1="-767.52" x2="-220.367" y2="-767.52"/>
	
		<line display="inline" fill="none" stroke="#FFFFFF" stroke-width="8" stroke-miterlimit="10" x1="-401.4" y1="-767.52" x2="-427.403" y2="-767.52"/>
	
		<line display="inline" fill="none" stroke="#FFFFFF" stroke-width="8" stroke-miterlimit="10" x1="-315.301" y1="-841.061" x2="-315.301" y2="-745.051"/>
	
		<line display="inline" fill="none" stroke="#FFFFFF" stroke-width="8" stroke-miterlimit="10" x1="-333.303" y1="-766.053" x2="-270.297" y2="-766.053"/>
	<g display="inline">
		<path fill="#FFFFFF" d="M-255.072-852.824c0,4.097-2.943,7.425-7.168,7.425c-3.072,0-7.04-1.92-7.04-7.425
			c0-5.376,4.736-7.424,7.04-7.424C-256.736-860.248-255.072-855.384-255.072-852.824z"/>
	</g>
	<g display="inline">
		<path fill="#FFFFFF" d="M-214.113-813.805c0,4.097-2.943,7.425-7.168,7.425c-3.072,0-7.04-1.92-7.04-7.425
			c0-5.376,4.736-7.424,7.04-7.424C-215.777-821.229-214.113-816.364-214.113-813.805z"/>
	</g>
	<g display="inline">
		<path fill="#FFFFFF" d="M-360.453-861.23c2.304,0,7.04,2.048,7.04,7.424c0,5.505-3.968,7.425-7.04,7.425
			c-4.225,0-7.168-3.328-7.168-7.425C-367.621-856.366-365.957-861.23-360.453-861.23z"/>
	</g>
	<g display="inline">
		<path fill="#FFFFFF" d="M-401.41-822.211c2.304,0,7.04,2.048,7.04,7.424c0,5.505-3.968,7.425-7.04,7.425
			c-4.225,0-7.168-3.328-7.168-7.425C-408.578-817.347-406.914-822.211-401.41-822.211z"/>
	</g>
	<g id="Calque_2" display="inline">
	</g>
	<g id="Calque_7" display="inline">
	</g>
</g>
<g id="B">
	<path opacity="0.1" fill="#FFFFFF" d="M-185.512-825.808c9.05,18.617,14.126,39.522,14.126,61.612
		c0,77.938-63.178,141.117-141.111,141.117c-77.932,0-141.108-63.18-141.108-141.117c0-19.484,3.949-38.045,11.089-54.928"/>
	<g>
		<path fill="#FFFFFF" d="M-448.742-821.5v-8.232h8.232v8.232H-448.742z"/>
		<path fill="#FFFFFF" d="M-432.072-821.5v-8.232h8.232v8.232H-432.072z"/>
		<path fill="#FFFFFF" d="M-415.402-821.5v-8.232h8.232v8.232H-415.402z"/>
		<path fill="#FFFFFF" d="M-398.732-821.5v-8.232h8.232v8.232H-398.732z"/>
		<path fill="#FFFFFF" d="M-382.063-821.5v-8.232h8.232v8.232H-382.063z"/>
		<path fill="#FFFFFF" d="M-365.393-821.5v-8.232h8.232v8.232H-365.393z"/>
		<path fill="#FFFFFF" d="M-348.723-821.5v-8.232h8.232v8.232H-348.723z"/>
		<path fill="#FFFFFF" d="M-332.053-821.5v-8.232h8.232v8.232H-332.053z"/>
		<path fill="#FFFFFF" d="M-315.383-821.5v-8.232h8.232v8.232H-315.383z"/>
		<path fill="#FFFFFF" d="M-298.713-821.5v-8.232h8.232v8.232H-298.713z"/>
		<path fill="#FFFFFF" d="M-282.043-821.5v-8.232h8.232v8.232H-282.043z"/>
		<path fill="#FFFFFF" d="M-265.373-821.5v-8.232h8.232v8.232H-265.373z"/>
		<path fill="#FFFFFF" d="M-248.703-821.5v-8.232h8.232v8.232H-248.703z"/>
		<path fill="#FFFFFF" d="M-232.033-821.5v-8.232h8.232v8.232H-232.033z"/>
		<path fill="#FFFFFF" d="M-215.363-821.5v-8.232h8.232v8.232H-215.363z"/>
		<path fill="#FFFFFF" d="M-198.693-821.5v-8.232h8.232v8.232H-198.693z"/>
	</g>
	<g>
		<path fill="#FFFFFF" d="M-384.924-804.736v-41.441h12.211v41.441H-384.924z"/>
		<path fill="#FFFFFF" d="M-250.757-804.736v-41.441h12.211v41.441H-250.757z"/>
	</g>
	<g>
		<path fill="#FFFFFF" d="M-346.131-713.175c5.662,0,8.495-2.632,8.495-7.897v-4.829c0-8.398-4.4-12.598-13.199-12.598v-10.574
			c4.747,0,8.254-1.326,10.52-3.98c2.091-2.394,3.137-5.744,3.137-10.053v-1.893c0-5.352-2.353-8.027-7.057-8.027
			c-2.614,0-4.531,0.996-5.75,2.988c-0.915,1.516-1.372,3.486-1.372,5.91v2.144h-12.089v-1.895c0-5.837,1.48-10.585,4.443-14.244
			c3.354-4.182,8.08-6.273,14.18-6.273c5.792,0,10.432,1.961,13.917,5.881c3.137,3.528,4.705,7.929,4.705,13.199v3.463
			c0,5.097-1.525,9.497-4.574,13.199c-1.307,1.568-2.832,2.897-4.574,3.985c3.659,2.048,6.49,5.162,8.495,9.344
			c1.045,2.135,1.567,4.728,1.567,7.775v6.469c0,6.056-2.069,11.021-6.207,14.898c-3.965,3.746-8.734,5.619-14.31,5.619
			c-5.446,0-10.063-1.916-13.853-5.75c-3.79-3.833-5.685-8.429-5.685-13.787v-2.025l11.762-0.915l0.261,2.875
			c0.174,2.048,0.904,3.725,2.189,5.031C-349.845-713.828-348.179-713.175-346.131-713.175z"/>
		<path fill="#FFFFFF" d="M-290.146-701.413v-63.054h-10.52v-8.625c2.962-0.349,5.783-1.471,8.462-3.365s4.606-4.192,5.782-6.894
			h8.625v81.938H-290.146z"/>
	</g>
</g>
<g id="C" display="none">
</g>
</svg>
