<?xml version="1.0" encoding="utf-8"?>
<!-- Generator: Adobe Illustrator 16.0.0, SVG Export Plug-In . SVG Version: 6.00 Build 0)  -->
<!DOCTYPE svg PUBLIC "-//W3C//DTD SVG 1.1//EN" "http://www.w3.org/Graphics/SVG/1.1/DTD/svg11.dtd">
<svg version="1.1" xmlns="http://www.w3.org/2000/svg" xmlns:xlink="http://www.w3.org/1999/xlink" x="0px" y="0px"
	 width="282.232px" height="282.232px" viewBox="-1057.768 -1207.386 282.232 282.232"
	 enable-background="new -1057.768 -1207.386 282.232 282.232" xml:space="preserve">
<g id="_x2D_--" display="none">
</g>
<g id="fond">
	<circle fill="#00326E" cx="-916.652" cy="-1066.27" r="141.116"/>
</g>
<g id="A" display="none">
	<g id="Calque_2" display="inline">
	</g>
	<g id="Calque_7" display="inline">
	</g>
	<g display="inline">
		<polygon fill="#FFFFFF" stroke="#00326E" stroke-width="4" stroke-miterlimit="10" points="-834.218,-1101.336 
			-858.887,-1092.942 -846.679,-1085.396 -881.985,-1051.452 -916.961,-1065.328 -984.563,-999.115 -968.747,-988.46 
			-911.461,-1044.566 -876.619,-1030.749 -830.307,-1075.266 -816.33,-1066.624 -812.939,-1088.175 -809.551,-1109.728 		"/>
		
			<rect x="-918.127" y="-1036.768" fill="#FFFFFF" stroke="#00326E" stroke-width="4" stroke-miterlimit="10" width="17.127" height="47.533"/>
		
			<rect x="-946.67" y="-1006.622" fill="#FFFFFF" stroke="#00326E" stroke-width="4" stroke-miterlimit="10" width="17.127" height="17.387"/>
		
			<rect x="-886.16" y="-1027.956" fill="#FFFFFF" stroke="#00326E" stroke-width="4" stroke-miterlimit="10" width="17.127" height="38.722"/>
		
			<rect x="-854.764" y="-1049.75" fill="#FFFFFF" stroke="#00326E" stroke-width="4" stroke-miterlimit="10" width="17.121" height="60.516"/>
	</g>
	<g display="inline">
		<path fill="#FFFFFF" d="M-977.42-1090.371c6.455,0,12.256-2.094,17.404-6.281c2.617,1.135,4.601,2.008,5.954,2.617
			c1.352,0.611,3.161,1.484,5.431,2.617c2.268,1.135,4.012,2.116,5.234,2.944c1.221,0.83,2.638,1.897,4.253,3.206
			c1.613,1.309,2.791,2.552,3.533,3.729c0.74,1.178,1.374,2.552,1.897,4.122s0.785,3.229,0.785,4.973v44.885h-88.984v-44.885
			c0.262-2.791,0.959-5.32,2.094-7.59c1.133-2.268,2.441-4.188,3.926-5.758c1.482-1.57,3.488-3.096,6.02-4.58
			c2.529-1.482,4.776-2.683,6.739-3.599s4.515-1.983,7.655-3.206C-990.244-1092.639-984.225-1090.371-977.42-1090.371z
			 M-977.485-1144.285c-6.412,0-11.888,2.27-16.423,6.805c-4.537,4.537-6.805,10.033-6.805,16.488
			c0,6.457,2.268,11.953,6.805,16.488c4.535,4.537,10.011,6.805,16.423,6.805s11.908-2.268,16.488-6.805
			c4.58-4.535,6.87-10.031,6.87-16.488c0-6.455-2.29-11.951-6.87-16.488C-965.577-1142.016-971.073-1144.285-977.485-1144.285z"/>
	</g>
</g>
<g id="B">
	<g opacity="0.9">
		<path fill="#FFFFFF" d="M-827.979-1075.271c0,4.584-0.896,9.453-2.686,14.609c-1.934,5.516-4.154,9.131-6.66,10.85l6.016,1.719
			v6.875l-4.941,1.611c-0.574,2.078-1.182,5.551-1.826,10.42c-0.072,5.156,0.537,10.135,1.826,14.932l4.941,2.256v6.553
			l-97.109,49.199l-62.734-53.818c-7.09-6.086-10.457-15.969-10.098-29.648c0.07-4.297,1.002-7.412,2.793-9.346
			c0.93-1.074,3.115-2.434,6.553-4.082c2.506-1.217,10.205-3.008,23.096-5.371l-16.758-7.842v-5.371l6.445-1.719
			c1.359-5.156,2.041-10.383,2.041-15.684c0-1.217-0.107-2.936-0.322-5.156l-31.475-6.768v-5.371l4.082-0.537
			c1.504-3.938,2.256-8.629,2.256-14.072c0-5.514-0.752-10.275-2.256-14.287h-4.082v-3.975l56.074-6.338l99.473,6.445
			c4.727,0.359,8.647,2.417,11.763,6.177s4.673,8.647,4.673,14.663c0,8.164-3.975,14.324-11.924,18.477
			c6.445-0.07,10.777,0.717,12.998,2.363c2.219,1.648,4.117,4.979,5.693,9.99C-828.695-1083.005-827.979-1078.923-827.979-1075.271z
			 M-936.045-1121.032c0.143-6.301-1.558-11.261-5.103-14.878c-3.545-3.615-7.86-5.173-12.944-4.673l-48.984,4.512
			c1.574,4.512,2.363,9.525,2.363,15.039c0,5.443-0.789,10.707-2.363,15.791l45.439,7.305c0.859,0.145,1.719,0.215,2.578,0.215
			c5.156,0,9.577-2.165,13.267-6.499C-938.104-1108.553-936.189-1114.157-936.045-1121.032z M-928.633-969.138
			c-1.504-7.52-2.256-15.146-2.256-22.881c0-6.445,0.752-12.031,2.256-16.758l-55.859-36.738c-1.648-1.074-3.26-1.611-4.834-1.611
			c-4.227,0-6.268,3.402-6.123,10.205c0.215,9.598,2.256,15.936,6.123,19.014L-928.633-969.138z M-902.422-1066.247
			c0-7.877-1.289-15.074-3.867-21.592l-18.477-3.438c-12.318,1.719-20.912,2.578-25.781,2.578c-1.219,0-2.148-0.07-2.793-0.215
			l-22.236-4.834c0.215,2.363,0.322,4.154,0.322,5.371c0,5.301-0.896,11.172-2.686,17.617l71.65,30.078
			C-903.711-1049.345-902.422-1057.868-902.422-1066.247z M-837.002-1010.817c-1.791-5.801-2.65-11.672-2.578-17.617
			c0-2.648,0.572-6.193,1.719-10.635l-88.623,30.293c-1.434,4.727-2.148,10.313-2.148,16.758c0,7.734,0.787,15.361,2.363,22.881
			L-837.002-1010.817z M-833.027-1074.948c0.07-5.586-1.111-10.455-3.545-14.609c-2.293-3.938-4.764-5.764-7.412-5.479
			l-60.371,7.197c2.506,6.518,3.76,13.715,3.76,21.592c0,8.379-1.289,16.902-3.867,25.566l63.809-15.039
			c1.934-0.43,3.652-2.541,5.156-6.338C-833.994-1065.853-833.172-1070.149-833.027-1074.948z"/>
	</g>
</g>
<g id="C" display="none">
</g>
</svg>
