<?xml version="1.0" encoding="utf-8"?>
<!-- Generator: Adobe Illustrator 16.0.0, SVG Export Plug-In . SVG Version: 6.00 Build 0)  -->
<!DOCTYPE svg PUBLIC "-//W3C//DTD SVG 1.1//EN" "http://www.w3.org/Graphics/SVG/1.1/DTD/svg11.dtd">
<svg version="1.1" xmlns="http://www.w3.org/2000/svg" xmlns:xlink="http://www.w3.org/1999/xlink" x="0px" y="0px"
	 width="283.465px" height="283.465px" viewBox="457.536 -1812.768 283.465 283.465"
	 enable-background="new 457.536 -1812.768 283.465 283.465" xml:space="preserve">
<g id="_x2D_--" display="none">
</g>
<g id="fond">
	<circle fill="#20558A" cx="599.884" cy="-1670.417" r="141.116"/>
</g>
<g id="A" display="none">
	<g id="Calque_2" display="inline">
	</g>
	<g id="Calque_7" display="inline">
	</g>
</g>
<g id="B">
	<g>
		<path fill="#FFFFFF" d="M548.657-1695.157c8.671,0,16.463-2.813,23.379-8.438c3.516,1.524,6.18,2.697,7.998,3.516
			c1.815,0.821,4.246,1.994,7.295,3.516c3.046,1.524,5.389,2.843,7.031,3.955c1.64,1.115,3.543,2.549,5.713,4.307
			c2.167,1.758,3.749,3.428,4.746,5.01c0.994,1.582,1.846,3.428,2.549,5.537s1.055,4.337,1.055,6.68v60.293H488.892v-60.293
			c0.352-3.749,1.288-7.146,2.813-10.195c1.521-3.046,3.279-5.625,5.273-7.734c1.991-2.109,4.686-4.158,8.086-6.152
			c3.397-1.991,6.416-3.604,9.053-4.834s6.064-2.664,10.283-4.307C531.431-1698.203,539.517-1695.157,548.657-1695.157z
			 M548.569-1767.579c-8.613,0-15.969,3.049-22.061,9.141c-6.095,6.095-9.141,13.478-9.141,22.148
			c0,8.674,3.046,16.057,9.141,22.148c6.092,6.095,13.447,9.141,22.061,9.141s15.996-3.046,22.148-9.141
			c6.152-6.092,9.229-13.475,9.229-22.148c0-8.671-3.076-16.054-9.229-22.148C564.565-1764.53,557.183-1767.579,548.569-1767.579z"
			/>
	</g>
	<circle fill="#20558A" cx="619.121" cy="-1636.535" r="68"/>
	<g>
		<path fill="#FFFFFF" d="M626.707-1583.287c-14.531,0-26.924-5.155-37.178-15.469c-10.253-10.253-15.381-22.646-15.381-37.178
			c0-14.531,5.128-26.923,15.381-37.178c10.254-10.253,22.646-15.381,37.178-15.381c14.532,0,26.953,5.128,37.266,15.381
			c10.254,10.254,15.381,22.647,15.381,37.178c0,11.602-3.281,21.827-9.844,30.674l44.209,44.209c4.16,4.161,4.16,8.321,0,12.48
			c-4.101,4.101-8.231,4.101-12.393,0l-44.297-44.297C648.24-1586.48,638.133-1583.287,626.707-1583.287z M584.871-1636.241
			c0,11.397,4.014,21.138,12.041,29.224c8.086,8.028,17.828,12.041,29.224,12.041c11.396,0,21.108-4.013,29.136-12.041
			c8.086-8.086,12.129-17.827,12.129-29.224c0-11.396-4.043-21.107-12.129-29.136c-8.027-8.086-17.739-12.129-29.136-12.129
			c-11.396,0-21.138,4.043-29.224,12.129C588.885-1657.349,584.871-1647.637,584.871-1636.241z"/>
	</g>
</g>
<g id="C" display="none">
	<g display="inline" opacity="0.8">
		<g>
			<g>
				<path fill="#FFFFFF" d="M622.232-1649.768l9.097-6.244l-5.27-16.227l-11.004,0.294l-8.617-11.854l3.688-10.409l-13.807-10.021
					l-8.744,6.718l-13.98-4.509l-3.104-10.621h-17.074l-3.104,10.621l-13.973,4.509l-8.711-6.718l-13.809,10.021l3.699,10.409
					l-8.629,11.854l-11.042-0.294l-5.27,16.227l9.093,6.244v14.659l-9.093,6.247l5.27,16.223l11.042-0.293l8.629,11.851
					l-3.699,10.406l13.809,10.026l8.711-6.712l13.973,4.508l3.104,10.569h17.074l3.104-10.569l13.98-4.508l8.744,6.712
					l13.807-10.026l-3.688-10.406l8.617-11.851l11.004,0.293l5.27-16.223l-9.097-6.247V-1649.768z M592.455-1632.984l-0.249,0.85
					c-2.083,6.072-5.948,11.383-11.093,15.252l-0.764,0.545c-5.268,3.699-11.508,5.74-17.932,5.823h-0.887
					c-6.455-0.083-12.701-2.124-17.971-5.823l-0.725-0.545c-5.174-3.869-9.041-9.18-11.127-15.252l-0.254-0.85
					c-1.908-6.161-1.908-12.746,0-18.904l0.254-0.853c2.086-6.072,5.953-11.422,11.127-15.29l0.725-0.513
					c5.27-3.694,11.516-5.734,17.971-5.815h0.887c6.424,0.081,12.664,2.121,17.932,5.815l0.764,0.513
					c5.145,3.868,9.01,9.218,11.093,15.29l0.249,0.853C594.371-1645.73,594.371-1639.146,592.455-1632.984z"/>
			</g>
		</g>
		<g>
			<g>
				<path fill="#FFFFFF" d="M698.751-1703.502l10.106-5.353l-2.082-11.729l-11.303-1.57l-4.93-8.539l4.298-10.578l-9.132-7.691
					l-9.691,6.077l-9.26-3.355l-3.527-10.874H651.34l-3.527,10.874l-9.26,3.355l-9.688-6.077l-9.136,7.691l4.29,10.578l-4.922,8.539
					l-11.303,1.57l-2.082,11.729l10.107,5.353l1.699,9.725l-7.643,8.456l5.943,10.317l11.176-2.373l7.559,6.327l-0.421,11.431
					l11.214,4.075l7.012-9.005h9.852l7.012,9.005l11.217-4.075l-0.424-11.431l7.56-6.327l11.176,2.373l5.939-10.317l-7.64-8.456
					L698.751-1703.502z M678.781-1699.172l-0.208,0.593c-1.454,4.289-4.167,8.074-7.828,10.749l-0.504,0.382
					c-3.694,2.637-8.116,4.035-12.663,4.121h-0.59c-4.546-0.086-8.965-1.484-12.659-4.121l-0.513-0.382
					c-3.61-2.675-6.324-6.46-7.818-10.749l-0.164-0.593c-1.362-4.33-1.362-8.96,0-13.299l0.164-0.59
					c1.494-4.295,4.208-8.03,7.818-10.755l0.513-0.377c3.694-2.595,8.113-4.037,12.659-4.075h0.59
					c4.547,0.038,8.969,1.48,12.663,4.075l0.504,0.377c3.661,2.725,6.374,6.46,7.828,10.755l0.208,0.59
					C680.099-1708.132,680.099-1703.502,678.781-1699.172z"/>
			</g>
		</g>
	</g>
</g>
</svg>
