<?xml version="1.0" encoding="utf-8"?>
<!-- Generator: Adobe Illustrator 16.0.0, SVG Export Plug-In . SVG Version: 6.00 Build 0)  -->
<!DOCTYPE svg PUBLIC "-//W3C//DTD SVG 1.1//EN" "http://www.w3.org/Graphics/SVG/1.1/DTD/svg11.dtd">
<svg version="1.1" xmlns="http://www.w3.org/2000/svg" xmlns:xlink="http://www.w3.org/1999/xlink" x="0px" y="0px"
	 width="282.232px" height="282.232px" viewBox="452.606 -905.311 282.232 282.232"
	 enable-background="new 452.606 -905.311 282.232 282.232" xml:space="preserve">
<g id="_x2D_--" display="none">
</g>
<g id="fond">
	<circle fill="#20558A" cx="593.722" cy="-764.195" r="141.116"/>
</g>
<g id="A" display="none">
	<g id="Calque_2" display="inline">
	</g>
	<g id="Calque_7" display="inline">
	</g>
</g>
<g id="B">
	<g opacity="0.8">
		<g>
			<g id="Graduation_x5F_Cap">
				<g>
					<path fill="#FFFFFF" d="M512.232-666.107v-88.08l18,8.71v36.372c0,22.449,29.55,40.646,66,40.646c36.449,0,66-18.197,66-40.646
						v-36.367l35.364-17.111c3.936-1.905,6.636-5.848,6.636-10.395c0-4.546-2.7-8.489-6.636-10.394l-96.001-46.453
						c-1.619-0.784-3.438-1.219-5.363-1.219s-3.744,0.436-5.363,1.219l-96,46.453c-3.938,1.904-6.637,5.848-6.637,10.394
						c0,4.547,2.699,8.489,6.637,10.395l5.363,2.595v93.887 M644.232-709.105c0,10.742-20.965,23.226-48,23.226
						c-27.036,0-48-12.484-48-23.226v-27.663l42.637,20.637c1.619,0.784,3.438,1.219,5.363,1.219s3.744-0.435,5.363-1.219
						l42.637-20.637V-709.105z M596.232-733.01l-82.596-39.967l82.596-39.966l82.596,39.966L596.232-733.01z"/>
				</g>
			</g>
		</g>
		<rect x="493.232" y="-692.043" fill="#FFFFFF" width="25" height="12"/>
		<rect x="588.654" y="-884.543" fill="#FFFFFF" width="12.656" height="26.5"/>
		
			<rect x="632.733" y="-867.621" transform="matrix(-0.5 0.866 -0.866 -0.5 223.0806 -1851.3804)" fill="#FFFFFF" width="26.5" height="12.657"/>
		
			<rect x="671.732" y="-833.621" transform="matrix(-0.6828 0.7306 -0.7306 -0.6828 548.2976 -1892.6237)" fill="#FFFFFF" width="26.5" height="12.656"/>
		<rect x="588.99" y="-884.543" fill="#FFFFFF" width="12.656" height="26.5"/>
		
			<rect x="531.069" y="-867.621" transform="matrix(0.5 0.866 -0.866 0.5 -473.7428 -902.0313)" fill="#FFFFFF" width="26.5" height="12.657"/>
		
			<rect x="492.069" y="-833.621" transform="matrix(0.6828 0.7306 -0.7306 0.6828 -444.1254 -631.55)" fill="#FFFFFF" width="26.501" height="12.656"/>
	</g>
</g>
<g id="C" display="none">
	<path display="inline" opacity="0.15" fill="#FFFFFF" d="M720.872-825.808c9.05,18.617,14.126,39.522,14.126,61.612
		c0,77.938-63.18,141.117-141.117,141.117c-77.936,0-141.115-63.18-141.115-141.117c0-19.484,3.949-38.045,11.09-54.928"/>
	<g display="inline">
		<path fill="#FFFFFF" d="M643.289-688.534c-11.95,11.949-26.414,17.924-43.389,17.924c-16.977,0-31.439-5.975-43.389-17.925
			c-11.95-11.95-17.91-26.397-17.879-43.343c0.03-16.944,6.021-31.393,17.971-43.342c11.889-11.889,26.336-17.85,43.342-17.879
			c17.006-0.031,31.453,5.897,43.343,17.787c11.95,11.949,17.925,26.412,17.925,43.389
			C661.213-714.948,655.238-700.485,643.289-688.534z M608.357-692.764l0.275-30.427l30.06,0.092l0.001-17.465l-30.336-0.368
			v-29.968h-17.465l-0.277,30.243l-30.059,0.093v17.465l30.335,0.184l0.001,30.152L608.357-692.764z"/>
	</g>
	<g display="inline">
		<path fill="#FFFFFF" d="M458.959-821.5v-8.232h8.232v8.232H458.959z"/>
		<path fill="#FFFFFF" d="M475.629-821.5v-8.232h8.232v8.232H475.629z"/>
		<path fill="#FFFFFF" d="M492.299-821.5v-8.232h8.232v8.232H492.299z"/>
		<path fill="#FFFFFF" d="M508.969-821.5v-8.232h8.232v8.232H508.969z"/>
		<path fill="#FFFFFF" d="M525.639-821.5v-8.232h8.232v8.232H525.639z"/>
		<path fill="#FFFFFF" d="M542.309-821.5v-8.232h8.232v8.232H542.309z"/>
		<path fill="#FFFFFF" d="M558.979-821.5v-8.232h8.232v8.232H558.979z"/>
		<path fill="#FFFFFF" d="M575.648-821.5v-8.232h8.232v8.232H575.648z"/>
		<path fill="#FFFFFF" d="M592.318-821.5v-8.232h8.232v8.232H592.318z"/>
		<path fill="#FFFFFF" d="M608.988-821.5v-8.232h8.232v8.232H608.988z"/>
		<path fill="#FFFFFF" d="M625.658-821.5v-8.232h8.232v8.232H625.658z"/>
		<path fill="#FFFFFF" d="M642.328-821.5v-8.232h8.232v8.232H642.328z"/>
		<path fill="#FFFFFF" d="M658.998-821.5v-8.232h8.232v8.232H658.998z"/>
		<path fill="#FFFFFF" d="M675.668-821.5v-8.232h8.232v8.232H675.668z"/>
		<path fill="#FFFFFF" d="M692.338-821.5v-8.232h8.232v8.232H692.338z"/>
		<path fill="#FFFFFF" d="M709.008-821.5v-8.232h8.232v8.232H709.008z"/>
	</g>
	<g display="inline">
		<path fill="#FFFFFF" d="M524.402-804.736v-41.441h12.211v41.441H524.402z"/>
		<path fill="#FFFFFF" d="M658.575-804.736v-41.441h12.212v41.441H658.575z"/>
	</g>
</g>
</svg>
