<?xml version="1.0" encoding="utf-8"?>
<!-- Generator: Adobe Illustrator 16.0.0, SVG Export Plug-In . SVG Version: 6.00 Build 0)  -->
<!DOCTYPE svg PUBLIC "-//W3C//DTD SVG 1.1//EN" "http://www.w3.org/Graphics/SVG/1.1/DTD/svg11.dtd">
<svg version="1.1" xmlns="http://www.w3.org/2000/svg" xmlns:xlink="http://www.w3.org/1999/xlink" x="0px" y="0px"
	 width="283.465px" height="283.465px" viewBox="154.229 -1812.768 283.465 283.465"
	 enable-background="new 154.229 -1812.768 283.465 283.465" xml:space="preserve">
<g id="_x2D_--" display="none">
</g>
<g id="fond">
	<circle fill="#00326E" cx="296.576" cy="-1670.417" r="141.116"/>
</g>
<g id="A" display="none">
	<g id="Calque_2" display="inline">
	</g>
	<g id="Calque_7" display="inline">
	</g>
</g>
<g id="B">
	<g opacity="0.9">
		<path fill="#FFFFFF" d="M335.829-1750.821c6.973-1.57,13.603-1.333,19.893,0.718l-21.123,21.123l0.82,15.381l7.998,7.998
			l15.176,0.82l21.123-21.123c2.186,6.29,2.493,12.92,0.923,19.893c-1.573,6.973-4.89,12.92-9.946,17.842
			c-4.787,4.787-10.356,8.033-16.714,9.741c-6.357,1.711-12.683,1.743-18.97,0.103c-22.424,15.724-41.496,34.386-57.217,55.986
			c2.051,6.29,2.256,12.817,0.615,19.585s-4.922,12.612-9.844,17.534c-5.06,5.06-11.074,8.376-18.047,9.946
			s-13.605,1.263-19.893-0.923l21.123-21.123l-0.82-15.176l-7.998-7.998l-15.176-0.82l-21.123,21.123
			c-2.188-6.287-2.496-12.92-0.923-19.893c1.57-6.973,4.887-12.987,9.946-18.047c5.467-5.467,12.029-8.886,19.688-10.254
			c7.655-1.365,14.833-0.545,21.533,2.461c19.822-14.355,37.459-32.47,52.91-54.346c-2.871-6.697-3.589-13.772-2.153-21.226
			c1.436-7.45,4.819-13.91,10.151-19.38C322.839-1745.932,328.856-1749.248,335.829-1750.821z"/>
	</g>
</g>
<g id="C" display="none">
	<g display="inline" opacity="0.8">
		<path fill="#FFFFFF" d="M224.279-1577.706c44.334-1.854,89.355-1.854,135.059,0c-3.516,7.324-12.063,11.719-25.635,13.184
			c-3.321,0.392-17.432,0.586-42.334,0.586c-25.587,0-39.063-0.048-40.43-0.146C238.145-1565.449,229.26-1569.99,224.279-1577.706z
			 M344.543-1679.366c10.155-1.561,18.018,0.783,23.584,7.031c4.98,5.47,7.079,12.305,6.299,20.508
			c-0.685,8.302-3.955,14.454-9.814,18.457c-6.643,4.493-14.941,4.64-24.902,0.439c-8.203,21.583-17.432,37.354-27.686,47.314
			h-40.43c-25.781-27.832-36.28-62.695-31.494-104.59c11.719-1.758,28.367-2.49,49.951-2.197c29.1,0.392,46.63,0.49,52.588,0.293
			c1.268,0.783,1.952,2.541,2.051,5.273c0,0.783,0,2.051,0,3.809C344.591-1681.367,344.543-1680.146,344.543-1679.366z
			 M276.574-1601.437c1.073-2.538,0.634-5.663-1.318-9.375c-0.586-1.073-1.563-2.685-2.93-4.834
			c-1.271-1.952-2.149-3.465-2.637-4.541c-5.764-11.229-10.06-24.364-12.891-39.404h-3.955c0,0.293-0.197,0.732-0.586,1.318
			c-0.392,0.49-0.49,1.025-0.293,1.611c0.389,11.037,3.318,22.559,8.789,34.57C266.32-1609.786,271.594-1602.901,276.574-1601.437z
			 M281.555-1717.745c0.194-5.468-3.907-11.133-12.305-16.992c-8.789-6.152-13.575-11.668-14.355-16.553
			c-1.563-10.155,4.688-17.725,18.75-22.705c-0.685,1.563-1.516,3.321-2.49,5.273c-1.172,2.442-1.856,3.809-2.051,4.102
			c-1.271,2.833-1.758,5.617-1.465,8.35c0.682,4.786,5.566,10.451,14.648,16.992c8.789,6.251,13.133,11.769,13.037,16.553
			c-0.099,4.395-2.49,8.253-7.178,11.572c-1.856,1.271-6.397,3.662-13.623,7.178c0.487-1.952,1.806-4.296,3.955-7.031
			C280.431-1713.447,281.456-1715.694,281.555-1717.745z M309.094-1703.976c5.273-5.663,7.324-10.936,6.152-15.82
			c-0.879-3.612-3.809-7.713-8.789-12.305c-7.521-6.933-11.671-10.888-12.451-11.865c-4.006-4.784-5.566-9.521-4.688-14.209
			c1.172-6.347,7.42-11.62,18.75-15.82c-0.685,2.442-1.809,4.688-3.369,6.738c-1.465,1.856-2.296,3.566-2.49,5.127
			c-0.685,4.395,0.535,8.4,3.662,12.012c1.758,1.955,5.321,4.884,10.693,8.789c4.98,3.614,8.35,6.69,10.107,9.229
			c2.637,3.907,3.369,8.35,2.197,13.33c-0.783,3.028-3.369,5.91-7.764,8.643C320.813-1709.931,316.807-1707.88,309.094-1703.976z
			 M342.639-1643.771c5.859,3.809,10.888,4.445,15.088,1.904c3.516-2.245,5.516-6.006,6.006-11.279
			c0.487-5.273-0.831-9.276-3.955-12.012c-3.713-3.223-8.789-3.369-15.234-0.439c0.293,3.126,0.048,6.837-0.732,11.133
			C343.027-1649.776,342.639-1646.21,342.639-1643.771z"/>
	</g>
</g>
</svg>
