<?xml version="1.0" encoding="utf-8"?>
<!-- Generator: Adobe Illustrator 16.0.0, SVG Export Plug-In . SVG Version: 6.00 Build 0)  -->
<!DOCTYPE svg PUBLIC "-//W3C//DTD SVG 1.1//EN" "http://www.w3.org/Graphics/SVG/1.1/DTD/svg11.dtd">
<svg version="1.1" xmlns="http://www.w3.org/2000/svg" xmlns:xlink="http://www.w3.org/1999/xlink" x="0px" y="0px"
	 width="282.232px" height="282.232px" viewBox="452.606 -1207.386 282.232 282.232"
	 enable-background="new 452.606 -1207.386 282.232 282.232" xml:space="preserve">
<g id="_x2D_--" display="none">
</g>
<g id="fond">
	<circle fill="#20558A" cx="593.722" cy="-1066.27" r="141.116"/>
</g>
<g id="A" display="none">
	<g display="inline">
		<path fill="#FFFFFF" d="M539.579-1069.646h-38.281v-8.408h38.281V-1069.646z M539.579-1048.797l-32.197,32.197l-6.084-6.016
			l32.266-32.197L539.579-1048.797z M552.294-1099.041l-6.016,6.016l-32.197-32.197l6.016-6.016L552.294-1099.041z
			 M613.339-1127.205v18.047c11.985,2.279,20.872,7.611,26.66,15.996c6.106,8.842,9.16,21.738,9.16,38.691
			c0,10.71,2.415,19.232,7.246,25.566c4.192,5.515,11.211,10.414,21.055,14.697v8.271h-57.695c0,4.01-1.982,7.633-5.947,10.869
			c-3.965,3.235-8.317,4.854-13.057,4.854c-4.467,0-8.705-1.618-12.715-4.854c-4.147-3.327-6.221-6.95-6.221-10.869H524.13v-8.271
			c11.119-5.332,18.457-10.345,22.012-15.039c4.192-5.514,6.289-13.922,6.289-25.225c0-32.129,11.939-50.357,35.82-54.688v-18.047
			H613.339z M667.138-1012.977c-6.928-2.734-12.624-7.496-17.09-14.287c-5.014-7.701-7.52-16.771-7.52-27.207
			c0-16.725-3.691-29.417-11.074-38.076c-7.155-8.294-17.363-12.441-30.625-12.441c-27.891,0-41.836,16.84-41.836,50.518
			c0,11.713-2.119,20.873-6.357,27.48c-4.102,6.426-10.642,11.097-19.619,14.014h53.32c-0.092,4.83,1.139,8.682,3.691,11.553
			c2.552,2.871,6.175,4.307,10.869,4.307c4.693,0,8.316-1.459,10.869-4.375c2.369-2.78,3.509-6.608,3.418-11.484H667.138z
			 M689.491-1125.223l-32.197,32.197l-6.016-6.016l32.197-32.197L689.491-1125.223z M702.274-1069.646h-38.213v-8.408h38.213
			V-1069.646z M702.274-1022.615l-6.016,6.016l-32.197-32.197l6.016-6.016L702.274-1022.615z"/>
	</g>
	<g id="Calque_2" display="inline">
	</g>
	<g id="Calque_7" display="inline">
	</g>
</g>
<g id="B">
	<path fill="#FFFFFF" d="M606.453-1026.146c-15.813-3.162-37.637-35.071-26.355-42.166c25.564-16.075,27.432,7.707,38.477-1.845"/>
	<g opacity="0.95">
		<path fill="#FFFFFF" d="M600.654-1067.521c12.482-10.795,34.916-21.042,49.592-20.089c60.875,3.952,62.457-16.751,62.457-4.745
			c0,12.008-19.279,74.78-64.084,79.649c-29.287,3.184-44.012-6.852-54.025-13.968"/>
		<path fill="#FFFFFF" d="M590.158-1067.521c-12.482-10.795-34.916-21.042-49.594-20.089c-60.873,3.952-62.455-16.751-62.455-4.745
			c0,12.008,19.279,74.78,64.084,79.649c29.285,3.184,44.012-6.852,54.025-13.968"/>
	</g>
	
		<ellipse transform="matrix(0.9958 -0.091 0.091 0.9958 98.2895 54.1437)" fill="#20558A" cx="642.82" cy="-1050.655" rx="31.278" ry="12.915"/>
	
		<ellipse transform="matrix(-0.9958 -0.091 0.091 -0.9958 1199.5917 -2046.6088)" fill="#20558A" cx="553.133" cy="-1050.655" rx="31.278" ry="12.915"/>
</g>
<g id="C" display="none">
</g>
</svg>
