<?xml version="1.0" encoding="utf-8"?>
<!-- Generator: Adobe Illustrator 16.0.0, SVG Export Plug-In . SVG Version: 6.00 Build 0)  -->
<!DOCTYPE svg PUBLIC "-//W3C//DTD SVG 1.1//EN" "http://www.w3.org/Graphics/SVG/1.1/DTD/svg11.dtd">
<svg version="1.1" xmlns="http://www.w3.org/2000/svg" xmlns:xlink="http://www.w3.org/1999/xlink" x="0px" y="0px"
	 width="282.232px" height="282.232px" viewBox="-151.543 605.063 282.232 282.232"
	 enable-background="new -151.543 605.063 282.232 282.232" xml:space="preserve">
<g id="_x2D_--" display="none">
	<rect x="116.272" y="-356.429" display="inline" fill="#FFFFFF" width="4471.75" height="5688"/>
</g>
<g id="fond">
	<circle fill="#00326E" cx="-10.428" cy="746.181" r="141.116"/>
</g>
<g id="A" display="none">
	<g id="Calque_2" display="inline">
	</g>
	<g id="Calque_7" display="inline">
	</g>
</g>
<g id="B">
	<rect x="-101.973" y="704.789" opacity="0.8" fill="#FFFFFF" width="189.019" height="102.013"/>
	<polyline fill="#00326E" points="87.842,695.231 -5.768,780.976 -103.096,695.231 	"/>
	<polyline fill="#FFFFFF" stroke="#00326E" stroke-width="4" stroke-miterlimit="10" points="87.842,703.231 -3.768,761.976 
		-103.096,703.231 	"/>
	<polyline fill="#C89108" stroke="#00326E" stroke-width="4" stroke-miterlimit="10" points="87.842,703.231 -3.768,761.976 
		-103.096,703.231 	"/>
</g>
<g id="C" display="none">
	<g display="inline">
		<path fill="#C89108" d="M14.226,730.474c2.975,1.546,5.143,2.592,6.506,3.14c2.152,0.699,3.674,1.1,4.555,1.206
			c4.615-8.321,9.821-14.075,15.61-17.263c6.876-3.786,13.504-2.779,19.882,3.023c1.922,1.773,3.479,3.745,4.674,5.916
			c3.588,6.516,3.451,13.546-0.41,21.097l-23.697,45.766c3.988,2.333,8.016,4.721,12.161,6.568l23.006-41.139
			c7.515-13.335,7.883-26.156,1.107-38.461c-2.044-3.711-4.783-6.977-8.226-9.796c-10.559-8.689-21.406-9.969-32.536-3.841
			C28.355,711.374,20.81,719.301,14.226,730.474z"/>
		<path fill="#FFFFFF" d="M34.241,698.404c3.092,2.189,5.193,3.861,6.301,5.021c3.326-1.243,5.957-1.926,7.894-2.048
			c4.636,0.278,7.953,0.632,9.958,1.061c-5.246-5.247-11.391-9.764-18.429-13.552l-55.539-29.554l-5.88,10.843L34.241,698.404z"/>
		<path fill="#C89108" d="M38.637,826.515l10.114-18.086c-4.012-1.968-7.902-4.301-11.837-6.515l-7.873,15.204
			c-2.192,4.154-5.415,7.403-9.667,9.746c-10.133,5.58-17.668,3.892-22.6-5.065c-3.887-7.058-4.594-13.272-2.128-18.639
			l23.399-51.619c-2.285-0.511-4.086-0.995-5.397-1.45c-2.825-1.273-4.851-2.281-6.084-3.018l-22.862,49.38
			c-4.945,10.504-4.42,21.417,1.577,32.737c4.494,8.372,10.808,13.089,18.938,14.155c6.599,0.847,13.562-0.746,20.891-4.782
			C31.622,834.977,36.132,830.959,38.637,826.515z"/>
		<path fill="#FFFFFF" d="M27.874,751.081c8.427,0.313,15.761-1.25,22.004-4.688c3.168-1.745,5.809-3.905,7.924-6.486
			c3.676-6.388,5.544-10.6,5.601-12.635c-1.807-2.426-3.339-4.352-4.598-5.78c-3.142-2.28-5.341-3.489-6.594-3.621
			c1.569,4.558,0.007,8.896-4.684,13.015c-1.247,1.156-2.64,2.161-4.179,3.008c-8.232,4.534-15.75,5.017-22.549,1.45l-70.006-35.911
			c-4.909-2.488-8.333-5.495-10.275-9.023c-3.091-5.61-2.293-11.768,2.386-18.47c1.665-2.332,3.854-4.245,6.567-5.74
			c5.068-2.79,10.212-3.618,15.435-2.484l5.853-11.535c-7.807-2.188-16.099-0.864-24.875,3.97c-4.344,2.392-8.173,5.5-11.488,9.332
			c-8.703,10.099-9.994,20.714-3.865,31.843c2.64,4.795,6.113,8.424,10.418,10.891l68.597,38.811
			C14.18,749.66,20.291,751.011,27.874,751.081z"/>
	</g>
	<path display="inline" fill="#FFFFFF" d="M-120.758,835.38c-9.047-26.92,6.772-56.995,35.818-70.79l-10.898-18.06l47.439,7.207
		l-12.694,50.384l-14.536-24.107c-22.859,15.3-34.33,41.572-26.33,65.377c3.119,9.282,8.832,17.069,16.244,23.031
		C-102.152,863.068-115.346,851.485-120.758,835.38z"/>
</g>
</svg>
