<?xml version="1.0" encoding="utf-8"?>
<!-- Generator: Adobe Illustrator 16.0.0, SVG Export Plug-In . SVG Version: 6.00 Build 0)  -->
<!DOCTYPE svg PUBLIC "-//W3C//DTD SVG 1.1//EN" "http://www.w3.org/Graphics/SVG/1.1/DTD/svg11.dtd">
<svg version="1.1" xmlns="http://www.w3.org/2000/svg" xmlns:xlink="http://www.w3.org/1999/xlink" x="0px" y="0px"
	 width="282.232px" height="282.232px" viewBox="150.531 0.913 282.232 282.232"
	 enable-background="new 150.531 0.913 282.232 282.232" xml:space="preserve">
<g id="_x2D_--" display="none">
	<rect x="116.272" y="-356.429" display="inline" fill="#FFFFFF" width="4471.75" height="5688"/>
	<g display="inline">
		<path d="M383.285,99.256h-0.439l-24.86,13.42l-3.74-14.74l31.24-16.72h16.5v143.001h-18.7V99.256z"/>
	</g>
</g>
<g id="fond">
	<circle fill="#00326E" cx="291.646" cy="142.03" r="141.116"/>
</g>
<g id="A" display="none">
	<g id="Calque_2" display="inline">
	</g>
	<g id="Calque_7" display="inline">
	</g>
</g>
<g id="B">
	<path opacity="0.95" fill="#FFFFFF" d="M392.717,76.692v-12.44c0-2.292-1.856-4.146-4.146-4.146h-78.759
		c-6.762,0-12.785,3.264-16.57,8.293h-0.01c0,0-0.006,0-0.012,0c-3.783-5.029-9.805-8.293-16.569-8.293h-78.757
		c-2.289,0-4.145,1.854-4.145,4.146v12.44h-8.291v140.989h89.254c4.536,5.087,11.168,8.293,18.52,8.293s13.979-3.206,18.514-8.293
		h89.261V76.692H392.717z M202.039,68.398h74.612c6.854,0,12.437,5.581,12.437,12.44v79.245c0,2.295,1.856,4.147,4.145,4.147
		c2.289,0,4.146-1.853,4.146-4.147V80.839c0-6.86,5.58-12.44,12.435-12.44h74.613v132.694h-74.613
		c-6.762,0-12.785,3.263-16.57,8.294h-0.01h-0.012c-3.783-5.031-9.805-8.294-16.569-8.294h-74.612V68.398z"/>
	<g opacity="0.6">
		<path fill="#FFFFFF" d="M339.848,105.682c-6.943,0-12.586-4.991-12.586-12.151c0-5.208,3.255-11.935,12.586-11.935
			c9.114,0,12.586,8.028,12.586,11.935C352.434,102.861,344.188,105.682,339.848,105.682z"/>
		<path fill="#FFFFFF" d="M339.848,143.654c-6.943,0-12.586-4.992-12.586-12.152c0-5.208,3.255-11.935,12.586-11.935
			c9.114,0,12.586,8.028,12.586,11.935C352.434,140.833,344.188,143.654,339.848,143.654z"/>
		<path fill="#FFFFFF" d="M339.848,181.627c-6.943,0-12.586-4.992-12.586-12.152c0-5.207,3.255-11.934,12.586-11.934
			c9.114,0,12.586,8.027,12.586,11.934C352.434,178.805,344.188,181.627,339.848,181.627z"/>
		<path fill="#FFFFFF" d="M245.848,142.354c-6.943,0-12.586-4.992-12.586-12.152c0-5.208,3.255-11.935,12.586-11.935
			c9.114,0,12.586,8.028,12.586,11.935C258.434,139.532,250.188,142.354,245.848,142.354z"/>
	</g>
	
		<line fill="#00326E" stroke="#00326E" stroke-width="2" stroke-miterlimit="10" x1="192.416" y1="60.109" x2="192.416" y2="199.771"/>
	
		<line fill="#00326E" stroke="#00326E" stroke-width="2" stroke-miterlimit="10" x1="393.436" y1="74.596" x2="393.436" y2="214.258"/>
	<g>
		<path fill="#FFFFFF" d="M257.46,131.717c0,6.944-4.991,12.585-12.151,12.585c-5.208,0-11.935-3.254-11.935-12.585
			c0-9.114,8.028-12.586,11.935-12.586C254.639,119.131,257.46,127.377,257.46,131.717z"/>
	</g>
</g>
<g id="C" display="none">
</g>
</svg>
