<?xml version="1.0" encoding="utf-8"?>
<!-- Generator: Adobe Illustrator 16.0.0, SVG Export Plug-In . SVG Version: 6.00 Build 0)  -->
<!DOCTYPE svg PUBLIC "-//W3C//DTD SVG 1.1//EN" "http://www.w3.org/Graphics/SVG/1.1/DTD/svg11.dtd">
<svg version="1.1" xmlns="http://www.w3.org/2000/svg" xmlns:xlink="http://www.w3.org/1999/xlink" x="0px" y="0px"
	 width="282.232px" height="282.232px" viewBox="452.606 0.913 282.232 282.232"
	 enable-background="new 452.606 0.913 282.232 282.232" xml:space="preserve">
<g id="_x2D_--" display="none">
	<rect x="116.272" y="-356.429" display="inline" fill="#FFFFFF" width="4471.75" height="5688"/>
</g>
<g id="fond">
	<circle fill="#20558A" cx="593.722" cy="142.03" r="141.116"/>
</g>
<g id="A" display="none">
	<g id="Calque_2" display="inline">
	</g>
	<g id="Calque_7" display="inline">
	</g>
	<g display="inline">
		<defs>
			<circle id="SVGID_5_" cx="895.916" cy="-161.374" r="141.116"/>
		</defs>
		<clipPath id="SVGID_1_">
			<use xlink:href="#SVGID_5_"  overflow="visible"/>
		</clipPath>
		<g clip-path="url(#SVGID_1_)">
		</g>
	</g>
</g>
<g id="B">
	<path opacity="0.95" fill="#FFFFFF" d="M695.717,76.692v-12.44c0-2.292-1.856-4.146-4.146-4.146h-78.759
		c-6.762,0-12.785,3.264-16.57,8.293h-0.01c0,0-0.006,0-0.012,0c-3.783-5.029-9.805-8.293-16.569-8.293h-78.757
		c-2.289,0-4.145,1.854-4.145,4.146v12.44h-8.291v140.993h89.254c4.536,5.087,11.168,8.293,18.52,8.293s13.979-3.206,18.514-8.293
		h89.261V76.692H695.717z M505.039,68.398h74.612c6.854,0,12.437,5.581,12.437,12.44v79.246c0,2.295,1.856,4.147,4.145,4.147
		c2.289,0,4.146-1.853,4.146-4.147V80.839c0-6.86,5.58-12.44,12.435-12.44h74.613v132.697h-74.613
		c-6.762,0-12.785,3.263-16.57,8.294h-0.01h-0.012c-3.783-5.031-9.805-8.294-16.569-8.294h-74.612V68.398z"/>
	<g opacity="0.6">
		<path fill="#FFFFFF" d="M642.848,105.682c-6.943,0-12.586-4.991-12.586-12.151c0-5.208,3.255-11.935,12.586-11.935
			c9.114,0,12.586,8.028,12.586,11.935C655.434,102.86,647.188,105.682,642.848,105.682z"/>
		<path fill="#FFFFFF" d="M642.848,143.653c-6.943,0-12.586-4.991-12.586-12.151c0-5.208,3.255-11.935,12.586-11.935
			c9.114,0,12.586,8.028,12.586,11.935C655.434,140.832,647.188,143.653,642.848,143.653z"/>
		<path fill="#FFFFFF" d="M642.848,181.626c-6.943,0-12.586-4.991-12.586-12.151c0-5.208,3.255-11.935,12.586-11.935
			c9.114,0,12.586,8.028,12.586,11.935C655.434,178.805,647.188,181.626,642.848,181.626z"/>
	</g>
	
		<line fill="#20558A" stroke="#20558A" stroke-width="2" stroke-miterlimit="10" x1="495.416" y1="69.509" x2="495.416" y2="209.174"/>
	
		<line fill="#20558A" stroke="#20558A" stroke-width="2" stroke-miterlimit="10" x1="696.436" y1="69.509" x2="696.436" y2="209.174"/>
	<g>
		<path fill="#FFFFFF" d="M534.499,140.884l-7,21.201h-9.001l22.901-67.404H551.9l23.001,67.404h-9.3l-7.201-21.201H534.499z
			 M556.601,134.084L550,114.683c-1.5-4.4-2.5-8.4-3.5-12.301h-0.2c-1,4-2.1,8.101-3.4,12.201l-6.601,19.501H556.601z"/>
	</g>
</g>
<g id="C" display="none">
</g>
</svg>
