<?xml version="1.0" encoding="utf-8"?>
<!-- Generator: Adobe Illustrator 16.0.0, SVG Export Plug-In . SVG Version: 6.00 Build 0)  -->
<!DOCTYPE svg PUBLIC "-//W3C//DTD SVG 1.1//EN" "http://www.w3.org/Graphics/SVG/1.1/DTD/svg11.dtd">
<svg version="1.1" xmlns="http://www.w3.org/2000/svg" xmlns:xlink="http://www.w3.org/1999/xlink" x="0px" y="0px"
	 width="282.232px" height="282.232px" viewBox="-1057.768 -301.162 282.232 282.232"
	 enable-background="new -1057.768 -301.162 282.232 282.232" xml:space="preserve">
<g id="_x2D_--" display="none">
</g>
<g id="fond">
	<circle fill="#20558A" cx="-916.652" cy="-160.044" r="141.116"/>
</g>
<g id="A" display="none">
	<g id="Calque_2" display="inline">
	</g>
	<g id="Calque_7" display="inline">
	</g>
</g>
<g id="B">
	<g opacity="0.8">
		<path fill="#FFFFFF" d="M-850.05-149.618c-1.727,0.306-3.455,0.626-5.182,0.949v13.288v69.326h-37.207
			c-0.382,1.638-0.641,3.448-1.159,5.172h43.548V-149.618z"/>
		<path fill="#FFFFFF" d="M-870.884-217.098v-20.9h-20.94v-20.793h-114.747v156.216h20.834v20.793h20.834v20.899h14.713
			c0.507-1.85,0.608-3.364,0.628-5.172h-10.158v-145.872h104.488v13.52c1.757-0.823,3.499-1.677,5.182-2.646v-16.044H-870.884z
			 M-985.736-107.748h-15.652v-145.872h104.382v15.622h-88.73V-107.748z M-876.066-217.098h-88.836v130.144h-15.652v-145.871
			h104.488V-217.098z"/>
	</g>
	<g>
		<g>
			<path fill="#C89108" d="M-926.893-146.042l-26.738-27.542v22.034h-37.434c-8.865,0-16.429-3.226-22.691-9.677
				c-6.264-6.452-9.395-14.243-9.395-23.374c0-9.132,3.131-16.923,9.395-23.375c1.652-1.702,3.397-3.172,5.23-4.425
				c-2.086-2.985-4.217-5.938-6.401-8.848c-2.228,1.581-4.356,3.408-6.381,5.495c-8.359,8.611-12.538,18.995-12.538,31.153
				s4.167,22.544,12.502,31.153c8.334,8.611,18.428,12.915,30.279,12.915h37.434v22.035L-926.893-146.042z"/>
		</g>
	</g>
	<g>
		<path fill="#FFFFFF" d="M-859.932-162.35l29.21-3.105c0.089-2.261-0.343-4.928-1.292-8.002l41.592-24.302l-1.738,12.025
			l-35.475,20.682c-1.582,0.933-2.683,1.466-3.303,1.6c-0.619,0.133-1.729,0.287-3.327,0.462l-28.73,3.054
			c-1.95,0.197-3.392,0.032-4.324-0.5c-1.838-1.049-2.11-2.705-0.82-4.966c0.194-0.34,0.497-0.804,0.908-1.394l16.858-23.773
			c0.867-1.191,1.52-2.039,1.953-2.539c0.437-0.501,1.475-1.24,3.114-2.214l35.45-20.753l11.295,4.424l-41.488,24.222
			c-1.963-1.947-4.115-3.625-6.457-5.037l-17.044,23.949C-861.123-167.059-859.917-165.002-859.932-162.35z M-832.98-175.977
			c-1.65-3.516-3.446-6.611-5.387-9.286l41.746-24.341l5.399,9.224L-832.98-175.977z"/>
	</g>
	<g>
		<path fill="#FFFFFF" d="M-922.117-108.453l-12.265,26.691c1.897,1.231,4.41,2.225,7.538,2.98l-0.378,48.17l-9.447-7.641
			l0.364-41.063c0.008-1.836,0.112-3.055,0.313-3.656c0.203-0.602,0.637-1.633,1.304-3.096l12.064-26.253
			c0.828-1.777,1.707-2.931,2.642-3.461c1.841-1.043,3.403-0.431,4.687,1.834c0.193,0.341,0.438,0.839,0.733,1.493l11.812,26.644
			c0.582,1.354,0.976,2.348,1.184,2.977c0.208,0.632,0.312,1.9,0.311,3.809l-0.289,41.077l-9.577,7.444l0.396-48.038
			c2.676-0.692,5.219-1.684,7.63-2.977l-11.869-26.891C-917.46-107.069-919.845-107.084-922.117-108.453z M-924.185-78.324
			c3.865,0.379,7.443,0.418,10.734,0.117l-0.425,48.323l-10.688-0.075L-924.185-78.324z"/>
	</g>
</g>
<g id="C" display="none">
</g>
</svg>
