<?xml version="1.0" encoding="utf-8"?>
<!-- Generator: Adobe Illustrator 16.0.0, SVG Export Plug-In . SVG Version: 6.00 Build 0)  -->
<!DOCTYPE svg PUBLIC "-//W3C//DTD SVG 1.1//EN" "http://www.w3.org/Graphics/SVG/1.1/DTD/svg11.dtd">
<svg version="1.1" xmlns="http://www.w3.org/2000/svg" xmlns:xlink="http://www.w3.org/1999/xlink" x="0px" y="0px"
	 width="282.232px" height="282.232px" viewBox="-151.543 -1509.46 282.232 282.232"
	 enable-background="new -151.543 -1509.46 282.232 282.232" xml:space="preserve">
<g id="_x2D_--" display="none">
</g>
<g id="fond">
	<circle fill="#00326E" cx="-10.428" cy="-1368.344" r="141.116"/>
</g>
<g id="A" display="none">
	<g display="inline">
		<path fill="#FFFFFF" d="M16.931-1411.111c0-9.738-1.845-16.721-5.532-20.947c-3.689-4.225-9.759-6.338-18.208-6.338
			c-16.83,0-29.686,12.068-38.564,36.201l-1.719,4.834c-10.457,28.289-25.711,42.432-45.762,42.432
			c-8.021,0-15.56-3.097-22.612-9.292c-7.055-6.193-10.581-12.8-10.581-19.819c0-3.58,1.682-5.371,5.049-5.371
			c2.219,0,4.475,2.83,6.768,8.486c4.297,10.242,11.457,15.361,21.484,15.361c7.662,0,13.911-2.452,18.745-7.358
			c4.834-4.904,10.294-14.304,16.382-28.198l3.975-8.809c11.672-26.066,27.428-39.102,47.266-39.102
			c22.559,0,33.838,12.641,33.838,37.92h10.957c7.52,0,12.335,1.021,14.448,3.062c2.111,2.041,3.169,6.679,3.169,13.911v81.748
			c0,11.316-3.993,20.966-11.978,28.95c-7.986,7.986-17.636,11.978-28.95,11.978c-11.244,0-20.858-3.991-28.843-11.978
			c-7.986-7.984-11.978-17.634-11.978-28.95v-81.748c0-6.945,1.128-11.511,3.384-13.696c2.256-2.184,6.999-3.276,14.233-3.276
			H16.931z M19.617-1405.848H-8.388c-5.17,0-8.474,0.683-9.91,2.049s-2.153,4.457-2.153,9.273v17.037h40.068V-1405.848z
			 M-20.452-1372.225v59.834c0,9.813,3.473,18.208,10.42,25.19c6.945,6.982,15.324,10.474,25.137,10.474
			c9.883,0,18.297-3.473,25.244-10.42c6.945-6.945,10.42-15.361,10.42-25.244v-59.834H-20.452z M24.88-1405.848v28.359h25.889
			v-17.037c0-5.032-0.682-8.176-2.041-9.435c-1.361-1.259-4.691-1.888-9.99-1.888H24.88z"/>
	</g>
	<g display="inline">
		<path fill="#FFFFFF" d="M-283.904-1349.636l24.238-35.669l99.485-72.68c11.146,3.598,17.095,11.63,17.846,24.099l-99.77,72.673
			L-283.904-1349.636z M-270.515-1363.202l3.961,5.212l22.296-6.117c3.288-2.787,4.945-4.869,4.973-6.247
			c0.011-0.57-0.135-0.989-0.437-1.257c-0.306-0.267-0.789-0.408-1.454-0.421c-1.379-0.027-3.771,0.757-7.178,2.353
			c2.905-2.651,4.375-4.88,4.411-6.686c0.018-0.902-0.217-1.584-0.708-2.046c-0.489-0.462-1.258-0.703-2.303-0.724
			c-1.094-0.021-3.342,0.742-6.749,2.29c3.045-2.506,4.587-4.732,4.626-6.682c0.01-0.522-0.125-0.917-0.405-1.185
			c-0.28-0.266-0.729-0.406-1.347-0.419c-2.139-0.042-4.437,0.839-6.898,2.645L-270.515-1363.202z M-250.925-1387.413
			c0.812-0.174,1.479-0.256,2.002-0.246c1.899,0.038,2.833,0.96,2.797,2.766l-0.085,0.711l59.985-44.086
			c-1.545-1.219-3.071-2.176-4.578-2.872L-250.925-1387.413z M-244.199-1381.433c2.174,0.566,3.24,1.989,3.195,4.271l60.275-44.295
			c-0.682-1.582-1.652-3.004-2.911-4.265L-244.199-1381.433z M-238.993-1374.342c0.902,0.065,1.563,0.305,1.983,0.717
			c0.419,0.412,0.622,0.999,0.607,1.759c-0.013,0.666-0.342,1.634-0.985,2.903l59.912-43.944c-0.53-2.054-1.113-3.849-1.748-5.383
			L-238.993-1374.342z M-177.997-1440.583c7.099,3.943,11.446,10.066,13.04,18.369l18.594-13.535
			c-1.49-8.774-5.886-14.828-13.188-18.158L-177.997-1440.583z"/>
	</g>
	<g id="Calque_2" display="inline">
	</g>
	<g id="Calque_7" display="inline">
	</g>
</g>
<g id="B">
	<path opacity="0.85" fill="#FFFFFF" d="M87.668-1306.489c0,6.148-5.336,11.134-11.914,11.134H-106.43
		c-6.58,0-11.914-4.985-11.914-11.134v-106.238c0-6.15,5.334-11.135,11.914-11.135H75.754c6.578,0,11.914,4.984,11.914,11.135
		V-1306.489z"/>
	<g>
		<path fill="#00326E" d="M-106.688-1380.044v-6.387h63.5v6.387H-106.688z"/>
		<path fill="#00326E" d="M-106.688-1356.044v-6.387h63.5v6.387H-106.688z"/>
		<path fill="#00326E" d="M-106.688-1332.044v-6.387h63.5v6.387H-106.688z"/>
	</g>
	<g>
		<g>
			<circle fill="#C7900E" cx="21.852" cy="-1407.044" r="2.253"/>
			<polygon fill="#C7900E" points="21.852,-1337.637 -34.925,-1313.995 -34.925,-1313.995 78.63,-1313.995 			"/>
			<path fill="#C7900E" d="M34.612-1359.47v-9.963l-3.533-3.435v-12.182l1.738-1.725c-0.239-0.262-6.047-6.703-8.014-15.484h-5.969
				c-1.884,8.418-7.305,14.69-7.958,15.424l-0.015,0.028l1.766,1.757v12.182l-3.535,3.435v9.963
				c-14.885,4.951-25.928,18.316-27.473,34.46l38.769-16.144l1.463-0.61l1.464,0.61l38.769,16.144
				C60.541-1341.154,49.497-1354.519,34.612-1359.47z M25.637-1381.056c0-0.657,0.229-1.57,1.399-1.57
				c1.169,0,1.398,0.93,1.398,1.57v10.032c-0.923-0.149-1.855-0.269-2.797-0.354V-1381.056z M19.966-1381.703
				c0-0.917,0.319-2.192,1.954-2.192s1.952,1.297,1.952,2.192v10.206c-0.647-0.031-1.297-0.05-1.952-0.05
				c-0.655,0-1.307,0.018-1.954,0.049V-1381.703z M15.308-1381.056c0-0.657,0.229-1.57,1.4-1.57c1.168,0,1.396,0.93,1.396,1.57
				v9.689c-0.942,0.087-1.875,0.206-2.797,0.357V-1381.056z"/>
		</g>
	</g>
</g>
<g id="C" display="none">
</g>
</svg>
