<?xml version="1.0" encoding="utf-8"?>
<!-- Generator: Adobe Illustrator 16.0.0, SVG Export Plug-In . SVG Version: 6.00 Build 0)  -->
<!DOCTYPE svg PUBLIC "-//W3C//DTD SVG 1.1//EN" "http://www.w3.org/Graphics/SVG/1.1/DTD/svg11.dtd">
<svg version="1.1" xmlns="http://www.w3.org/2000/svg" xmlns:xlink="http://www.w3.org/1999/xlink" x="0px" y="0px"
	 width="282.232px" height="282.232px" viewBox="1056.757 -301.162 282.232 282.232"
	 enable-background="new 1056.757 -301.162 282.232 282.232" xml:space="preserve">
<g id="_x2D_--" display="none">
	<rect x="116.272" y="-356.429" display="inline" fill="#FFFFFF" width="4471.75" height="5688"/>
</g>
<g id="fond">
	<circle fill="#00326E" cx="1197.872" cy="-160.045" r="141.116"/>
</g>
<g id="A" display="none">
	<g id="Calque_2" display="inline">
	</g>
	<g id="Calque_7" display="inline">
	</g>
	<g display="inline">
		<defs>
			<circle id="SVGID_5_" cx="895.916" cy="-161.374" r="141.116"/>
		</defs>
		<clipPath id="SVGID_1_">
			<use xlink:href="#SVGID_5_"  overflow="visible"/>
		</clipPath>
		<g clip-path="url(#SVGID_1_)">
			<path opacity="0.8" fill="#FFFFFF" d="M1066.269-104.941c-3.175,0-9.498-2.688-9.498-2.688c-3.859-1.636-7.017,0.359-7.017,4.439
				v29.069l0,0v7.419h-7.655c0,0-0.007,0-0.009,0h-30.039c-4.197,0.003-6.26,3.044-4.589,6.764c0.009,0.025,0.015,0.043,0.023,0.064
				c0.214,0.474,2.761,6.217,2.761,9.161l0,0l0,0l0,0c0,2.033-0.585,3.938-1.599,5.558c-0.095,0.146-0.191,0.289-0.292,0.431
				c-1.99,2.854-5.355,4.727-9.176,4.727c-3.823,0-7.195-1.873-9.18-4.727c-0.1-0.142-0.197-0.284-0.286-0.431
				c-1.02-1.62-1.604-3.524-1.604-5.558l0,0l0,0l0,0c0-2.944,2.546-8.688,2.758-9.161c0.008-0.021,0.018-0.039,0.025-0.064
				c1.674-3.72-0.387-6.761-4.59-6.764h-30.037c-0.006,0-0.009,0-0.009,0h-7.655v-5.875c0.109-0.498,0.172-1.014,0.172-1.544
				v-29.069c0-4.08,3.158-6.075,7.014-4.439c0,0,6.331,2.688,9.506,2.688c6.111,0,11.065-4.795,11.065-10.715
				c0-5.918-4.954-10.712-11.065-10.712c-3.175,0-9.506,2.684-9.506,2.684c-3.855,1.641-7.014-0.358-7.014-4.437l0.244-29.049
				c0-0.529,0.107-1.401-0.002-1.898l-0.264-5.543h7.514h30.041c4.21,0.006,6.267,3.06,4.574,6.792c0,0-2.771,6.124-2.771,9.196
				c0,5.918,4.955,10.716,11.07,10.716c6.11,0,11.066-4.798,11.066-10.716c0-3.072-2.775-9.196-2.775-9.196
				c-1.689-3.732,0.368-6.786,4.576-6.792h30.043h7.664v7.416v29.074c0,4.078,3.157,6.077,7.017,4.437c0,0,6.323-2.684,9.498-2.684
				c6.118,0,11.068,4.794,11.068,10.712C1077.337-109.736,1072.387-104.941,1066.269-104.941z"/>
		</g>
	</g>
</g>
<g id="B">
	<g opacity="0.9">
		<path fill="#FFFFFF" d="M1108.046-73.828l10.421-9.268c8.748-6.817,15.223-8.779,19.424-5.889
			c4.201,2.893,8.691,2.695,13.47-0.592c2.831-2.813,3.685-6.036,2.565-9.669c-1.12-3.631-2.726-7.518-4.814-11.658
			c-2.09-4.14-3.211-8.438-3.361-12.896c-0.15-4.458,2.18-8.937,6.99-13.438c4.328-3.627,8.945-5.325,13.852-5.097
			c4.906,0.229,10.332,1.085,16.283,2.57c5.948,1.486,12.564,2.138,19.847,1.956c7.281-0.18,15.421-2.457,24.418-6.831
			c-5.466,8.343-8.733,16.099-9.8,23.268c-1.067,7.17-1.22,13.787-0.457,19.847c0.762,6.062,0.997,11.573,0.707,16.534
			c-0.291,4.962-2.471,9.4-6.542,13.316c-5.067,4.212-9.816,5.972-14.244,5.281c-4.429-0.69-8.576-2.315-12.442-4.875
			c-3.869-2.558-7.541-4.605-11.018-6.143c-3.478-1.535-6.741-1.021-9.793,1.544c-3.822,4.362-4.543,8.799-2.16,13.308
			c2.381,4.511-0.324,10.712-8.116,18.604l-10.421,9.268c-8.072,7.328-15.103,10.915-21.09,10.759
			c-5.988-0.154-12.102-3.864-18.34-11.128c-6.303-6.836-9.162-13.216-8.58-19.141C1095.426-60.122,1099.826-66.665,1108.046-73.828
			z M1172.99-96.482c2.73,2.904,5.732,4.511,9.008,4.819c3.273,0.31,6.108-0.562,8.502-2.618c2.412-2.367,3.596-5.012,3.551-7.935
			c-0.043-2.923-0.781-5.229-2.211-6.921c6.451-5.737,12.201-11.201,17.247-16.393c5.048-5.192,8.687-9.447,10.919-12.767
			c-3.593,1.79-8.252,4.896-13.98,9.324c-5.727,4.426-11.816,9.508-18.268,15.245c-1.512-1.616-3.717-2.618-6.615-3.003
			c-2.896-0.386-5.662,0.482-8.295,2.6c-2.32,2.138-3.518,4.851-3.592,8.138C1169.18-102.702,1170.425-99.533,1172.99-96.482z"/>
	</g>
	<g opacity="0.95">
		<path fill="#FFFFFF" d="M1127.896-232.42c8.944,0.079,15.723,3.164,20.332,9.258c4.374,5.859,6.542,12.656,6.504,20.391
			c0,0.234-0.021,0.577-0.059,1.025c-0.039,0.45-0.059,0.791-0.059,1.025h-44.238c0.078,5.313,1.796,9.747,5.156,13.301
			c3.477,3.711,7.948,5.586,13.418,5.625c4.102,0.04,7.578-1.113,10.43-3.457c2.733-2.227,4.98-4.96,6.738-8.203l8.027,4.688
			c-2.461,4.649-5.859,8.379-10.195,11.191c-4.57,2.93-9.766,4.395-15.586,4.395c-8.165,0-14.824-2.666-19.98-7.998
			s-7.734-12.334-7.734-21.006c0-8.555,2.402-15.703,7.207-21.445C1112.778-229.529,1119.458-232.459,1127.896-232.42z
			 M1110.845-208.807h33.809c-0.703-4.179-2.559-7.676-5.566-10.488c-3.126-2.89-6.777-4.355-10.957-4.395
			c-4.219-0.039-7.969,1.377-11.25,4.248S1111.586-213.026,1110.845-208.807z"/>
		<path fill="#FFFFFF" d="M1198.911-232.42c8.944,0.079,15.723,3.164,20.332,9.258c4.374,5.859,6.542,12.656,6.504,20.391
			c0,0.234-0.021,0.577-0.059,1.025c-0.039,0.45-0.059,0.791-0.059,1.025h-44.238c0.078,5.313,1.796,9.747,5.156,13.301
			c3.477,3.711,7.948,5.586,13.418,5.625c4.102,0.04,7.578-1.113,10.43-3.457c2.733-2.227,4.98-4.96,6.738-8.203l8.027,4.688
			c-2.461,4.649-5.859,8.379-10.195,11.191c-4.57,2.93-9.766,4.395-15.586,4.395c-8.165,0-14.824-2.666-19.98-7.998
			s-7.734-12.334-7.734-21.006c0-8.555,2.402-15.703,7.207-21.445C1183.794-229.529,1190.474-232.459,1198.911-232.42z
			 M1181.86-208.807h33.809c-0.703-4.179-2.559-7.676-5.566-10.488c-3.126-2.89-6.777-4.355-10.957-4.395
			c-4.219-0.039-7.969,1.377-11.25,4.248S1182.602-213.026,1181.86-208.807z"/>
		<path fill="#FFFFFF" d="M1269.927-232.42c8.944,0.079,15.723,3.164,20.332,9.258c4.374,5.859,6.542,12.656,6.504,20.391
			c0,0.234-0.021,0.577-0.059,1.025c-0.039,0.45-0.059,0.791-0.059,1.025h-44.238c0.078,5.313,1.796,9.747,5.156,13.301
			c3.477,3.711,7.948,5.586,13.418,5.625c4.102,0.04,7.578-1.113,10.43-3.457c2.733-2.227,4.98-4.96,6.738-8.203l8.027,4.688
			c-2.461,4.649-5.859,8.379-10.195,11.191c-4.57,2.93-9.766,4.395-15.586,4.395c-8.165,0-14.824-2.666-19.98-7.998
			s-7.734-12.334-7.734-21.006c0-8.555,2.402-15.703,7.207-21.445C1254.81-229.529,1261.489-232.459,1269.927-232.42z
			 M1252.876-208.807h33.809c-0.703-4.179-2.559-7.676-5.566-10.488c-3.126-2.89-6.777-4.355-10.957-4.395
			c-4.219-0.039-7.969,1.377-11.25,4.248S1253.617-213.026,1252.876-208.807z"/>
	</g>
</g>
<g id="C" display="none">
</g>
</svg>
