<?xml version="1.0" encoding="utf-8"?>
<!-- Generator: Adobe Illustrator 16.0.0, SVG Export Plug-In . SVG Version: 6.00 Build 0)  -->
<!DOCTYPE svg PUBLIC "-//W3C//DTD SVG 1.1//EN" "http://www.w3.org/Graphics/SVG/1.1/DTD/svg11.dtd">
<svg version="1.1" xmlns="http://www.w3.org/2000/svg" xmlns:xlink="http://www.w3.org/1999/xlink" x="0px" y="0px"
	 width="282.232px" height="282.232px" viewBox="150.531 -603.236 282.232 282.232"
	 enable-background="new 150.531 -603.236 282.232 282.232" xml:space="preserve">
<g id="_x2D_--" display="none">
	<rect x="116.272" y="-356.429" display="inline" fill="#FFFFFF" width="4471.75" height="5688"/>
</g>
<g id="fond">
	<circle fill="#00326E" cx="291.646" cy="-462.119" r="141.116"/>
</g>
<g id="A" display="none">
	
		<circle display="inline" opacity="0.6" fill="none" stroke="#FFFFFF" stroke-width="6" stroke-miterlimit="10" cx="288.86" cy="-456.781" r="90"/>
	<path display="inline" fill="#00326E" stroke="#FFFFFF" stroke-width="5" stroke-miterlimit="10" d="M256.359-407.345
		c0,2.368-2.124,4.287-4.743,4.287h-72.524c-2.62,0-4.744-1.919-4.744-4.287v-40.909c0-2.367,2.124-4.287,4.744-4.287h72.524
		c2.619,0,4.743,1.92,4.743,4.287V-407.345z"/>
	<path display="inline" opacity="0.8" fill="none" stroke="#FFFFFF" stroke-width="11" stroke-miterlimit="10" d="M234.86-394.781"
		/>
	<path display="inline" opacity="0.8" fill="none" stroke="#FFFFFF" stroke-width="11" stroke-miterlimit="10" d="M178.86-338.781"
		/>
	<path display="inline" fill="#00326E" stroke="#FFFFFF" stroke-width="5" stroke-miterlimit="10" d="M397.359-407.345
		c0,2.368-2.124,4.287-4.743,4.287h-72.524c-2.62,0-4.744-1.919-4.744-4.287v-40.909c0-2.367,2.124-4.287,4.744-4.287h72.524
		c2.619,0,4.743,1.92,4.743,4.287V-407.345z"/>
	
		<line display="inline" opacity="0.8" fill="none" stroke="#FFFFFF" stroke-width="11" stroke-miterlimit="10" x1="336.848" y1="-394.781" x2="374.86" y2="-394.781"/>
	<path display="inline" fill="#00326E" stroke="#FFFFFF" stroke-width="5" stroke-miterlimit="10" d="M329.359-519.345
		c0,2.368-2.124,4.287-4.743,4.287h-72.524c-2.62,0-4.744-1.919-4.744-4.287v-40.909c0-2.367,2.124-4.287,4.744-4.287h72.524
		c2.619,0,4.743,1.92,4.743,4.287V-519.345z"/>
	
		<line display="inline" opacity="0.8" fill="none" stroke="#FFFFFF" stroke-width="11" stroke-miterlimit="10" x1="273.848" y1="-506.781" x2="305.86" y2="-506.781"/>
	
		<line display="inline" opacity="0.8" fill="none" stroke="#FFFFFF" stroke-width="11" stroke-miterlimit="10" x1="201.14" y1="-392.685" x2="232.152" y2="-392.685"/>
	<g id="Calque_2" display="inline">
	</g>
	<g id="Calque_7" display="inline">
	</g>
</g>
<g id="B">
	<g opacity="0.7">
		<path fill="#FFFFFF" d="M375.012-412.275c-21.919,16.42-48.79,24.629-80.615,24.629c-31.484,0-58.271-8.209-80.361-24.629
			c-22.09-16.417-33.135-36.393-33.135-59.922c0-23.359,11.045-43.291,33.135-59.795s48.877-24.756,80.361-24.756
			c31.825,0,58.696,8.252,80.615,24.756c21.923,16.504,32.881,36.436,32.881,59.795
			C407.893-448.668,396.935-428.692,375.012-412.275z M263.42-393.994l-53.066,32.246l17.012-42.91L263.42-393.994z"/>
	</g>
	<g>
		<path fill="#00326E" d="M220.462-496.418c3.164-0.039,6.152,0.938,8.965,2.93c2.616,1.914,4.629,4.375,6.035,7.383l-7.91,4.219
			c-1.954-3.906-4.512-5.84-7.676-5.801c-1.914,0.039-3.574,0.684-4.98,1.934s-2.109,2.695-2.109,4.336
			c0.038,2.422,1.66,4.57,4.863,6.445c1.172,0.703,3.847,1.836,8.027,3.398c3.398,1.289,6.425,3.125,9.082,5.508
			c2.733,2.5,4.121,6.094,4.16,10.781c0.038,4.844-1.699,9.043-5.215,12.598c-3.595,3.672-8.203,5.508-13.828,5.508
			c-5.43,0-9.902-1.543-13.418-4.629c-3.243-2.813-5.371-5.938-6.387-9.375l8.379-3.574c0.858,1.875,2.07,3.789,3.633,5.742
			c1.679,2.109,4.315,3.184,7.91,3.223c3.047,0,5.361-0.928,6.943-2.783s2.334-3.838,2.256-5.947
			c-0.079-2.852-1.582-5.293-4.512-7.324c-1.603-1.055-4.356-2.324-8.262-3.809c-3.32-1.25-6.231-2.969-8.73-5.156
			c-2.617-2.266-3.926-5.527-3.926-9.785c0.038-4.453,1.631-8.184,4.775-11.191C211.682-494.797,215.657-496.34,220.462-496.418z"/>
		<path fill="#00326E" d="M256.181-438.645v-56.25h9.375v6.152h0.293c3.206-5,7.761-7.559,13.665-7.676
			c6.842-0.117,12.003,2.969,15.482,9.258h0.117c1.329-2.422,3.422-4.551,6.276-6.387c3.01-1.953,6.606-2.91,10.79-2.871
			c6.529,0.078,11.183,2.363,13.958,6.855c2.542,4.219,3.813,9.414,3.813,15.586v35.332h-9.492v-33.809
			c0-10.117-3.447-15.195-10.339-15.234c-8.264-0.039-12.396,6.016-12.396,18.164v30.879h-9.375v-32.695
			c0-11.016-3.427-16.465-10.28-16.348c-8.343,0.117-12.513,6.563-12.513,19.336v29.707H256.181z"/>
		<path fill="#00326E" d="M364.614-496.418c3.164-0.039,6.152,0.938,8.965,2.93c2.616,1.914,4.629,4.375,6.035,7.383l-7.91,4.219
			c-1.954-3.906-4.512-5.84-7.676-5.801c-1.914,0.039-3.574,0.684-4.98,1.934s-2.109,2.695-2.109,4.336
			c0.038,2.422,1.66,4.57,4.863,6.445c1.172,0.703,3.847,1.836,8.027,3.398c3.398,1.289,6.425,3.125,9.082,5.508
			c2.733,2.5,4.121,6.094,4.16,10.781c0.038,4.844-1.699,9.043-5.215,12.598c-3.595,3.672-8.203,5.508-13.828,5.508
			c-5.43,0-9.902-1.543-13.418-4.629c-3.243-2.813-5.371-5.938-6.387-9.375l8.379-3.574c0.858,1.875,2.07,3.789,3.633,5.742
			c1.679,2.109,4.315,3.184,7.91,3.223c3.047,0,5.361-0.928,6.943-2.783s2.334-3.838,2.256-5.947
			c-0.079-2.852-1.582-5.293-4.512-7.324c-1.603-1.055-4.356-2.324-8.262-3.809c-3.32-1.25-6.231-2.969-8.73-5.156
			c-2.617-2.266-3.926-5.527-3.926-9.785c0.038-4.453,1.631-8.184,4.775-11.191C355.834-494.797,359.81-496.34,364.614-496.418z"/>
	</g>
</g>
<g id="C" display="none">
</g>
</svg>
