<?xml version="1.0" encoding="utf-8"?>
<!-- Generator: Adobe Illustrator 16.0.0, SVG Export Plug-In . SVG Version: 6.00 Build 0)  -->
<!DOCTYPE svg PUBLIC "-//W3C//DTD SVG 1.1//EN" "http://www.w3.org/Graphics/SVG/1.1/DTD/svg11.dtd">
<svg version="1.1" xmlns="http://www.w3.org/2000/svg" xmlns:xlink="http://www.w3.org/1999/xlink" x="0px" y="0px"
	 width="283.465px" height="283.465px" viewBox="-452.386 -1812.768 283.465 283.465"
	 enable-background="new -452.386 -1812.768 283.465 283.465" xml:space="preserve">
<g id="_x2D_--" display="none">
</g>
<g id="fond">
	<circle fill="#00326E" cx="-310.038" cy="-1670.417" r="141.116"/>
</g>
<g id="A" display="none">
	<g display="inline">
		<path fill="#FFFFFF" d="M-313.106-1747.959c8.319-2.402,15.469-3.604,21.445-3.604c39.96,0,59.941,14.59,59.941,43.77
			c0,6.739,1.758,13.506,5.273,20.303c2.109,3.458,4.248,6.915,6.416,10.371c2.637,4.395,3.955,8.086,3.955,11.074
			c0,5.919-4.425,8.789-13.271,8.613v4.043c0.058,7.031-1.846,12.305-5.713,15.82c-1.289,1.23-4.893,3.252-10.811,6.064
			c-3.867,1.876-5.801,4.278-5.801,7.207c0,5.039,2.461,10.371,7.383,15.996c1.464,1.699,5.889,5.889,13.271,12.568l-7.559,7.559
			l-16.172-16.172c-2.109,4.688-5.244,8.643-9.404,11.865c-4.513,3.516-9.171,5.273-13.975,5.273
			c-6.622,0-11.924-1.289-15.908-3.867c-3.691-2.344-7.207-6.475-10.547-12.393c-7.559,10.84-18.428,16.26-32.607,16.26
			c-12.012,0-24.141-5.771-36.387-17.314c-2.228,4.628-6.943,10.4-14.15,17.314l-7.559-7.559
			c10.898-10.195,16.348-22.091,16.348-35.684c-9.727-3.808-17.666-10.576-23.818-20.303c-5.977-9.492-8.965-19.569-8.965-30.234
			c0-19.863,6.724-36.444,20.171-49.746c13.447-13.3,30.132-19.951,50.054-19.951
			C-329.718-1750.684-320.256-1749.774-313.106-1747.959z M-289.112-1664.639c0.469,0,1.494,0.059,3.076,0.176
			c1.288,0.059,2.343,0.088,3.164,0.088c5.098,0,7.646-1.055,7.646-3.164c0-1.64-1.553-4.716-4.658-9.229
			c-2.109-3.105-4.219-6.21-6.328-9.316c-0.879-1.464-2.168-6.621-3.867-15.469c-1.524-7.91-2.959-12.158-4.307-12.744
			c-0.527-0.233-2.667-0.908-6.416-2.021c-2.344,2.755-5.831,4.131-10.459,4.131c-1.876,0-4.645-0.176-8.306-0.527
			c-3.662-0.352-6.402-0.527-8.218-0.527c-1.113,9.435-6.183,16.466-15.205,21.094c0.058,4.043-0.47,7.646-1.582,10.811
			c-1.524,4.219-3.779,6.534-6.768,6.943c-3.81,0.646-6.504,1.876-8.086,3.691c-2.109,2.52-3.164,5.333-3.164,8.438
			c0,8.204,4.746,12.276,14.238,12.217c0,5.333-1.964,9.932-5.889,13.799c-3.926,3.867-8.556,5.801-13.887,5.801
			c0,6.095-0.674,11.132-2.021,15.117c11.483,11.543,22.47,17.314,32.959,17.314c11.659,0,20.83-4.864,27.51-14.59
			c-1.758-3.458-2.637-7.062-2.637-10.811c0-3.281,1.288-6.005,3.867-8.174c1.523-1.171,4.364-2.637,8.525-4.395
			c3.984-1.699,6.68-3.222,8.086-4.57c0.996-0.879,1.875-2.87,2.637-5.977c0.645-2.694,0.967-4.951,0.967-6.768
			c0-1.288-0.146-3.193-0.439-5.713C-288.967-1661.532-289.112-1663.408-289.112-1664.639z M-303.878-1688.545
			c-2.344,0-4.453-0.497-6.328-1.494c-2.285-1.171-3.428-2.841-3.428-5.01c0-1.991,1.172-3.632,3.516-4.922
			c1.934-1.055,4.013-1.582,6.24-1.582c2.285,0,4.364,0.499,6.24,1.494c2.285,1.23,3.428,2.9,3.428,5.01
			c0,1.876-1.173,3.487-3.516,4.834C-299.777-1689.101-301.827-1688.545-303.878-1688.545z M-259.757-1613.486
			c-1.816-3.164-2.725-6.768-2.725-10.811c0-4.16,1.699-7.559,5.098-10.195c0.352-0.292,3.661-2.138,9.932-5.537
			c3.867-2.109,6.152-4.482,6.855-7.119c0.527-1.934,0.791-4.423,0.791-7.471c0-1.23-0.059-3.061-0.176-5.493
			c-0.118-2.431-0.176-4.232-0.176-5.405c0.527,0,1.552,0.059,3.076,0.176c1.348,0.059,2.402,0.088,3.164,0.088
			c5.098,0,7.646-1.055,7.646-3.164c0-1.875-1.261-5.155-3.779-9.844c-2.168-4.101-4.102-7.177-5.801-9.229
			c-2.579-3.164-4.307-8.818-5.186-16.963c-0.762-7.148-2.08-11.103-3.955-11.865l-8.35-3.252c-1.465,2.052-2.9,3.076-4.307,3.076
			c-0.821,0-2.036-0.205-3.647-0.615c-1.612-0.409-2.856-0.615-3.735-0.615c-1.758,0-6.007,0.703-12.744,2.109v1.055
			c0.058,1.349-0.264,2.667-0.967,3.955c-0.703,1.29-1.055,2.228-1.055,2.813c0,5.567,0.615,9.932,1.846,13.096
			c0.82,2.052,2.461,4.601,4.922,7.646c2.93,3.634,5.243,7.002,6.943,10.107c2.754,5.04,4.131,8.672,4.131,10.898
			c0,3.34-2.344,5.86-7.031,7.559c-3.398,1.173-7.237,1.758-11.514,1.758c0,1.349,0.058,3.428,0.176,6.24
			c0.117,2.813,0.176,4.952,0.176,6.416c0,1.29-0.234,2.549-0.703,3.779c-1.816,4.629-4.513,7.646-8.086,9.053
			c-2.695,0.527-5.42,1.055-8.174,1.582c-2.461,0.47-3.691,2.081-3.691,4.834c0,3.81,0.293,6.386,0.879,7.734
			c1.934,4.219,4.716,8.262,8.35,12.129c4.452,4.628,8.555,6.943,12.305,6.943C-271.007-1598.018-264.503-1603.174-259.757-1613.486
			z M-254.044-1689.512c-2.344,0-4.453-0.468-6.328-1.406c-2.228-1.23-3.34-2.9-3.34-5.01c0-2.05,1.143-3.691,3.428-4.922
			c1.934-1.055,4.013-1.582,6.24-1.582c2.285,0,4.364,0.499,6.24,1.494c2.343,1.23,3.516,2.9,3.516,5.01
			c0,1.993-1.173,3.604-3.516,4.834C-249.737-1690.039-251.817-1689.512-254.044-1689.512z"/>
	</g>
	<g id="Calque_2" display="inline">
	</g>
	<g id="Calque_7" display="inline">
	</g>
</g>
<g id="B">
	<g opacity="0.9">
		<path fill="#FFFFFF" d="M-308.909-1708.221h-62.891v101.953h108.398v-57.227l17.578-17.383v83.398c0,2.476-0.879,4.56-2.637,6.25
			s-3.809,2.539-6.152,2.539h-125.977c-2.344,0-4.395-0.849-6.152-2.539s-2.637-3.774-2.637-6.25v-119.531
			c0-2.472,0.879-4.556,2.637-6.25c1.758-1.69,3.809-2.539,6.152-2.539h89.258L-308.909-1708.221z M-219.846-1753.924l-5.078,71.68
			l-16.406-16.797l-52.93,52.93l-31.836-31.836l52.93-52.93l-15.82-15.234L-219.846-1753.924z"/>
	</g>
</g>
<g id="C" display="none">
	<g display="inline">
		<path fill="#FFFFFF" d="M-263.768-1686.519v5.5h-55v-5.5H-263.768z"/>
		<path fill="#FFFFFF" d="M-208.768-1686.519v5.5h-55v-5.5H-208.768z"/>
		<path fill="#FFFFFF" d="M-263.768-1642.519v5.5h-55v-5.5H-263.768z"/>
		<path fill="#FFFFFF" d="M-208.768-1642.519v5.5h-55v-5.5H-208.768z"/>
		<path fill="#FFFFFF" d="M-263.768-1598.519v5.5h-55v-5.5H-263.768z"/>
		<path fill="#FFFFFF" d="M-208.768-1598.519v5.5h-55v-5.5H-208.768z"/>
	</g>
	<g display="inline">
		<path fill="#FFFFFF" d="M-389.09-1754.868l-17.802,18.149l-4.542-4.466c-6.043-5.913-7.577-10.384-4.6-13.412l8.871-9.066
			c2.978-3.027,7.488-1.585,13.532,4.329L-389.09-1754.868z M-384.548-1750.402l36.265,35.482l-17.803,18.149l-36.264-35.482
			L-384.548-1750.402z M-338.495-1688.589l-20.935-5.821l14.416-14.7L-338.495-1688.589z"/>
	</g>
	<g display="inline" opacity="0.85">
		<path fill="#FFFFFF" d="M-389.09-1694.864l-17.802,18.149l-4.542-4.466c-6.043-5.913-7.577-10.384-4.6-13.412l8.871-9.066
			c2.978-3.027,7.488-1.585,13.532,4.329L-389.09-1694.864z M-384.548-1690.398l36.265,35.482l-17.803,18.149l-36.264-35.482
			L-384.548-1690.398z M-338.495-1628.585l-20.935-5.821l14.416-14.7L-338.495-1628.585z"/>
	</g>
	<g display="inline" opacity="0.7">
		<path fill="#FFFFFF" d="M-389.09-1634.86l-17.802,18.149l-4.542-4.466c-6.043-5.913-7.577-10.384-4.6-13.412l8.871-9.066
			c2.978-3.027,7.488-1.585,13.532,4.329L-389.09-1634.86z M-384.548-1630.395l36.265,35.482l-17.803,18.149l-36.264-35.482
			L-384.548-1630.395z M-338.495-1568.581l-20.935-5.821l14.416-14.7L-338.495-1568.581z"/>
	</g>
</g>
</svg>
