<?xml version="1.0" encoding="utf-8"?>
<!-- Generator: Adobe Illustrator 16.0.0, SVG Export Plug-In . SVG Version: 6.00 Build 0)  -->
<!DOCTYPE svg PUBLIC "-//W3C//DTD SVG 1.1//EN" "http://www.w3.org/Graphics/SVG/1.1/DTD/svg11.dtd">
<svg version="1.1" xmlns="http://www.w3.org/2000/svg" xmlns:xlink="http://www.w3.org/1999/xlink" x="0px" y="0px"
	 width="282.232px" height="282.232px" viewBox="1056.757 -905.311 282.232 282.232"
	 enable-background="new 1056.757 -905.311 282.232 282.232" xml:space="preserve">
<g id="_x2D_--" display="none">
</g>
<g id="fond">
	<circle fill="#00326E" cx="1197.872" cy="-764.194" r="141.116"/>
</g>
<g id="A" display="none">
	<g display="inline">
		<path fill="#FFFFFF" d="M1201.139-797.393v-11.064h110v11.064H1201.139z"/>
		<path fill="#FFFFFF" d="M1201.139-765.393v-11.064h110v11.064H1201.139z"/>
		<path fill="#FFFFFF" d="M1201.139-733.393v-11.064h110v11.064H1201.139z"/>
		<path fill="#FFFFFF" d="M1201.139-701.393v-11.064h110v11.064H1201.139z"/>
	</g>
	<g display="inline">
		<path fill="#FFFFFF" d="M1135.054-770.432c6.937,0,13.17-2.25,18.703-6.75c2.813,1.22,4.943,2.158,6.398,2.813
			c1.452,0.657,3.396,1.595,5.836,2.813c2.437,1.22,4.311,2.274,5.625,3.164c1.312,0.892,2.834,2.039,4.57,3.445
			c1.733,1.406,2.999,2.742,3.797,4.008c0.795,1.266,1.477,2.742,2.039,4.43s0.844,3.47,0.844,5.344v48.234h-95.625v-48.234
			c0.281-2.999,1.03-5.717,2.25-8.156c1.217-2.437,2.623-4.5,4.219-6.188c1.593-1.688,3.748-3.327,6.469-4.922
			c2.718-1.593,5.133-2.883,7.242-3.867s4.852-2.131,8.227-3.445C1121.272-772.868,1127.741-770.432,1135.054-770.432z
			 M1134.983-828.369c-6.891,0-12.775,2.439-17.648,7.313c-4.876,4.876-7.313,10.782-7.313,17.719
			c0,6.939,2.437,12.845,7.313,17.719c4.873,4.876,10.758,7.313,17.648,7.313s12.797-2.437,17.719-7.313
			c4.922-4.874,7.383-10.78,7.383-17.719c0-6.937-2.461-12.843-7.383-17.719C1147.78-825.93,1141.874-828.369,1134.983-828.369z"/>
	</g>
	<g id="Calque_2" display="inline">
	</g>
	<g id="Calque_7" display="inline">
	</g>
</g>
<g id="B">
	<g opacity="0.95">
		<path fill="#FFFFFF" d="M1186.585-841.215v74.065h-76.602v-76.602h73.987c2.584-1.794,4.908-3.313,6.975-4.555l1.488,2.691
			C1190.758-844.407,1188.809-842.94,1186.585-841.215z M1145.724-786.352l-2.275,1.501c-1.966,1.277-3.654,2.554-5.067,3.83
			c-0.276-1.242-0.966-3.243-2.069-6.004l-1.138-2.95c-2.586-6.383-4.768-10.843-6.543-13.38c-1.776-2.535-3.697-3.907-5.767-4.114
			c2.793-2.553,5.241-3.83,7.345-3.83c2.827,0,5.947,3.848,9.361,11.542l1.861,4.141c8.999-16.148,20.963-30.502,35.892-43.063
			h-62.268v66.405h66.354v-64.594c-8,7.315-15.197,15.501-21.593,24.56C1153.421-803.251,1148.724-794.598,1145.724-786.352z"/>
		<path fill="#FFFFFF" d="M1211.595-767.15v-76.602h76.602v76.602H1211.595z M1216.771-772.274h66.354v-66.405h-66.354V-772.274z"/>
		<path fill="#FFFFFF" d="M1109.983-671.15v-76.602h76.602v76.602H1109.983z M1115.159-676.274h66.354v-66.405h-66.354V-676.274z"/>
		<path fill="#FFFFFF" d="M1288.145-745.215v74.065h-76.602v-76.602h73.987c2.584-1.794,4.908-3.313,6.975-4.555l1.488,2.691
			C1292.317-748.407,1290.368-746.94,1288.145-745.215z M1247.283-690.352l-2.275,1.501c-1.966,1.277-3.654,2.554-5.067,3.83
			c-0.276-1.242-0.966-3.243-2.069-6.004l-1.138-2.95c-2.586-6.383-4.768-10.843-6.543-13.38c-1.776-2.535-3.697-3.907-5.767-4.114
			c2.793-2.553,5.241-3.83,7.345-3.83c2.827,0,5.947,3.848,9.361,11.542l1.861,4.141c8.999-16.148,20.963-30.502,35.892-43.063
			h-62.268v66.405h66.354v-64.594c-8,7.315-15.197,15.501-21.593,24.56C1254.98-707.251,1250.283-698.598,1247.283-690.352z"/>
	</g>
</g>
<g id="C" display="none">
	<linearGradient id="SVGID_1_" gradientUnits="userSpaceOnUse" x1="1200.2041" y1="-815.248" x2="1296.3502" y2="-834.4559">
		<stop  offset="0.0049" style="stop-color:#520101"/>
		<stop  offset="0.0219" style="stop-color:#570202"/>
		<stop  offset="0.0419" style="stop-color:#650504"/>
		<stop  offset="0.0634" style="stop-color:#7D0B07"/>
		<stop  offset="0.0859" style="stop-color:#9E120C"/>
		<stop  offset="0.109" style="stop-color:#C81B13"/>
		<stop  offset="0.1171" style="stop-color:#D81F15"/>
		<stop  offset="0.2878" style="stop-color:#AD524F"/>
		<stop  offset="0.3092" style="stop-color:#A84A47"/>
		<stop  offset="0.4377" style="stop-color:#901F19"/>
		<stop  offset="0.5024" style="stop-color:#860E08"/>
		<stop  offset="0.7805" style="stop-color:#D62117"/>
	</linearGradient>
	<path display="inline" fill="url(#SVGID_1_)" d="M1200.068-839.271c0,0,4.076-5.104,21.091-6.738
		c17.143-1.645,29.082,4.028,49.61,1.775c7.239-0.795,12.635-1.687,14.021-4.779l12.088,38.594c0,0-9.998,7.097-27.14,7.097
		c-17.141,0-33.63-6.597-57.913,4.757L1200.068-839.271z"/>
	<path display="inline" fill="#FFFFFF" d="M1200.014-839.442c0,0,4.076-5.105,21.091-6.738c17.142-1.646,29.082,4.028,49.609,1.774
		c7.24-0.795,12.635-1.687,14.022-4.778l12.087,38.594c0,0-9.998,7.097-27.14,7.097s-33.63-6.597-57.912,4.757L1200.014-839.442z"/>
	<path display="inline" fill="#FFFFFF" d="M1227.366-744.462l-27.768-96.64c0,0-0.419-0.496-1.758-0.263
		c-1.318,0.23-1.176,0.788-1.176,0.788l27.141,96.44"/>
	<path display="inline" fill="#FFFFFF" d="M1210.138-798.676c0.862-0.145,1.571-0.175,1.634-0.06l-11.747-40.808l-0.025,0.004
		c-0.117-0.154-0.783-0.172-1.55-0.035c-0.807,0.145-1.413,0.406-1.352,0.583l11.516,40.855
		C1208.574-798.259,1209.262-798.529,1210.138-798.676z"/>
	
		<linearGradient id="SVGID_2_" gradientUnits="userSpaceOnUse" x1="1115.8408" y1="-896.8618" x2="1211.989" y2="-916.0701" gradientTransform="matrix(0.9869 -0.1613 0.1613 0.9869 167.3201 244.5634)">
		<stop  offset="0.0049" style="stop-color:#520101"/>
		<stop  offset="0.0219" style="stop-color:#570202"/>
		<stop  offset="0.0419" style="stop-color:#650504"/>
		<stop  offset="0.0634" style="stop-color:#7D0B07"/>
		<stop  offset="0.0859" style="stop-color:#9E120C"/>
		<stop  offset="0.109" style="stop-color:#C81B13"/>
		<stop  offset="0.1171" style="stop-color:#D81F15"/>
		<stop  offset="0.2878" style="stop-color:#AD524F"/>
		<stop  offset="0.3092" style="stop-color:#A84A47"/>
		<stop  offset="0.4377" style="stop-color:#901F19"/>
		<stop  offset="0.5024" style="stop-color:#860E08"/>
		<stop  offset="0.7805" style="stop-color:#D62117"/>
	</linearGradient>
	<path display="inline" fill="url(#SVGID_2_)" d="M1119.871-844.221c0,0,3.199-5.695,19.728-10.052
		c16.653-4.388,29.352-0.716,49.247-6.25c7.017-1.953,12.197-3.703,13.066-6.978l18.155,36.138c0,0-8.723,8.617-25.641,11.382
		c-16.916,2.765-34.253-1.086-56.387,14.036L1119.871-844.221z"/>
	<path display="inline" fill="#2EA4D9" d="M1119.789-844.381c0,0,3.2-5.695,19.729-10.052c16.651-4.389,29.351-0.715,49.245-6.251
		c7.018-1.952,12.197-3.702,13.068-6.978l18.154,36.139c0,0-8.723,8.617-25.64,11.382c-16.917,2.765-34.254-1.086-56.386,14.036
		L1119.789-844.381z"/>
	<path display="inline" fill="#FFFFFF" d="M1162.104-755.057l-42.992-90.895c0,0-0.494-0.422-1.777,0.024
		c-1.264,0.44-1.033,0.967-1.033,0.967l42.342,90.8"/>
	<g display="inline">
		<path fill="#FFFFFF" d="M1175.829-653.238l24.237-35.669l99.485-72.68c11.146,3.598,17.095,11.63,17.847,24.099l-99.771,72.673
			L1175.829-653.238z M1189.218-666.805l3.961,5.212l22.296-6.117c3.288-2.787,4.945-4.869,4.973-6.247
			c0.012-0.57-0.135-0.989-0.438-1.257c-0.305-0.267-0.789-0.408-1.453-0.421c-1.379-0.027-3.771,0.757-7.178,2.353
			c2.904-2.651,4.375-4.88,4.41-6.686c0.018-0.902-0.217-1.584-0.707-2.046c-0.489-0.462-1.258-0.703-2.303-0.724
			c-1.094-0.021-3.343,0.742-6.749,2.29c3.046-2.506,4.587-4.732,4.626-6.682c0.01-0.522-0.125-0.917-0.404-1.185
			c-0.28-0.266-0.73-0.406-1.348-0.419c-2.139-0.042-4.437,0.839-6.897,2.645L1189.218-666.805z M1208.808-691.016
			c0.812-0.174,1.479-0.256,2.002-0.246c1.899,0.038,2.833,0.96,2.797,2.766l-0.085,0.711l59.984-44.086
			c-1.545-1.219-3.07-2.176-4.577-2.872L1208.808-691.016z M1215.534-685.035c2.175,0.566,3.24,1.989,3.194,4.271l60.275-44.295
			c-0.682-1.582-1.652-3.004-2.91-4.265L1215.534-685.035z M1220.74-677.944c0.902,0.065,1.563,0.305,1.982,0.717
			s0.623,0.999,0.607,1.759c-0.014,0.666-0.342,1.634-0.984,2.903l59.911-43.944c-0.53-2.054-1.112-3.849-1.747-5.383
			L1220.74-677.944z M1281.736-744.186c7.1,3.943,11.446,10.066,13.04,18.369l18.595-13.535c-1.49-8.774-5.887-14.828-13.188-18.158
			L1281.736-744.186z"/>
	</g>
	
		<linearGradient id="SVGID_3_" gradientUnits="userSpaceOnUse" x1="1081.4131" y1="-822.4526" x2="1177.5613" y2="-841.6609" gradientTransform="matrix(0.9869 -0.1613 0.1613 0.9869 167.3201 244.5634)">
		<stop  offset="0.0049" style="stop-color:#520101"/>
		<stop  offset="0.0219" style="stop-color:#570202"/>
		<stop  offset="0.0419" style="stop-color:#650504"/>
		<stop  offset="0.0634" style="stop-color:#7D0B07"/>
		<stop  offset="0.0859" style="stop-color:#9E120C"/>
		<stop  offset="0.109" style="stop-color:#C81B13"/>
		<stop  offset="0.1171" style="stop-color:#D81F15"/>
		<stop  offset="0.2878" style="stop-color:#AD524F"/>
		<stop  offset="0.3092" style="stop-color:#A84A47"/>
		<stop  offset="0.4377" style="stop-color:#901F19"/>
		<stop  offset="0.5024" style="stop-color:#860E08"/>
		<stop  offset="0.7805" style="stop-color:#D62117"/>
	</linearGradient>
	<path display="inline" fill="url(#SVGID_3_)" d="M1097.896-765.233c0,0,3.199-5.695,19.728-10.052
		c16.653-4.388,29.352-0.716,49.247-6.25c7.017-1.953,12.197-3.703,13.066-6.978l18.155,36.138c0,0-8.723,8.617-25.641,11.382
		c-16.916,2.765-34.253-1.086-56.387,14.036L1097.896-765.233z"/>
	<path display="inline" fill="#C89108" d="M1097.814-765.394c0,0,3.2-5.695,19.729-10.052c16.651-4.389,29.351-0.716,49.245-6.251
		c7.018-1.952,12.197-3.702,13.068-6.978l18.154,36.139c0,0-8.723,8.617-25.64,11.382c-16.917,2.765-34.254-1.086-56.386,14.036
		L1097.814-765.394z"/>
	<path display="inline" fill="#FFFFFF" d="M1140.13-676.069l-42.992-90.895c0,0-0.494-0.422-1.777,0.024
		c-1.264,0.44-1.033,0.967-1.033,0.967l42.342,90.8"/>
</g>
</svg>
