<?xml version="1.0" encoding="utf-8"?>
<!-- Generator: Adobe Illustrator 16.0.0, SVG Export Plug-In . SVG Version: 6.00 Build 0)  -->
<!DOCTYPE svg PUBLIC "-//W3C//DTD SVG 1.1//EN" "http://www.w3.org/Graphics/SVG/1.1/DTD/svg11.dtd">
<svg version="1.1" xmlns="http://www.w3.org/2000/svg" xmlns:xlink="http://www.w3.org/1999/xlink" x="0px" y="0px"
	 width="282.232px" height="282.232px" viewBox="-755.693 -1207.386 282.232 282.232"
	 enable-background="new -755.693 -1207.386 282.232 282.232" xml:space="preserve">
<g id="_x2D_--" display="none">
</g>
<g id="fond">
	<circle fill="#00326E" cx="-614.578" cy="-1066.27" r="141.116"/>
</g>
<g id="A" display="none">
	<g display="inline" opacity="0.7">
		<path fill="#FFFFFF" d="M-475.693-890.481h-280v-130.156h57.695c22.604-6.289,49.992-9.434,82.168-9.434
			c5.924,0,11.711,0.092,17.363,0.273c-2.645-28.619-7.52-53.957-14.629-76.016c-6.289,1.277-12.123,4.375-17.5,9.297
			c-8.75,8.203-14.447,20.463-17.09,36.777c-2.826-9.844-4.238-18.957-4.238-27.344c0-10.572,2.506-17.955,7.52-22.148
			c3.736-3.098,9.844-5.742,18.32-7.93c-3.373-0.273-7.156-0.455-11.348-0.547c-6.746-0.09-16.406,1.186-28.984,3.828
			c10.754-14.127,20.416-21.191,28.984-21.191c4.738,0,11.027,2.006,18.867,6.016c-0.82-3.098-2.051-6.699-3.691-10.801
			c-0.82-2.188-2.734-5.469-5.742-9.844c6.926-1.822,12.305-2.643,16.133-2.461c3.828,0.184,9.068,1.186,15.723,3.008
			c-1.824,1.459-4.238,4.238-7.246,8.34c-0.547,1.367-0.867,3.418-0.957,6.152c7.746-7.564,15.449-11.027,23.105-10.391
			c9.479,0.82,18.273,10.346,26.387,28.574c-11.029-9.844-19.824-14.492-26.387-13.945c-4.375,0.365-9.57,3.51-15.586,9.434
			c26.797-0.637,40.332,9.115,40.605,29.258c0.182,8.021-3.738,18.594-11.758,31.719c-0.365-7.018-1.141-13.17-2.324-18.457
			c-2.645-12.121-7.383-20.461-14.219-25.02c-3.373-2.277-9.16-3.736-17.363-4.375c2.096,5.469,4.102,11.303,6.016,17.5
			l-8.477,1.504l0.273,2.188l8.887-1.777c1.641,5.195,3.145,10.391,4.512,15.586l-8.75,1.23l-0.137,2.324l9.434-0.82
			c1.367,5.195,2.643,10.391,3.828,15.586l-9.023,1.23l-0.137,2.324l9.434-0.684c0.82,4.012,1.914,9.57,3.281,16.68l-10.391,0.547
			l-0.137,2.324l10.938-0.137l0.547,3.418c4.283,0.365,8.477,0.775,12.578,1.23l6.699-5.879l-3.008,6.426
			c13.033,1.732,23.742,3.875,32.129,6.426h57.695V-890.481z M-502.08-995.618c0-6.471-5.971-12.395-17.91-17.773
			c-11.576-5.285-27.025-9.297-46.348-12.031l-3.965,8.34l10.664-3.555l-9.297,9.16c-4.102,2.734-10.527,3.92-19.277,3.555
			c-6.289-0.182-11.576-1.686-15.859-4.512l-5.195-13.535l11.895,8.887c-0.365-4.648-0.684-8.385-0.957-11.211
			c-5.742-0.273-11.576-0.41-17.5-0.41c-31.445,0-58.289,3.236-80.527,9.707c-22.24,6.473-33.359,14.266-33.359,23.379
			c0,9.115,11.119,16.885,33.359,23.311c22.238,6.426,49.082,9.639,80.527,9.639c31.354,0,58.15-3.213,80.391-9.639
			C-513.201-978.733-502.08-986.503-502.08-995.618z M-570.849-1025.97c-3.555-0.455-7.156-0.82-10.801-1.094l0.41,3.145
			c0.273,1.824,0.5,4.012,0.684,6.563L-570.849-1025.97z"/>
	</g>
	<g id="Calque_2" display="inline">
	</g>
	<g id="Calque_7" display="inline">
	</g>
</g>
<g id="B">
	<g opacity="0.7">
		<path fill="#FFFFFF" d="M-475.693-890.481h-280v-130.156h57.695c22.604-6.289,49.992-9.434,82.168-9.434
			c5.924,0,11.711,0.092,17.363,0.273c-2.645-28.619-7.52-53.957-14.629-76.016c-6.289,1.277-12.123,4.375-17.5,9.297
			c-8.75,8.203-14.447,20.463-17.09,36.777c-2.826-9.844-4.238-18.957-4.238-27.344c0-10.572,2.506-17.955,7.52-22.148
			c3.736-3.098,9.844-5.742,18.32-7.93c-3.373-0.273-7.156-0.455-11.348-0.547c-6.746-0.09-16.406,1.186-28.984,3.828
			c10.754-14.127,20.416-21.191,28.984-21.191c4.738,0,11.027,2.006,18.867,6.016c-0.82-3.098-2.051-6.699-3.691-10.801
			c-0.82-2.188-2.734-5.469-5.742-9.844c6.926-1.822,12.305-2.643,16.133-2.461c3.828,0.184,9.068,1.186,15.723,3.008
			c-1.824,1.459-4.238,4.238-7.246,8.34c-0.547,1.367-0.867,3.418-0.957,6.152c7.746-7.564,15.449-11.027,23.105-10.391
			c9.479,0.82,18.273,10.346,26.387,28.574c-11.029-9.844-19.824-14.492-26.387-13.945c-4.375,0.365-9.57,3.51-15.586,9.434
			c26.797-0.637,40.332,9.115,40.605,29.258c0.182,8.021-3.738,18.594-11.758,31.719c-0.365-7.018-1.141-13.17-2.324-18.457
			c-2.645-12.121-7.383-20.461-14.219-25.02c-3.373-2.277-9.16-3.736-17.363-4.375c2.096,5.469,4.102,11.303,6.016,17.5
			l-8.477,1.504l0.273,2.188l8.887-1.777c1.641,5.195,3.145,10.391,4.512,15.586l-8.75,1.23l-0.137,2.324l9.434-0.82
			c1.367,5.195,2.643,10.391,3.828,15.586l-9.023,1.23l-0.137,2.324l9.434-0.684c0.82,4.012,1.914,9.57,3.281,16.68l-10.391,0.547
			l-0.137,2.324l10.938-0.137l0.547,3.418c4.283,0.365,8.477,0.775,12.578,1.23l6.699-5.879l-3.008,6.426
			c13.033,1.732,23.742,3.875,32.129,6.426h57.695V-890.481z M-502.08-995.618c0-6.471-5.971-12.395-17.91-17.773
			c-11.576-5.285-27.025-9.297-46.348-12.031l-3.965,8.34l10.664-3.555l-9.297,9.16c-4.102,2.734-10.527,3.92-19.277,3.555
			c-6.289-0.182-11.576-1.686-15.859-4.512l-5.195-13.535l11.895,8.887c-0.365-4.648-0.684-8.385-0.957-11.211
			c-5.742-0.273-11.576-0.41-17.5-0.41c-31.445,0-58.289,3.236-80.527,9.707c-22.24,6.473-33.359,14.266-33.359,23.379
			c0,9.115,11.119,16.885,33.359,23.311c22.238,6.426,49.082,9.639,80.527,9.639c31.354,0,58.15-3.213,80.391-9.639
			C-513.201-978.733-502.08-986.503-502.08-995.618z M-570.849-1025.97c-3.555-0.455-7.156-0.82-10.801-1.094l0.41,3.145
			c0.273,1.824,0.5,4.012,0.684,6.563L-570.849-1025.97z"/>
	</g>
</g>
<g id="C" display="none">
	<path display="inline" fill="#FFFFFF" d="M-551.365-1050.115c7.706-0.524-143.88,51.453-97.167,25.5
		c44.419-24.677-66.011-30.846-77.629-75.266c-1.954-7.471,13.358,15.801,39.895,7.403
		C-621.283-1113.042-636.09-1044.357-551.365-1050.115z"/>
	<path display="inline" fill="#FFFFFF" d="M-515.585-1040.655c3.645,0.88-25.91-7.403-42.772,23.853
		c-5.283,9.795-33.864,14.676-66.217,2.057c-33.212-12.954,19.251-16.735,76.293-37.631
		C-517.127-1063.79-533.476-1044.973-515.585-1040.655z"/>
	<path display="inline" fill="#FFFFFF" d="M-603.188-1009.5c-52.747-15.732-79.583,6.786-80.2,5.244
		c-0.986-2.463-8.328-8.02-17.582-7.403c-5.016,0.334,9.254-13.573,48.736-12.338C-570.382-1021.44-598.372-1008.064-603.188-1009.5
		z"/>
	<path display="inline" opacity="0.7" fill="#FFFFFF" d="M-533.632-1041.696c7.538,1.683-152.564,8.548-100.41-3.095
		c49.592-11.07-54.557-48.296-53.104-94.187c0.245-7.719,8.331,18.94,36.159,18.41
		C-582.84-1121.864-616.513-1060.196-533.632-1041.696z"/>
	<circle display="inline" fill="#C89108" cx="-534.768" cy="-1046.768" r="5.25"/>
</g>
</svg>
