<?xml version="1.0" encoding="utf-8"?>
<!-- Generator: Adobe Illustrator 16.0.0, SVG Export Plug-In . SVG Version: 6.00 Build 0)  -->
<!DOCTYPE svg PUBLIC "-//W3C//DTD SVG 1.1//EN" "http://www.w3.org/Graphics/SVG/1.1/DTD/svg11.dtd">
<svg version="1.1" xmlns="http://www.w3.org/2000/svg" xmlns:xlink="http://www.w3.org/1999/xlink" x="0px" y="0px"
	 width="283.465px" height="283.465px" viewBox="-149.079 -1812.768 283.465 283.465"
	 enable-background="new -149.079 -1812.768 283.465 283.465" xml:space="preserve">
<g id="_x2D_--" display="none">
</g>
<g id="fond">
	<circle fill="#00326E" cx="-6.731" cy="-1670.417" r="141.116"/>
</g>
<g id="A" display="none">
	<g id="Calque_2" display="inline">
	</g>
	<g id="Calque_7" display="inline">
	</g>
</g>
<g id="B">
	<g opacity="0.5">
		<path fill="#FFFFFF" d="M-10.085-1707.423c5.78,0,10.976-1.875,15.586-5.625c2.344,1.016,4.12,1.798,5.332,2.344
			c1.21,0.547,2.831,1.329,4.863,2.344c2.03,1.016,3.593,1.895,4.688,2.637c1.093,0.743,2.362,1.699,3.809,2.871
			c1.444,1.172,2.499,2.285,3.164,3.34c0.663,1.055,1.23,2.285,1.699,3.691s0.703,2.891,0.703,4.453v40.195h-79.688v-40.195
			c0.234-2.5,0.858-4.765,1.875-6.797c1.015-2.031,2.187-3.75,3.516-5.156c1.327-1.406,3.124-2.772,5.391-4.102
			c2.265-1.328,4.277-2.402,6.035-3.223s4.043-1.776,6.855-2.871C-21.57-1709.454-16.179-1707.423-10.085-1707.423z
			 M-10.144-1755.704c-5.742,0-10.646,2.032-14.707,6.094c-4.063,4.063-6.094,8.985-6.094,14.766c0,5.782,2.03,10.704,6.094,14.766
			c4.062,4.063,8.965,6.094,14.707,6.094s10.664-2.031,14.766-6.094c4.102-4.062,6.152-8.983,6.152-14.766
			c0-5.781-2.051-10.703-6.152-14.766C0.52-1753.672-4.402-1755.704-10.144-1755.704z"/>
	</g>
	<g opacity="0.9">
		<path fill="#FFFFFF" d="M-74.811-1669.56c7.226,0,13.719-2.344,19.482-7.031c2.93,1.271,5.149,2.248,6.665,2.93
			c1.513,0.685,3.538,1.662,6.079,2.93c2.538,1.271,4.49,2.369,5.859,3.296c1.366,0.929,2.952,2.124,4.761,3.589
			c1.806,1.465,3.124,2.856,3.955,4.175c0.828,1.318,1.538,2.856,2.124,4.614s0.879,3.614,0.879,5.566v50.244h-99.609v-50.244
			c0.293-3.124,1.073-5.956,2.344-8.496c1.268-2.538,2.732-4.688,4.395-6.445c1.659-1.758,3.904-3.465,6.738-5.127
			c2.831-1.659,5.347-3.003,7.544-4.028s5.054-2.22,8.569-3.589C-89.167-1672.098-82.428-1669.56-74.811-1669.56z M-74.884-1729.911
			c-7.178,0-13.308,2.541-18.384,7.617c-5.079,5.079-7.617,11.231-7.617,18.457c0,7.228,2.538,13.38,7.617,18.457
			c5.076,5.079,11.206,7.617,18.384,7.617s13.33-2.538,18.457-7.617c5.127-5.077,7.69-11.229,7.69-18.457
			c0-7.226-2.563-13.378-7.69-18.457C-61.554-1727.371-67.707-1729.911-74.884-1729.911z"/>
	</g>
	<g opacity="0.9">
		<path fill="#FFFFFF" d="M51.189-1668.56c7.226,0,13.719-2.344,19.482-7.031c2.93,1.271,5.149,2.248,6.665,2.93
			c1.513,0.685,3.538,1.662,6.079,2.93c2.538,1.271,4.49,2.369,5.859,3.296c1.366,0.929,2.952,2.124,4.761,3.589
			c1.806,1.465,3.124,2.856,3.955,4.175c0.828,1.318,1.538,2.856,2.124,4.614s0.879,3.614,0.879,5.566v50.244H1.384v-50.244
			c0.293-3.124,1.073-5.956,2.344-8.496c1.268-2.538,2.732-4.688,4.395-6.445c1.659-1.758,3.904-3.465,6.738-5.127
			c2.831-1.659,5.347-3.003,7.544-4.028s5.054-2.22,8.569-3.589C36.833-1671.098,43.572-1668.56,51.189-1668.56z M51.116-1728.911
			c-7.178,0-13.308,2.541-18.384,7.617c-5.079,5.079-7.617,11.231-7.617,18.457c0,7.228,2.538,13.38,7.617,18.457
			c5.076,5.079,11.206,7.617,18.384,7.617s13.33-2.538,18.457-7.617c5.127-5.077,7.69-11.229,7.69-18.457
			c0-7.226-2.563-13.378-7.69-18.457C64.446-1726.371,58.293-1728.911,51.116-1728.911z"/>
	</g>
</g>
<g id="C" display="none">
	<g display="inline" opacity="0.8">
		<path fill="#FFFFFF" d="M-89.63-1699.364v61.035h-24.414v-61.035H-89.63z M39.887-1699.364v98.633H-82.062v-98.633H39.887z
			 M-21.026-1723.778c0,6.756-2.381,12.512-7.141,17.273c-4.762,4.761-10.52,7.141-17.273,7.141c-6.756,0-12.512-2.38-17.273-7.141
			c-4.76-4.761-7.141-10.517-7.141-17.273c0-6.754,2.381-12.512,7.141-17.273c4.762-4.761,10.518-7.141,17.273-7.141
			c6.754,0,12.512,2.38,17.273,7.141C-23.407-1736.291-21.026-1730.532-21.026-1723.778z M33.295-1723.778
			c0,6.756-2.38,12.512-7.142,17.273c-4.76,4.761-10.519,7.141-17.272,7.141c-6.756,0-12.513-2.38-17.272-7.141
			c-4.762-4.761-7.142-10.517-7.142-17.273c0-6.754,2.38-12.512,7.142-17.273c4.76-4.761,10.517-7.141,17.272-7.141
			c6.754,0,12.513,2.38,17.272,7.141C30.915-1736.291,33.295-1730.532,33.295-1723.778z M52.216-1674.95l36.621-30.518v110.229
			l-36.621-30.884V-1674.95z"/>
	</g>
</g>
</svg>
