<?xml version="1.0" encoding="utf-8"?>
<!-- Generator: Adobe Illustrator 16.0.0, SVG Export Plug-In . SVG Version: 6.00 Build 0)  -->
<!DOCTYPE svg PUBLIC "-//W3C//DTD SVG 1.1//EN" "http://www.w3.org/Graphics/SVG/1.1/DTD/svg11.dtd">
<svg version="1.1" xmlns="http://www.w3.org/2000/svg" xmlns:xlink="http://www.w3.org/1999/xlink" x="0px" y="0px"
	 width="282.232px" height="282.232px" viewBox="-755.693 605.063 282.232 282.232"
	 enable-background="new -755.693 605.063 282.232 282.232" xml:space="preserve">
<g id="_x2D_--" display="none">
</g>
<g id="fond">
	<circle fill="#00326E" cx="-614.578" cy="746.181" r="141.116"/>
</g>
<g id="A" display="none">
	<g id="Calque_2" display="inline">
	</g>
	<g id="Calque_7" display="inline">
	</g>
</g>
<g id="B">
	<path opacity="0.8" fill="#FFFFFF" d="M-529.922,679.562v143.093H-698.63V679.562H-529.922z M-677.652,689.499v59.953h60.064
		v-59.953H-677.652z M-677.652,816.141h60.064v-59.954h-60.064V816.141z M-627.083,724.608c-1.549,4.271-4.206,7.675-7.97,10.214
		s-7.97,3.81-12.62,3.81c-3.985,0-7.712-0.994-11.179-2.98c-3.47-1.989-6.219-4.694-8.248-8.116
		c-2.028-3.423-3.043-7.121-3.043-11.097c0-4.784,1.306-9.016,3.92-12.696c2.612-3.68,6.053-6.366,10.324-8.061
		c-1.033,2.282-1.546,5.042-1.546,8.281c0,3.902,0.997,7.581,2.991,11.041c1.995,3.46,4.691,6.183,8.09,8.17
		c3.397,1.987,7.091,2.981,11.083,2.981C-632.402,726.155-629.669,725.641-627.083,724.608z M-550.9,689.499h-59.954v59.953h59.954
		V689.499z M-550.512,815.419V756h-60.459v59.419H-550.512z"/>
	<path opacity="0.6" fill="#E9A402" d="M-627.083,724.608c-1.549,4.271-4.206,7.675-7.97,10.214s-7.97,3.81-12.62,3.81
		c-3.985,0-7.712-0.994-11.179-2.98c-3.47-1.989-6.219-4.694-8.248-8.116c-2.028-3.423-3.043-7.121-3.043-11.097
		c0-4.784,1.306-9.016,3.92-12.696c2.612-3.68,6.053-6.366,10.324-8.061c-1.033,2.282-1.546,5.042-1.546,8.281
		c0,3.902,0.997,7.581,2.991,11.041c1.995,3.46,4.691,6.183,8.09,8.17c3.397,1.987,7.091,2.981,11.083,2.981
		C-632.402,726.155-629.669,725.641-627.083,724.608z"/>
</g>
<g id="C" display="none">
	<g display="inline">
		<path fill="#FFFFFF" d="M-597.143,720.969l60.735-5.273c1.096-0.077,1.954-0.117,2.58-0.117c4.3,0,6.449,1.758,6.449,5.273
			c0,1.719-1.368,3.477-4.104,5.273l-52.641,33.633l23.932,60c0.546,1.25,0.82,2.227,0.82,2.93c0,0.938-0.471,1.895-1.408,2.871
			c-0.939,0.978-1.917,1.465-2.932,1.465c-1.486,0-3.208-0.859-5.161-2.578l-47.628-41.133l-47.628,41.133
			c-1.955,1.719-3.636,2.578-5.044,2.578c-1.172,0-2.209-0.487-3.107-1.465c-0.901-0.977-1.35-1.973-1.35-2.988
			c0-0.625,0.272-1.563,0.82-2.813l23.814-60l-52.523-33.633c-2.735-1.797-4.104-3.555-4.104-5.273c0-3.516,2.188-5.273,6.566-5.273
			c0.545,0,1.327,0.04,2.346,0.117l60.853,5.273l13.843-59.297c0.703-3.047,1.408-5.02,2.111-5.918
			c0.703-0.897,1.839-1.348,3.402-1.348c1.485,0,2.599,0.45,3.342,1.348c0.743,0.898,1.467,2.871,2.172,5.918L-597.143,720.969z"/>
	</g>
</g>
</svg>
