<?xml version="1.0" encoding="utf-8"?>
<!-- Generator: Adobe Illustrator 16.0.0, SVG Export Plug-In . SVG Version: 6.00 Build 0)  -->
<!DOCTYPE svg PUBLIC "-//W3C//DTD SVG 1.1//EN" "http://www.w3.org/Graphics/SVG/1.1/DTD/svg11.dtd">
<svg version="1.1" xmlns="http://www.w3.org/2000/svg" xmlns:xlink="http://www.w3.org/1999/xlink" x="0px" y="0px"
	 width="282.232px" height="282.232px" viewBox="754.682 -1207.386 282.232 282.232"
	 enable-background="new 754.682 -1207.386 282.232 282.232" xml:space="preserve">
<g id="_x2D_--" display="none">
</g>
<g id="fond">
	<circle fill="#00326E" cx="895.797" cy="-1066.27" r="141.116"/>
</g>
<g id="A" display="none">
	<g display="inline">
		<path fill="#FFFFFF" d="M902.449-1045.251c2.284,1.457,4.764,3.797,7.441,7.018c0.52,0.521,1.098,1.316,1.74,2.387
			c2.43,4.199,4.893,8.42,7.391,12.66c1.689,3.727,1.377,7.406-0.938,11.037c-3.003,4.707-7.951,6.754-14.843,6.141
			c-8.312-0.762-19.059-5.347-32.234-13.752l-2.831,4.438l-20.882,24.281l14.527-28.336l2.831-4.438
			c-13.313-8.492-21.987-16.247-26.022-23.269c-3.395-5.948-3.568-11.31-0.523-16.085c1.802-2.823,4.499-4.459,8.099-4.908
			c2.14-0.242,8.483,0.637,19.034,2.636c3.975,0.739,7.705,1.936,11.189,3.591l15.441-24.205c-2.892-1.844-6.079-4.634-9.561-8.369
			c-0.655-0.605-1.402-1.509-2.244-2.709c-3.973-4.896-6.412-8.488-7.319-10.77c-1.521-3.996-0.991-8.012,1.582-12.046
			c3.13-4.907,8.465-6.896,16.008-5.964c8.671,1.086,19.866,6.003,33.583,14.753c13.648,8.706,22.691,16.7,27.131,23.978
			c3.821,6.316,4.168,11.93,1.037,16.838c-2.702,4.235-5.537,6.638-8.5,7.206c-2.965,0.569-7.396-0.083-13.297-1.956
			c-1.891-0.447-3.392-0.838-4.504-1.17c-3.584-1.055-6.217-2.121-7.896-3.191L902.449-1045.251z"/>
	</g>
	<g id="Calque_2" display="inline">
	</g>
	<g id="Calque_7" display="inline">
	</g>
</g>
<g id="B">
	<g opacity="0.9">
		<path fill="#FFFFFF" d="M825.109-1014.611c3.854,0,7.316-1.25,10.391-3.75c1.563,0.678,2.746,1.199,3.555,1.563
			c0.807,0.365,1.887,0.886,3.242,1.563c1.354,0.678,2.395,1.264,3.125,1.758c0.729,0.496,1.574,1.133,2.539,1.914
			c0.963,0.781,1.666,1.523,2.109,2.227c0.441,0.703,0.82,1.523,1.133,2.461s0.469,1.928,0.469,2.969v26.797h-53.125v-26.797
			c0.156-1.666,0.572-3.176,1.25-4.531c0.676-1.354,1.457-2.5,2.344-3.438c0.885-0.938,2.082-1.848,3.594-2.734
			c1.51-0.885,2.852-1.602,4.023-2.148s2.695-1.184,4.57-1.914C817.453-1015.964,821.047-1014.611,825.109-1014.611z
			 M825.07-1046.798c-3.828,0-7.098,1.355-9.805,4.063c-2.709,2.709-4.063,5.99-4.063,9.844c0,3.855,1.354,7.136,4.063,9.844
			c2.707,2.709,5.977,4.063,9.805,4.063s7.109-1.354,9.844-4.063c2.734-2.708,4.102-5.989,4.102-9.844
			c0-3.854-1.367-7.135-4.102-9.844C832.18-1045.443,828.898-1046.798,825.07-1046.798z"/>
		<path fill="#FFFFFF" d="M897.109-1014.611c3.854,0,7.316-1.25,10.391-3.75c1.563,0.678,2.746,1.199,3.555,1.563
			c0.807,0.365,1.887,0.886,3.242,1.563c1.354,0.678,2.395,1.264,3.125,1.758c0.729,0.496,1.574,1.133,2.539,1.914
			c0.963,0.781,1.666,1.523,2.109,2.227c0.441,0.703,0.82,1.523,1.133,2.461s0.469,1.928,0.469,2.969v26.797h-53.125v-26.797
			c0.156-1.666,0.572-3.176,1.25-4.531c0.676-1.354,1.457-2.5,2.344-3.438c0.885-0.938,2.082-1.848,3.594-2.734
			c1.51-0.885,2.852-1.602,4.023-2.148s2.695-1.184,4.57-1.914C889.453-1015.964,893.047-1014.611,897.109-1014.611z
			 M897.07-1046.798c-3.828,0-7.098,1.355-9.805,4.063c-2.709,2.709-4.063,5.99-4.063,9.844c0,3.855,1.354,7.136,4.063,9.844
			c2.707,2.709,5.977,4.063,9.805,4.063s7.109-1.354,9.844-4.063c2.734-2.708,4.102-5.989,4.102-9.844
			c0-3.854-1.367-7.135-4.102-9.844C904.18-1045.443,900.898-1046.798,897.07-1046.798z"/>
		<path fill="#FFFFFF" d="M969.109-1014.611c3.854,0,7.316-1.25,10.391-3.75c1.563,0.678,2.746,1.199,3.555,1.563
			c0.807,0.365,1.887,0.886,3.242,1.563c1.354,0.678,2.395,1.264,3.125,1.758c0.729,0.496,1.574,1.133,2.539,1.914
			c0.963,0.781,1.666,1.523,2.109,2.227c0.441,0.703,0.82,1.523,1.133,2.461s0.469,1.928,0.469,2.969v26.797h-53.125v-26.797
			c0.156-1.666,0.572-3.176,1.25-4.531c0.676-1.354,1.457-2.5,2.344-3.438c0.885-0.938,2.082-1.848,3.594-2.734
			c1.51-0.885,2.852-1.602,4.023-2.148s2.695-1.184,4.57-1.914C961.453-1015.964,965.047-1014.611,969.109-1014.611z
			 M969.07-1046.798c-3.828,0-7.098,1.355-9.805,4.063c-2.709,2.709-4.063,5.99-4.063,9.844c0,3.855,1.354,7.136,4.063,9.844
			c2.707,2.709,5.977,4.063,9.805,4.063s7.109-1.354,9.844-4.063c2.734-2.708,4.102-5.989,4.102-9.844
			c0-3.854-1.367-7.135-4.102-9.844C976.18-1045.443,972.898-1046.798,969.07-1046.798z"/>
	</g>
	<path opacity="0.6" fill="#FFFFFF" d="M967.232-1082.768c0,6.627-5.373,12-12,12h-112c-6.627,0-12-5.373-12-12v-52
		c0-6.627,5.373-12,12-12h112c6.627,0,12,5.373,12,12V-1082.768z"/>
</g>
<g id="C" display="none">
</g>
</svg>
