<?xml version="1.0" encoding="UTF-8" standalone="no"?>
<svg
   xmlns:dc="http://purl.org/dc/elements/1.1/"
   xmlns:cc="http://creativecommons.org/ns#"
   xmlns:rdf="http://www.w3.org/1999/02/22-rdf-syntax-ns#"
   xmlns:svg="http://www.w3.org/2000/svg"
   xmlns="http://www.w3.org/2000/svg"
   id="svg3447"
   xml:space="preserve"
   enable-background="new 452.606 302.988 282.232 282.232"
   viewBox="452.606 302.988 282.232 282.232"
   height="282.232px"
   width="282.232px"
   y="0px"
   x="0px"
   version="1.1"><metadata
     id="metadata3488"><rdf:RDF><cc:Work
         rdf:about=""><dc:format>image/svg+xml</dc:format><dc:type
           rdf:resource="http://purl.org/dc/dcmitype/StillImage" /><dc:title></dc:title></cc:Work></rdf:RDF></metadata><defs
     id="defs3486" /><g
     display="none"
     id="_x2D_--"><rect
       id="rect3450"
       height="5688"
       width="4471.75"
       fill="#FFFFFF"
       display="inline"
       y="-356.429"
       x="116.272" /></g><circle
     cx="593.72198"
     cy="444.10501"
     r="141.116"
     id="circle3453"
     style="fill:#00326e" /><g
     display="none"
     id="A"><g
       display="inline"
       id="Calque_2" /><g
       display="inline"
       id="Calque_7" /></g><g
     display="none"
     id="C" /><g
     id="g3500"
     transform="matrix(2.8405038,0,0,2.8405038,520.62626,332.28101)"><path
       id="path3420"
       d="m 5.6708256,69.79011 0,-7.157013 5.1795564,-9.95576 C 13.699137,47.201669 18.458053,40.084528 21.42575,36.861469 l 5.395812,-5.860109 0.04963,9.442291 0.04963,9.442291 -4.538945,4.307709 c -2.49642,2.36924 -7.27767,8.458005 -10.625,13.53059 l -6.0860514,9.222883 0,-7.157014 z m 21.4593394,-1.28875 0.477703,-8.75 6.124989,-10.27908 c 3.368744,-5.653494 7.995409,-12.091963 10.281479,-14.307708 l 4.15649,-4.02863 -0.01331,9.307709 -0.01331,9.307709 -4.554299,4.375 c -2.504865,2.40625 -7.340507,8.59375 -10.745872,13.75 l -6.191573,9.375 0.477703,-8.75 z"
       style="fill:#09a0af" /><path
       id="path3422"
       d="m 5.3583256,77.852416 c -3.5722171,1.431723 -1.7861085,0.715861 0,0 z M 14.244884,31.311625 C 7.2663922,20.085246 5.6708256,15.703544 5.6708256,7.7657758 l 0,-7.7101792 6.0681554,9.2228812 c 3.337485,5.0725862 8.033137,11.2162392 10.434782,13.6525642 l 4.366629,4.429683 -4.004755,4.632817 c -2.202615,2.548051 -4.226391,4.631812 -4.497282,4.630583 -0.270891,-0.0012 -1.977953,-2.391855 -3.793471,-5.3125 z m 21.249999,0 C 28.516392,20.085246 26.920826,15.703544 26.920826,7.7657758 l 0,-7.7101793 6.09897,9.3426843 c 3.354433,5.1384762 8.044675,11.2883902 10.422759,13.6664742 l 4.323788,4.32379 -3.992729,4.618907 c -2.196002,2.540399 -4.214368,4.617902 -4.485259,4.616673 -0.270892,-0.0012 -1.977953,-2.391855 -3.793472,-5.3125 z"
       style="fill:#9fcfd6" /></g></svg>