<?xml version="1.0" encoding="utf-8"?>
<!-- Generator: Adobe Illustrator 16.0.0, SVG Export Plug-In . SVG Version: 6.00 Build 0)  -->
<!DOCTYPE svg PUBLIC "-//W3C//DTD SVG 1.1//EN" "http://www.w3.org/Graphics/SVG/1.1/DTD/svg11.dtd">
<svg version="1.1" xmlns="http://www.w3.org/2000/svg" xmlns:xlink="http://www.w3.org/1999/xlink" x="0px" y="0px"
	 width="282.232px" height="282.232px" viewBox="-453.618 -1207.386 282.232 282.232"
	 enable-background="new -453.618 -1207.386 282.232 282.232" xml:space="preserve">
<g id="_x2D_--" display="none">
</g>
<g id="fond">
	<circle fill="#00326E" cx="-312.503" cy="-1066.27" r="141.116"/>
</g>
<g id="A" display="none">
	<g display="inline" opacity="0.7">
		<path fill="#FFFFFF" d="M-291.606-967.948c0,14.947-21.238,29.85-63.711,44.707c-17.773,6.197-39.057,12.168-63.848,17.91h-34.453
			v-130.156h79.023c-38.281,3.281-57.422,10.072-57.422,20.371c0,9.207,12.121,15.541,36.367,19.004
			c22.604,2.461,45.162,4.969,67.676,7.52C-303.729-984.765-291.606-977.882-291.606-967.948z M-173.618-905.331h-76.973
			c33.176-19.598,49.766-40.469,49.766-62.617c0-13.58-16.771-23.332-50.313-29.258c-14.219-2.461-45.391-5.332-93.516-8.613
			c-33.543-2.277-50.313-5.832-50.313-10.664c0-7.838,19.141-14.172,57.422-19.004h54.961v-21.875h-62.48l54.824-40.059h-34.453
			l42.109-40.469h-21.738l34.59-27.891l34.453,27.891h-21.738l42.109,40.469h-34.453l54.961,40.059h-62.617v21.875h83.398V-905.331z
			"/>
	</g>
	<g id="Calque_2" display="inline">
	</g>
	<g id="Calque_7" display="inline">
	</g>
</g>
<g id="B">
	<g opacity="0.9">
		<path fill="#FFFFFF" d="M-366.597-1058.237v-88.608h99.727v88.608h16.621c7.935,0,12.69,0.786,14.263,2.358
			s2.358,6.328,2.358,14.263v44.36c0,7.563-0.881,12.224-2.64,13.982c-1.76,1.76-6.42,2.639-13.981,2.639h-132.969
			c-7.563,0-12.224-0.879-13.981-2.639c-1.761-1.758-2.64-6.419-2.64-13.982v-44.36c0-7.935,0.786-12.69,2.358-14.263
			s6.326-2.358,14.263-2.358H-366.597z M-383.218-986.138h132.969c4.866,0,7.935-0.635,9.209-1.909
			c1.272-1.272,1.909-4.341,1.909-9.209v-44.36c0-5.24-0.544-8.403-1.629-9.49c-1.086-1.084-4.25-1.628-9.489-1.628h-132.969
			c-5.241,0-8.405,0.544-9.489,1.628c-1.087,1.086-1.629,4.25-1.629,9.49v44.36c0,4.868,0.635,7.937,1.909,9.209
			C-391.154-986.773-388.086-986.138-383.218-986.138z M-374.907-1017.134v-4.492c0-3.443,0.522-5.689,1.572-6.738
			c1.048-1.047,3.294-1.572,6.738-1.572h99.727c3.442,0,5.688,0.525,6.738,1.572c1.048,1.049,1.572,3.295,1.572,6.738v4.492
			c0,5.542-2.771,8.311-8.311,8.311h-99.727C-372.139-1008.823-374.907-1011.592-374.907-1017.134z M-361.094-1058.237h88.721
			v-83.105h-88.721V-1058.237z M-347.168-1119.219v-5.503h60.869v5.503H-347.168z M-347.168-1097.095v-5.503h60.869v5.503H-347.168z
			 M-347.168-1074.858v-5.503h60.869v5.503H-347.168z"/>
	</g>
</g>
<g id="C" display="none">
	<path display="inline" fill="#FFFFFF" d="M-262.216-1045.115c7.706-0.524-143.88,51.453-97.167,25.5
		c44.419-24.677-66.011-30.846-77.629-75.266c-1.954-7.471,13.358,15.801,39.895,7.403
		C-332.134-1108.042-346.94-1039.357-262.216-1045.115z"/>
	<path display="inline" opacity="0.6" fill="#FFFFFF" d="M-320.661-1034.532c8.226,4.936,47.708,8.637,50.999,4.112
		c19.524-26.845,21.199-78.617-9.236-112.343c-5.172-5.732,14.582,51.474-44.643,106.174
		C-324.63-1035.583-324.342-1036.741-320.661-1034.532z"/>
	<path display="inline" fill="#FFFFFF" d="M-226.436-1035.655c3.645,0.88-25.91-7.403-42.772,23.853
		c-5.283,9.795-33.864,14.676-66.217,2.057c-33.212-12.954,19.251-16.735,76.293-37.631
		C-227.978-1058.79-244.326-1039.973-226.436-1035.655z"/>
	<path display="inline" fill="#FFFFFF" d="M-314.038-1004.5c-52.747-15.732-79.583,6.786-80.2,5.244
		c-0.986-2.463-8.328-8.02-17.582-7.403c-5.016,0.334,9.254-13.573,48.736-12.338C-281.232-1016.44-309.223-1003.064-314.038-1004.5
		z"/>
	<circle display="inline" fill="#C89108" cx="-243.268" cy="-1043.268" r="5.25"/>
</g>
</svg>
