<?xml version="1.0" encoding="utf-8"?>
<!-- Generator: Adobe Illustrator 16.0.0, SVG Export Plug-In . SVG Version: 6.00 Build 0)  -->
<!DOCTYPE svg PUBLIC "-//W3C//DTD SVG 1.1//EN" "http://www.w3.org/Graphics/SVG/1.1/DTD/svg11.dtd">
<svg version="1.1" xmlns="http://www.w3.org/2000/svg" xmlns:xlink="http://www.w3.org/1999/xlink" x="0px" y="0px"
	 width="282.232px" height="282.232px" viewBox="-1057.768 -1812.768 282.232 282.232"
	 enable-background="new -1057.768 -1812.768 282.232 282.232" xml:space="preserve">
<g id="_x2D_--" display="none">
</g>
<g id="fond">
	<circle fill="#20558A" cx="-916.652" cy="-1671.651" r="141.116"/>
</g>
<g id="A" display="none">
	<g display="inline" opacity="0.9">
		<path fill="#FFFFFF" d="M-797.439-1698.659l-71.094,27.297l16.406,63.079H-980.13l16.406-63.448l-20.166-7.746l-26.318,98.308
			l-16.406-16.6l37.427-83.737l-46.143-17.153l118.945-45.926L-797.439-1698.659z M-863.577-1615.291l-12.988-52.935l-39.307,15.124
			l-39.819-15.493l-12.988,53.304H-863.577z M-871.097-1622.3h-90.063l8.545-37.257l36.743,14.755l35.718-12.911L-871.097-1622.3z"
			/>
	</g>
	<g id="Calque_2" display="inline">
	</g>
	<g id="Calque_7" display="inline">
	</g>
</g>
<g id="B">
	<g>
		<g>
			<path fill="#C89108" d="M-974.215-1751.066h0.073c0.387,0,1.26,0.654,2.619,1.965c0.727,0.389,1.139,0.68,1.236,0.873
				c0,0.098-0.194,0.194-0.582,0.291v0.072c1.164,1.019,1.746,1.868,1.746,2.547v0.436c0,0.826-0.194,1.965-0.582,3.42
				c0.582,0,0.873,0.243,0.873,0.728c0,1.844-0.389,2.983-1.164,3.419c-0.485,1.746-0.922,3.009-1.31,3.783l-0.073,1.893v0.363
				c1.455,0.34,2.376,0.825,2.766,1.455c0.192,0.34,0.46,1.31,0.8,2.91l9.239,4.22c2.184,2.474,3.613,5.312,4.293,8.513
				c0.775,5.045,1.818,10.501,3.129,16.369c0.047,8.683,0.192,13.023,0.436,13.023c0.824,1.407,1.237,2.4,1.237,2.982
				c-0.194,0.389-0.655,0.995-1.382,1.818l-0.438,14.551c0.193,0.826,0.388,3.154,0.582,6.984c-0.776,0.632-1.164,1.383-1.164,2.256
				c-0.291,1.31-0.631,1.965-1.018,1.965c-1.602,1.358-2.645,2.086-3.129,2.182h-0.072c-0.729-0.096-1.092-0.241-1.092-0.436
				c0-0.582,0.484-1.14,1.455-1.674l0.873-1.019h-0.582c-0.34,0-0.753-0.218-1.236-0.655c-0.535,0-0.801-0.145-0.801-0.436
				c-0.146-0.291-0.219-0.679-0.219-1.164v-0.146c0.339-1.696,0.51-3.321,0.51-4.874c0-1.212,0.339-3.007,1.019-5.384l0.146-1.965
				l-5.166-23.936h-0.072v0.219l-0.51,13.096l0.801,6.911l-0.072,2.765l0.363,5.166l-0.219,3.201l0.582,1.309
				c-0.194,9.168-0.436,13.751-0.727,13.751c-1.02,4.802-1.528,9.167-1.528,13.096v0.146c0,0.582,0.46,1.262,1.382,2.037
				l1.237,1.383c0.63,0.825,0.946,1.6,0.946,2.328l-0.219,2.619c0.242,7.033,0.437,10.549,0.582,10.549
				c0.63,3.929,1.115,7.518,1.455,10.768l-0.072,0.945v0.582c1.164,0.533,1.746,1.431,1.746,2.692v0.073
				c-0.632,4.412-1.383,6.62-2.256,6.62c-1.698,0.824-2.691,1.697-2.982,2.619c-0.582,1.455-1.286,2.401-2.11,2.837
				c-1.649,0.438-3.274,0.655-4.874,0.655c-2.572-0.098-3.856-0.389-3.856-0.873l-0.073-0.291c0-0.437,0.121-1.141,0.364-2.11
				h-0.073c-1.262,0-1.891-0.727-1.891-2.182c-0.291-1.263-0.704-3.711-1.237-7.349l0.291-16.006
				c-0.243-4.074-0.364-7.881-0.364-11.423v-2.91l0.364-5.602c0-1.261-0.268-2.256-0.8-2.982l-0.073-0.438l0.146-4.074v-1.6
				c0-2.667-0.413-4.486-1.236-5.457l-0.51-0.945h-0.072v0.072l0.145,4.584v1.6c0,1.796-0.34,3.954-1.018,6.476
				c-0.535,2.959-0.801,6.015-0.801,9.167v0.873c0,2.28,0.411,6.233,1.236,11.859c0.339,1.938,0.775,7.371,1.311,16.297
				c0.92,2.86,1.382,4.897,1.382,6.111c0,1.842-0.776,4.146-2.328,6.911l0.437,1.382c-0.776,0.97-2.208,1.455-4.293,1.455h-1.673
				c-3.104,0-5.069-0.558-5.894-1.673l-0.072-0.437c0.291-1.504,0.557-3.541,0.801-6.111c0-0.776,0.436-1.698,1.309-2.765
				l1.164-1.892c-3.25-3.396-4.874-6.111-4.874-8.148l-0.218-0.945l1.091-4.512c-0.194-6.16-0.291-11.009-0.291-14.551
				c0-1.309,0.097-2.206,0.291-2.691v-0.219c0-0.436-0.122-0.896-0.364-1.382l0.146-1.455c-1.408-3.929-2.11-7.081-2.11-9.458
				l-2.401-15.133l-0.582-13.678l0.219-2.547l-1.092-1.091c0.339-0.291,0.582-0.437,0.729-0.437l0.218-4.656l-0.291-3.855
				c0-3.057,0.509-9.36,1.528-18.916v-0.146h-0.073l-3.565,13.824c0.242,1.164,0.364,2.109,0.364,2.837v0.582
				c0,1.164-0.485,2.037-1.455,2.619c-0.971,0.728-1.649,1.723-2.037,2.983c-0.34,0.873-0.509,1.504-0.509,1.891v0.801
				c0,0.873,0.218,1.407,0.654,1.601c1.115,0.485,1.674,2.255,1.674,5.312l0.363,2.764c-0.049,0.195-0.146,0.291-0.291,0.291
				c0.679,0.729,1.066,1.214,1.164,1.455c0,0.873-0.219,1.311-0.654,1.311c-2.184,0.145-3.274,0.291-3.274,0.436
				c-0.825,0.39-1.335,0.582-1.528,0.582c-1.213-0.291-1.818-0.605-1.818-0.945l-1.31-2.109l-0.218-1.164v-4.512l-0.146-3.346
				l0.073-2.401c-0.582-3.104-0.873-5.141-0.873-6.111c-1.067-1.601-1.601-2.692-1.601-3.274v-0.727
				c0-1.164,0.363-2.085,1.092-2.766v-0.072c0-3.977,0.338-6.645,1.018-8.003c1.115-3.395,2.521-8.778,4.221-16.151
				c1.164-4.413,2.303-7.178,3.419-8.294l12.077-5.529c1.115-1.892,1.915-2.837,2.4-2.837l0.801-0.073l0.51,0.073
				c-1.164-1.455-1.746-2.838-1.746-4.147v-1.455c0-1.746-0.413-3.734-1.237-5.966l-0.146-0.728c0.242,0,0.411-0.751,0.51-2.255
				l0.145-0.729h-0.072l-0.582,0.291l-0.072-0.072c0.823-1.697,1.502-2.691,2.037-2.982v-0.146l-1.164,0.219v-0.072
				c1.114-1.164,2.546-1.746,4.292-1.746v-0.073l-0.291-0.437v-0.146l2.474,0.655l1.892-0.51v0.146l-0.291,0.364v0.072
				C-975.768-1750.775-974.895-1751.066-974.215-1751.066z"/>
			<path fill="#C89108" d="M-852.788-1753.977h0.509c0.679,0,1.311,0.072,1.893,0.219v0.072l-0.291,0.219l-0.073,0.072v0.072
				c2.037,0,3.734,0.729,5.093,2.184v0.072h-0.437c1.794,2.086,2.692,4.608,2.692,7.566c0,1.067-0.268,2.231-0.801,3.492
				c-0.485,2.086-0.728,3.564-0.728,4.438v0.364c0,0.098-0.098,0.146-0.291,0.146l-0.364-0.146v0.073
				c0.291,0.922,0.51,1.382,0.655,1.382h0.437c2.037,0,3.056,0.509,3.056,1.528c0.193,0.534,0.364,1.431,0.509,2.691
				c3.443,2.959,6.621,5.797,9.531,8.512c1.357,1.214,2.037,2.159,2.037,2.838c0.242,0,0.533,2.91,0.873,8.73
				c1.31,7.179,1.965,11.084,1.965,11.713l1.091,10.986c0,2.037-0.413,3.687-1.237,4.947c-0.727,1.746-1.091,2.936-1.091,3.564
				l1.019,10.404c-0.098,0.098-2.208,0.363-6.33,0.801c0,4.947-0.534,8.512-1.6,10.694c0,0.146-0.704,0.898-2.11,2.255l-0.218,0.438
				c-0.291,6.742-0.681,12.223-1.164,16.441l0.145,1.602c1.212,1.067,1.819,1.795,1.819,2.182c0.146,1.164,0.775,2.741,1.892,4.729
				c1.455,2.668,2.183,4.536,2.183,5.603l2.765,11.494c0.679,0.193,1.019,0.752,1.019,1.674c-0.146,8.536-0.389,12.805-0.728,12.805
				c-0.243,1.019-0.945,1.915-2.109,2.691c-1.796,0.921-3.954,1.383-6.476,1.383c-0.776,0-1.262-1.141-1.455-3.42v-0.873
				c0-0.436,0.364-2.595,1.091-6.475v-0.728c0-0.194-1.844-3.323-5.529-9.386c-1.164-1.891-1.818-3.031-1.964-3.419h0.073
				c-0.582-1.939-1.674-6.208-3.274-12.805l-1.528-0.437v0.072l-0.145,3.201c0,2.619,0.436,5.046,1.309,7.275
				c0.484,1.699,0.729,3.711,0.729,6.039l-0.219,3.711h-0.072l1.964,16.224c0,0.388-0.194,0.993-0.582,1.819v0.218
				c0,0.63,0.097,1.261,0.291,1.892c-4.414,0.775-7.106,1.527-8.075,2.256c-2.136,1.405-3.882,2.109-5.238,2.109h-0.073
				c-2.91-0.146-4.463-0.413-4.656-0.801c-0.825-0.582-1.237-1.091-1.237-1.527c0-0.534,1.164-1.067,3.492-1.601
				c1.115-0.291,2.085-0.873,2.91-1.746c0.291-0.098,0.921-1.189,1.893-3.274h0.072l-0.072-0.072v-0.072
				c-0.438-6.258-0.801-9.386-1.092-9.386c-2.571-8.634-3.929-13.387-4.074-14.26l-2.619-21.026
				c-1.164-11.3-1.746-19.157-1.746-23.572v-0.218l0.146-6.767c-0.971-0.387-1.455-0.654-1.455-0.8
				c0.873-6.111,1.866-11.761,2.983-16.952c0.192-2.037,0.291-3.952,0.291-5.747v-2.183l0.291-13.532v-0.218h-0.073
				c0,1.358-0.582,4.026-1.746,8.002c-0.825,1.796-1.358,2.766-1.601,2.91l0.072,0.291c-0.68,1.455-2.449,3.518-5.311,6.185
				l-0.363,1.164l-1.674-0.364c-0.825,1.02-1.553,1.528-2.183,1.528c-2.474,0.34-3.71,0.607-3.71,0.8
				c-1.941,0.972-2.91,1.554-2.91,1.746c-0.535,1.455-1.432,2.45-2.692,2.983c-0.34,0.389-0.509,0.825-0.509,1.31l0.072,0.072
				c-0.291,0.146-1.044,0.268-2.256,0.364l-1.964-0.218c-0.049,1.018-0.316,1.527-0.8,1.527c-0.582,0.631-1.214,0.945-1.893,0.945
				l-2.328-0.436c-0.243,0.098-0.389,0.194-0.436,0.291l1.236,6.547l-0.072,3.348l0.145,7.857c0,3.396-1.164,7.566-3.492,12.514
				c-1.358,3.444-2.668,7.3-3.928,11.567l-0.51,8.948c2.716,2.814,4.171,4.221,4.365,4.221c0.582,0,0.97,0.971,1.164,2.91
				c0,1.262-0.825,3.008-2.474,5.238l-1.746,3.201c-0.825,14.938-1.31,22.408-1.455,22.408c-0.873,0.582-2.086,0.873-3.638,0.873
				l-0.219,0.218c0.146,0.291,0.219,0.775,0.219,1.455c-0.146,1.164-0.68,1.746-1.601,1.746c-3.638,0.63-6.719,0.946-9.239,0.946
				l-0.073-0.146v-0.654c0-0.728,0.46-1.286,1.382-1.674c0.484-0.436,0.946-1.407,1.383-2.91c0.484-0.825,1.019-1.504,1.601-2.037
				l-0.946-3.637c0.63-1.214,1.528-3.492,2.692-6.84l-1.31-16.15l-13.096-10.186c-1.262-1.455-1.892-3.249-1.892-5.385
				c0-9.313,0.655-17.872,1.964-25.682c1.115-3.783,2.207-8.56,3.274-14.332l0.146-3.348v-0.072h-0.072
				c-3.105,5.287-5.021,9.021-5.748,11.204l-0.219,3.201c0.388,2.231,0.582,4.414,0.582,6.548c0,0.631-0.194,1.067-0.582,1.31
				h-0.291c-0.291,0-0.485-0.655-0.582-1.964h-0.072l-0.072,3.419l-0.582,0.509h-0.364c-0.098-0.047-0.194-0.192-0.291-0.436h-0.364
				c-0.485,0.582-0.849,0.873-1.091,0.873c-0.389-0.048-0.582-0.193-0.582-0.438h-0.073l-0.291,0.073
				c-0.922,0-1.527-1.624-1.818-4.874v-1.092c0-2.328,0.728-4.68,2.183-7.057l5.165-19.207c0.775-4.074,1.164-7.323,1.164-9.75
				c-0.098-4.656-0.267-9.627-0.509-14.914c0.242-0.824,1.066-1.794,2.474-2.91c2.183-0.873,3.273-1.601,3.273-2.183l0.364-2.692
				v-0.072h-0.073c0,0.291-0.291,0.68-0.873,1.164l-0.072-0.072v-0.073l0.363-2.11c0-0.532-0.098-1.065-0.291-1.6l-0.727,0.727
				v-0.145c0.774-1.503,1.164-3.201,1.164-5.094v-2.473l-0.146-0.801l0.801-3.129l-0.437,0.438l-0.073-0.073
				c0.824-2.085,1.237-3.54,1.237-4.365l-0.146-0.291l-0.654,0.364v-0.073c0.436-1.746,1.164-3.249,2.182-4.511
				c0.339-0.048,0.775-0.484,1.311-1.31c0.774-0.63,1.721-0.946,2.837-0.946l0.655,0.073l1.018-0.073h0.729
				c2.521,0,4.315,0.535,5.383,1.602c0.679,0.485,1.188,0.873,1.528,1.164h-0.291l-0.509-0.073c0.436,0.485,1.091,1.795,1.964,3.929
				c0.437,0.68,0.848,1.213,1.237,1.601h-0.073l-0.8-0.146c0.629,0.776,1.139,2.086,1.527,3.929c0.097,0,0.193,0.194,0.291,0.582
				h-0.146l-0.437-0.364h-0.072l0.072,0.729v0.436c0,0.972-0.437,2.232-1.31,3.783v0.51l0.073,0.072v0.073l-0.073,0.146h-0.073
				l-0.509-0.437h-0.073c-0.243,0.776-0.363,1.335-0.363,1.673c0,0.195,0.12,0.438,0.363,0.729c-0.34,0.098-0.558,0.218-0.654,0.363
				c0,0.873,0.702,2.109,2.109,3.711h0.438c2.715,0,4.558,0.727,5.529,2.182c1.987,2.136,2.982,4.633,2.982,7.494
				c0.533,4.56,1.406,8.828,2.619,12.805c1.31,3.735,1.965,5.869,1.965,6.402h0.727c0.193,0,2.667-1.383,7.422-4.146l3.492-4.074
				c0.241-0.097,0.605-0.994,1.091-2.692c1.455-3.056,2.183-5.603,2.183-7.64c2.328-3.151,3.711-5.431,4.146-6.838
				c2.667-5.529,4.365-8.367,5.094-8.513c0.969-0.484,2.86-1.237,5.674-2.255c1.893-1.066,3.104-1.648,3.639-1.746
				c-0.729-0.97-2.063-1.455-4.002-1.455c-1.601-0.438-2.4-1.043-2.4-1.819v-0.073l0.218-2.473c0-1.357-0.462-2.353-1.382-2.983
				c-0.291-0.388-0.438-0.702-0.438-0.946c0.048-0.436,0.51-1.479,1.383-3.128l-0.072-0.873c0-2.085,0.363-3.589,1.091-4.511
				l-0.8-1.019v-0.073l0.582-0.509l-1.092-0.218c0.533-1.164,1.527-1.988,2.982-2.475c0.291,0,1.455-0.509,3.492-1.527
				c0.388-0.146,1.14-0.266,2.256-0.363v0.072l-0.363,0.363h0.072C-854.729-1753.758-853.807-1753.977-852.788-1753.977z
				 M-917.394-1637.716v4.001l1.673,0.291v-0.145l0.438-1.455c-0.146-0.873-0.219-1.771-0.219-2.692v-0.146
				c0-3.686,0.775-8.512,2.328-14.479c-0.582,0.826-1.189,2.037-1.818,3.639c-0.826,2.231-1.554,5.19-2.184,8.875L-917.394-1637.716
				z"/>
		</g>
	</g>
</g>
<g id="C" display="none">
</g>
</svg>
