<?xml version="1.0" encoding="utf-8"?>
<!-- Generator: Adobe Illustrator 16.0.0, SVG Export Plug-In . SVG Version: 6.00 Build 0)  -->
<!DOCTYPE svg PUBLIC "-//W3C//DTD SVG 1.1//EN" "http://www.w3.org/Graphics/SVG/1.1/DTD/svg11.dtd">
<svg version="1.1" xmlns="http://www.w3.org/2000/svg" xmlns:xlink="http://www.w3.org/1999/xlink" x="0px" y="0px"
	 width="282.232px" height="282.232px" viewBox="-755.693 -603.236 282.232 282.232"
	 enable-background="new -755.693 -603.236 282.232 282.232" xml:space="preserve">
<g id="_x2D_--" display="none">
</g>
<g id="fond">
	<circle fill="#00326E" cx="-614.578" cy="-462.119" r="141.116"/>
</g>
<g id="A" display="none">
	<g id="Calque_2" display="inline">
	</g>
	<g id="Calque_7" display="inline">
	</g>
</g>
<g id="B">
	<g opacity="0.9">
		<path fill="#FFFFFF" d="M-546.387-497.806l-53.422,19.006l12.328,43.919h-96.185l12.328-44.176l-15.153-5.394l-19.776,68.446
			l-12.328-11.557l28.124-58.303l-34.673-11.942l89.379-31.976L-546.387-497.806z M-596.085-439.761l-9.76-36.856l-29.536,10.531
			l-29.921-10.787l-9.76,37.112H-596.085z M-601.735-444.641h-67.676l6.421-25.94l27.61,10.273l26.839-8.989L-601.735-444.641z"/>
	</g>
	<g>
		<path fill="#FFFFFF" d="M-637.952-360.918l24.238-35.669l99.484-72.68c11.146,3.598,17.096,11.63,17.847,24.099l-99.771,72.673
			L-637.952-360.918z M-624.563-374.484l3.961,5.212l22.296-6.117c3.288-2.787,4.945-4.869,4.973-6.247
			c0.012-0.57-0.135-0.989-0.437-1.257c-0.306-0.267-0.789-0.408-1.454-0.421c-1.379-0.027-3.771,0.757-7.178,2.353
			c2.905-2.651,4.375-4.88,4.411-6.686c0.018-0.902-0.217-1.584-0.708-2.046c-0.489-0.462-1.258-0.703-2.303-0.724
			c-1.094-0.021-3.343,0.742-6.749,2.29c3.046-2.506,4.587-4.732,4.626-6.682c0.011-0.522-0.124-0.917-0.404-1.185
			c-0.28-0.266-0.729-0.406-1.347-0.419c-2.139-0.042-4.438,0.839-6.898,2.645L-624.563-374.484z M-604.974-398.695
			c0.812-0.174,1.479-0.256,2.002-0.246c1.899,0.038,2.833,0.96,2.797,2.766l-0.085,0.711l59.985-44.086
			c-1.545-1.219-3.071-2.176-4.578-2.872L-604.974-398.695z M-598.247-392.715c2.175,0.566,3.24,1.989,3.195,4.271l60.274-44.295
			c-0.682-1.582-1.651-3.004-2.91-4.265L-598.247-392.715z M-593.041-385.624c0.902,0.065,1.563,0.305,1.983,0.717
			c0.419,0.412,0.622,0.999,0.606,1.759c-0.013,0.666-0.342,1.634-0.984,2.903l59.911-43.944c-0.529-2.054-1.112-3.849-1.747-5.383
			L-593.041-385.624z M-532.045-451.865c7.1,3.943,11.446,10.066,13.04,18.369l18.595-13.535
			c-1.49-8.774-5.886-14.828-13.188-18.158L-532.045-451.865z"/>
	</g>
</g>
<g id="C" display="none">
</g>
</svg>
