<?xml version="1.0" encoding="utf-8"?>
<!-- Generator: Adobe Illustrator 16.0.0, SVG Export Plug-In . SVG Version: 6.00 Build 0)  -->
<!DOCTYPE svg PUBLIC "-//W3C//DTD SVG 1.1//EN" "http://www.w3.org/Graphics/SVG/1.1/DTD/svg11.dtd">
<svg version="1.1" xmlns="http://www.w3.org/2000/svg" xmlns:xlink="http://www.w3.org/1999/xlink" x="0px" y="0px"
	 width="282.232px" height="282.232px" viewBox="-755.693 -301.162 282.232 282.232"
	 enable-background="new -755.693 -301.162 282.232 282.232" xml:space="preserve">
<g id="_x2D_--" display="none">
</g>
<g id="fond">
	<circle fill="#20558A" cx="-614.578" cy="-160.044" r="141.116"/>
</g>
<g id="A" display="none">
	<g id="Calque_2" display="inline">
	</g>
	<g id="Calque_7" display="inline">
	</g>
	<g display="inline">
		<path fill="#FFFFFF" d="M-688.608-66.336v-84.888c0-6.054,3.003-9.082,9.009-9.082h4.175c2.099,0,3.589-0.33,4.468-0.989
			s1.563-1.941,2.051-3.845l0.732-2.93c0.78-3.076,1.782-4.955,3.003-5.64c1.172-0.683,4.003-1.025,8.496-1.025h27.979
			c4.053,0,6.64,0.318,7.764,0.952c1.123,0.635,2.099,2.344,2.93,5.127l0.806,2.71c0.83,2.783,1.599,4.42,2.307,4.907
			c0.708,0.489,2.674,0.732,5.896,0.732h50.61c3.467,0,5.823,0.648,7.067,1.941c1.246,1.294,1.868,3.724,1.868,7.288v7.031h29.077
			c5.273,0,7.983,0.928,8.13,2.783c0.048,0.392-0.806,2.369-2.563,5.933l-34.644,68.994H-688.608z M-685.02-73.807l31.494-61.377
			c2.295-4.442,4.076-7.031,5.347-7.764c1.27-0.732,4.565-1.099,9.888-1.099h85.254v-7.031c0-3.759-1.831-5.64-5.493-5.64h-50.903
			c-4.59,0-7.423-0.268-8.496-0.806c-1.074-0.537-1.953-2.197-2.637-4.98l-0.879-3.369c-0.635-2.392-1.355-3.869-2.16-4.431
			c-0.807-0.561-2.601-0.842-5.384-0.842h-27.1c-3.125,0-5.226,0.293-6.299,0.879c-1.074,0.635-1.904,2.003-2.49,4.102l-0.879,3.369
			c-0.781,2.783-1.647,4.493-2.601,5.127c-0.951,0.635-3.064,0.952-6.335,0.952h-4.541c-2.344,0-3.895,0.355-4.651,1.062
			c-0.757,0.708-1.135,2.21-1.135,4.504V-73.807z M-682.822-69.925h131.03l32.446-65.039c1.073-2.344,1.611-3.662,1.611-3.955
			c-0.146-1.025-1.66-1.538-4.541-1.538h-118.213c-2.832,0-4.786,0.318-5.859,0.952c-1.074,0.635-2.173,2.076-3.296,4.321
			L-682.822-69.925z"/>
	</g>
	<g display="inline">
		<path fill="#FFFFFF" d="M-613.596-105.277l-26.738-22.45v17.959h-37.434c-8.865,0-16.429-2.629-22.691-7.888
			c-6.264-5.257-9.395-11.608-9.395-19.051c0-7.442,3.131-13.793,9.395-19.052c1.652-1.387,3.397-2.585,5.23-3.607
			c-2.086-2.433-4.217-4.839-6.401-7.212c-2.228,1.289-4.356,2.778-6.381,4.479c-8.359,7.018-12.538,15.482-12.538,25.392
			c0,9.911,4.167,18.375,12.502,25.392c8.334,7.018,18.428,10.527,30.279,10.527h37.434v17.959L-613.596-105.277z"/>
	</g>
	<g display="inline">
		<path fill="#FFFFFF" d="M-578.932-210.35l29.21-3.105c0.089-2.261-0.343-4.928-1.292-8.002l41.592-24.302l-1.738,12.025
			l-35.475,20.682c-1.582,0.933-2.683,1.466-3.303,1.6c-0.619,0.133-1.729,0.287-3.327,0.462l-28.73,3.054
			c-1.95,0.197-3.392,0.032-4.324-0.5c-1.838-1.049-2.11-2.705-0.82-4.966c0.194-0.34,0.497-0.804,0.908-1.394l16.858-23.773
			c0.867-1.191,1.52-2.039,1.953-2.539c0.437-0.501,1.475-1.24,3.114-2.214l35.45-20.753l11.295,4.424l-41.488,24.222
			c-1.963-1.947-4.115-3.625-6.457-5.037l-17.044,23.949C-580.123-215.059-578.917-213.002-578.932-210.35z M-551.98-223.977
			c-1.65-3.516-3.446-6.611-5.387-9.286l41.746-24.341l5.399,9.224L-551.98-223.977z"/>
	</g>
	<g display="inline">
		<path fill="#FFFFFF" d="M-643.126-212.373l-17.044-23.949c-2.342,1.412-4.494,3.09-6.457,5.037l-41.488-24.222l11.295-4.424
			l35.45,20.753c1.64,0.975,2.678,1.713,3.114,2.214c0.434,0.5,1.086,1.348,1.953,2.539l16.858,23.773
			c0.411,0.59,0.714,1.054,0.908,1.394c1.29,2.261,1.018,3.917-0.82,4.966c-0.933,0.533-2.374,0.698-4.324,0.5l-28.73-3.054
			c-1.599-0.175-2.708-0.329-3.327-0.462c-0.62-0.134-1.721-0.667-3.303-1.6l-35.475-20.682l-1.738-12.025l41.592,24.302
			c-0.949,3.075-1.381,5.742-1.292,8.002l29.21,3.105C-646.759-208.856-645.553-210.913-643.126-212.373z M-715.454-244.233
			l5.399-9.224l41.746,24.341c-1.94,2.675-3.736,5.77-5.387,9.286L-715.454-244.233z"/>
	</g>
</g>
<g id="B">
	<g>
		<path fill="#FFFFFF" d="M-697.126-199.303c2.279-1.106,9.896-5.469,22.852-13.086c12.891-7.617,24.382-11.426,34.473-11.426h0.781
			c4.362,0,11.719,2.312,22.07,6.934c10.287,4.558,17.839,6.836,22.656,6.836c4.753,0,10.515-2.603,17.285-7.813
			c6.706-5.208,11.296-7.813,13.77-7.813c3.972,0,8.529,2.866,13.672,8.594c5.144,5.729,9.57,8.594,13.281,8.594
			c0.717,0,1.628,0.034,2.734,0.098c1.042,0,1.563,0.358,1.563,1.074c0,1.042-2.213,2.051-6.641,3.027
			c-4.492,0.977-8.594,1.465-12.305,1.465c-3.06,0-6.641-1.106-10.742-3.32c-4.166-2.212-6.803-3.32-7.91-3.32
			c-4.557,0-9.244,2.344-14.063,7.031c-4.817,4.624-9.342,8.203-13.574,10.742c-3.711,2.67-6.314,4.655-7.813,5.957
			c-1.497,1.237-2.246,3.093-2.246,5.566v44.922c0,11.069,3.744,22.722,11.23,34.961c-13.216-6.641-22.656-12.793-28.32-18.457
			c-5.729-5.664-10.025-11.849-12.891-18.555c-2.539-6.314-6.282-13.606-11.23-21.875c-4.947-8.333-9.212-12.5-12.793-12.5
			c-6.966,0-11.197,0.62-12.695,1.855c-0.911,0.847-2.767,1.27-5.566,1.27c-4.427,0-7.845,0.424-10.254,1.27
			c0.586-1.367,3.027-2.637,7.324-3.809c0.586-2.864,1.986-4.297,4.199-4.297c1.433,0,2.897,0.098,4.395,0.293
			c1.433,0.195,2.572,0.293,3.418,0.293c4.297,0,7.553-0.391,9.766-1.172c0.261-0.977,0.424-2.083,0.488-3.32
			c0.065-1.236,0.098-2.637,0.098-4.199c0-1.888-1.302-2.832-3.906-2.832c-1.041,0-4.329,0.62-9.863,1.855
			c-5.599,1.237-10.123,1.855-13.574,1.855c-4.361,0-8.724-1.758-13.086-5.273c-4.427-3.58-8.658-5.728-12.695-6.445
			C-708.421-194.843-703.05-196.503-697.126-199.303z"/>
	</g>
	<g>
		<path fill="#FFFFFF" d="M-653.402-51.466l24.238-35.669l99.485-72.68c11.146,3.598,17.095,11.63,17.846,24.099l-99.77,72.673
			L-653.402-51.466z M-640.013-65.032l3.961,5.212l22.296-6.117c3.288-2.787,4.945-4.869,4.973-6.247
			c0.011-0.57-0.135-0.989-0.437-1.257c-0.306-0.267-0.789-0.408-1.454-0.421c-1.379-0.027-3.771,0.757-7.178,2.353
			c2.905-2.651,4.375-4.88,4.411-6.686c0.018-0.902-0.217-1.584-0.708-2.046c-0.489-0.462-1.258-0.703-2.303-0.724
			c-1.094-0.021-3.342,0.742-6.749,2.29c3.045-2.506,4.587-4.732,4.626-6.682c0.01-0.522-0.125-0.917-0.405-1.185
			c-0.28-0.266-0.729-0.406-1.347-0.419c-2.139-0.042-4.437,0.839-6.898,2.645L-640.013-65.032z M-620.423-89.243
			c0.812-0.174,1.479-0.256,2.002-0.246c1.899,0.038,2.833,0.96,2.797,2.766l-0.085,0.711l59.985-44.086
			c-1.545-1.219-3.071-2.176-4.578-2.872L-620.423-89.243z M-613.697-83.263c2.174,0.566,3.24,1.989,3.195,4.271l60.275-44.295
			c-0.682-1.582-1.652-3.004-2.911-4.265L-613.697-83.263z M-608.491-76.172c0.902,0.065,1.563,0.305,1.983,0.717
			c0.419,0.412,0.622,0.999,0.607,1.759c-0.013,0.666-0.342,1.634-0.985,2.903l59.912-43.944c-0.53-2.054-1.113-3.849-1.748-5.383
			L-608.491-76.172z M-547.495-142.413c7.099,3.943,11.446,10.066,13.04,18.369l18.594-13.535
			c-1.49-8.774-5.886-14.828-13.188-18.158L-547.495-142.413z"/>
	</g>
</g>
<g id="C" display="none">
</g>
</svg>
