<?xml version="1.0" encoding="utf-8"?>
<!-- Generator: Adobe Illustrator 16.0.0, SVG Export Plug-In . SVG Version: 6.00 Build 0)  -->
<!DOCTYPE svg PUBLIC "-//W3C//DTD SVG 1.1//EN" "http://www.w3.org/Graphics/SVG/1.1/DTD/svg11.dtd">
<svg version="1.1" xmlns="http://www.w3.org/2000/svg" xmlns:xlink="http://www.w3.org/1999/xlink" x="0px" y="0px"
	 width="283.465px" height="283.465px" viewBox="-755.693 -1812.768 283.465 283.465"
	 enable-background="new -755.693 -1812.768 283.465 283.465" xml:space="preserve">
<g id="_x2D_--" display="none">
</g>
<g id="fond">
	<circle fill="#00326E" cx="-613.345" cy="-1670.417" r="141.116"/>
</g>
<g id="A" display="none">
	<g display="inline">
		<path fill="#FFFFFF" d="M-516.982-1630.38l-20.337,12.119l13.364,25.483H-708.73l13.364-25.483l-20.337-12.119v-57.773
			l10.791-8.384c-3.818-3.929-5.728-8.66-5.728-14.194c0-5.645,1.992-10.472,5.977-14.485c3.984-4.012,8.771-6.018,14.36-6.018
			c5.589,0,10.376,2.006,14.36,6.018c3.984,4.013,5.977,8.84,5.977,14.485c0,5.534-1.909,10.266-5.728,14.194l10.791,8.384v12.119
			l10.459-20.088h12.7v-15.439l10.791-8.467c-3.818-3.929-5.728-8.66-5.728-14.194c0-5.645,1.992-10.459,5.977-14.443
			s8.771-5.977,14.36-5.977c5.589,0,10.376,1.992,14.36,5.977s5.977,8.799,5.977,14.443c0,5.534-1.909,10.266-5.728,14.194
			l10.791,8.467v15.439h12.7l10.459,20.088v-12.119l10.791-8.384c-3.818-3.929-5.728-8.66-5.728-14.194
			c0-5.645,1.992-10.472,5.977-14.485c3.984-4.012,8.771-6.018,14.36-6.018c5.589,0,10.376,2.006,14.36,6.018
			c3.984,4.013,5.977,8.84,5.977,14.485c0,5.534-1.909,10.266-5.728,14.194l10.791,8.384V-1630.38z M-671.875-1662.836v-21.914
			l-10.127-8.301v-7.222c3.375-2.435,5.063-5.921,5.063-10.459c0-3.707-1.301-6.861-3.901-9.463
			c-2.602-2.601-5.756-3.901-9.463-3.901c-3.708,0-6.877,1.315-9.504,3.943c-2.63,2.629-3.943,5.769-3.943,9.421
			c0,4.482,1.715,7.969,5.146,10.459v7.222l-10.127,8.301v49.971l16.934,9.712L-671.875-1662.836z M-538.398-1601.327
			l-45.405-85.664h-65.742l-45.322,85.664H-538.398z M-597.915-1696.122v-12.119l-10.127-8.218v-7.222
			c3.375-2.435,5.063-5.948,5.063-10.542c0-3.707-1.301-6.861-3.901-9.463c-2.602-2.601-5.756-3.901-9.463-3.901
			c-3.708,0-6.862,1.301-9.463,3.901c-2.602,2.602-3.901,5.756-3.901,9.463c0,4.594,1.688,8.107,5.063,10.542v7.222l-10.127,8.218
			v12.119H-597.915z M-523.955-1634.779v-49.971l-10.127-8.301v-7.222c3.431-2.49,5.146-5.977,5.146-10.459
			c0-3.652-1.315-6.792-3.943-9.421c-2.629-2.628-5.797-3.943-9.504-3.943c-3.708,0-6.862,1.301-9.463,3.901
			c-2.602,2.602-3.901,5.756-3.901,9.463c0,4.538,1.688,8.024,5.063,10.459v7.222l-10.127,8.301v21.914l19.922,37.769
			L-523.955-1634.779z"/>
	</g>
	<g id="Calque_2" display="inline">
	</g>
	<g id="Calque_7" display="inline">
	</g>
</g>
<g id="B">
	<path opacity="0.9" fill="#FFFFFF" d="M-653.652-1642.871c0,8.437-6.846,15.264-15.244,15.264c-8.431,0-15.277-6.827-15.277-15.264
		c0-8.411,6.847-15.251,15.277-15.251C-660.498-1658.122-653.652-1651.282-653.652-1642.871z M-652.766-1618.101l22.619,43.479
		l-13.44-0.516l-7.305,11.303l-16.282-31.282l-8.89,30.138l-9.329-9.694l-13.102,3.068l13.66-46.333
		c-8.216-5.268-13.66-14.459-13.66-24.933c0-16.345,13.252-29.584,29.585-29.584c16.339,0,29.597,13.227,29.597,29.584
		C-639.313-1632.498-644.668-1623.369-652.766-1618.101z M-684.047-1620.541l-0.221,0.29c0.044,0.012,0.082,0.038,0.107,0.05
		L-684.047-1620.541z M-673.24-1758.381v81.726c1.401-0.264,2.848-0.415,4.331-0.415c1.276,0,2.527,0.126,3.747,0.34v-73.566
		h111.713v154.777h-83.009l4.477,8.072h86.604v-170.933H-673.24z M-636.231-1738.188v8.072h53.833v-8.072H-636.231z
		 M-652.702-1712.778h84.14v-4.551h-84.14V-1712.778z M-652.702-1699.148h84.14v-4.564h-84.14V-1699.148z M-652.702-1685.179h84.14
		v-4.539h-84.14V-1685.179z M-652.702-1670.959h84.14v-4.564h-84.14V-1670.959z"/>
</g>
<g id="C" display="none">
	<g display="inline" opacity="0.6">
		<path fill="#FFFFFF" d="M-589.245-1785.691c0,3.582-0.732,7-2.197,10.254c5.695,1.953,10.578,4.723,14.648,8.301
			c0.977,0.816,1.869,1.629,2.686,2.441h38.574h7.324v7.324v159.18v7.324h-7.324h-150.879h-7.324v-7.324v-159.18v-7.324h7.324
			h38.086c0.813-0.977,1.625-1.789,2.441-2.441c4.066-3.578,8.949-6.348,14.648-8.301c-1.465-3.254-2.197-6.672-2.197-10.254
			c0-6.508,2.155-12.043,6.47-16.602c4.311-4.555,9.521-6.836,15.625-6.836s11.311,2.281,15.625,6.836
			C-591.404-1797.734-589.245-1792.199-589.245-1785.691z M-645.153-1612.84h96.436v-137.207h-22.217
			c0.16,0.652,0.244,1.385,0.244,2.197c0,1.465-0.164,2.85-0.488,4.15l-0.732,4.15h-3.906h-71.289h-3.906l-0.732-4.15
			c-0.328-1.301-0.488-2.686-0.488-4.15c0-0.813,0.08-1.545,0.244-2.197h-21.729C-677.464-1692.59-667.942-1646.855-645.153-1612.84
			z M-636.12-1759.08c-2.77,2.441-4.479,5.047-5.127,7.813h0.244v0.244h59.326v-0.244h-0.244c-0.488-2.766-2.197-5.371-5.127-7.813
			c-6.023-6.184-14-9.277-23.926-9.277C-621.228-1768.357-629.612-1765.264-636.12-1759.08z M-618.786-1793.26
			c-2.117,2.117-3.014,4.559-2.686,7.324c0.488,3.906,2.319,6.634,5.493,8.179c3.174,1.549,6.306,1.549,9.399,0
			c3.09-1.545,4.883-4.272,5.371-8.179c0-2.93-0.977-5.409-2.93-7.446c-1.953-2.033-4.314-3.052-7.08-3.052
			C-614.147-1796.434-616.673-1795.373-618.786-1793.26z"/>
	</g>
	<g display="inline">
		<path fill="#FFFFFF" d="M-614.399-1671.626l-20.336,39.364l-92.537,86.368c-11.813-2.298-18.868-9.76-21.168-22.386l92.829-86.397
			L-614.399-1671.626z M-711.241-1565.834c-7.726-3.15-12.914-8.861-15.561-17.134l-17.301,16.092
			c2.599,8.768,7.826,14.402,15.685,16.901L-711.241-1565.834z M-657.172-1640.902c-0.927,0.044-1.631-0.119-2.109-0.487
			c-0.479-0.37-0.758-0.943-0.836-1.719c-0.068-0.681,0.149-1.708,0.647-3.083L-715.176-1594c0.793,2.029,1.607,3.788,2.444,5.275
			L-657.172-1640.902z M-650.988-1634.31c-2.287-0.311-3.551-1.63-3.785-3.962l-56.033,52.593c0.891,1.53,2.054,2.86,3.493,3.993
			L-650.988-1634.31z M-643.392-1629.037c-0.807,0.276-1.476,0.442-2.012,0.497c-1.941,0.195-3.007-0.631-3.192-2.477l-0.001-0.736
			l-55.764,52.346c1.725,1.052,3.398,1.841,5.021,2.366L-643.392-1629.037z M-626.388-1656.141l-4.681-4.83l-21.99,8.981
			c-3.011,3.247-4.446,5.574-4.305,6.984c0.059,0.583,0.26,0.992,0.603,1.228c0.343,0.234,0.854,0.319,1.534,0.251
			c1.41-0.142,3.752-1.236,7.031-3.283c-2.637,3.062-3.863,5.515-3.678,7.362c0.093,0.922,0.419,1.589,0.974,2
			c0.558,0.41,1.37,0.562,2.438,0.454c1.118-0.112,3.318-1.168,6.602-3.166c-2.797,2.931-4.096,5.391-3.896,7.384
			c0.054,0.534,0.239,0.92,0.558,1.158c0.318,0.237,0.795,0.325,1.426,0.262c2.186-0.22,4.423-1.401,6.71-3.545L-626.388-1656.141z"
			/>
	</g>
	<g display="inline">
		<path fill="#FFFFFF" d="M-556.215-1686.682l92.829,86.397c-2.3,12.625-9.355,20.087-21.168,22.386l-92.537-86.368l-20.336-39.364
			L-556.215-1686.682z M-574.765-1666.904c2.287,2.144,4.524,3.326,6.71,3.545c0.631,0.063,1.107-0.025,1.426-0.262
			c0.318-0.238,0.504-0.624,0.558-1.158c0.2-1.993-1.099-4.453-3.896-7.384c3.283,1.998,5.483,3.053,6.602,3.166
			c1.068,0.107,1.881-0.044,2.438-0.454c0.555-0.411,0.881-1.078,0.974-2c0.186-1.847-1.041-4.3-3.678-7.362
			c3.279,2.046,5.621,3.141,7.031,3.283c0.68,0.068,1.191-0.017,1.534-0.251c0.343-0.236,0.544-0.645,0.603-1.228
			c0.142-1.41-1.294-3.737-4.305-6.984l-21.99-8.981l-4.681,4.83L-574.765-1666.904z M-512.487-1609.046
			c1.623-0.525,3.297-1.313,5.021-2.366l-55.764-52.346l-0.001,0.736c-0.186,1.846-1.251,2.672-3.192,2.477
			c-0.536-0.054-1.205-0.22-2.012-0.497L-512.487-1609.046z M-504.513-1613.691c1.439-1.133,2.603-2.462,3.493-3.993l-56.033-52.593
			c-0.234,2.332-1.498,3.652-3.785,3.962L-504.513-1613.691z M-499.095-1620.729c0.837-1.487,1.651-3.246,2.444-5.275
			l-55.706-52.193c0.498,1.375,0.716,2.402,0.647,3.083c-0.078,0.776-0.356,1.35-0.836,1.719c-0.479,0.368-1.183,0.531-2.109,0.487
			L-499.095-1620.729z M-483.408-1581.979c7.858-2.499,13.086-8.133,15.685-16.901l-17.301-16.092
			c-2.646,8.273-7.835,13.983-15.561,17.134L-483.408-1581.979z"/>
	</g>
</g>
</svg>
