<?xml version="1.0" encoding="utf-8"?>
<!-- Generator: Adobe Illustrator 16.0.0, SVG Export Plug-In . SVG Version: 6.00 Build 0)  -->
<!DOCTYPE svg PUBLIC "-//W3C//DTD SVG 1.1//EN" "http://www.w3.org/Graphics/SVG/1.1/DTD/svg11.dtd">
<svg version="1.1" xmlns="http://www.w3.org/2000/svg" xmlns:xlink="http://www.w3.org/1999/xlink" x="0px" y="0px"
	 width="282.232px" height="282.232px" viewBox="452.606 -301.162 282.232 282.232"
	 enable-background="new 452.606 -301.162 282.232 282.232" xml:space="preserve">
<g id="_x2D_--" display="none">
	<rect x="116.272" y="-356.429" display="inline" fill="#FFFFFF" width="4471.75" height="5688"/>
</g>
<g id="fond">
	<circle fill="#20558A" cx="593.722" cy="-160.045" r="141.116"/>
</g>
<g id="A" display="none">
	<g display="inline">
		<path fill="#FFFFFF" d="M566.127-59.396l24.238-35.669l99.484-72.68c11.146,3.598,17.096,11.63,17.847,24.099l-99.771,72.673
			L566.127-59.396z M579.516-72.963l3.961,5.212l22.297-6.117c3.287-2.787,4.945-4.869,4.973-6.247
			c0.011-0.57-0.135-0.989-0.438-1.257c-0.306-0.267-0.789-0.408-1.454-0.421c-1.379-0.027-3.771,0.757-7.178,2.353
			c2.905-2.651,4.375-4.88,4.411-6.686c0.018-0.902-0.217-1.584-0.708-2.046c-0.489-0.462-1.258-0.703-2.303-0.724
			c-1.094-0.021-3.343,0.742-6.749,2.29c3.046-2.506,4.588-4.732,4.627-6.682c0.01-0.522-0.125-0.917-0.405-1.185
			c-0.28-0.266-0.729-0.406-1.347-0.419c-2.139-0.042-4.438,0.839-6.898,2.645L579.516-72.963z M599.105-97.174
			c0.813-0.174,1.479-0.256,2.002-0.246c1.9,0.038,2.833,0.96,2.797,2.766l-0.085,0.711l59.985-44.086
			c-1.545-1.219-3.071-2.176-4.578-2.872L599.105-97.174z M605.832-91.193c2.175,0.566,3.24,1.989,3.195,4.271l60.275-44.295
			c-0.682-1.582-1.652-3.004-2.911-4.265L605.832-91.193z M611.039-84.103c0.901,0.065,1.563,0.305,1.982,0.717
			s0.622,0.999,0.607,1.759c-0.014,0.666-0.343,1.634-0.985,2.903l59.911-43.944c-0.529-2.054-1.112-3.849-1.747-5.383
			L611.039-84.103z M672.035-150.344c7.099,3.943,11.445,10.066,13.039,18.369l18.595-13.535
			c-1.49-8.774-5.886-14.828-13.188-18.158L672.035-150.344z"/>
	</g>
	<g id="Calque_2" display="inline">
	</g>
	<g id="Calque_7" display="inline">
	</g>
	<g display="inline">
		<path fill="#FFFFFF" d="M605.291-144.174c-11.95,11.949-26.414,17.924-43.389,17.924c-16.977,0-31.439-5.975-43.389-17.925
			c-11.95-11.95-17.91-26.397-17.879-43.343c0.03-16.944,6.021-31.393,17.971-43.342c11.889-11.889,26.336-17.85,43.342-17.879
			c17.006-0.031,31.453,5.897,43.343,17.787c11.95,11.949,17.925,26.412,17.925,43.389
			C623.215-170.588,617.24-156.125,605.291-144.174z M570.359-148.403l0.275-30.427l30.06,0.092l0.001-17.465l-30.336-0.368v-29.968
			h-17.465l-0.277,30.243l-30.059,0.093v17.465l30.335,0.184l0.001,30.152L570.359-148.403z"/>
	</g>
	<g display="inline">
		<defs>
			<circle id="SVGID_5_" cx="895.916" cy="-161.374" r="141.116"/>
		</defs>
		<clipPath id="SVGID_1_">
			<use xlink:href="#SVGID_5_"  overflow="visible"/>
		</clipPath>
		<g clip-path="url(#SVGID_1_)">
			<path opacity="0.5" fill="#FFFFFF" d="M786.174-180.561c0,3.073,2.775,9.196,2.775,9.196c1.691,3.737-0.372,6.794-4.585,6.794
				H754.33l0,0h-7.664v7.408c0,0.002,0,0.005,0,0.008v29.077c-0.002,4.067-3.144,6.061-6.988,4.442
				c-0.021-0.009-0.044-0.017-0.064-0.025c-0.488-0.205-6.422-2.67-9.463-2.67l0,0l0,0l0,0c-2.104,0-4.066,0.566-5.74,1.551
				c-0.152,0.09-0.303,0.183-0.449,0.278c-2.945,1.926-4.881,5.187-4.881,8.886c0,3.697,1.936,6.959,4.881,8.883
				c0.146,0.097,0.297,0.188,0.449,0.28c1.674,0.983,3.637,1.551,5.74,1.551l0,0l0,0l0,0c3.041-0.005,8.975-2.468,9.463-2.671
				c0.021-0.009,0.043-0.019,0.064-0.026c3.845-1.616,6.986,0.376,6.988,4.44v29.079c0,0.004,0,0.006,0,0.01v7.405h6.068
				c0.516-0.105,1.049-0.162,1.596-0.162h30.034c4.213,0,6.276-3.057,4.583-6.795c0,0-2.773-6.121-2.773-9.194
				c0-5.919,4.955-10.714,11.068-10.714s11.069,4.795,11.069,10.714c0,3.073-2.775,9.194-2.775,9.194
				c-1.694,3.738,0.37,6.795,4.585,6.795h30.033c0.547,0,1.08,0.057,1.596,0.162h6.068v-7.415v-29.079
				c-0.008-4.074-3.797-4.99-7.652-3.354c0,0-5.692,1.61-8.865,1.61c-6.114,0-11.069-4.797-11.069-10.714
				c0-5.919,4.955-10.715,11.069-10.715c3.173,0,9.5,2.687,9.5,2.687c3.855,1.638,7.01-0.356,7.018-4.428v-29.083v-7.416h-7.664
				h-30.033c-4.215,0-6.279-3.057-4.585-6.794c0,0,2.775-6.123,2.775-9.196c0-5.916-4.956-10.711-11.069-10.711
				S786.174-186.477,786.174-180.561z"/>
		</g>
	</g>
</g>
<g id="B">
	<g opacity="0.75">
		<path fill="#FFFFFF" d="M638.549-98.253c0,1.108-0.391,2.051-1.172,2.832s-1.693,1.172-2.734,1.172l-46.289,0.586
			c-1.107,0-2.051-0.391-2.832-1.172s-1.172-1.724-1.172-2.832l-0.391-32.227c0-1.106,0.391-2.051,1.172-2.832
			c0.781-0.845,1.725-1.27,2.832-1.27c3.516,0,7.584-0.032,12.207-0.098c-0.064-0.325-0.098-0.552-0.098-0.684
			c0-0.716,0.098-1.431,0.293-2.148c0.586-2.408,2.018-4.329,4.297-5.762l-12.793-36.426c0.717,25.977,1.074,38.999,1.074,39.063
			c0-0.13,0.131,0.944,0.391,3.223c-2.213,0-4.037,0.034-5.469,0.098c-1.822,0-3.385,0.684-4.688,2.051
			c-1.303,1.303-1.953,2.897-1.953,4.785l0.293,32.227c0.064,1.889,0.748,3.483,2.051,4.785c1.367,1.302,2.994,1.953,4.883,1.953
			l13.672-0.098c4.428,5.664,10.807,13.867,19.141,24.609l-8.594,8.398l-31.055-31.836c-6.186-14.192-9.766-22.754-10.742-25.684
			c-1.172,2.995-9.311,22.038-24.414,57.129l-11.035-3.516c12.369-51.106,18.555-76.724,18.555-76.855
			c0,0.651-0.131-3.027-0.391-11.035c-0.26-8.138-0.391-14.16-0.391-18.066c-3.842,6.772-6.381,10.971-7.617,12.598
			c-1.563,2.214-3.516,3.679-5.859,4.395c-4.623,1.563-8.854-1.106-12.695-8.008c-6.25-5.142-12.143-8.398-17.676-9.766
			l-0.879-0.195l-8.203-38.086l2.051,0.391c6.445,1.237,13.346,4.233,20.703,8.984c6.641-5.664,15.365-10.742,26.172-15.234
			l1.66-0.684l1.66,11.426c1.172-1.431,2.213-2.603,3.125-3.516c5.273-5.273,11.459-7.747,18.555-7.422
			c7.943-0.845,14.908,2.246,20.898,9.277c10.092,11.784,16.602,31.706,19.531,59.766c3.775,1.108,6.119,3.386,7.031,6.836
			c0.195,0.717,0.293,1.401,0.293,2.051c0,0.131,0,0.358,0,0.684c4.623,0,8.691-0.032,12.207-0.098c1.107,0,2.051,0.391,2.832,1.172
			c0.781,0.717,1.172,1.628,1.172,2.734L638.549-98.253z M510.814-171.104c5.729,1.758,11.459,4.883,17.188,9.375l-6.152-33.203
			c-6.25-4.102-12.24-6.9-17.969-8.398c0.326,1.433,1.563,7.065,3.711,16.895C509.676-176.54,510.75-171.43,510.814-171.104z
			 M531.029-160.362c6.186-5.728,13.639-10.938,22.363-15.625c-0.064-0.455-0.846-5.859-2.344-16.211
			c-1.432-10.352-2.246-16.113-2.441-17.285c-10.352,4.624-18.326,9.375-23.926,14.258L531.029-160.362z M566.186-217.394
			c-3.971,0-7.357-1.431-10.156-4.297c-2.865-2.798-4.297-6.185-4.297-10.156c0-3.97,1.432-7.388,4.297-10.254
			c2.799-2.798,6.186-4.199,10.156-4.199s7.389,1.401,10.254,4.199c2.799,2.866,4.199,6.284,4.199,10.254
			c0,3.972-1.4,7.358-4.199,10.156C573.574-218.825,570.156-217.394,566.186-217.394z M617.748-134.288c0-0.259,0-0.488,0-0.684
			c0-0.716-0.162-1.431-0.488-2.148c-1.172-2.148-3.256-3.223-6.25-3.223c-2.994,0.065-5.078,1.206-6.25,3.418
			c-0.326,0.651-0.488,1.335-0.488,2.051c0,0.261,0.033,0.488,0.098,0.684C608.08-134.19,612.539-134.223,617.748-134.288z"/>
	</g>
	<g>
		<path fill="#FFFFFF" d="M692.095-176.364c-2.754,9.409-6.725,16.352-11.911,20.826c-5.187,4.476-12.071,6.713-20.654,6.713
			c-8.904,0-16.547-3.196-22.926-9.588c-6.381-6.393-10.649-15.268-12.806-26.626h-9.846v-7.986h8.882
			c-0.093-1.146-0.138-3.029-0.138-5.646c0-2.065,0.045-3.58,0.138-4.544h-8.882v-8.056h9.708
			c2.156-11.979,6.712-20.871,13.666-26.678c6.953-5.806,14.676-8.709,23.167-8.709c16.523,0,27.011,8.789,31.464,26.368
			l-11.429,1.583c-3.352-12.438-10.075-18.657-20.173-18.657c-5.6,0-10.626,2.014-15.077,6.04
			c-4.453,4.028-7.551,10.712-9.295,20.053h27.608v8.056h-28.641c-0.093,1.147-0.138,2.984-0.138,5.508
			c0,2.158,0.045,3.718,0.138,4.682h28.641v7.986h-27.746c1.744,9.92,5.003,16.886,9.776,20.899s9.501,6.02,14.183,6.02
			c10.786,0,17.923-6.723,21.412-20.172L692.095-176.364z"/>
	</g>
</g>
<g id="C" display="none">
</g>
</svg>
