<?xml version="1.0" encoding="utf-8"?>
<!-- Generator: Adobe Illustrator 16.0.0, SVG Export Plug-In . SVG Version: 6.00 Build 0)  -->
<!DOCTYPE svg PUBLIC "-//W3C//DTD SVG 1.1//EN" "http://www.w3.org/Graphics/SVG/1.1/DTD/svg11.dtd">
<svg version="1.1" xmlns="http://www.w3.org/2000/svg" xmlns:xlink="http://www.w3.org/1999/xlink" x="0px" y="0px"
	 width="282.232px" height="282.232px" viewBox="452.606 -1509.46 282.232 282.232"
	 enable-background="new 452.606 -1509.46 282.232 282.232" xml:space="preserve">
<g id="_x2D_--" display="none">
</g>
<g id="fond">
	<circle fill="#20558A" cx="593.722" cy="-1368.344" r="141.116"/>
</g>
<g id="A" display="none">
	<g display="inline">
		<path fill="#FFFFFF" d="M550.169-1352.836c-10.313,0-18.567-4.028-24.761-12.085c-6.195-8.057-9.292-17.886-9.292-29.487
			c0-11.387,3.115-20.929,9.346-28.628c6.23-7.697,14.572-11.548,25.029-11.548c11.672,0,20.319,4.047,25.942,12.139
			c5.621,8.094,8.433,17.332,8.433,27.715c0,12.891-3.367,23.096-10.098,30.615C568.036-1356.596,559.837-1352.836,550.169-1352.836
			z M550.276-1368.734c9.883,0,14.824-8.594,14.824-25.781c0-16.328-4.764-24.492-14.287-24.492
			c-9.668,0-14.502,8.129-14.502,24.385C536.312-1377.363,540.966-1368.734,550.276-1368.734z M647.601-1433.188l-90.771,146.631
			h-16.221l91.094-146.631H647.601z M636.858-1285.268c-9.668,0-17.671-3.741-24.009-11.226c-6.338-7.482-9.507-16.919-9.507-28.306
			c0-13.105,3.526-23.435,10.581-30.991c7.053-7.555,15.163-11.333,24.331-11.333c8.664,0,16.436,3.51,23.311,10.527
			c6.875,7.02,10.313,17.617,10.313,31.797c0,11.889-3.313,21.449-9.937,28.682C655.316-1288.883,646.956-1285.268,636.858-1285.268
			z M637.718-1300.844c5.084,0,8.79-2.452,11.118-7.358c2.326-4.904,3.491-10.544,3.491-16.919c0-9.238-1.128-15.845-3.384-19.819
			s-5.712-5.962-10.366-5.962c-10.17,0-15.254,8.344-15.254,25.029C623.323-1309.186,628.12-1300.844,637.718-1300.844z"/>
	</g>
	<g id="Calque_2" display="inline">
	</g>
	<g id="Calque_7" display="inline">
	</g>
</g>
<g id="B">
	<g opacity="0.7">
		<path fill="#FFFFFF" d="M568.237-1422.374c4.336,0,8.231-1.406,11.689-4.219c1.758,0.762,3.09,1.349,3.999,1.758
			c0.908,0.411,2.123,0.997,3.647,1.758c1.523,0.762,2.694,1.421,3.516,1.978c0.82,0.558,1.771,1.274,2.856,2.153
			c1.084,0.879,1.875,1.714,2.373,2.505c0.497,0.791,0.923,1.714,1.274,2.769s0.527,2.168,0.527,3.34v30.146h-59.766v-30.146
			c0.176-1.875,0.645-3.573,1.406-5.098c0.761-1.523,1.64-2.813,2.637-3.867c0.996-1.055,2.343-2.079,4.043-3.076
			c1.699-0.996,3.208-1.802,4.526-2.417s3.032-1.332,5.142-2.153C559.624-1423.896,563.667-1422.374,568.237-1422.374z
			 M568.193-1458.584c-4.307,0-7.984,1.524-11.03,4.57c-3.047,3.047-4.57,6.739-4.57,11.074c0,4.337,1.523,8.028,4.57,11.074
			c3.046,3.047,6.724,4.57,11.03,4.57s7.998-1.523,11.074-4.57c3.076-3.046,4.614-6.737,4.614-11.074
			c0-4.335-1.538-8.027-4.614-11.074C576.191-1457.06,572.5-1458.584,568.193-1458.584z"/>
	</g>
	<g opacity="0.8">
		<path fill="#FFFFFF" d="M507.168-1367.43c4.336,0,8.231-1.406,11.689-4.219c1.758,0.762,3.09,1.349,3.999,1.758
			c0.908,0.411,2.123,0.997,3.647,1.758c1.523,0.762,2.694,1.421,3.516,1.978c0.82,0.558,1.771,1.274,2.856,2.153
			c1.084,0.879,1.875,1.714,2.373,2.505c0.497,0.791,0.923,1.714,1.274,2.769s0.527,2.168,0.527,3.34v30.146h-59.766v-30.146
			c0.176-1.875,0.645-3.573,1.406-5.098c0.761-1.523,1.64-2.813,2.637-3.867c0.996-1.055,2.343-2.079,4.043-3.076
			c1.699-0.996,3.208-1.802,4.526-2.417s3.032-1.332,5.142-2.153C498.555-1368.953,502.598-1367.43,507.168-1367.43z
			 M507.124-1403.641c-4.307,0-7.984,1.524-11.03,4.57c-3.047,3.047-4.57,6.739-4.57,11.074c0,4.337,1.523,8.028,4.57,11.074
			c3.046,3.047,6.724,4.57,11.03,4.57s7.998-1.523,11.074-4.57c3.076-3.046,4.614-6.737,4.614-11.074
			c0-4.335-1.538-8.027-4.614-11.074C515.122-1402.117,511.431-1403.641,507.124-1403.641z"/>
	</g>
	<g opacity="0.9">
		<path fill="#FFFFFF" d="M573.323-1319.277c4.336,0,8.231-1.406,11.689-4.219c1.758,0.762,3.09,1.349,3.999,1.758
			c0.908,0.411,2.123,0.997,3.647,1.758c1.523,0.762,2.694,1.421,3.516,1.978c0.82,0.558,1.771,1.274,2.856,2.153
			c1.084,0.879,1.875,1.714,2.373,2.505c0.497,0.791,0.923,1.714,1.274,2.769s0.527,2.168,0.527,3.34v30.146H543.44v-30.146
			c0.176-1.875,0.645-3.573,1.406-5.098c0.761-1.523,1.64-2.813,2.637-3.867c0.996-1.055,2.343-2.079,4.043-3.076
			c1.699-0.996,3.208-1.802,4.526-2.417s3.032-1.332,5.142-2.153C564.71-1320.8,568.753-1319.277,573.323-1319.277z
			 M573.279-1355.488c-4.307,0-7.984,1.524-11.03,4.57c-3.047,3.047-4.57,6.739-4.57,11.074c0,4.337,1.523,8.028,4.57,11.074
			c3.046,3.047,6.724,4.57,11.03,4.57s7.998-1.523,11.074-4.57c3.076-3.046,4.614-6.737,4.614-11.074
			c0-4.335-1.538-8.027-4.614-11.074C581.277-1353.963,577.586-1355.488,573.279-1355.488z"/>
	</g>
	<g>
		<path fill="#FFFFFF" d="M611.323-1410.681v-9.053h90v9.053H611.323z"/>
		<path fill="#FFFFFF" d="M611.323-1358.681v-9.053h90v9.053H611.323z"/>
		<path fill="#FFFFFF" d="M611.323-1306.681v-9.053h90v9.053H611.323z"/>
	</g>
</g>
<g id="C" display="none">
</g>
</svg>
