<?xml version="1.0" encoding="utf-8"?>
<!-- Generator: Adobe Illustrator 16.0.0, SVG Export Plug-In . SVG Version: 6.00 Build 0)  -->
<!DOCTYPE svg PUBLIC "-//W3C//DTD SVG 1.1//EN" "http://www.w3.org/Graphics/SVG/1.1/DTD/svg11.dtd">
<svg version="1.1" xmlns="http://www.w3.org/2000/svg" xmlns:xlink="http://www.w3.org/1999/xlink" x="0px" y="0px"
	 width="282.232px" height="282.232px" viewBox="150.531 302.988 282.232 282.232"
	 enable-background="new 150.531 302.988 282.232 282.232" xml:space="preserve">
<g id="_x2D_--" display="none">
	<rect x="116.272" y="-356.429" display="inline" fill="#FFFFFF" width="4471.75" height="5688"/>
	<g display="inline">
		<path d="M341.266,604.217v-11.88l15.18-14.74c36.521-34.76,53.021-53.24,53.24-74.801c0-14.52-7.04-27.939-28.38-27.939
			c-12.98,0-23.761,6.6-30.36,12.1l-6.16-13.64c9.9-8.36,23.98-14.521,40.48-14.521c30.8,0,43.78,21.12,43.78,41.58
			c0,26.4-19.141,47.74-49.28,76.78l-11.44,10.561v0.439h64.24v16.061H341.266z"/>
	</g>
</g>
<g id="fond">
	<circle fill="#00326E" cx="291.646" cy="444.105" r="141.116"/>
</g>
<g id="A" display="none">
	<g id="Calque_2" display="inline">
	</g>
	<g id="Calque_7" display="inline">
	</g>
</g>
<g id="B">
	<g opacity="0.9">
		<path fill="#FFFFFF" d="M301.999,461.275c-3.421-7.611-24.353-14.21-24.353-14.21c-11.178-3.934-8.816-7.32-8.816-7.32
			c-26.846,34.397-41.047-0.414-41.047-0.414c-1.525,5.834-24.117,12.683-24.117,12.683c-6.602,2.548-9.386,6.347-9.386,6.347
			c-9.772,14.46-10.9,40.559-10.9,40.559c0.12,7.354,3.302,8.124,3.302,8.124c21.99,18.729,62.333,18.729,62.333,18.729
			c37.788,0,57.817-17.207,57.817-17.207c3.805-2.412,3.921-4.313,3.921-4.313C313.424,481.159,301.999,461.275,301.999,461.275z"/>
		<path fill="#FFFFFF" d="M278.627,397.05l-3.613,4.568c-4.546,5.747-24.082,14.579-29.462,14.579
			c-4.577,0-18.792-6.733-24.151-13.197l-3.661-4.407l0.522,5.695c0.205,2.227,0.507,4.494,0.912,6.901
			c-0.432,0.186-0.808,0.483-1.105,0.886c-1.657,2.195-0.416,7.513,0.145,9.493c0.398,2.624,1.413,4.185,2.363,5.1
			c2.14,14.841,14.921,29.197,26.184,29.197c13.372,0,25.579-15.259,27.846-29.173c0.963-0.903,1.965-2.437,2.337-4.913
			c0.618-2.191,1.859-7.519,0.193-9.717c-0.153-0.211-0.338-0.39-0.538-0.536c0.586-2.039,1.307-5.158,1.564-8.672L278.627,397.05z
			 M273.486,421.026c-0.326,2.128-1.117,2.974-1.563,3.288l-0.617,0.443l-0.105,0.752c-1.747,12.397-12.816,26.805-24.447,26.805
			c-9.669,0-21.154-13.505-22.752-26.771l-0.097-0.77l-0.62-0.455c-0.449-0.319-1.248-1.181-1.618-3.502
			c-0.644-2.32-1.013-4.932-0.869-6.115l2.882,1.358l-0.645-3.413c-0.238-1.236-0.438-2.42-0.615-3.586
			c6.732,6.032,17.85,10.68,23.132,10.68c5.717,0,20.573-5.795,28.378-12.189c-0.449,2.156-0.955,3.823-1.247,4.663l-1.073,3.207
			l2.787-0.817C274.549,415.771,274.186,418.474,273.486,421.026z"/>
		<path fill="#FFFFFF" d="M220.032,402.975c5.292,5.367,19.946,13.767,25.52,13.767c6.009,0,25.983-9.752,30.849-14.954
			c0.701-0.745,1.084-1.394,1.084-1.904c0-0.446-0.169-0.883-0.438-2.193l-2.231-10.838l-2.558,1.281l-24.745,12.413l-24.268-12.407
			l-2.489-1.282l-2.228,11.693c0.008-0.021,0.028-0.034,0.042-0.049c-0.322,0.452-0.496,0.911-0.496,1.388
			C218.074,400.664,218.809,401.736,220.032,402.975z"/>
		<polygon fill="#FFFFFF" stroke="#00326E" stroke-width="3" stroke-miterlimit="10" points="247.773,402.8 278.397,386.069 
			304.322,371.892 247.94,355.929 191.402,372.124 216.908,385.991 		"/>
		<polygon fill="#FFFFFF" points="206.875,400.56 204.535,372.706 202.016,400.56 204.535,408.907 		"/>
	</g>
	<g opacity="0.8">
		<g>
			<path fill="#FFFFFF" d="M317.323,426.312v-8.248h82v8.248H317.323z"/>
			<path fill="#FFFFFF" d="M317.323,454.312v-8.248h82v8.248H317.323z"/>
			<path fill="#FFFFFF" d="M317.323,482.312v-8.248h82v8.248H317.323z"/>
		</g>
	</g>
	<g opacity="0.8">
		<g>
			<path fill="#FFFFFF" d="M317.323,426.312v-8.248h82v8.248H317.323z"/>
			<path fill="#FFFFFF" d="M317.323,454.312v-8.248h82v8.248H317.323z"/>
			<path fill="#FFFFFF" d="M317.323,482.312v-8.248h82v8.248H317.323z"/>
		</g>
	</g>
</g>
<g id="C" display="none">
</g>
</svg>
