<?xml version="1.0" encoding="utf-8"?>
<!-- Generator: Adobe Illustrator 16.0.0, SVG Export Plug-In . SVG Version: 6.00 Build 0)  -->
<!DOCTYPE svg PUBLIC "-//W3C//DTD SVG 1.1//EN" "http://www.w3.org/Graphics/SVG/1.1/DTD/svg11.dtd">
<svg version="1.1" xmlns="http://www.w3.org/2000/svg" xmlns:xlink="http://www.w3.org/1999/xlink" x="0px" y="0px"
	 width="282.232px" height="282.232px" viewBox="-453.618 0.913 282.232 282.232"
	 enable-background="new -453.618 0.913 282.232 282.232" xml:space="preserve">
<g id="_x2D_--" display="none">
</g>
<g id="fond">
	<circle fill="#00326E" cx="-312.503" cy="142.029" r="141.116"/>
</g>
<g id="A" display="none">
	<g id="Calque_2" display="inline">
	</g>
	<g id="Calque_7" display="inline">
	</g>
</g>
<g id="B">
	<g>
		<path fill="#E9A402" d="M-330.188,104.858c-2.663-5.61-2.079-11.775,1.756-18.501c3.833-6.719,9.925-11.988,18.276-15.809
			c8.526-3.901,16.607-5.324,24.243-4.269c7.637,1.059,12.901,4.408,15.8,10.055c2.839,5.531,2.185,11.548-1.968,18.053
			c-4.157,6.507-10.293,11.909-18.413,16.204c-8.466,3.581-16.543,4.893-24.238,3.937
			C-322.431,113.575-327.579,110.352-330.188,104.858z"/>
	</g>
	<path opacity="0.9" fill="#FFFFFF" d="M-318.138,195.311c0-90-93-116-92-114l-4,4c6,40-20,90,90,153v1c6.627,0,5-23.373,5-30"/>
	<path opacity="0.9" fill="#FFFFFF" d="M-306.402,224.312c0-90,93-116,92-114l4,4c-6,40,20,90-90,153v1c-6.627,0-5-23.373-5-30"/>
</g>
<g id="C" display="none">
</g>
</svg>
