<?xml version="1.0" encoding="utf-8"?>
<!-- Generator: Adobe Illustrator 16.0.0, SVG Export Plug-In . SVG Version: 6.00 Build 0)  -->
<!DOCTYPE svg PUBLIC "-//W3C//DTD SVG 1.1//EN" "http://www.w3.org/Graphics/SVG/1.1/DTD/svg11.dtd">
<svg version="1.1" xmlns="http://www.w3.org/2000/svg" xmlns:xlink="http://www.w3.org/1999/xlink" x="0px" y="0px"
	 width="282.232px" height="282.232px" viewBox="-755.693 -1509.46 282.232 282.232"
	 enable-background="new -755.693 -1509.46 282.232 282.232" xml:space="preserve">
<g id="_x2D_--" display="none">
</g>
<g id="fond">
	<circle fill="#00326E" cx="-614.578" cy="-1368.344" r="141.116"/>
</g>
<g id="A" display="none">
	<g display="inline">
		<path fill="#FFFFFF" d="M-739.084-1423.5v-8.232h8.232v8.232H-739.084z"/>
		<path fill="#FFFFFF" d="M-722.414-1423.5v-8.232h8.232v8.232H-722.414z"/>
		<path fill="#FFFFFF" d="M-705.744-1423.5v-8.232h8.232v8.232H-705.744z"/>
		<path fill="#FFFFFF" d="M-689.074-1423.5v-8.232h8.232v8.232H-689.074z"/>
		<path fill="#FFFFFF" d="M-672.404-1423.5v-8.232h8.232v8.232H-672.404z"/>
		<path fill="#FFFFFF" d="M-655.734-1423.5v-8.232h8.232v8.232H-655.734z"/>
		<path fill="#FFFFFF" d="M-639.064-1423.5v-8.232h8.232v8.232H-639.064z"/>
		<path fill="#FFFFFF" d="M-622.395-1423.5v-8.232h8.232v8.232H-622.395z"/>
		<path fill="#FFFFFF" d="M-605.725-1423.5v-8.232h8.232v8.232H-605.725z"/>
		<path fill="#FFFFFF" d="M-589.055-1423.5v-8.232h8.232v8.232H-589.055z"/>
		<path fill="#FFFFFF" d="M-572.385-1423.5v-8.232h8.232v8.232H-572.385z"/>
		<path fill="#FFFFFF" d="M-555.715-1423.5v-8.232h8.232v8.232H-555.715z"/>
		<path fill="#FFFFFF" d="M-539.045-1423.5v-8.232h8.232v8.232H-539.045z"/>
		<path fill="#FFFFFF" d="M-522.375-1423.5v-8.232h8.232v8.232H-522.375z"/>
		<path fill="#FFFFFF" d="M-505.705-1423.5v-8.232h8.232v8.232H-505.705z"/>
		<path fill="#FFFFFF" d="M-489.035-1423.5v-8.232h8.232v8.232H-489.035z"/>
	</g>
	<g display="inline">
		<path fill="#FFFFFF" d="M-688.035-1343.5v-27.441h27.441v27.441H-688.035z"/>
		<path fill="#FFFFFF" d="M-632.469-1343.5v-27.441h27.441v27.441H-632.469z"/>
		<path fill="#FFFFFF" d="M-576.902-1343.5v-27.441h27.441v27.441H-576.902z"/>
		<path fill="#FFFFFF" d="M-688.035-1295.5v-27.441h27.441v27.441H-688.035z"/>
		<path fill="#FFFFFF" d="M-632.469-1295.5v-27.441h27.441v27.441H-632.469z"/>
		<path fill="#FFFFFF" d="M-576.902-1295.5v-27.441h27.441v27.441H-576.902z"/>
	</g>
	<rect x="-755.693" y="-1509.46" display="inline" opacity="0.3" fill="#FFFFFF" width="291.303" height="83.96"/>
	<g display="inline">
		<path fill="#FFFFFF" d="M-674.476-1411.057v-34.043h13.33v34.043H-674.476z"/>
		<path fill="#FFFFFF" d="M-624.556-1411.057v-34.043h13.33v34.043H-624.556z"/>
		<path fill="#FFFFFF" d="M-574.636-1411.057v-34.043h13.33v34.043H-574.636z"/>
	</g>
	<g id="Calque_2" display="inline">
	</g>
	<g id="Calque_7" display="inline">
	</g>
</g>
<g id="B">
	<g opacity="0.7">
		<path fill="#FFFFFF" d="M-598.216-1467.662c0,3.582-0.732,7-2.197,10.254c5.695,1.953,10.578,4.723,14.648,8.301
			c0.977,0.816,1.869,1.629,2.686,2.441h38.574h7.324v7.324v159.18v7.324h-7.324h-150.879h-7.324v-7.324v-159.18v-7.324h7.324
			h38.086c0.813-0.977,1.625-1.789,2.441-2.441c4.066-3.578,8.949-6.348,14.648-8.301c-1.465-3.254-2.197-6.672-2.197-10.254
			c0-6.508,2.155-12.043,6.47-16.602c4.311-4.555,9.521-6.836,15.625-6.836s11.311,2.281,15.625,6.836
			C-600.375-1479.705-598.216-1474.17-598.216-1467.662z M-654.124-1294.811h96.436v-137.207h-22.217
			c0.16,0.652,0.244,1.385,0.244,2.197c0,1.465-0.164,2.85-0.488,4.15l-0.732,4.15h-3.906h-71.289h-3.906l-0.732-4.15
			c-0.328-1.301-0.488-2.686-0.488-4.15c0-0.813,0.08-1.545,0.244-2.197h-21.729
			C-686.435-1374.561-676.913-1328.826-654.124-1294.811z M-645.091-1441.051c-2.77,2.441-4.479,5.047-5.127,7.813h0.244v0.244
			h59.326v-0.244h-0.244c-0.488-2.766-2.197-5.371-5.127-7.813c-6.023-6.184-14-9.277-23.926-9.277
			C-630.198-1450.328-638.583-1447.234-645.091-1441.051z M-627.757-1475.23c-2.117,2.117-3.014,4.559-2.686,7.324
			c0.488,3.906,2.319,6.634,5.493,8.179c3.174,1.549,6.306,1.549,9.399,0c3.09-1.545,4.883-4.272,5.371-8.179
			c0-2.93-0.977-5.409-2.93-7.446c-1.953-2.033-4.314-3.052-7.08-3.052C-623.118-1478.404-625.644-1477.344-627.757-1475.23z"/>
	</g>
	<g>
		<path fill="#FFFFFF" d="M-709.408-1321.959l12.957,21.873l-5.483,3.239c-7.27,4.319-11.984,4.651-14.145,0.994l-6.479-10.904
			c-2.16-3.655,0.396-7.644,7.665-11.962L-709.408-1321.959z M-703.925-1325.199l43.619-25.914l12.958,21.873l-43.619,25.914
			L-703.925-1325.199z M-632.343-1353.797l-11.013,18.732l-10.495-17.713L-632.343-1353.797z"/>
	</g>
	<g>
		<path fill="#FFFFFF" d="M-572.849-1397.777l-10.495,17.713l-11.013-18.732L-572.849-1397.777z M-535.732-1348.327l-43.619-25.914
			l12.958-21.873l43.619,25.914L-535.732-1348.327z M-511.807-1363.72c7.27,4.319,9.825,8.307,7.665,11.962l-6.479,10.904
			c-2.16,3.657-6.875,3.325-14.145-0.994l-5.483-3.239l12.957-21.873L-511.807-1363.72z"/>
	</g>
</g>
<g id="C" display="none">
	<g display="inline">
		<path fill="#FFFFFF" d="M-638.217-1254.227l24.238-35.669l99.485-72.68c11.146,3.598,17.095,11.63,17.846,24.099l-99.77,72.673
			L-638.217-1254.227z M-624.828-1267.793l3.961,5.212l22.296-6.117c3.288-2.787,4.945-4.869,4.973-6.247
			c0.011-0.57-0.135-0.989-0.437-1.257c-0.306-0.267-0.789-0.408-1.454-0.421c-1.379-0.027-3.771,0.757-7.178,2.353
			c2.905-2.651,4.375-4.88,4.411-6.686c0.018-0.902-0.217-1.584-0.708-2.046c-0.489-0.462-1.258-0.703-2.303-0.724
			c-1.094-0.021-3.342,0.742-6.749,2.29c3.045-2.506,4.587-4.732,4.626-6.682c0.01-0.522-0.125-0.917-0.405-1.185
			c-0.28-0.266-0.729-0.406-1.347-0.419c-2.139-0.042-4.437,0.839-6.898,2.645L-624.828-1267.793z M-605.238-1292.004
			c0.812-0.174,1.479-0.256,2.002-0.246c1.899,0.038,2.833,0.96,2.797,2.766l-0.085,0.711l59.985-44.086
			c-1.545-1.219-3.071-2.176-4.578-2.872L-605.238-1292.004z M-598.512-1286.023c2.174,0.566,3.24,1.989,3.195,4.271l60.275-44.295
			c-0.682-1.582-1.652-3.004-2.911-4.265L-598.512-1286.023z M-593.306-1278.933c0.902,0.065,1.563,0.305,1.983,0.717
			c0.419,0.412,0.622,0.999,0.607,1.759c-0.013,0.666-0.342,1.634-0.985,2.903l59.912-43.944c-0.53-2.054-1.113-3.849-1.748-5.383
			L-593.306-1278.933z M-532.31-1345.174c7.099,3.943,11.446,10.066,13.04,18.369l18.594-13.535
			c-1.49-8.774-5.886-14.828-13.188-18.158L-532.31-1345.174z"/>
	</g>
	<g display="inline">
		<path fill="#FFFFFF" d="M-671.605-1326.925c-4.61-0.932-8.908-2.131-12.896-3.6c-1.516-0.531-2.718-1.066-3.611-1.6
			c-0.896-0.531-1.754-1.031-2.58-1.5c-0.825-0.466-1.789-0.831-2.889-1.1c-1.103-0.266-2.615-0.4-4.54-0.4
			c-2.063,0-3.543,0.869-4.437,2.6c-0.896,1.734-1.619,3.668-2.167,5.8c-0.551,2.134-1.17,4.069-1.857,5.8
			c-0.69,1.734-1.79,2.6-3.302,2.6h-0.825l-0.413-0.6c-0.277,0.934-0.619,1.4-1.032,1.4c-0.139-1.2-0.31-2.431-0.516-3.7
			c-0.207-1.266-0.31-2.5-0.31-3.7v-6.8c0-0.931,0.068-2.166,0.207-3.7c0.135-1.531,0.413-3.066,0.825-4.6
			c0.413-1.531,0.997-2.866,1.754-4c0.755-1.131,1.754-1.7,2.992-1.7c0.687,0,1.409,0.134,2.167,0.4
			c0.755,0.269,1.548,0.4,2.373,0.4c0.413-0.266,0.894-0.5,1.445-0.7c0.548-0.2,1.167-0.3,1.857-0.3c4.401,0,8.493,0.469,12.278,1.4
			c3.782,0.934,7.806,1.6,12.071,2c5.501,0.534,11.211,0.934,17.127,1.2c-0.826-3.2-2.202-5.931-4.127-8.2
			c-1.928-2.266-3.921-4.431-5.984-6.5c-2.063-2.066-3.888-4.332-5.468-6.8c-1.583-2.465-2.373-5.631-2.373-9.5
			c0-0.531,0.135-1.431,0.413-2.7c0.274-1.266,0.619-2.631,1.032-4.1c0.413-1.466,0.929-3.031,1.548-4.7
			c0.619-1.666,1.27-3.166,1.96-4.5c-2.202-1.2-4.472-2.5-6.81-3.9c-2.341-1.4-4.437-2.931-6.294-4.6
			c-1.857-1.666-3.373-3.4-4.54-5.2c-1.17-1.8-1.754-3.7-1.754-5.7c0-2.4,1.099-4.7,3.301-6.9c2.199-2.2,4.85-4.266,7.945-6.2
			c3.095-1.931,6.19-3.631,9.286-5.1c3.095-1.466,5.604-2.666,7.532-3.6c1.374-0.666,2.957-1.631,4.746-2.9
			c1.786-1.266,3.679-2.531,5.675-3.8c1.992-1.266,3.92-2.366,5.777-3.3c1.857-0.931,3.541-1.4,5.056-1.4
			c4.127,0,8.151,0.9,12.072,2.7c3.92,1.8,7.325,4.169,10.214,7.1c1.786,1.869,2.889,3.834,3.301,5.9
			c0.413,2.069,0.619,4.169,0.619,6.3c0,2.134,0.103,4.1,0.31,5.9c0.207,1.8,0.929,3.3,2.167,4.5c2.063-0.666,3.85-2.4,5.365-5.2
			c0.274-1.065,0.516-2.031,0.722-2.9c0.207-0.866,0.445-1.631,0.722-2.3c0.413-1.2,0.961-2.4,1.651-3.6
			c0.687-1.2,1.374-2.466,2.063-3.8c0.687-2,1.271-3.965,1.754-5.9c0.48-1.931,0.929-3.631,1.341-5.1
			c-1.103-0.131-2.134-0.6-3.095-1.4c-0.964-0.8-1.444-1.8-1.444-3c0-1.065,0.445-2,1.341-2.8c0.893-0.8,1.889-1.2,2.992-1.2
			c1.925,0,3.54,0.669,4.849,2c1.306,1.334,1.96,2.935,1.96,4.8c0,2-0.345,3.9-1.032,5.7c-0.69,1.8-1.548,3.535-2.58,5.2
			c-1.032,1.668-2.063,3.369-3.095,5.1c-1.032,1.734-1.825,3.469-2.373,5.2c-0.413,1.2-0.861,2.935-1.341,5.2
			c-0.483,2.269-1.103,4.5-1.857,6.7c-0.758,2.2-1.722,4.1-2.889,5.7c-1.17,1.6-2.579,2.4-4.23,2.4c-0.413,0-1.17-0.531-2.27-1.6
			c-1.103-1.065-2.373-2.431-3.817-4.1c-1.444-1.666-2.96-3.466-4.54-5.4c-1.583-1.931-2.992-3.766-4.23-5.5
			c-0.69,1.469-1.341,3-1.96,4.6c-0.619,1.6-1.206,3.134-1.754,4.6c-0.69,2-1.893,4.269-3.611,6.8c-1.722,2.535-3.476,5.1-5.262,7.7
			c-1.789,2.6-3.337,5.1-4.643,7.5c-1.309,2.4-1.96,4.4-1.96,6c0,2.669,0.722,5.6,2.167,8.8c1.445,3.2,3.024,6.5,4.746,9.9
			c1.719,3.4,3.302,6.834,4.746,10.3c1.444,3.469,2.167,6.869,2.167,10.2c0,1.6-0.586,3.769-1.754,6.5
			c-1.17,2.734-2.579,5.734-4.23,9c-1.651,3.269-3.44,6.568-5.365,9.9c-1.928,3.331-3.714,6.431-5.365,9.3
			c-1.65,2.866-2.924,5.332-3.817,7.4c-0.896,2.066-1.206,3.432-0.928,4.1l-1.032-0.2c0.96,0.131,1.992,0.666,3.095,1.6
			c1.099,0.932,2.199,1.9,3.301,2.9c1.1,1,2.27,1.931,3.508,2.8c1.238,0.866,2.543,1.3,3.92,1.3h0.207
			c0.96-0.934,1.58-1.4,1.857-1.4c0.687,0,1.374,0.231,2.063,0.7c0.687,0.465,1.032,1.031,1.032,1.7c0,1.066-0.758,1.932-2.27,2.6
			c-1.103,1.2-2.373,2.231-3.818,3.1c-1.444,0.866-3.063,1.3-4.849,1.3c-1.238,0-2.167-0.168-2.786-0.5
			c-0.619-0.334-1.135-0.7-1.548-1.1c-0.413-0.4-0.825-0.869-1.238-1.4c-0.413-0.534-1.032-1-1.857-1.4
			c-0.69-0.269-1.825-0.5-3.405-0.7c-1.583-0.2-3.198-0.435-4.849-0.7c-1.651-0.269-3.131-0.6-4.437-1c-1.309-0.4-1.96-1-1.96-1.8
			l0.207-1c0.687-3.734,1.512-7.3,2.476-10.7c0.961-3.4,1.925-6.7,2.889-9.9c0.96-3.2,1.857-6.4,2.683-9.6
			c0.825-3.2,1.444-6.6,1.857-10.2C-662.494-1325.456-666.998-1325.991-671.605-1326.925z M-675.216-1406.925
			c0.961,1.2,2.063,2.4,3.302,3.6c1.238,1.2,2.405,2.369,3.508,3.5c1.1,1.135,1.993,2.169,2.683,3.1
			c0.687-1.6,1.651-3.331,2.889-5.2c1.238-1.866,2.476-3.832,3.714-5.9c1.238-2.065,2.373-4.266,3.405-6.6
			c1.032-2.332,1.615-4.7,1.754-7.1c-3.579,1.069-6.81,2.668-9.698,4.8c-2.889,2.134-6.055,3.8-9.492,5
			c-1.651,0.4-2.96,0.869-3.921,1.4C-676.799-1409.256-676.18-1408.125-675.216-1406.925z M-638.486-1463.825
			c0.96-1.4,2.167-2.6,3.611-3.6s3.024-1.766,4.746-2.3c1.718-0.531,3.334-0.8,4.849-0.8c4.401,0,8.012,1.269,10.833,3.8
			c2.818,2.535,4.23,5.935,4.23,10.2c0,1.6-0.277,3.269-0.825,5c-0.551,1.734-1.341,3.3-2.373,4.7c-1.032,1.4-2.305,2.6-3.817,3.6
			c-1.516,1-3.167,1.569-4.953,1.7c-0.277,0.4-0.551,0.6-0.825,0.6c-2.476,0-4.746-0.531-6.81-1.6
			c-2.063-1.066-3.853-2.466-5.365-4.2c-1.515-1.731-2.683-3.7-3.508-5.9c-0.826-2.2-1.238-4.431-1.238-6.7
			C-639.931-1460.925-639.45-1462.425-638.486-1463.825z M-598.248-1441.125h0.207l-0.207-0.2V-1441.125z M-597.01-1436.525
			c0.135-0.4,0.207-1,0.207-1.8v0.2L-597.01-1436.525z"/>
	</g>
</g>
</svg>
