<?xml version="1.0" encoding="utf-8"?>
<!-- Generator: Adobe Illustrator 16.0.0, SVG Export Plug-In . SVG Version: 6.00 Build 0)  -->
<!DOCTYPE svg PUBLIC "-//W3C//DTD SVG 1.1//EN" "http://www.w3.org/Graphics/SVG/1.1/DTD/svg11.dtd">
<svg version="1.1" xmlns="http://www.w3.org/2000/svg" xmlns:xlink="http://www.w3.org/1999/xlink" x="0px" y="0px"
	 width="282.232px" height="282.232px" viewBox="754.682 -301.162 282.232 282.232"
	 enable-background="new 754.682 -301.162 282.232 282.232" xml:space="preserve">
<g id="_x2D_--" display="none">
	<rect x="116.272" y="-356.429" display="inline" fill="#FFFFFF" width="4471.75" height="5688"/>
</g>
<g id="fond">
	<circle fill="#00326E" cx="895.797" cy="-160.045" r="141.116"/>
</g>
<g id="A" display="none">
	<g id="Calque_2" display="inline">
	</g>
	<g id="Calque_7" display="inline">
	</g>
	<g display="inline">
		<defs>
			<circle id="SVGID_5_" cx="895.916" cy="-161.374" r="141.116"/>
		</defs>
		<clipPath id="SVGID_1_">
			<use xlink:href="#SVGID_5_"  overflow="visible"/>
		</clipPath>
		<g clip-path="url(#SVGID_1_)">
			<path opacity="0.5" fill="#FFFFFF" d="M786.174-180.561c0,3.073,2.775,9.196,2.775,9.196c1.691,3.737-0.372,6.794-4.585,6.794
				H754.33l0,0h-7.664v7.408c0,0.002,0,0.005,0,0.008v29.077c-0.002,4.067-3.144,6.061-6.988,4.442
				c-0.021-0.009-0.044-0.017-0.064-0.025c-0.488-0.205-6.422-2.67-9.463-2.67l0,0l0,0l0,0c-2.104,0-4.066,0.566-5.74,1.551
				c-0.152,0.09-0.303,0.183-0.449,0.278c-2.945,1.926-4.881,5.187-4.881,8.886c0,3.697,1.936,6.959,4.881,8.883
				c0.146,0.097,0.297,0.188,0.449,0.28c1.674,0.983,3.637,1.551,5.74,1.551l0,0l0,0l0,0c3.041-0.005,8.975-2.468,9.463-2.671
				c0.021-0.009,0.043-0.019,0.064-0.026c3.845-1.616,6.986,0.376,6.988,4.44v29.079c0,0.004,0,0.006,0,0.01v7.405h6.068
				c0.516-0.105,1.049-0.162,1.596-0.162h30.034c4.213,0,6.276-3.057,4.583-6.795c0,0-2.773-6.121-2.773-9.194
				c0-5.919,4.955-10.714,11.068-10.714s11.069,4.795,11.069,10.714c0,3.073-2.775,9.194-2.775,9.194
				c-1.694,3.738,0.37,6.795,4.585,6.795h30.033c0.547,0,1.08,0.057,1.596,0.162h6.068v-7.415v-29.079
				c-0.008-4.074-3.797-4.99-7.652-3.354c0,0-5.692,1.61-8.865,1.61c-6.114,0-11.069-4.797-11.069-10.714
				c0-5.919,4.955-10.715,11.069-10.715c3.173,0,9.5,2.687,9.5,2.687c3.855,1.638,7.01-0.356,7.018-4.428v-29.083v-7.416h-7.664
				h-30.033c-4.215,0-6.279-3.057-4.585-6.794c0,0,2.775-6.123,2.775-9.196c0-5.916-4.956-10.711-11.069-10.711
				S786.174-186.477,786.174-180.561z"/>
			<path opacity="0.7" fill="#FFFFFF" d="M832.053-6.08c3.168,0,9.483-2.684,9.483-2.684c3.854-1.636,7.008,0.354,7.008,4.43V24.69
				l0,0v7.401h7.64c0.004,0,0.005,0.006,0.011,0.006h29.989c4.193,0.001,6.25,3.033,4.582,6.751
				c-0.009,0.021-0.019,0.043-0.024,0.063c-0.212,0.473-2.755,6.203-2.756,9.146l0,0l0,0l0,0c0,2.03,0.583,3.931,1.599,5.545
				c0.093,0.149,0.189,0.293,0.289,0.436c1.984,2.846,5.347,4.719,9.164,4.719c3.813,0,7.175-1.873,9.163-4.719
				c0.097-0.143,0.195-0.286,0.287-0.436c1.015-1.614,1.599-3.515,1.599-5.545l0,0l0,0l0,0c0-2.942-2.542-8.673-2.754-9.146
				c-0.008-0.021-0.016-0.043-0.025-0.063c-1.667-3.718,0.39-6.75,4.584-6.751h29.99l0.006-0.006h7.645v-5.862
				c-0.111-0.494-0.173-1.012-0.173-1.539V-4.334c0-4.075-3.154-6.069-7.007-4.43c0,0-6.314,2.684-9.482,2.684
				c-6.105,0-11.053-4.791-11.053-10.7c0-5.908,4.947-10.696,11.053-10.696c3.168,0,9.482,2.686,9.482,2.686
				c3.853,1.632,7.007-0.361,7.007-4.433v-29.024c0-0.532,0.062-1.047,0.173-1.542v-5.865h-7.65h-29.997
				c-4.201,0.005-6.255,3.054-4.567,6.782c0,0,2.77,6.113,2.77,9.18c0,5.907-4.947,10.694-11.049,10.694
				c-6.104,0-11.052-4.787-11.052-10.694c0-3.066,2.771-9.18,2.771-9.18c1.689-3.729-0.367-6.777-4.568-6.782h-29.993h-7.65v7.407
				v29.024c0,4.071-3.154,6.064-7.008,4.433c0,0-6.315-2.686-9.483-2.686c-6.105,0-11.053,4.788-11.053,10.696
				C821-10.871,825.947-6.08,832.053-6.08z"/>
			<path opacity="0.8" fill="#FFFFFF" d="M1066.269-104.941c-3.175,0-9.498-2.688-9.498-2.688c-3.859-1.636-7.017,0.359-7.017,4.439
				v29.069l0,0v7.419h-7.655c0,0-0.007,0-0.009,0h-30.039c-4.197,0.003-6.26,3.044-4.589,6.764c0.009,0.025,0.015,0.043,0.023,0.064
				c0.214,0.474,2.761,6.217,2.761,9.161l0,0l0,0l0,0c0,2.033-0.585,3.938-1.599,5.558c-0.095,0.146-0.191,0.289-0.292,0.431
				c-1.99,2.854-5.355,4.727-9.176,4.727c-3.823,0-7.195-1.873-9.18-4.727c-0.1-0.142-0.197-0.284-0.286-0.431
				c-1.02-1.62-1.604-3.524-1.604-5.558l0,0l0,0l0,0c0-2.944,2.546-8.688,2.758-9.161c0.008-0.021,0.018-0.039,0.025-0.064
				c1.674-3.72-0.387-6.761-4.59-6.764h-30.037c-0.006,0-0.009,0-0.009,0h-7.655v-5.875c0.109-0.498,0.172-1.014,0.172-1.544
				v-29.069c0-4.08,3.158-6.075,7.014-4.439c0,0,6.331,2.688,9.506,2.688c6.111,0,11.065-4.795,11.065-10.715
				c0-5.918-4.954-10.712-11.065-10.712c-3.175,0-9.506,2.684-9.506,2.684c-3.855,1.641-7.014-0.358-7.014-4.437l0.244-29.049
				c0-0.529,0.107-1.401-0.002-1.898l-0.264-5.543h7.514h30.041c4.21,0.006,6.267,3.06,4.574,6.792c0,0-2.771,6.124-2.771,9.196
				c0,5.918,4.955,10.716,11.07,10.716c6.11,0,11.066-4.798,11.066-10.716c0-3.072-2.775-9.196-2.775-9.196
				c-1.689-3.732,0.368-6.786,4.576-6.792h30.043h7.664v7.416v29.074c0,4.078,3.157,6.077,7.017,4.437c0,0,6.323-2.684,9.498-2.684
				c6.118,0,11.068,4.794,11.068,10.712C1077.337-109.736,1072.387-104.941,1066.269-104.941z"/>
			<path opacity="0.9" fill="#FFFFFF" d="M965.509-224.277c-3.17,0-9.501,2.687-9.501,2.687c-3.857,1.639-7.015-0.359-7.015-4.439
				v-29.071l0,0v-7.416h-7.655c-0.002,0-0.008-0.001-0.012-0.001h-30.035c-4.203-0.003-6.262-3.043-4.592-6.764
				c0.009-0.021,0.021-0.044,0.025-0.063c0.211-0.475,2.761-6.217,2.762-9.162l0,0l0,0l0,0c0-2.035-0.586-3.936-1.602-5.555
				c-0.093-0.147-0.192-0.294-0.291-0.435c-1.988-2.851-5.356-4.724-9.178-4.724c-3.819,0-7.191,1.873-9.178,4.724
				c-0.1,0.141-0.196,0.287-0.289,0.435c-1.016,1.619-1.602,3.52-1.602,5.555l0,0l0,0l0,0c0,2.945,2.546,8.688,2.76,9.162
				c0.008,0.02,0.019,0.043,0.026,0.063c1.669,3.721-0.39,6.761-4.591,6.764h-30.038c-0.003,0-0.007,0.001-0.011,0.001h-7.652v5.872
				c0.11,0.499,0.171,1.014,0.171,1.544v29.071c0,4.08,3.158,6.078,7.017,4.439c0,0,6.327-2.687,9.502-2.687
				c6.113,0,11.067,4.796,11.067,10.714c0,5.916-4.954,10.713-11.067,10.713c-3.175,0-9.502-2.687-9.502-2.687
				c-3.858-1.638-7.017,0.358-7.017,4.439v29.071c0,0.53-0.061,1.045-0.171,1.544v5.874h7.663h30.043
				c4.208-0.006,6.267-3.061,4.576-6.792c0,0-2.776-6.125-2.776-9.198c0-5.915,4.955-10.714,11.068-10.714
				c6.112,0,11.07,4.799,11.07,10.714c0,3.073-2.775,9.198-2.775,9.198c-1.692,3.731,0.365,6.786,4.574,6.792h30.041h7.667v-7.418
				v-29.071c0-4.081,3.157-6.077,7.015-4.439c0,0,6.331,2.687,9.501,2.687c6.116,0,11.068-4.797,11.068-10.713
				C976.577-219.481,971.625-224.277,965.509-224.277z"/>
		</g>
	</g>
</g>
<g id="B">
	<g opacity="0.8">
		<g opacity="0.4">
			<g>
				<path fill="#FFFFFF" d="M916.24-265.604c-57.941,0-104.912,46.968-104.912,104.909c0,57.938,46.971,104.905,104.912,104.905
					c57.938,0,104.91-46.967,104.91-104.905C1021.15-218.636,974.179-265.604,916.24-265.604z M916.24-84.515
					c-42.074,0-76.187-34.107-76.187-76.181c0-42.072,34.112-76.181,76.187-76.181c42.072,0,76.174,34.109,76.174,76.181
					C992.414-118.622,958.313-84.515,916.24-84.515z"/>
			</g>
		</g>
		<g opacity="0.7">
			<g>
				<path fill="#FFFFFF" d="M916.24-219.215c-32.324,0-58.526,26.193-58.526,58.52c0,32.32,26.202,58.518,58.526,58.518
					c32.319,0,58.523-26.197,58.523-58.518C974.764-193.021,948.56-219.215,916.24-219.215z M916.24-127.173
					c-18.516,0-33.52-15.011-33.52-33.522c0-18.516,15.004-33.523,33.52-33.523c18.51,0,33.521,15.007,33.521,33.523
					C949.761-142.184,934.75-127.173,916.24-127.173z"/>
			</g>
		</g>
		<g>
			<g>
				<path fill="#FFFFFF" d="M899.643-160.695c0-9.167,7.427-16.603,16.598-16.603c9.165,0,16.599,7.436,16.599,16.603
					c0,9.165-7.434,16.604-16.599,16.604C907.069-144.092,899.643-151.53,899.643-160.695z"/>
			</g>
		</g>
	</g>
	<g opacity="0.95">
		<path fill="#FFFFFF" stroke="#00326E" stroke-width="9" stroke-miterlimit="10" d="M822.538-175.159
			c7.081,0,13.444-2.297,19.093-6.891c2.871,1.245,5.047,2.203,6.531,2.871c1.483,0.671,3.468,1.628,5.958,2.871
			c2.487,1.245,4.4,2.322,5.742,3.23c1.339,0.911,2.894,2.082,4.665,3.517c1.771,1.436,3.063,2.799,3.877,4.091
			c0.812,1.292,1.507,2.799,2.081,4.522s0.861,3.542,0.861,5.455v49.239h-97.617v-49.239c0.287-3.062,1.052-5.836,2.297-8.326
			c1.242-2.487,2.678-4.594,4.307-6.316c1.626-1.723,3.826-3.396,6.604-5.024c2.774-1.626,5.239-2.943,7.394-3.948
			c2.152-1.005,4.952-2.176,8.397-3.517C808.47-177.646,815.073-175.159,822.538-175.159z M822.467-234.304
			c-7.035,0-13.042,2.49-18.017,7.465c-4.978,4.978-7.465,11.007-7.465,18.088c0,7.083,2.487,13.113,7.465,18.088
			c4.975,4.978,10.981,7.465,18.017,7.465c7.033,0,13.063-2.487,18.088-7.465c5.023-4.975,7.536-11.004,7.536-18.088
			c0-7.081-2.513-13.11-7.536-18.088C835.529-231.814,829.5-234.304,822.467-234.304z"/>
	</g>
</g>
<g id="C" display="none">
</g>
</svg>
