<?xml version="1.0" encoding="utf-8"?>
<!-- Generator: Adobe Illustrator 16.0.0, SVG Export Plug-In . SVG Version: 6.00 Build 0)  -->
<!DOCTYPE svg PUBLIC "-//W3C//DTD SVG 1.1//EN" "http://www.w3.org/Graphics/SVG/1.1/DTD/svg11.dtd">
<svg version="1.1" xmlns="http://www.w3.org/2000/svg" xmlns:xlink="http://www.w3.org/1999/xlink" x="0px" y="0px"
	 width="282.232px" height="282.232px" viewBox="150.531 -1509.46 282.232 282.232"
	 enable-background="new 150.531 -1509.46 282.232 282.232" xml:space="preserve">
<g id="_x2D_--" display="none">
</g>
<g id="fond">
	<circle fill="#20558A" cx="291.646" cy="-1368.344" r="141.116"/>
</g>
<g id="A" display="none">
	<g id="Calque_2" display="inline">
	</g>
	<g id="Calque_7" display="inline">
	</g>
	<g display="inline" opacity="0.7">
		<path fill="#FFFFFF" d="M232.801-1375.794c6.552,0,12.438-2.125,17.664-6.375c2.656,1.152,4.669,2.038,6.043,2.656
			c1.372,0.621,3.208,1.507,5.512,2.656c2.302,1.152,4.071,2.148,5.313,2.988c1.239,0.843,2.677,1.926,4.316,3.254
			c1.638,1.328,2.833,2.59,3.586,3.785c0.751,1.195,1.395,2.59,1.926,4.184s0.797,3.277,0.797,5.047v45.555h-90.313v-45.555
			c0.266-2.833,0.974-5.399,2.125-7.703c1.149-2.301,2.478-4.25,3.984-5.844c1.505-1.594,3.54-3.142,6.109-4.648
			c2.567-1.504,4.848-2.723,6.84-3.652s4.582-2.013,7.77-3.254C219.785-1378.095,225.895-1375.794,232.801-1375.794z
			 M232.734-1430.513c-6.508,0-12.065,2.304-16.668,6.906c-4.604,4.605-6.906,10.183-6.906,16.734
			c0,6.554,2.302,12.132,6.906,16.734c4.603,4.605,10.16,6.906,16.668,6.906s12.086-2.301,16.734-6.906
			c4.648-4.603,6.973-10.181,6.973-16.734c0-6.551-2.324-12.129-6.973-16.734C244.82-1428.209,239.242-1430.513,232.734-1430.513z"
			/>
	</g>
	<g display="inline">
		<path fill="#FFFFFF" d="M374.773-1333.176c-3.164,10.811-7.727,18.787-13.685,23.928c-5.96,5.143-13.87,7.713-23.73,7.713
			c-10.231,0-19.012-3.672-26.341-11.017c-7.33-7.344-12.234-17.54-14.713-30.591h-11.312v-9.176h10.204
			c-0.106-1.317-0.158-3.48-0.158-6.486c0-2.373,0.052-4.113,0.158-5.221h-10.204v-9.255h11.153
			c2.479-13.764,7.713-23.98,15.701-30.651c7.99-6.671,16.861-10.007,26.618-10.007c18.984,0,31.034,10.099,36.149,30.296
			l-13.131,1.819c-3.85-14.29-11.576-21.437-23.177-21.437c-6.435,0-12.209,2.313-17.323,6.939
			c-5.115,4.628-8.676,12.307-10.679,23.04h31.72v9.255h-32.906c-0.106,1.318-0.158,3.429-0.158,6.328
			c0,2.479,0.052,4.271,0.158,5.379h32.906v9.176h-31.878c2.003,11.396,5.747,19.401,11.232,24.013
			c5.483,4.611,10.916,6.916,16.295,6.916c12.392,0,20.593-7.725,24.601-23.177L374.773-1333.176z"/>
	</g>
</g>
<g id="B">
	<path opacity="0.85" fill="#FFFFFF" d="M396.557-1306.489c0,6.148-5.336,11.134-11.914,11.134H202.449
		c-6.58,0-11.914-4.985-11.914-11.134v-106.238c0-6.15,5.334-11.135,11.914-11.135h182.193c6.578,0,11.914,4.984,11.914,11.135
		V-1306.489z"/>
	<circle fill="#20558A" cx="248.205" cy="-1373.978" r="25.503"/>
	<path fill="#20558A" d="M194.196-1309.973c0-18.227,24.18-33.003,54.006-33.003c29.83,0,54.01,14.776,54.01,33.003"/>
	<g>
		<path fill="#20558A" d="M374.415-1334.547c-2.344,8.008-5.724,13.916-10.137,17.725c-4.415,3.809-10.274,5.713-17.578,5.713
			c-7.579,0-14.083-2.72-19.512-8.16c-5.431-5.44-9.063-12.993-10.898-22.66h-8.379v-6.797h7.559
			c-0.079-0.976-0.117-2.578-0.117-4.805c0-1.758,0.038-3.047,0.117-3.867h-7.559v-6.855h8.262
			c1.835-10.195,5.713-17.763,11.631-22.705c5.918-4.941,12.489-7.412,19.717-7.412c14.063,0,22.987,7.48,26.777,22.441
			l-9.727,1.348c-2.853-10.585-8.575-15.879-17.168-15.879c-4.767,0-9.044,1.714-12.832,5.141c-3.79,3.428-6.427,9.116-7.91,17.066
			h23.496v6.855h-24.375c-0.079,0.977-0.117,2.54-0.117,4.688c0,1.837,0.038,3.164,0.117,3.984h24.375v6.797h-23.613
			c1.483,8.442,4.257,14.371,8.32,17.787c4.062,3.416,8.086,5.123,12.07,5.123c9.179,0,15.253-5.722,18.223-17.168L374.415-1334.547
			z"/>
	</g>
</g>
<g id="C" display="none">
</g>
</svg>
