<?xml version="1.0" encoding="utf-8"?>
<!-- Generator: Adobe Illustrator 16.0.0, SVG Export Plug-In . SVG Version: 6.00 Build 0)  -->
<!DOCTYPE svg PUBLIC "-//W3C//DTD SVG 1.1//EN" "http://www.w3.org/Graphics/SVG/1.1/DTD/svg11.dtd">
<svg version="1.1" xmlns="http://www.w3.org/2000/svg" xmlns:xlink="http://www.w3.org/1999/xlink" x="0px" y="0px"
	 width="282.232px" height="282.232px" viewBox="-453.618 -1509.46 282.232 282.232"
	 enable-background="new -453.618 -1509.46 282.232 282.232" xml:space="preserve">
<g id="_x2D_--" display="none">
</g>
<g id="fond">
	<circle fill="#00326E" cx="-312.503" cy="-1368.344" r="141.116"/>
</g>
<g id="A" display="none">
	<g display="inline">
		<path fill="#FFFFFF" d="M-389.96-1391.5v-27.441h27.441v27.441H-389.96z"/>
		<path fill="#FFFFFF" d="M-334.394-1391.5v-27.441h27.441v27.441H-334.394z"/>
		<path fill="#FFFFFF" d="M-389.96-1343.5v-27.441h27.441v27.441H-389.96z"/>
		<path fill="#FFFFFF" d="M-334.394-1343.5v-27.441h27.441v27.441H-334.394z"/>
		<path fill="#FFFFFF" d="M-389.96-1295.5v-27.441h27.441v27.441H-389.96z"/>
		<path fill="#FFFFFF" d="M-334.394-1295.5v-27.441h27.441v27.441H-334.394z"/>
		<path fill="#FFFFFF" d="M-278.827-1295.5v-27.441h27.441v27.441H-278.827z"/>
	</g>
	<g display="inline">
		<path fill="#FFFFFF" d="M-283.904-1349.636l24.238-35.669l99.485-72.68c11.146,3.598,17.095,11.63,17.846,24.099l-99.77,72.673
			L-283.904-1349.636z M-270.515-1363.202l3.961,5.212l22.296-6.117c3.288-2.787,4.945-4.869,4.973-6.247
			c0.011-0.57-0.135-0.989-0.437-1.257c-0.306-0.267-0.789-0.408-1.454-0.421c-1.379-0.027-3.771,0.757-7.178,2.353
			c2.905-2.651,4.375-4.88,4.411-6.686c0.018-0.902-0.217-1.584-0.708-2.046c-0.489-0.462-1.258-0.703-2.303-0.724
			c-1.094-0.021-3.342,0.742-6.749,2.29c3.045-2.506,4.587-4.732,4.626-6.682c0.01-0.522-0.125-0.917-0.405-1.185
			c-0.28-0.266-0.729-0.406-1.347-0.419c-2.139-0.042-4.437,0.839-6.898,2.645L-270.515-1363.202z M-250.925-1387.413
			c0.812-0.174,1.479-0.256,2.002-0.246c1.899,0.038,2.833,0.96,2.797,2.766l-0.085,0.711l59.985-44.086
			c-1.545-1.219-3.071-2.176-4.578-2.872L-250.925-1387.413z M-244.199-1381.433c2.174,0.566,3.24,1.989,3.195,4.271l60.275-44.295
			c-0.682-1.582-1.652-3.004-2.911-4.265L-244.199-1381.433z M-238.993-1374.342c0.902,0.065,1.563,0.305,1.983,0.717
			c0.419,0.412,0.622,0.999,0.607,1.759c-0.013,0.666-0.342,1.634-0.985,2.903l59.912-43.944c-0.53-2.054-1.113-3.849-1.748-5.383
			L-238.993-1374.342z M-177.997-1440.583c7.099,3.943,11.446,10.066,13.04,18.369l18.594-13.535
			c-1.49-8.774-5.886-14.828-13.188-18.158L-177.997-1440.583z"/>
	</g>
	<g id="Calque_2" display="inline">
	</g>
	<g id="Calque_7" display="inline">
	</g>
</g>
<g id="B">
	<g id="miu_1_" opacity="0.9">
		<g id="Artboard-1_1_" transform="translate(-827.000000, -227.000000)">
			<path id="editor-attachment-paper-clip-2_1_" fill="#FFFFFF" d="M497.542-1068.775l94.14-87.336c0,0,35.491-32.93,3.928-62.213
				c-31.567-29.29-67.063,3.633-67.063,3.633l-94.13,87.341c-3.855,3.579,3.159,10.094,7.014,6.508l94.13-87.343
				c0,0,25.929-28.778,53.031-3.63c24.553,22.774-3.924,49.198-3.924,49.198l-94.139,87.334c0,0-17.67,16.393-35.206,0.126
				c-17.543-16.27,0.135-32.671,0.135-32.671l94.136-87.334c0,0,11.063-10.272,21.298-0.764c10.24,9.491-0.257,20.294-0.257,20.294
				l-89.504,83.038c-3.855,3.577,3.158,10.083,7.014,6.508l89.504-83.039c0,0,20.092-16.213,0.958-33.974
				c-17.249-15.998-36.028,1.43-36.028,1.43l-94.135,87.335c0,0-24.694,22.907-0.136,45.685
				C472.858-1045.876,497.542-1068.775,497.542-1068.775z"/>
		</g>
	</g>
</g>
<g id="C" display="none">
</g>
</svg>
