<?xml version="1.0" encoding="utf-8"?>
<!-- Generator: Adobe Illustrator 16.0.0, SVG Export Plug-In . SVG Version: 6.00 Build 0)  -->
<!DOCTYPE svg PUBLIC "-//W3C//DTD SVG 1.1//EN" "http://www.w3.org/Graphics/SVG/1.1/DTD/svg11.dtd">
<svg version="1.1" xmlns="http://www.w3.org/2000/svg" xmlns:xlink="http://www.w3.org/1999/xlink" x="0px" y="0px"
	 width="282.232px" height="282.232px" viewBox="-1057.768 0.913 282.232 282.232"
	 enable-background="new -1057.768 0.913 282.232 282.232" xml:space="preserve">
<g id="_x2D_--" display="none">
</g>
<g id="fond">
	<circle fill="#FFFFFF" cx="-916.652" cy="142.03" r="141.116"/>
	<circle opacity="0.3" fill="#00326E" cx="-916.652" cy="142.03" r="141.116"/>
	<path fill="#00326E" d="M-816.868,42.244c55.11,55.11,55.11,144.46,0,199.57c-55.109,55.108-144.458,55.108-199.569-0.002"/>
</g>
<g id="A" display="none">
	<g id="Calque_2" display="inline">
	</g>
	<g id="Calque_7" display="inline">
	</g>
</g>
<g id="B">
	<circle fill="#FFFFFF" cx="-916.652" cy="142.03" r="141.116"/>
	<circle opacity="0.3" fill="#00326E" cx="-916.652" cy="142.03" r="141.116"/>
	<path fill="#00326E" d="M-816.868,42.244c55.11,55.11,55.11,144.46,0,199.57c-55.109,55.108-144.458,55.108-199.569-0.002"/>
	<g>
		<path fill="#00326E" d="M-983.948,54.513c6.446-0.031,11.952,2.236,16.517,6.801c4.566,4.566,6.833,10.071,6.801,16.517
			c-0.03,6.447-2.313,11.937-6.848,16.471c-4.533,4.534-10.009,6.802-16.424,6.801c-6.415,0.001-11.904-2.281-16.471-6.847
			c-4.564-4.564-6.848-10.054-6.847-16.471c-0.001-6.414,2.267-11.891,6.8-16.424C-995.885,56.826-990.395,54.544-983.948,54.513z
			 M-979.831,107.395c-1.356,3.085-2.405,5.645-3.146,7.68s-1.48,4.473-2.221,7.31c-0.74,2.84-1.08,5.337-1.018,7.495
			c0.061,2.16,0.492,4.443,1.295,6.848c0.803,2.407,2.098,4.689,3.887,6.847l31.738,31.738l62.922-62.921l-31.738-31.738
			c-1.234-1.233-2.592-2.221-4.072-2.961c-1.48-0.741-2.9-1.264-4.256-1.573c-1.357-0.308-3.07-0.354-5.136-0.139
			c-2.067,0.217-3.825,0.464-5.274,0.74c-1.45,0.279-3.377,0.819-5.783,1.62c-2.406,0.804-4.303,1.466-5.691,1.989
			c-1.387,0.526-3.406,1.312-6.061,2.36c-0.68,6.601-3.301,12.184-7.865,16.748C-967.062,104.248-972.921,106.901-979.831,107.395z"
			/>
	</g>
	<g>
		<g>
			<path fill="#C89108" d="M-874.037,184.82c-4.429,4.429-6.971,9.844-7.631,16.248c-2.574,1.018-4.533,1.779-5.879,2.289
				c-1.348,0.508-3.188,1.15-5.521,1.931c-2.334,0.776-4.204,1.3-5.611,1.571c-1.406,0.268-3.11,0.507-5.116,0.718
				c-2.005,0.209-3.665,0.165-4.982-0.135c-1.315-0.3-2.692-0.808-4.13-1.526c-1.436-0.718-2.753-1.676-3.949-2.872l-30.791-30.791
				l61.043-61.043L-855.814,142c1.736,2.093,2.992,4.308,3.771,6.642c0.777,2.332,1.197,4.548,1.256,6.644
				c0.061,2.095-0.269,4.517-0.987,7.271c-0.719,2.752-1.437,5.116-2.154,7.092s-1.736,4.458-3.052,7.45
				C-863.685,177.578-869.369,180.152-874.037,184.82z M-837.007,221.761c4.398-4.398,6.599-9.712,6.598-15.935
				c0-6.225-2.215-11.551-6.643-15.979c-4.43-4.43-9.756-6.645-15.979-6.643c-6.223-0.002-11.535,2.199-15.934,6.598
				c-4.399,4.398-6.613,9.725-6.643,15.979c-0.031,6.254,2.168,11.595,6.598,16.024c4.428,4.428,9.77,6.628,16.023,6.598
				S-841.406,226.16-837.007,221.761z"/>
		</g>
	</g>
</g>
<g id="C" display="none">
</g>
</svg>
