<?xml version="1.0" encoding="utf-8"?>
<!-- Generator: Adobe Illustrator 16.0.0, SVG Export Plug-In . SVG Version: 6.00 Build 0)  -->
<!DOCTYPE svg PUBLIC "-//W3C//DTD SVG 1.1//EN" "http://www.w3.org/Graphics/SVG/1.1/DTD/svg11.dtd">
<svg version="1.1" xmlns="http://www.w3.org/2000/svg" xmlns:xlink="http://www.w3.org/1999/xlink" x="0px" y="0px"
	 width="282.232px" height="282.232px" viewBox="-151.543 -1207.386 282.232 282.232"
	 enable-background="new -151.543 -1207.386 282.232 282.232" xml:space="preserve">
<g id="_x2D_--" display="none">
</g>
<g id="fond">
	<circle fill="#20558A" cx="-10.428" cy="-1066.27" r="141.116"/>
</g>
<g id="A" display="none">
	<g display="inline">
		<path fill="#FFFFFF" d="M-63.266-1079.789h16.406c13.021,0.847,20.247,4.184,21.68,10.01c1.432,5.827,5.533,9.165,12.305,10.01
			c4.688-0.259,7.959-2.425,9.814-6.494c1.855-4.068,3.482-8.74,4.883-14.014c1.399-5.273,3.775-9.927,7.129-13.965
			c3.353-4.036,8.902-6.152,16.65-6.348c6.641,0.195,12.027,2.312,16.162,6.348c4.134,4.038,8.235,9.033,12.305,14.99
			c4.068,5.957,9.375,11.704,15.918,17.236c6.543,5.534,15.479,9.897,26.807,13.086c-11.328,3.061-20.264,7.324-26.807,12.793
			s-11.85,11.167-15.918,17.09c-4.069,5.925-8.171,10.954-12.305,15.088c-4.135,4.135-9.521,6.333-16.162,6.592
			c-7.748-0.259-13.298-2.425-16.65-6.494c-3.354-4.068-5.729-8.74-7.129-14.014c-1.4-5.273-3.027-9.944-4.883-14.014
			c-1.855-4.068-5.127-6.167-9.814-6.299c-6.771,0.847-10.873,4.184-12.305,10.01c-1.433,5.827-8.659,9.165-21.68,10.01h-16.406
			c-12.826,0.131-21.811-2.212-26.953-7.031c-5.144-4.817-7.617-12.857-7.422-24.121c-0.195-10.938,2.278-18.782,7.422-23.535
			C-85.077-1077.607-76.092-1079.919-63.266-1079.789z M11.539-1048.93c0.13,4.688,1.514,8.447,4.15,11.279s5.811,4.282,9.521,4.346
			c3.971-0.195,7.08-1.595,9.326-4.199c2.246-2.603,3.401-5.208,3.467-7.813c10.156,0,19.482-0.308,27.979-0.928
			c8.496-0.618,15.022-1.514,19.58-2.686c-4.558-1.236-11.084-2.148-19.58-2.734s-17.822-0.879-27.979-0.879
			c-0.065-2.603-1.221-5.208-3.467-7.813c-2.246-2.603-5.355-4.004-9.326-4.199c-3.711,0.065-6.885,1.514-9.521,4.346
			S11.668-1053.617,11.539-1048.93z"/>
	</g>
	<g id="Calque_2" display="inline">
	</g>
	<g id="Calque_7" display="inline">
	</g>
</g>
<g id="B">
	<circle opacity="0" fill="#FFFFFF" cx="-11.399" cy="-1064.792" r="88"/>
	
		<line fill="#FFFFFF" stroke="#FFFFFF" stroke-width="7" stroke-miterlimit="10" x1="-11.399" y1="-1201.25" x2="-11.399" y2="-1160.372"/>
	
		<line fill="none" stroke="#FFFFFF" stroke-width="7" stroke-miterlimit="10" x1="-11.399" y1="-971.239" x2="-11.399" y2="-930.361"/>
	
		<line fill="#FFFFFF" stroke="#FFFFFF" stroke-width="7" stroke-miterlimit="10" x1="-149.543" y1="-1064.792" x2="-104.783" y2="-1064.792"/>
	
		<line fill="#FFFFFF" stroke="#FFFFFF" stroke-width="7" stroke-miterlimit="10" x1="85.35" y1="-1064.792" x2="126.228" y2="-1064.792"/>
	<g opacity="0.6">
		<path fill="#FFFFFF" d="M53.516-1164.561c0,4.8-3.45,8.7-8.399,8.7c-3.601,0-8.25-2.25-8.25-8.7c0-6.3,5.55-8.699,8.25-8.699
			C51.565-1173.26,53.516-1167.561,53.516-1164.561z"/>
	</g>
	<g opacity="0.6">
		<path fill="#FFFFFF" d="M94.475-1126.541c0,4.8-3.45,8.7-8.399,8.7c-3.601,0-8.25-2.25-8.25-8.7c0-6.3,5.55-8.699,8.25-8.699
			C92.524-1135.24,94.475-1129.541,94.475-1126.541z"/>
	</g>
	<g opacity="0.6">
		<path fill="#FFFFFF" d="M-65.583-1174.243c2.7,0,8.25,2.399,8.25,8.699c0,6.45-4.649,8.7-8.25,8.7c-4.949,0-8.399-3.9-8.399-8.7
			C-73.982-1168.544-72.032-1174.243-65.583-1174.243z"/>
	</g>
	<g opacity="0.6">
		<path fill="#FFFFFF" d="M-106.54-1136.224c2.7,0,8.25,2.399,8.25,8.699c0,6.45-4.649,8.7-8.25,8.7c-4.949,0-8.399-3.9-8.399-8.7
			C-114.939-1130.524-112.989-1136.224-106.54-1136.224z"/>
	</g>
	<g opacity="0.6">
		<path fill="#FFFFFF" d="M45.116-961.325c-2.7,0-8.25-2.399-8.25-8.699c0-6.45,4.649-8.7,8.25-8.7c4.949,0,8.399,3.9,8.399,8.7
			C53.516-967.024,51.565-961.325,45.116-961.325z"/>
	</g>
	<g opacity="0.6">
		<path fill="#FFFFFF" d="M86.075-999.343c-2.7,0-8.25-2.399-8.25-8.699c0-6.45,4.649-8.7,8.25-8.7c4.949,0,8.399,3.9,8.399,8.7
			C94.475-1005.042,92.524-999.343,86.075-999.343z"/>
	</g>
	<g opacity="0.6">
		<path fill="#FFFFFF" d="M-73.982-969.04c0-4.8,3.45-8.7,8.399-8.7c3.601,0,8.25,2.25,8.25,8.7c0,6.3-5.55,8.699-8.25,8.699
			C-72.032-960.341-73.982-966.04-73.982-969.04z"/>
	</g>
	<g opacity="0.6">
		<path fill="#FFFFFF" d="M-114.939-1007.06c0-4.8,3.45-8.7,8.399-8.7c3.601,0,8.25,2.25,8.25,8.7c0,6.3-5.55,8.699-8.25,8.699
			C-112.989-998.36-114.939-1004.06-114.939-1007.06z"/>
	</g>
	<g opacity="0.9">
		<path fill="#FFFFFF" d="M33.881-1088.237h-92.285l46.143-37.5L33.881-1088.237z M31.098-1015.801h-86.719v-5.127h86.719V-1015.801
			z M-46.759-1027.959h-5.127v-55.591h5.127V-1027.959z M-36.432-1027.959h-5.127v-55.591h5.127V-1027.959z M-26.104-1027.959
			h-5.127v-55.591h5.127V-1027.959z M-15.777-1027.959h-5.127v-55.591h5.127V-1027.959z M-3.619-1027.959h-5.127v-55.591h5.127
			V-1027.959z M6.708-1027.959H1.581v-55.591h5.127V-1027.959z M17.035-1027.959h-5.127v-55.591h5.127V-1027.959z M27.362-1027.959
			h-5.127v-55.591h5.127V-1027.959z"/>
	</g>
</g>
<g id="C" display="none">
</g>
</svg>
