<?xml version="1.0" encoding="utf-8"?>
<!-- Generator: Adobe Illustrator 16.0.0, SVG Export Plug-In . SVG Version: 6.00 Build 0)  -->
<!DOCTYPE svg PUBLIC "-//W3C//DTD SVG 1.1//EN" "http://www.w3.org/Graphics/SVG/1.1/DTD/svg11.dtd">
<svg version="1.1" xmlns="http://www.w3.org/2000/svg" xmlns:xlink="http://www.w3.org/1999/xlink" x="0px" y="0px"
	 width="282.232px" height="282.232px" viewBox="150.531 -1207.386 282.232 282.232"
	 enable-background="new 150.531 -1207.386 282.232 282.232" xml:space="preserve">
<g id="_x2D_--" display="none">
</g>
<g id="fond">
	<circle fill="#00326E" cx="291.646" cy="-1066.27" r="141.116"/>
</g>
<g id="A" display="none">
	<g display="inline">
		<path fill="#FFFFFF" d="M208.145-1022.722c-7.734-0.5-13.213-1.504-16.436-3.008c-5.086-2.506-7.627-7.053-7.627-13.643
			c0-6.516,2.041-11.35,6.123-14.502c0.143-0.143,4.941-2.686,14.395-7.627c-3.367,3.797-5.049,9.598-5.049,17.402
			C199.551-1034.646,202.414-1027.519,208.145-1022.722z M194.18-1027.878c-2.578-6.158-3.867-10.563-3.867-13.213
			c0-2.648,0.285-5.943,0.859-9.883l-3.008,2.041c-0.502,2.865-0.752,5.551-0.752,8.057c0,3.295,1.359,7.305,4.082,12.031
			L194.18-1027.878z M200.088-1027.233c-2.793-7.805-4.189-13.928-4.189-18.369c0-3.078,0.393-5.693,1.182-7.842l-2.471,0.645
			c-0.859,3.295-1.289,6.805-1.289,10.527c0,3.08,1.252,8.094,3.76,15.039H200.088z M340.273-1044.743
			c0,7.949-0.752,14.932-2.256,20.947c-2.293,9.453-6.053,14.18-11.279,14.18c-1.361,0-4.334-1.539-8.916-4.619
			c-5.586-3.795-16.258-6.945-32.012-9.453c-13.035-2.148-24.457-3.223-34.268-3.223c-2.723,0-4.082,2.186-4.082,6.553
			c0,1.504,0.572,3.636,1.719,6.392c1.145,2.758,1.719,4.925,1.719,6.499c0,1.576,0.93,3.33,2.793,5.264
			c1.861,1.934,2.793,3.473,2.793,4.619c0,0.285-0.091,0.715-0.269,1.289c-0.18,0.572-0.269,1.002-0.269,1.289
			c0,1.002,0.841,2.434,2.524,4.297c1.682,1.861,2.524,3.473,2.524,4.834c0,0.645-0.269,1.467-0.806,2.471
			c-0.537,1.002-0.806,1.789-0.806,2.363c0,0.859,0.43,1.843,1.289,2.954c0.859,1.109,1.289,1.88,1.289,2.31
			c0,1.289-1.719,1.934-5.156,1.934c-7.52,0-12.82-2.221-15.898-6.66c-1.934-2.723-3.76-8.416-5.479-17.08
			c-3.367-16.184-9.096-24.277-17.188-24.277c-0.287,0-0.717,0.054-1.289,0.161c-0.574,0.107-1.004,0.161-1.289,0.161
			c-9.168,0-13.75-8.379-13.75-25.137c0-9.596,4.689-16.506,14.072-20.732c4.869-1.789,12.139-4.619,21.807-8.486
			c10.168-4.297,21.305-10.885,33.408-19.766c11.314-8.234,19.299-15.289,23.955-21.162c1.861-9.883,5.764-14.824,11.709-14.824
			c7.018,0,13.785,7.734,20.303,23.203c4.367,10.457,7.697,21.449,9.99,32.979C339.234-1065.081,340.273-1054.841,340.273-1044.743z
			 M312.666-1020.681c-6.303-9.596-11.316-21.734-15.039-36.416c-3.438-13.535-5.156-26.604-5.156-39.209l1.396-12.246
			c-4.799,6.23-11.387,12.068-19.766,17.51c-7.592,4.512-15.146,9.061-22.666,13.643c-8.881,5.516-13.32,11.924-13.32,19.229
			c0,6.375,1.145,11.889,3.438,16.543c2.863,5.73,7.09,9.061,12.676,9.99c0.357,0.072,4.297,0.252,11.816,0.537
			C283.877-1030.384,299.416-1026.911,312.666-1020.681z M312.773-1051.94c0-7.59-1.289-14.717-3.867-21.377
			c-2.865-7.447-6.805-12.676-11.816-15.684c2.721,25.496,6.91,44.617,12.568,57.363
			C311.734-1037.938,312.773-1044.706,312.773-1051.94z M359.609-1065.476c0,13.68-4.154,26.283-12.461,37.813
			c4.082-8.664,6.123-18.369,6.123-29.111c0-10.025-1.648-19.336-4.941-27.93c-3.939-10.455-9.668-17.652-17.188-21.592
			c9.094,2.938,16.113,8.04,21.055,15.308C357.139-1083.719,359.609-1075.214,359.609-1065.476z M377.334-1069.128
			c0,17.045-5.156,32.764-15.469,47.158c5.012-10.742,7.52-22.844,7.52-36.309c0-12.531-2.041-24.17-6.123-34.912
			c-4.941-13.105-12.139-22.092-21.592-26.963c11.457,3.652,20.303,10.098,26.533,19.336
			C374.289-1091.937,377.334-1081.374,377.334-1069.128z M396.992-1072.673c0,21.27-6.445,40.928-19.336,58.975
			c6.301-13.463,9.453-28.609,9.453-45.439c0-15.684-2.543-30.256-7.627-43.721c-6.23-16.328-15.219-27.535-26.963-33.623
			c14.322,4.584,25.387,12.605,33.193,24.063C393.232-1101.247,396.992-1087.997,396.992-1072.673z"/>
	</g>
	<g id="Calque_2" display="inline">
	</g>
	<g id="Calque_7" display="inline">
	</g>
</g>
<g id="B">
	<g opacity="0.9">
		<path fill="#FFFFFF" d="M334.805-1021.174c-11.95,11.949-26.414,17.924-43.389,17.924c-16.977,0-31.439-5.975-43.389-17.925
			c-11.95-11.95-17.91-26.397-17.879-43.343c0.03-16.944,6.021-31.393,17.971-43.342c11.889-11.889,26.336-17.85,43.342-17.879
			c17.006-0.031,31.453,5.897,43.343,17.787c11.95,11.949,17.925,26.412,17.925,43.389
			C352.729-1047.588,346.754-1033.125,334.805-1021.174z M299.873-1025.403l0.275-30.427l30.06,0.092l0.001-17.465l-30.336-0.368
			v-29.968h-17.465l-0.277,30.243l-30.059,0.093v17.465l30.335,0.184l0.001,30.152L299.873-1025.403z"/>
	</g>
	<circle opacity="0" fill="#FFFFFF" cx="292.97" cy="-1064.792" r="88.004"/>
	
		<line fill="#FFFFFF" stroke="#FFFFFF" stroke-width="7" stroke-miterlimit="10" x1="292.971" y1="-1201.25" x2="292.971" y2="-1160.372"/>
	
		<line fill="none" stroke="#FFFFFF" stroke-width="7" stroke-miterlimit="10" x1="292.971" y1="-971.239" x2="292.971" y2="-930.361"/>
	
		<line fill="#FFFFFF" stroke="#FFFFFF" stroke-width="7" stroke-miterlimit="10" x1="154.819" y1="-1064.792" x2="199.582" y2="-1064.792"/>
	
		<line fill="#FFFFFF" stroke="#FFFFFF" stroke-width="7" stroke-miterlimit="10" x1="389.724" y1="-1064.792" x2="430.604" y2="-1064.792"/>
	<g opacity="0.6">
		<path fill="#FFFFFF" d="M357.883-1164.561c0,4.8-3.45,8.7-8.399,8.7c-3.601,0-8.25-2.25-8.25-8.7c0-6.3,5.55-8.699,8.25-8.699
			C355.933-1173.26,357.883-1167.561,357.883-1164.561z"/>
	</g>
	<g opacity="0.6">
		<path fill="#FFFFFF" d="M398.841-1126.541c0,4.8-3.45,8.7-8.399,8.7c-3.601,0-8.25-2.25-8.25-8.7c0-6.3,5.55-8.699,8.25-8.699
			C396.891-1135.24,398.841-1129.541,398.841-1126.541z"/>
	</g>
	<g opacity="0.6">
		<path fill="#FFFFFF" d="M238.767-1174.243c2.7,0,8.25,2.399,8.25,8.699c0,6.45-4.649,8.7-8.25,8.7c-4.949,0-8.399-3.9-8.399-8.7
			C230.367-1168.544,232.317-1174.243,238.767-1174.243z"/>
	</g>
	<g opacity="0.6">
		<path fill="#FFFFFF" d="M197.81-1136.224c2.7,0,8.25,2.399,8.25,8.699c0,6.45-4.649,8.7-8.25,8.7c-4.949,0-8.399-3.9-8.399-8.7
			C189.41-1130.524,191.36-1136.224,197.81-1136.224z"/>
	</g>
	<g opacity="0.6">
		<path fill="#FFFFFF" d="M349.483-961.325c-2.7,0-8.25-2.399-8.25-8.699c0-6.45,4.649-8.7,8.25-8.7c4.949,0,8.399,3.9,8.399,8.7
			C357.883-967.024,355.933-961.325,349.483-961.325z"/>
	</g>
	<g opacity="0.6">
		<path fill="#FFFFFF" d="M390.441-999.343c-2.7,0-8.25-2.399-8.25-8.699c0-6.45,4.649-8.7,8.25-8.7c4.949,0,8.399,3.9,8.399,8.7
			C398.841-1005.042,396.891-999.343,390.441-999.343z"/>
	</g>
	<g opacity="0.6">
		<path fill="#FFFFFF" d="M230.367-969.04c0-4.8,3.45-8.7,8.399-8.7c3.601,0,8.25,2.25,8.25,8.7c0,6.3-5.55,8.699-8.25,8.699
			C232.317-960.341,230.367-966.04,230.367-969.04z"/>
	</g>
	<g opacity="0.6">
		<path fill="#FFFFFF" d="M189.41-1007.06c0-4.8,3.45-8.7,8.399-8.7c3.601,0,8.25,2.25,8.25,8.7c0,6.3-5.55,8.699-8.25,8.699
			C191.36-998.36,189.41-1004.06,189.41-1007.06z"/>
	</g>
</g>
<g id="C" display="none">
</g>
</svg>
