<?xml version="1.0" encoding="utf-8"?>
<!-- Generator: Adobe Illustrator 16.0.0, SVG Export Plug-In . SVG Version: 6.00 Build 0)  -->
<!DOCTYPE svg PUBLIC "-//W3C//DTD SVG 1.1//EN" "http://www.w3.org/Graphics/SVG/1.1/DTD/svg11.dtd">
<svg version="1.1" xmlns="http://www.w3.org/2000/svg" xmlns:xlink="http://www.w3.org/1999/xlink" x="0px" y="0px"
	 width="282.232px" height="282.232px" viewBox="-453.618 -603.236 282.232 282.232"
	 enable-background="new -453.618 -603.236 282.232 282.232" xml:space="preserve">
<g id="_x2D_--" display="none">
</g>
<g id="fond">
	<circle fill="#20558A" cx="-312.503" cy="-462.119" r="141.116"/>
</g>
<g id="A" display="none">
	<g id="Calque_2" display="inline">
	</g>
	<g id="Calque_7" display="inline">
	</g>
</g>
<g id="B">
	<g>
		<path fill="#FFFFFF" d="M-332.877-368.918l24.238-35.669l99.485-72.68c11.146,3.598,17.095,11.63,17.846,24.099l-99.77,72.673
			L-332.877-368.918z M-319.489-382.484l3.961,5.212l22.296-6.117c3.288-2.787,4.945-4.869,4.973-6.247
			c0.011-0.57-0.135-0.989-0.437-1.257c-0.306-0.267-0.789-0.408-1.454-0.421c-1.379-0.027-3.771,0.757-7.178,2.353
			c2.905-2.651,4.375-4.88,4.411-6.686c0.018-0.902-0.217-1.584-0.708-2.046c-0.489-0.462-1.258-0.703-2.303-0.724
			c-1.094-0.021-3.342,0.742-6.749,2.29c3.045-2.506,4.587-4.732,4.626-6.682c0.01-0.522-0.125-0.917-0.405-1.185
			c-0.28-0.266-0.729-0.406-1.347-0.419c-2.139-0.042-4.437,0.839-6.898,2.645L-319.489-382.484z M-299.899-406.695
			c0.812-0.174,1.479-0.256,2.002-0.246c1.899,0.038,2.833,0.96,2.797,2.766l-0.085,0.711l59.985-44.086
			c-1.545-1.219-3.071-2.176-4.578-2.872L-299.899-406.695z M-293.172-400.715c2.174,0.566,3.24,1.989,3.195,4.271l60.275-44.295
			c-0.682-1.582-1.652-3.004-2.911-4.265L-293.172-400.715z M-287.966-393.624c0.902,0.065,1.563,0.305,1.983,0.717
			c0.419,0.412,0.622,0.999,0.607,1.759c-0.013,0.666-0.342,1.634-0.985,2.903l59.912-43.944c-0.53-2.054-1.113-3.849-1.748-5.383
			L-287.966-393.624z M-226.97-459.865c7.099,3.943,11.446,10.066,13.04,18.369l18.594-13.535
			c-1.49-8.774-5.886-14.828-13.188-18.158L-226.97-459.865z"/>
	</g>
	<g opacity="0.9">
		<path fill="#FFFFFF" d="M-311.068-492.939h-100.898l50.449-41L-311.068-492.939z M-314.111-413.742h-94.813v-5.605h94.813
			V-413.742z M-399.234-427.035h-5.605v-60.779h5.605V-427.035z M-387.943-427.035h-5.605v-60.779h5.605V-427.035z
			 M-376.652-427.035h-5.605v-60.779h5.605V-427.035z M-365.361-427.035h-5.605v-60.779h5.605V-427.035z M-352.068-427.035h-5.605
			v-60.779h5.605V-427.035z M-340.777-427.035h-5.605v-60.779h5.605V-427.035z M-329.486-427.035h-5.605v-60.779h5.605V-427.035z
			 M-318.195-427.035h-5.605v-60.779h5.605V-427.035z"/>
	</g>
</g>
<g id="C" display="none">
</g>
</svg>
