<?xml version="1.0" encoding="utf-8"?>
<!-- Generator: Adobe Illustrator 16.0.0, SVG Export Plug-In . SVG Version: 6.00 Build 0)  -->
<!DOCTYPE svg PUBLIC "-//W3C//DTD SVG 1.1//EN" "http://www.w3.org/Graphics/SVG/1.1/DTD/svg11.dtd">
<svg version="1.1" xmlns="http://www.w3.org/2000/svg" xmlns:xlink="http://www.w3.org/1999/xlink" x="0px" y="0px"
	 width="282.232px" height="282.232px" viewBox="-453.618 -301.162 282.232 282.232"
	 enable-background="new -453.618 -301.162 282.232 282.232" xml:space="preserve">
<g id="_x2D_--" display="none">
</g>
<g id="fond">
	<circle fill="#20558A" cx="-312.503" cy="-160.044" r="141.116"/>
</g>
<g id="A" display="none">
	<g id="Calque_2" display="inline">
	</g>
	<g id="Calque_7" display="inline">
	</g>
	<g display="inline">
		<path fill="#FFFFFF" d="M-367.168-123.587h-38.221l16.844-16.477h50.777v51.573l-16.844,16.844v-39.017l-49.98,50.776
			l-12.557-12.557L-367.168-123.587z"/>
	</g>
	<g display="inline" opacity="0.5">
		<path fill="#FFFFFF" d="M-330.085-223.423c5.78,0,10.976-1.875,15.586-5.625c2.344,1.016,4.12,1.798,5.332,2.344
			c1.21,0.547,2.831,1.329,4.863,2.344c2.03,1.016,3.593,1.895,4.688,2.637c1.093,0.743,2.362,1.699,3.809,2.871
			c1.444,1.172,2.499,2.285,3.164,3.34c0.663,1.055,1.23,2.285,1.699,3.691s0.703,2.891,0.703,4.453v40.195h-79.688v-40.195
			c0.234-2.5,0.858-4.765,1.875-6.797c1.015-2.031,2.187-3.75,3.516-5.156c1.327-1.406,3.124-2.772,5.391-4.102
			c2.265-1.328,4.277-2.402,6.035-3.223s4.043-1.776,6.855-2.871C-341.57-225.454-336.179-223.423-330.085-223.423z
			 M-330.144-271.704c-5.742,0-10.646,2.032-14.707,6.094c-4.063,4.063-6.094,8.985-6.094,14.766c0,5.782,2.03,10.704,6.094,14.766
			c4.062,4.063,8.965,6.094,14.707,6.094s10.664-2.031,14.766-6.094c4.102-4.062,6.152-8.983,6.152-14.766
			c0-5.781-2.051-10.703-6.152-14.766C-319.48-269.672-324.402-271.704-330.144-271.704z"/>
	</g>
	<g display="inline" opacity="0.8">
		<path fill="#FFFFFF" d="M-250.085-159.423c5.78,0,10.976-1.875,15.586-5.625c2.344,1.016,4.12,1.798,5.332,2.344
			c1.21,0.547,2.831,1.329,4.863,2.344c2.03,1.016,3.593,1.895,4.688,2.637c1.093,0.743,2.362,1.699,3.809,2.871
			c1.444,1.172,2.499,2.285,3.164,3.34c0.663,1.055,1.23,2.285,1.699,3.691s0.703,2.891,0.703,4.453v40.195h-79.688v-40.195
			c0.234-2.5,0.858-4.765,1.875-6.797c1.015-2.031,2.187-3.75,3.516-5.156c1.327-1.406,3.124-2.772,5.391-4.102
			c2.265-1.328,4.277-2.402,6.035-3.223s4.043-1.776,6.855-2.871C-261.57-161.454-256.179-159.423-250.085-159.423z
			 M-250.144-207.704c-5.742,0-10.646,2.032-14.707,6.094c-4.063,4.063-6.094,8.985-6.094,14.766c0,5.782,2.03,10.704,6.094,14.766
			c4.062,4.063,8.965,6.094,14.707,6.094s10.664-2.031,14.766-6.094c4.102-4.062,6.152-8.983,6.152-14.766
			c0-5.781-2.051-10.703-6.152-14.766C-239.48-205.672-244.402-207.704-250.144-207.704z"/>
	</g>
</g>
<g id="B">
	<g opacity="0.85">
		<path fill="#FFFFFF" d="M-375.047-103.935c0-1.626,0.101-3.268,0.305-4.922c0.203-1.656,0.421-3.296,0.653-4.922
			c0.231-1.625,0.449-3.268,0.653-4.922c0.203-1.656,0.305-3.324,0.305-5.01v-0.958c0-0.522-0.015-1.074-0.044-1.655
			c-0.03-0.579-0.043-1.102-0.043-1.567v-1.045c-0.292-0.755-0.771-1.525-1.438-2.31c-0.668-0.783-1.35-1.581-2.047-2.395
			s-1.307-1.625-1.829-2.439c-0.523-0.813-0.784-1.625-0.784-2.439v-9.582c0-0.115-0.596-0.551-1.785-1.307
			c-1.191-0.754-2.688-1.668-4.487-2.744c-1.8-1.074-3.775-2.266-5.923-3.571c-2.149-1.307-4.196-2.584-6.142-3.833
			c-1.946-1.248-3.63-2.396-5.053-3.44c-1.423-1.046-2.338-1.887-2.744-2.526c-0.173-0.231-0.537-0.813-1.089-1.742
			c-0.552-0.928-1.132-1.917-1.742-2.962c-0.61-1.046-1.163-2.032-1.655-2.962c-0.494-0.929-0.74-1.568-0.74-1.917v-1.567v-2.788
			v-2.7v-1.655c-0.117-1.567-0.93-3.006-2.439-4.312c-1.511-1.307-3.282-2.424-5.314-3.354c-2.034-0.929-4.081-1.641-6.141-2.135
			c-2.063-0.492-3.703-0.74-4.922-0.74c-0.697,0-1.322,0.146-1.873,0.436c-0.553,0.291-1.089,0.609-1.611,0.958
			c-0.523,0.349-1.046,0.669-1.568,0.958c-0.522,0.291-1.133,0.436-1.829,0.436c-1.219,0-2.004-0.246-2.352-0.74
			c-0.349-0.493-0.522-1.089-0.522-1.786c0-0.754,0.043-1.538,0.13-2.352c0.087-0.813-0.015-1.538-0.305-2.178
			c-0.233-0.349-0.771-0.755-1.612-1.22c-0.843-0.465-1.467-0.639-1.873-0.522v-0.436c0-1.046,0.348-2.017,1.045-2.918
			c0.697-0.9,1.553-1.698,2.57-2.396c1.016-0.696,2.104-1.232,3.267-1.611c1.161-0.377,2.178-0.566,3.049-0.566
			c0.928,0,1.843,0.132,2.744,0.393c0.9,0.262,1.8,0.553,2.701,0.871c0.899,0.32,1.799,0.625,2.7,0.914
			c0.899,0.292,1.843,0.466,2.831,0.522c3.833,0.35,7.81,0.741,11.934,1.177c4.123,0.436,8.13,0.653,12.021,0.653h1.133
			c0.522,0,1.089-0.014,1.698-0.043c0.61-0.029,1.176-0.044,1.699-0.044h1.132c0.406-0.115,0.944-0.362,1.612-0.741
			c0.667-0.376,1.002-0.855,1.002-1.437v-0.436l-0.871-1.742v-0.436c0-0.522,0.174-0.885,0.522-1.089
			c0.349-0.203,0.754-0.306,1.22-0.306c0.58,0,1.001,0.161,1.263,0.479c0.261,0.32,0.479,0.669,0.653,1.045
			c0.174,0.379,0.362,0.771,0.566,1.177c0.202,0.406,0.536,0.696,1.001,0.871c0.231,0.117,0.623,0.261,1.176,0.436
			c0.551,0.174,1.161,0.348,1.829,0.522c0.667,0.174,1.292,0.335,1.873,0.479c0.58,0.146,0.987,0.248,1.22,0.306
			c0,0.058,0.014,0.13,0.043,0.217c0.029,0.088,0.044,0.161,0.044,0.219c0,0.581-0.465,1.104-1.394,1.568
			c-0.93,0.465-1.946,1.045-3.049,1.741c-1.104,0.697-2.121,1.598-3.049,2.701c-0.93,1.104-1.394,2.557-1.394,4.355
			c0,1.045,0.377,1.916,1.133,2.613c0.754,0.696,1.668,1.263,2.744,1.698c1.074,0.436,2.207,0.741,3.397,0.915
			c1.189,0.174,2.191,0.261,3.006,0.261c0-0.174-0.088-0.464-0.262-0.87c-0.174-0.406-0.291-0.799-0.348-1.176
			c-0.059-0.378,0.014-0.698,0.218-0.959c0.203-0.262,0.711-0.333,1.524-0.218c0-0.115-0.043-0.449-0.131-1.001
			c-0.087-0.553-0.13-1.146-0.13-1.787c0-0.638,0.116-1.219,0.349-1.741c0.231-0.522,0.638-0.784,1.22-0.784
			c0.057,0,0.202,0.029,0.435,0.086c0.116,0.06,0.393,0.219,0.828,0.48c0.436,0.261,0.9,0.537,1.394,0.827
			c0.493,0.291,0.943,0.566,1.35,0.827c0.406,0.262,0.667,0.423,0.784,0.479c0.406,0.059,0.667,0.087,0.784,0.087
			c0.116,0,0.29-0.014,0.523-0.043c0.231-0.029,0.376-0.044,0.436-0.044c0.116-0.057,0.405-0.231,0.871-0.522
			c0.464-0.29,0.754-0.405,0.872-0.349c0.405,0.232,0.885,0.669,1.437,1.307c0.551,0.64,1.117,1.321,1.699,2.047
			c0.579,0.728,1.132,1.424,1.655,2.091c0.523,0.669,0.958,1.176,1.307,1.524c0.057,0.233,0.087,0.379,0.087,0.437
			c0,0.754-0.189,1.262-0.566,1.523c-0.378,0.262-0.814,0.451-1.307,0.566c-0.494,0.117-0.988,0.218-1.481,0.305
			c-0.494,0.087-0.857,0.306-1.089,0.653c-0.058,0.06-0.13,0.262-0.217,0.609c-0.087,0.349-0.174,0.728-0.261,1.133
			c-0.087,0.407-0.161,0.784-0.218,1.133c-0.058,0.349-0.117,0.553-0.174,0.61c-0.117,0.174-0.435,0.537-0.958,1.089
			c-0.522,0.552-1.104,1.147-1.742,1.785c-0.64,0.64-1.278,1.263-1.917,1.872c-0.639,0.61-1.132,1.062-1.481,1.351
			c-0.581,0.523-1.075,1.19-1.48,2.004c-0.407,0.814-0.784,1.611-1.133,2.396c-0.348,0.783-0.727,1.438-1.132,1.96
			c-0.407,0.522-0.901,0.727-1.481,0.61v5.836c-0.756,0-1.307-0.174-1.655-0.522c-0.349-0.349-0.668-0.726-0.958-1.133
			c-0.292-0.405-0.64-0.784-1.046-1.132c-0.406-0.349-1.017-0.523-1.829-0.523c-1.453,0-2.701,0.117-3.746,0.349
			c-1.045,0.233-2.323,0.727-3.833,1.481c0,0.174-0.03,0.537-0.087,1.089c-0.058,0.553-0.087,0.914-0.087,1.089
			c0,0.93,0.174,1.829,0.522,2.7s1.102,1.307,2.265,1.307c0.754,0,1.364-0.145,1.83-0.436c0.464-0.29,1.016-0.754,1.655-1.394
			c-0.292,0.696-0.261,1.582,0.087,2.656c0.349,1.076,0.856,2.121,1.524,3.137c0.667,1.017,1.451,1.902,2.353,2.657
			c0.899,0.755,1.755,1.132,2.569,1.132h0.436l2.613-1.742h0.349c2.903,0,5.14,0.189,6.708,0.566c1.567,0.378,2.918,0.93,4.05,1.655
			c1.132,0.727,2.25,1.642,3.354,2.744c1.103,1.104,2.67,2.352,4.705,3.745c0.871,0.581,1.771,1.032,2.7,1.351
			c0.928,0.319,1.786,0.668,2.569,1.045c0.784,0.379,1.423,0.886,1.917,1.524c0.493,0.64,0.74,1.598,0.74,2.875
			c0,2.73-0.161,4.704-0.479,5.923c-0.32,1.221-0.828,2.15-1.525,2.788c-0.697,0.64-1.611,1.22-2.744,1.742
			c-1.132,0.522-2.482,1.452-4.05,2.787c-0.058,0.059-0.436,0.566-1.132,1.525c-0.697,0.957-1.524,2.148-2.482,3.571
			s-2.004,2.977-3.136,4.66c-1.132,1.685-2.165,3.282-3.093,4.791c-0.93,1.511-1.713,2.831-2.352,3.964
			c-0.64,1.132-0.958,1.844-0.958,2.134v2.439c0,0.813,0.318,1.539,0.958,2.178h-0.872c-1.975,0-3.354-0.609-4.138-1.829
			S-375.047-102.135-375.047-103.935z M-404.665-209.514c0-0.813,0.333-1.248,1.001-1.307c0.667-0.058,1.263-0.087,1.786-0.087
			c1.336,0,2.788,0.291,4.356,0.87c1.568,0.582,2.7,1.481,3.397,2.701c-2.961,0.696-6.069,1.045-9.32,1.045
			c0-0.464-0.059-0.827-0.174-1.089c-0.118-0.261-0.262-0.492-0.436-0.696c-0.174-0.203-0.319-0.405-0.436-0.61
			C-404.607-208.889-404.665-209.165-404.665-209.514z M-382.103-219.444c0-0.639,0.159-1.161,0.479-1.568
			c0.319-0.406,0.798-0.783,1.438-1.133c-0.755-0.928-1.655-1.655-2.7-2.178c-1.046-0.522-1.888-1.248-2.526-2.178
			c1.103-0.464,2.091-0.813,2.961-1.045c0.872-0.231,1.699-0.406,2.483-0.522c0.784-0.115,1.582-0.188,2.396-0.218
			c0.813-0.029,1.742-0.044,2.788-0.044s2.003,0.015,2.875,0.044c0.872,0.029,1.728,0.073,2.57,0.13
			c0.841,0.059,1.712,0.146,2.614,0.262c0.899,0.117,1.93,0.292,3.092,0.522l-6.098,5.227c-0.407,0.059-0.668,0.088-0.784,0.088
			c-0.64,0-1.089-0.175-1.35-0.522c-0.261-0.349-0.712-0.523-1.35-0.523c-0.814,0-1.38,0.276-1.699,0.827
			c-0.32,0.553-0.61,1.163-0.872,1.83c-0.261,0.668-0.596,1.277-1.001,1.829c-0.407,0.553-1.104,0.827-2.091,0.827
			c-0.697,0-1.409-0.071-2.134-0.217C-381.741-218.151-382.103-218.631-382.103-219.444z M-374.96-201.239
			c-0.059-0.057-0.102-0.187-0.131-0.391c-0.03-0.203-0.043-0.362-0.043-0.479c0-0.697,0.261-1.19,0.784-1.481
			c0.523-0.289,1.19-0.376,2.003-0.261c-0.465-1.22-1.321-2.104-2.569-2.657c-1.25-0.551-2.526-1.002-3.833-1.351
			c-1.307-0.348-2.469-0.74-3.484-1.176c-1.017-0.436-1.524-1.176-1.524-2.222c0-0.754,0.333-1.176,1.002-1.262
			c0.667-0.088,1.232-0.132,1.698-0.132c2.265,0,4.399,0.363,6.402,1.089c2.004,0.727,3.76,1.758,5.271,3.093
			c1.51,1.337,2.714,2.934,3.615,4.791c0.9,1.859,1.35,3.921,1.35,6.185c-1.045,0-1.99-0.174-2.831-0.522
			c-0.843-0.348-1.655-0.74-2.439-1.176s-1.598-0.856-2.439-1.263C-372.971-200.859-373.914-201.122-374.96-201.239z
			 M-378.444-157.684l0.871-0.87c0.813,0.348,1.51,0.668,2.091,0.958c0.58,0.292,1.161,0.581,1.742,0.871
			c0.58,0.291,1.045,0.553,1.394,0.784c0.116,0.059,0.275,0.189,0.479,0.392c0.202,0.204,0.333,0.363,0.392,0.479h-0.436
			c-1.162,0-2.338-0.232-3.528-0.697C-376.63-156.231-377.632-156.869-378.444-157.684z M-364.419-217.877
			c-0.755,0-1.437,0.161-2.047,0.479c-0.61,0.32-1.293,0.479-2.047,0.479h-0.348c-0.059-0.058-0.174-0.203-0.349-0.437
			c-0.174-0.23-0.348-0.492-0.523-0.783c-0.174-0.29-0.348-0.566-0.522-0.828c-0.174-0.261-0.292-0.449-0.349-0.566
			c-0.059-0.231-0.087-0.377-0.087-0.436c0-0.115,0.028-0.261,0.087-0.435c1.394-1.394,2.701-2.513,3.92-3.354
			c1.22-0.841,2.511-1.51,3.876-2.003c1.364-0.493,2.816-0.856,4.355-1.089c1.538-0.232,3.295-0.406,5.27-0.523
			c-0.348-0.696-0.059-1.276,0.871-1.741c0.929-0.465,2.061-0.828,3.397-1.089c1.335-0.262,2.642-0.45,3.92-0.566
			c1.277-0.116,2.061-0.175,2.352-0.175c0.057,0,0.377-0.014,0.958-0.044c0.58-0.028,1.176-0.013,1.786,0.044
			c0.609,0.059,1.176,0.189,1.698,0.392c0.522,0.205,0.785,0.538,0.785,1.002c0,0.349-0.161,0.597-0.479,0.74
			c-0.32,0.146-0.668,0.262-1.045,0.349c-0.378,0.087-0.771,0.204-1.176,0.349c-0.406,0.146-0.696,0.392-0.871,0.74
			c0.115,0.523,0.405,0.814,0.871,0.871c0.464,0.059,0.9,0.088,1.307,0.088c0.697,0,1.35-0.072,1.96-0.219
			c0.61-0.144,1.205-0.289,1.786-0.436c0.58-0.144,1.205-0.289,1.874-0.435c0.666-0.145,1.437-0.219,2.308-0.219
			c0,0.118-0.059,0.466-0.174,1.046c-0.117,0.581-0.233,0.93-0.349,1.045c-0.059,0.117-0.262,0.335-0.609,0.653
			c-0.349,0.32-0.727,0.684-1.133,1.089c-0.407,0.407-0.784,0.771-1.132,1.089c-0.349,0.32-0.553,0.538-0.61,0.653
			c-0.117,0.292-0.232,0.828-0.348,1.611c-0.117,0.784-0.218,1.611-0.305,2.483c-0.087,0.871-0.161,1.698-0.218,2.482
			c-0.059,0.784-0.059,1.351,0,1.699h-3.049c-0.407,1.104-0.553,1.829-0.436,2.178c0.115,0.174,0.392,0.479,0.828,0.914
			c0.436,0.437,0.74,0.712,0.915,0.827c-0.522,0.814-1.061,1.395-1.611,1.743c-0.553,0.348-1.119,0.639-1.699,0.871
			c-0.582,0.232-1.176,0.45-1.786,0.652c-0.61,0.204-1.235,0.566-1.874,1.089l-6.098,6.099c-0.697,0.64-1.263,1.104-1.698,1.394
			c-0.436,0.291-1.032,0.436-1.786,0.436c-1.337,0-2.324-0.492-2.962-1.48c-0.64-0.987-1.104-2.235-1.394-3.746
			c-0.292-1.51-0.494-3.136-0.61-4.879c-0.117-1.741-0.335-3.366-0.653-4.878c-0.319-1.509-0.828-2.757-1.524-3.745
			C-361.894-217.383-362.968-217.877-364.419-217.877z M-338.46-202.458c0-0.115,0.029-0.29,0.087-0.522
			c0.057-0.116,0.188-0.405,0.392-0.871c0.203-0.464,0.362-0.754,0.479-0.871c0.116,0.058,0.406,0.189,0.871,0.393
			c0.464,0.204,0.754,0.363,0.871,0.479c0.057,0.059,0.203,0.218,0.436,0.479c0.231,0.262,0.377,0.393,0.436,0.393
			c0.057,0,0.218-0.044,0.479-0.131c0.262-0.087,0.537-0.188,0.828-0.306c0.29-0.115,0.566-0.217,0.827-0.304
			c0.262-0.087,0.421-0.131,0.479-0.131c0.116-0.058,0.405-0.101,0.871-0.131c0.464-0.028,0.754-0.044,0.871-0.044v3.137
			c-0.174,0-0.61,0.014-1.307,0.043c-0.697,0.03-1.467,0.015-2.308-0.043c-0.843-0.058-1.655-0.174-2.44-0.35
			c-0.784-0.174-1.38-0.463-1.785-0.87C-338.432-202.284-338.46-202.399-338.46-202.458z M-308.755-141.132
			c-0.814-0.405-1.351-0.914-1.612-1.524c-0.261-0.61-0.465-1.248-0.609-1.917c-0.146-0.667-0.349-1.319-0.61-1.96
			c-0.261-0.638-0.771-1.16-1.524-1.567c-1.859-0.115-3.761-0.188-5.706-0.218c-1.946-0.028-3.732-0.274-5.358-0.741
			c-1.626-0.463-2.961-1.306-4.006-2.525c-1.046-1.22-1.568-3.049-1.568-5.488c0-1.916,0.436-3.846,1.307-5.793
			c0.871-1.944,2.047-3.702,3.528-5.27c1.48-1.568,3.164-2.832,5.052-3.79c1.886-0.958,3.846-1.437,5.879-1.437
			c0.813,0,1.539,0.232,2.178,0.696c0.639,0.466,1.264,0.958,1.874,1.481c0.609,0.522,1.219,1.016,1.828,1.48
			c0.61,0.465,1.264,0.697,1.961,0.697h12.195c0.057,0,0.188-0.218,0.392-0.654c0.203-0.435,0.362-0.797,0.479-1.089v-0.435
			c0-0.35-0.175-0.682-0.522-1.002c-0.349-0.318-0.728-0.609-1.133-0.871c-0.407-0.262-0.799-0.493-1.176-0.697
			c-0.379-0.203-0.597-0.362-0.653-0.479c-0.059-0.23-0.088-0.376-0.088-0.435c0-0.232,0.131-0.537,0.393-0.915
			c0.262-0.377,0.58-0.711,0.958-1.002c0.378-0.29,0.77-0.552,1.176-0.784c0.406-0.231,0.754-0.348,1.046-0.348
			c0.231,0,0.682-0.014,1.35-0.044c0.667-0.028,1.379-0.044,2.135-0.044c0.754,0,1.451,0.016,2.091,0.044
			c0.638,0.03,1.103,0.044,1.394,0.044c0-0.872-0.378-1.582-1.133-2.135c-0.755-0.552-1.654-0.986-2.7-1.307
			c-1.046-0.318-2.077-0.551-3.093-0.697c-1.017-0.144-1.785-0.218-2.309-0.218c-0.465,0-0.9,0.218-1.307,0.653
			s-0.813,0.945-1.219,1.525c-0.407,0.58-0.784,1.162-1.133,1.741c-0.349,0.582-0.697,1.017-1.045,1.308
			c-0.117-0.176-0.393-0.479-0.828-0.915s-0.74-0.711-0.914-0.828c-0.232-0.057-0.379-0.087-0.436-0.087
			c-0.059,0-0.204,0.03-0.436,0.087l-0.871,0.872c-0.232,0.058-0.379,0.086-0.436,0.086c-0.522,0-1.002-0.202-1.438-0.609
			c-0.436-0.405-0.871-0.856-1.307-1.35c-0.436-0.494-0.886-0.987-1.351-1.481c-0.465-0.492-0.987-0.828-1.568-1.002h-0.435h-0.436
			c-0.697,0.233-1.381,0.597-2.047,1.089c-0.668,0.494-1.293,1.032-1.873,1.611c-0.582,0.581-1.133,1.177-1.655,1.786
			c-0.523,0.609-0.988,1.147-1.394,1.611c-0.118,0.06-0.407,0.103-0.872,0.131c-0.465,0.03-0.755,0.044-0.871,0.044
			c-1.279,0-2.047-0.334-2.309-1.002c-0.261-0.667-0.392-1.553-0.392-2.657c0-0.928,0.087-1.553,0.262-1.873
			c0.174-0.318,0.436-0.507,0.784-0.566c0.348-0.057,0.798-0.057,1.35,0c0.551,0.06,1.233,0,2.047-0.174
			c0.057,0,0.188-0.115,0.392-0.349c0.203-0.23,0.362-0.405,0.479-0.522c0.987-1.335,1.988-2.686,3.005-4.051
			c1.016-1.363,2.119-2.54,3.31-3.527s2.54-1.699,4.051-2.134c1.51-0.437,3.281-0.393,5.314,0.13
			c-0.059-1.103,0.087-1.917,0.436-2.439s0.813-0.885,1.394-1.089c0.579-0.202,1.22-0.305,1.917-0.305
			c0.754,0,1.465-0.043,2.134-0.131c0.667-0.087,1.263-0.274,1.785-0.565c0.522-0.29,0.872-0.813,1.046-1.568
			c0.231-0.871,0.13-1.394-0.305-1.568c-0.436-0.174-0.887-0.261-1.351-0.261c-0.93,0-1.815,0.174-2.657,0.522
			c-0.842,0.348-1.757,0.522-2.744,0.522c-0.465,0-0.87-0.101-1.219-0.305c-0.349-0.203-0.523-0.566-0.523-1.089
			c0-0.057,0.029-0.203,0.088-0.437l1.742-2.612c0.057-0.115,0.043-0.218-0.044-0.306c-0.087-0.087-0.131-0.188-0.131-0.305
			c-1.045,0-1.815,0.262-2.308,0.784c-0.494,0.522-0.857,1.163-1.09,1.916c-0.232,0.756-0.422,1.584-0.565,2.483
			c-0.146,0.9-0.364,1.729-0.653,2.482c-0.292,0.756-0.741,1.395-1.351,1.917c-0.61,0.522-1.496,0.783-2.657,0.783
			c-0.755,0-1.35-0.159-1.785-0.479c-0.436-0.318-0.784-0.741-1.046-1.264c-0.261-0.522-0.436-1.089-0.522-1.698
			s-0.13-1.233-0.13-1.873c0-0.464-0.015-0.813-0.044-1.045c-0.03-0.231-0.015-0.422,0.044-0.566
			c0.057-0.145,0.159-0.29,0.305-0.436c0.144-0.145,0.361-0.362,0.653-0.653c0.579-0.522,1.422-1.248,2.525-2.178
			c1.104-0.928,2.222-1.857,3.354-2.787c1.132-0.929,2.134-1.757,3.005-2.483c0.871-0.726,1.394-1.146,1.568-1.263
			c0.464-0.405,0.885-0.667,1.263-0.784c0.377-0.116,0.856-0.175,1.438-0.175c0.696,0,1.22,0.204,1.568,0.61
			c0.348,0.407,0.638,0.857,0.87,1.351s0.465,0.987,0.697,1.48c0.231,0.494,0.61,0.827,1.133,1.002
			c0.928,0.291,1.712,0.479,2.353,0.565c0.638,0.087,1.188,0.205,1.654,0.349c0.464,0.146,0.856,0.393,1.177,0.74
			c0.318,0.349,0.623,0.959,0.914,1.83c0.174,0.059,0.595,0.116,1.264,0.174c0.666,0.059,1.117,0.087,1.35,0.087
			c1.161,0,2.235-0.145,3.223-0.436c0.987-0.289,1.655-1.248,2.004-2.874h9.582c0.813-1.22,1.611-2.147,2.396-2.788
			c0.784-0.639,1.641-1.059,2.57-1.263c0.928-0.203,1.974-0.274,3.136-0.218c1.161,0.059,2.526,0.174,4.094,0.349
			c0.523-1.395,1.264-2.512,2.222-3.354c0.958-0.841,2.032-1.495,3.224-1.961c1.189-0.464,2.452-0.813,3.789-1.045
			c1.335-0.231,2.613-0.436,3.833-0.61c0.057,0,0.305-0.115,0.74-0.348c0.436-0.231,0.77-0.406,1.002-0.523
			c0.058-0.057,0.202-0.174,0.436-0.348c0.231-0.175,0.508-0.362,0.827-0.566c0.318-0.203,0.61-0.393,0.871-0.566
			c0.262-0.174,0.421-0.261,0.479-0.261c0.29,0,0.696,0.204,1.22,0.609c0.522,0.406,1.074,0.87,1.654,1.394
			c0.581,0.522,1.09,1.017,1.525,1.481s0.71,0.755,0.827,0.871c-0.581,0.291-0.988,0.827-1.22,1.611
			c-0.232,0.784-0.407,1.408-0.522,1.873c0.175-0.058,0.552-0.131,1.132-0.218c0.58-0.088,1.205-0.175,1.874-0.262
			c0.666-0.087,1.291-0.175,1.872-0.262c0.58-0.087,0.987-0.131,1.22-0.131h0.958c0.929,0,1.858,0.103,2.787,0.306
			c0.929,0.204,1.858,0.407,2.788,0.61c0.929,0.204,1.873,0.406,2.831,0.609c0.959,0.204,1.931,0.305,2.919,0.305
			c1.509,0,2.831-0.058,3.964-0.175c1.132-0.115,2.395-0.667,3.789-1.655l8.711,4.355c0.231,0.118,0.609,0.277,1.132,0.479
			c0.523,0.204,1.074,0.393,1.655,0.566c0.58,0.174,1.103,0.335,1.568,0.479c0.464,0.145,0.754,0.218,0.871,0.218h1.568h2.787h2.701
			h1.654c0.116,0,0.393,0.116,0.827,0.349c0.437,0.232,0.741,0.406,0.915,0.522c0.058,0.059,0.203,0.218,0.436,0.479
			c0.231,0.261,0.377,0.391,0.436,0.391c0.174,0.06,0.508,0.146,1.002,0.262c0.493,0.118,1.03,0.218,1.611,0.305
			c0.58,0.088,1.117,0.161,1.611,0.219c0.493,0.058,0.828,0.087,1.002,0.087c0,0.117,0.014,0.407,0.043,0.871
			c0.029,0.466,0.044,0.755,0.044,0.871c0,0.466-0.029,1.017-0.087,1.655c-0.059,0.64-0.494,0.958-1.307,0.958h-0.436l-1.742-0.872
			h-0.436h-0.436c-0.059,0.06-0.261,0.219-0.609,0.479c-0.349,0.262-0.728,0.538-1.133,0.828c-0.406,0.291-0.784,0.566-1.133,0.827
			c-0.349,0.262-0.553,0.423-0.609,0.479c-0.291,0.117-0.77,0.305-1.438,0.565c-0.668,0.263-1.365,0.538-2.091,0.828
			c-0.727,0.291-1.424,0.553-2.09,0.784c-0.669,0.232-1.119,0.378-1.351,0.436c-0.117,0.466-0.379,1.104-0.784,1.916
			c-0.406,0.814-0.871,1.599-1.394,2.353c-0.523,0.755-1.089,1.408-1.699,1.96c-0.609,0.553-1.206,0.827-1.785,0.827
			c-0.466,0-0.784-0.13-0.959-0.392c-0.174-0.262-0.305-0.565-0.392-0.915c-0.087-0.349-0.117-0.711-0.087-1.089
			c0.028-0.376,0.043-0.711,0.043-1.001c0-1.277,0.175-2.31,0.523-3.093c0.348-0.784,1.363-1.554,3.049-2.309
			c-0.059-0.116-0.189-0.275-0.393-0.479c-0.204-0.202-0.363-0.333-0.479-0.392c-0.232-0.057-0.379-0.087-0.436-0.087
			c-0.059,0-0.204,0.03-0.436,0.087l-2.613,2.613c-0.407,0.058-0.669,0.087-0.784,0.087c-0.117,0-0.291-0.014-0.522-0.043
			c-0.232-0.029-0.379-0.044-0.436-0.044c-0.059,0-0.204-0.145-0.436-0.436c-0.233-0.29-0.379-0.437-0.436-0.437
			c-0.059,0-0.218,0.044-0.479,0.132c-0.261,0.087-0.538,0.188-0.827,0.305c-0.291,0.117-0.566,0.218-0.828,0.305
			c-0.261,0.087-0.422,0.131-0.479,0.131c-0.117,0-0.407-0.131-0.871-0.392c-0.466-0.262-0.756-0.421-0.872-0.48h-0.435
			c-1.162,0-2.309,0.451-3.441,1.351c-1.133,0.901-1.873,1.903-2.222,3.006c0.872,0.291,1.538,0.64,2.004,1.046
			c0.464,0.406,0.696,1.045,0.696,1.916c0,1.742-0.392,3.369-1.176,4.878c-0.783,1.512-1.713,2.962-2.787,4.355
			c-1.075,1.395-2.148,2.803-3.223,4.226c-1.075,1.424-1.903,2.918-2.483,4.486h-0.87c0-0.116-0.03-0.393-0.088-0.828
			c-0.059-0.436-0.16-0.885-0.305-1.35c-0.146-0.465-0.32-0.915-0.522-1.351c-0.204-0.436-0.479-0.71-0.827-0.828
			c-0.814,0.64-1.438,1.308-1.874,2.004c-0.435,0.696-0.727,1.424-0.87,2.178c-0.146,0.756-0.189,1.583-0.131,2.482
			c0.057,0.901,0.144,1.873,0.261,2.918c-1.278,1.512-2.918,2.847-4.922,4.008c-2.003,1.162-3.848,2.149-5.531,2.962
			c0,0.059-0.015,0.189-0.044,0.392c-0.029,0.204-0.043,0.363-0.043,0.479c0,0.64,0.174,1.219,0.522,1.742
			c0.349,0.522,0.522,1.104,0.522,1.742c0,1.045-0.291,1.654-0.871,1.829c-0.581,0.174-1.206,0.349-1.873,0.522
			c-0.668,0.175-1.205,0.538-1.611,1.089c-0.406,0.554-0.436,1.729-0.087,3.528c-1.163,0-2.192-0.551-3.093-1.655
			c-0.9-1.103-1.685-2.424-2.352-3.963c-0.669-1.539-1.206-3.093-1.611-4.661c-0.407-1.568-0.669-2.787-0.784-3.659
			c-1.742,1.046-3.063,1.932-3.964,2.657c-0.901,0.727-1.583,1.38-2.047,1.96c-0.466,0.581-0.756,1.104-0.871,1.568
			c-0.117,0.466-0.233,0.944-0.349,1.437c-0.117,0.495-0.335,1.032-0.653,1.612c-0.32,0.581-0.887,1.278-1.699,2.091
			c-0.174,0.059-0.319,0.087-0.436,0.087c-0.696,0-1.336-0.536-1.916-1.612c-0.581-1.073-1.191-2.321-1.829-3.745
			c-0.64-1.422-1.38-2.801-2.222-4.138c-0.842-1.335-1.902-2.265-3.179-2.787c-1.22-0.523-2.309-0.944-3.267-1.264
			c-0.959-0.318-1.859-0.638-2.701-0.957c-0.843-0.319-1.686-0.698-2.526-1.133c-0.843-0.436-1.786-1.06-2.831-1.873
			c-0.232-0.057-0.378-0.088-0.436-0.088c-0.64,0-1.031,0.277-1.176,0.828c-0.146,0.553-0.218,1.061-0.218,1.524
			c0,0.697,0.305,1.263,0.915,1.698c0.609,0.436,1.307,0.799,2.09,1.089c0.784,0.292,1.568,0.509,2.353,0.653
			c0.784,0.146,1.351,0.276,1.698,0.392v0.872l-6.098,6.098c-0.581,0.059-0.958,0.087-1.132,0.087c-1.337,0-2.514-0.449-3.528-1.351
			c-1.018-0.899-1.932-1.96-2.744-3.18c-0.814-1.219-1.539-2.467-2.178-3.745c-0.64-1.277-1.22-2.322-1.742-3.137
			c0,0.117-0.015,0.407-0.043,0.872c-0.031,0.465-0.044,0.756-0.044,0.871c0,1.51,0.217,2.992,0.653,4.442
			c0.436,1.452,1.074,2.773,1.916,3.964c0.841,1.19,1.887,2.148,3.136,2.874c1.248,0.728,2.687,1.089,4.313,1.089
			c0,0.814-0.233,1.555-0.696,2.221c-0.467,0.669-0.93,1.322-1.395,1.961l-5.227,6.969c0,0.059-0.015,0.189-0.043,0.393
			c-0.031,0.203-0.044,0.363-0.044,0.479c0,0.988,0.174,1.859,0.522,2.613c0.348,0.755,0.522,1.714,0.522,2.875
			c0,0.987-0.349,1.99-1.045,3.005c-0.697,1.018-1.409,2.034-2.134,3.05c-0.728,1.016-1.352,2.018-1.874,3.005
			c-0.522,0.988-0.609,1.946-0.261,2.874c-0.871,1.917-1.829,3.166-2.875,3.746c-1.045,0.582-2.41,0.871-4.094,0.871
			c-0.233,0-0.684-0.028-1.351-0.087c-0.669-0.058-1.089-0.116-1.263-0.175c-2.439-3.31-4.153-6.91-5.141-10.801
			S-309.685-137.124-308.755-141.132z M-317.38-192.092c0-0.116-0.029-0.261-0.086-0.436c-0.118-0.116-0.407-0.29-0.872-0.522
			c-0.465-0.231-0.755-0.349-0.871-0.349c-0.697,0-1.191,0.161-1.481,0.479c-0.292,0.319-0.538,0.683-0.741,1.089
			c-0.204,0.406-0.465,0.771-0.784,1.089c-0.32,0.319-0.886,0.479-1.699,0.479c0-0.638,0.188-1.307,0.566-2.004
			c0.377-0.696,0.872-1.319,1.481-1.873c0.61-0.551,1.263-1.015,1.96-1.394c0.697-0.377,1.363-0.565,2.003-0.565
			c0.58,0,1.016,0.131,1.307,0.392c0.29,0.262,0.507,0.597,0.653,1.002c0.144,0.407,0.231,0.827,0.261,1.264
			c0.028,0.435,0.044,0.827,0.044,1.175c0,1.453-0.233,2.688-0.697,3.703c-0.465,1.017-1.54,1.523-3.224,1.523
			c0-0.521,0.116-1.001,0.349-1.437c0.231-0.436,0.479-0.842,0.74-1.22c0.262-0.377,0.508-0.754,0.741-1.133
			C-317.496-191.205-317.38-191.626-317.38-192.092z M-293.075-168.136c-0.466,0-0.697,0.291-0.697,0.871
			c0,0.581,0.231,0.87,0.697,0.87c0.464,0,0.697-0.289,0.697-0.87C-292.378-167.845-292.611-168.136-293.075-168.136z
			 M-286.106-128.065c0-0.348,0.188-0.914,0.566-1.698c0.377-0.784,0.841-1.582,1.394-2.396c0.551-0.813,1.146-1.524,1.786-2.135
			c0.639-0.609,1.189-0.914,1.654-0.914c0,0.696,0.044,1.642,0.131,2.83c0.087,1.191,0.072,2.383-0.043,3.572
			c-0.117,1.191-0.393,2.208-0.828,3.049c-0.436,0.843-1.147,1.264-2.134,1.264C-285.265-124.493-286.106-125.683-286.106-128.065z
			 M-275.914-210.82h2.003v2.613c-0.291-0.231-0.697-0.595-1.219-1.089C-275.653-209.789-275.914-210.298-275.914-210.82z
			 M-263.894-218.661h0.436c0.116,0.059,0.275,0.189,0.479,0.393c0.202,0.204,0.333,0.363,0.393,0.479
			c0.057,0.233,0.087,0.379,0.087,0.436c0,0.117-0.407,0.407-1.22,0.871c-0.813,0.466-1.729,0.959-2.744,1.481
			c-1.017,0.522-2.004,0.988-2.962,1.394c-0.958,0.407-1.583,0.61-1.873,0.61v-2.179c0-0.289,0.29-0.609,0.871-0.958
			c0.58-0.349,1.264-0.682,2.047-1.001c0.785-0.319,1.568-0.623,2.353-0.915c0.784-0.29,1.351-0.493,1.699-0.61H-263.894z
			 M-216.417-171.62c0.579-0.29,1.319-0.885,2.221-1.786c0.9-0.899,1.771-1.829,2.613-2.788c0.841-0.958,1.568-1.814,2.178-2.569
			c0.61-0.755,0.943-1.132,1.002-1.132c0,0.93-0.087,1.931-0.261,3.005c-0.175,1.075-0.479,2.077-0.915,3.005
			c-0.436,0.93-1.032,1.699-1.786,2.309c-0.755,0.609-1.714,0.915-2.874,0.915c-0.349,0-0.771-0.014-1.264-0.044
			C-215.997-170.734-216.302-171.039-216.417-171.62z"/>
	</g>
	<g opacity="0.85">
		<path fill="#FFFFFF" d="M-404.055-208.076c0.174,0.204,0.318,0.436,0.436,0.696c0.115,0.262,0.174,0.625,0.174,1.089
			c3.251,0,6.359-0.349,9.32-1.045c-0.697-1.22-1.829-2.119-3.397-2.701c-1.568-0.579-3.02-0.87-4.356-0.87
			c-0.522,0-1.119,0.029-1.786,0.087c-0.668,0.059-1.001,0.493-1.001,1.307c0,0.349,0.057,0.625,0.174,0.827
			C-404.375-208.481-404.229-208.279-404.055-208.076z"/>
		<path fill="#FFFFFF" d="M-373.74-156.725c-0.581-0.29-1.163-0.579-1.742-0.871c-0.581-0.29-1.278-0.61-2.091-0.958l-0.871,0.87
			c0.813,0.814,1.814,1.452,3.005,1.917c1.19,0.465,2.366,0.697,3.528,0.697h0.436c-0.059-0.116-0.189-0.275-0.392-0.479
			c-0.204-0.202-0.363-0.333-0.479-0.392C-372.695-156.172-373.16-156.434-373.74-156.725z"/>
		<path fill="#FFFFFF" d="M-348.608-138.954c-0.494-0.639-1.133-1.146-1.917-1.524c-0.783-0.377-1.642-0.726-2.569-1.045
			c-0.93-0.318-1.83-0.77-2.7-1.351c-2.034-1.394-3.602-2.642-4.705-3.745c-1.104-1.103-2.221-2.018-3.354-2.744
			c-1.132-0.726-2.483-1.277-4.05-1.655c-1.568-0.377-3.805-0.566-6.708-0.566h-0.349l-2.613,1.742h-0.436
			c-0.814,0-1.67-0.377-2.569-1.132c-0.901-0.755-1.685-1.641-2.353-2.657c-0.668-1.016-1.176-2.061-1.524-3.137
			c-0.348-1.074-0.378-1.96-0.087-2.656c-0.64,0.64-1.191,1.104-1.655,1.394c-0.465,0.291-1.075,0.436-1.83,0.436
			c-1.163,0-1.917-0.436-2.265-1.307c-0.137-0.342-0.239-0.689-0.322-1.041c-1.384,0.724-2.757,1.47-4.12,2.235
			c1.048,0.654,2.121,1.315,3.222,1.985c2.148,1.306,4.123,2.497,5.923,3.571c1.8,1.076,3.296,1.99,4.487,2.744
			c1.189,0.756,1.785,1.191,1.785,1.307v9.582c0,0.814,0.261,1.626,0.784,2.439c0.522,0.814,1.132,1.626,1.829,2.439
			s1.379,1.611,2.047,2.395c0.667,0.784,1.146,1.555,1.438,2.31v1.045c0,0.466,0.013,0.988,0.043,1.567
			c0.029,0.581,0.044,1.133,0.044,1.655v0.958c0,1.686-0.102,3.354-0.305,5.01c-0.204,1.654-0.422,3.297-0.653,4.922
			c-0.232,1.626-0.45,3.266-0.653,4.922c-0.204,1.654-0.305,3.296-0.305,4.922c0,1.8,0.392,3.31,1.176,4.529
			s2.163,1.829,4.138,1.829h0.872c-0.64-0.639-0.958-1.364-0.958-2.178v-2.439c0-0.29,0.318-1.002,0.958-2.134
			c0.638-1.133,1.422-2.453,2.352-3.964c0.928-1.509,1.96-3.106,3.093-4.791c1.132-1.684,2.178-3.237,3.136-4.66
			s1.785-2.614,2.482-3.571c0.697-0.959,1.074-1.467,1.132-1.525c1.568-1.335,2.918-2.265,4.05-2.787
			c1.133-0.522,2.047-1.103,2.744-1.742c0.697-0.638,1.205-1.567,1.525-2.788c0.318-1.219,0.479-3.192,0.479-5.923
			C-347.868-137.356-348.116-138.314-348.608-138.954z"/>
		<path fill="#FFFFFF" d="M-379.228-162.822c0.348,0.349,0.899,0.522,1.655,0.522v-3.365c-1.034,0.354-2.062,0.732-3.084,1.133
			c0.17,0.186,0.328,0.378,0.471,0.577C-379.896-163.548-379.577-163.171-379.228-162.822z"/>
		<path fill="#FFFFFF" d="M-332.275-203.852c-0.059,0-0.218,0.044-0.479,0.131c-0.261,0.087-0.537,0.188-0.827,0.304
			c-0.291,0.117-0.566,0.219-0.828,0.306c-0.261,0.087-0.421,0.131-0.479,0.131c-0.059,0-0.204-0.131-0.436-0.393
			c-0.233-0.261-0.379-0.42-0.436-0.479c-0.117-0.115-0.407-0.274-0.871-0.479c-0.465-0.203-0.755-0.335-0.871-0.393
			c-0.117,0.117-0.276,0.407-0.479,0.871c-0.204,0.466-0.335,0.755-0.392,0.871c-0.059,0.232-0.087,0.407-0.087,0.522
			c0,0.059,0.029,0.174,0.087,0.349c0.405,0.407,1.001,0.696,1.785,0.87c0.785,0.176,1.597,0.292,2.44,0.35
			c0.841,0.058,1.611,0.073,2.308,0.043c0.697-0.029,1.132-0.043,1.307-0.043v-3.137c-0.117,0-0.407,0.016-0.871,0.044
			C-331.87-203.952-332.16-203.909-332.275-203.852z"/>
		<path fill="#FFFFFF" d="M-319.208-175.802c0.116,0,0.405-0.014,0.871-0.044c0.464-0.028,0.754-0.071,0.872-0.131
			c0.148-0.169,0.313-0.358,0.476-0.548c-1.575-0.388-3.159-0.74-4.747-1.068c0.06,0.286,0.129,0.556,0.22,0.789
			C-321.256-176.136-320.487-175.802-319.208-175.802z"/>
		<path fill="#FFFFFF" d="M-266.463-215.002c1.015-0.522,1.931-1.016,2.744-1.481c0.813-0.464,1.22-0.754,1.22-0.871
			c0-0.057-0.03-0.202-0.087-0.436c-0.06-0.115-0.19-0.274-0.393-0.479c-0.204-0.203-0.363-0.334-0.479-0.393h-0.87
			c-0.349,0.117-0.915,0.32-1.699,0.61c-0.784,0.292-1.567,0.596-2.353,0.915c-0.783,0.319-1.467,0.652-2.047,1.001
			c-0.581,0.349-0.871,0.669-0.871,0.958v2.179c0.29,0,0.915-0.203,1.873-0.61C-268.467-214.014-267.479-214.479-266.463-215.002z"
			/>
		<path fill="#FFFFFF" d="M-321.43-191.83c0.203-0.406,0.449-0.77,0.741-1.089c0.29-0.318,0.784-0.479,1.481-0.479
			c0.116,0,0.405,0.117,0.871,0.349c0.464,0.232,0.754,0.406,0.872,0.522c0.057,0.175,0.086,0.319,0.086,0.436
			c0,0.466-0.116,0.887-0.348,1.263c-0.233,0.379-0.479,0.756-0.741,1.133c-0.261,0.378-0.508,0.784-0.74,1.22
			c-0.189,0.354-0.281,0.743-0.316,1.153c0.333,0.067,0.666,0.133,0.999,0.203c1.097-0.176,1.83-0.653,2.191-1.443
			c0.464-1.016,0.697-2.25,0.697-3.703c0-0.348-0.016-0.74-0.044-1.175c-0.03-0.437-0.117-0.856-0.261-1.264
			c-0.146-0.405-0.363-0.74-0.653-1.002c-0.292-0.261-0.727-0.392-1.307-0.392c-0.64,0-1.306,0.188-2.003,0.565
			c-0.697,0.379-1.351,0.843-1.96,1.394c-0.609,0.554-1.104,1.177-1.481,1.873c-0.378,0.697-0.566,1.366-0.566,2.004
			c0.813,0,1.379-0.159,1.699-0.479C-321.896-191.06-321.634-191.424-321.43-191.83z"/>
		<path fill="#FFFFFF" d="M-289.678-140.261c0-0.115,0.013-0.275,0.044-0.479c0.028-0.203,0.043-0.334,0.043-0.393l5.227-6.969
			c0.465-0.639,0.928-1.292,1.395-1.961c0.201-0.289,0.35-0.594,0.464-0.911c-0.256-0.459-0.519-0.914-0.782-1.367
			c-1.215-0.122-2.317-0.46-3.298-1.031c-1.249-0.726-2.295-1.684-3.136-2.874c-0.842-1.19-1.48-2.512-1.916-3.964
			c-0.394-1.308-0.599-2.643-0.637-3.998c-0.083-0.08-0.162-0.165-0.246-0.245c-1.826-1.732-3.786-3.23-5.84-4.555h-7.781
			c-0.697,0-1.351-0.232-1.961-0.697c-0.609-0.465-1.219-0.958-1.828-1.48c-0.61-0.523-1.235-1.016-1.874-1.481
			c-0.639-0.464-1.364-0.696-2.178-0.696c-2.033,0-3.993,0.479-5.879,1.437c-1.888,0.958-3.572,2.222-5.052,3.79
			c-1.481,1.567-2.657,3.325-3.528,5.27c-0.871,1.947-1.307,3.877-1.307,5.793c0,2.439,0.522,4.269,1.568,5.488
			c1.045,1.22,2.38,2.063,4.006,2.525c1.625,0.467,3.412,0.713,5.358,0.741c1.945,0.03,3.846,0.103,5.706,0.218
			c0.754,0.407,1.263,0.93,1.524,1.567c0.261,0.641,0.464,1.293,0.61,1.96c0.145,0.669,0.349,1.307,0.609,1.917
			c0.262,0.61,0.798,1.119,1.612,1.524c-0.93,4.008-0.901,7.957,0.086,11.848s2.701,7.491,5.141,10.801
			c0.174,0.059,0.594,0.117,1.263,0.175c0.667,0.059,1.117,0.087,1.351,0.087c1.684,0,3.049-0.289,4.094-0.871
			c1.046-0.58,2.004-1.829,2.875-3.746c-0.349-0.928-0.262-1.886,0.261-2.874c0.522-0.987,1.146-1.989,1.874-3.005
			c0.725-1.016,1.437-2.032,2.134-3.05c0.696-1.015,1.045-2.018,1.045-3.005c0-1.161-0.175-2.12-0.522-2.875
			C-289.504-138.401-289.678-139.272-289.678-140.261z"/>
		<path fill="#FFFFFF" d="M-374.35-203.591c-0.522,0.291-0.784,0.784-0.784,1.481c0,0.117,0.013,0.276,0.043,0.479
			c0.029,0.204,0.072,0.334,0.131,0.391c1.046,0.117,1.989,0.38,2.832,0.785c0.841,0.406,1.655,0.827,2.439,1.263
			s1.596,0.828,2.439,1.176c0.841,0.349,1.786,0.522,2.831,0.522c0-2.264-0.45-4.325-1.35-6.185
			c-0.901-1.857-2.105-3.454-3.615-4.791c-1.511-1.335-3.267-2.366-5.271-3.093c-2.003-0.726-4.137-1.089-6.402-1.089
			c-0.466,0-1.032,0.044-1.698,0.132c-0.669,0.086-1.002,0.508-1.002,1.262c0,1.046,0.508,1.786,1.524,2.222
			c1.015,0.436,2.178,0.828,3.484,1.176c1.307,0.349,2.583,0.8,3.833,1.351c1.248,0.553,2.104,1.438,2.569,2.657
			C-373.16-203.967-373.827-203.88-374.35-203.591z"/>
		<path fill="#FFFFFF" d="M-214.239-170.662c1.16,0,2.119-0.306,2.874-0.915c0.754-0.609,1.351-1.379,1.786-2.309
			c0.436-0.928,0.74-1.93,0.915-3.005c0.174-1.074,0.261-2.075,0.261-3.005c-0.059,0-0.392,0.377-1.002,1.132
			c-0.609,0.755-1.337,1.611-2.178,2.569c-0.842,0.959-1.713,1.889-2.613,2.788c-0.901,0.901-1.642,1.496-2.221,1.786
			c0.115,0.581,0.42,0.886,0.914,0.914C-215.01-170.676-214.588-170.662-214.239-170.662z"/>
		<path fill="#FFFFFF" d="M-278.312-162.915c0.723,1.043,1.425,2.102,2.099,3.179l1.431-1.431v-0.872
			c-0.348-0.115-0.914-0.246-1.698-0.392C-277.091-162.543-277.702-162.713-278.312-162.915z"/>
		<path fill="#FFFFFF" d="M-286.216-156.974c-0.874-1.264-1.796-2.486-2.77-3.663c0.231,0.375,0.454,0.754,0.702,1.124
			C-287.656-158.57-286.966-157.726-286.216-156.974z"/>
		<path fill="#FFFFFF" d="M-280.706-135.208c-0.465,0-1.016,0.305-1.654,0.914c-0.641,0.61-1.235,1.322-1.786,2.135
			c-0.553,0.813-1.017,1.611-1.394,2.396c-0.379,0.784-0.566,1.351-0.566,1.698c0,2.383,0.842,3.572,2.526,3.572
			c0.986,0,1.698-0.421,2.134-1.264c0.436-0.841,0.711-1.857,0.828-3.049c0.115-1.189,0.13-2.381,0.043-3.572
			C-280.662-133.566-280.706-134.512-280.706-135.208z"/>
	</g>
	<g>
		<path fill="#FFFFFF" d="M-338.988-55.169l24.238-35.669l99.485-72.68c11.146,3.598,17.095,11.63,17.846,24.099l-99.77,72.673
			L-338.988-55.169z M-325.599-68.735l3.961,5.212l22.296-6.117c3.288-2.787,4.945-4.869,4.973-6.247
			c0.011-0.57-0.135-0.989-0.437-1.257c-0.306-0.267-0.789-0.408-1.454-0.421c-1.379-0.027-3.771,0.757-7.178,2.353
			c2.905-2.651,4.375-4.88,4.411-6.686c0.018-0.902-0.217-1.584-0.708-2.046c-0.489-0.462-1.258-0.703-2.303-0.724
			c-1.094-0.021-3.342,0.742-6.749,2.29c3.045-2.506,4.587-4.732,4.626-6.682c0.01-0.522-0.125-0.917-0.405-1.185
			c-0.28-0.266-0.729-0.406-1.347-0.419c-2.139-0.042-4.437,0.839-6.898,2.645L-325.599-68.735z M-306.009-92.946
			c0.812-0.174,1.479-0.256,2.002-0.246c1.899,0.038,2.833,0.96,2.797,2.766l-0.085,0.711l59.985-44.086
			c-1.545-1.219-3.071-2.176-4.578-2.872L-306.009-92.946z M-299.283-86.966c2.174,0.566,3.24,1.989,3.195,4.271l60.275-44.295
			c-0.682-1.582-1.652-3.004-2.911-4.265L-299.283-86.966z M-294.077-79.875c0.902,0.065,1.563,0.305,1.983,0.717
			c0.419,0.412,0.622,0.999,0.607,1.759c-0.013,0.666-0.342,1.634-0.985,2.903l59.912-43.944c-0.53-2.054-1.113-3.849-1.748-5.383
			L-294.077-79.875z M-233.081-146.116c7.099,3.943,11.446,10.066,13.04,18.369l18.594-13.535
			c-1.49-8.774-5.886-14.828-13.188-18.158L-233.081-146.116z"/>
	</g>
</g>
<g id="C" display="none">
</g>
</svg>
