<?xml version="1.0" encoding="utf-8"?>
<!-- Generator: Adobe Illustrator 16.0.0, SVG Export Plug-In . SVG Version: 6.00 Build 0)  -->
<!DOCTYPE svg PUBLIC "-//W3C//DTD SVG 1.1//EN" "http://www.w3.org/Graphics/SVG/1.1/DTD/svg11.dtd">
<svg version="1.1" xmlns="http://www.w3.org/2000/svg" xmlns:xlink="http://www.w3.org/1999/xlink" x="0px" y="0px"
	 width="282.232px" height="282.232px" viewBox="-151.543 -603.236 282.232 282.232"
	 enable-background="new -151.543 -603.236 282.232 282.232" xml:space="preserve">
<g id="_x2D_--" display="none">
	<rect x="116.272" y="-356.429" display="inline" fill="#FFFFFF" width="4471.75" height="5688"/>
</g>
<g id="fond">
	<circle fill="#20558A" cx="-10.428" cy="-462.119" r="141.116"/>
</g>
<g id="A" display="none">
	<g display="inline">
		<path fill="#FFFFFF" d="M-30.009-479.061h-55.24c-6.936,0-12.918-2.66-17.949-7.983c-5.03-5.321-7.546-11.792-7.546-19.409
			c0-8.006,2.662-14.722,7.985-20.142c5.324-5.42,12.088-8.13,20.295-8.13c10.158,0,18.46,4.786,24.909,14.355L-30.009-479.061z
			 M-30.595-457.381l-28.829,43.799c-5.672,8.496-13.051,12.744-22.141,12.744c-8.311,0-15.252-2.685-20.823-8.057
			c-5.571-5.37-8.356-12.06-8.356-20.068c0-8.006,2.71-14.745,8.132-20.215c5.42-5.468,11.795-8.203,19.121-8.203H-30.595z
			 M-42.544-450.643h-41.561c-5.562,0-10.268,2.003-14.122,6.006c-3.854,4.005-5.779,9.034-5.779,15.088
			c0,6.445,2.172,11.744,6.519,15.894c4.344,4.152,9.302,6.226,14.868,6.226c3.516,0,6.713-0.609,9.595-1.831
			c2.879-1.22,5.493-3.637,7.837-7.251L-42.544-450.643z M-10.469-488.303l-25.834-46.864c-1.973-3.529-2.957-7.404-2.957-11.623
			c0-7.347,2.758-13.911,8.276-19.693c5.516-5.782,12.327-8.672,20.435-8.672c7.91,0,14.696,2.817,20.361,8.453
			c5.662,5.635,8.496,12.616,8.496,20.943c0,3.531-0.975,7.063-2.923,10.592L-10.469-488.303z M-10.476-445.955l25.861,46.875
			c1.85,3.516,2.776,7.375,2.776,11.572c0,7.324-2.735,13.868-8.203,19.629c-5.471,5.763-12.305,8.643-20.508,8.643
			c-7.814,0-14.553-2.783-20.215-8.35c-5.665-5.566-8.496-12.499-8.496-20.801c0-3.612,0.978-7.178,2.937-10.693L-10.476-445.955z
			 M-10.389-501.754l18.849-33.559c1.877-3.63,2.817-7.209,2.817-10.741c0-6.18-2.076-11.403-6.226-15.669
			c-4.152-4.266-9.353-6.399-15.601-6.399c-6.251,0-11.426,2.184-15.527,6.548s-6.152,9.343-6.152,14.932
			c0,3.923,1.032,7.7,3.102,11.33L-10.389-501.754z M6.179-479.061l27.53-41.309c6.44-9.569,14.74-14.355,24.894-14.355
			c8.198,0,14.959,2.71,20.278,8.13s7.981,12.135,7.981,20.142c0,7.814-2.563,14.333-7.688,19.556
			c-5.127,5.226-11.057,7.837-17.791,7.837H6.179z M6.765-457.381h52.86c7.615,0,14.059,2.783,19.329,8.35
			c5.271,5.566,7.908,12.257,7.908,20.068c0,7.91-2.763,14.575-8.285,19.995c-5.523,5.42-12.683,8.13-21.48,8.13
			c-8.602,0-15.786-4.248-21.555-12.744L6.765-457.381z M18.704-450.643l22.603,34.131c1.854,2.735,3.318,4.518,4.395,5.347
			c1.073,0.831,2.952,1.662,5.64,2.49c2.685,0.831,5.102,1.245,7.251,1.245c5.761,0,10.814-2.074,15.161-6.226
			c4.344-4.149,6.519-9.448,6.519-15.894c0-5.956-1.902-10.961-5.704-15.015c-3.804-4.051-8.53-6.079-14.184-6.079H18.704z"/>
	</g>
	<g id="Calque_2" display="inline">
	</g>
	<g id="Calque_7" display="inline">
	</g>
</g>
<g id="B">
	<g opacity="0.9">
		<path fill="#FFFFFF" d="M-78.647-550.065c0,0-0.039,4.28-0.112,12.836c0.225,0,0.337,0.163,0.337,0.484
			c1.124-0.08,3.708,0.163,7.753,0.727c3.371,0.484,6.104,0.526,8.202,0.121c0.748-0.242,1.91-0.806,3.483-1.695
			c1.273-0.806,2.36-1.211,3.259-1.211c0.823,0,1.834,0.363,3.034,1.09c1.422,0.808,2.433,1.252,3.034,1.332
			c0.823,0.163,2.208,0.203,4.157,0.121c2.321-0.08,3.857-0.121,4.606-0.121c2.321,0.163,6.254,0.363,11.798,0.605
			c5.692,0.242,10.074,0.445,13.146,0.605c10.337,0.484,15.393,0.768,15.168,0.848c0.45-0.08,1.124-0.443,2.022-1.09
			c0.899-0.564,1.61-0.887,2.135-0.969c1.048-0.08,2.472,0.242,4.27,0.969c2.096,0.889,3.557,1.374,4.382,1.453l15.168-0.363
			c0.449-0.969,1.16-3.754,2.135-8.355c0.674-3.551,1.722-5.934,3.146-7.145c7.116,0.808,12.172,1.495,15.168,2.059
			c1.348,3.23,1.984,8.234,1.91,15.016c0.748,0.808,3.258,1.453,7.528,1.938c3.52,0.324,5.281,1.737,5.281,4.238
			c-0.825,1.131-2.809,1.574-5.955,1.332c-3.671-0.322-5.843-0.363-6.517-0.121c-0.525,1.05-1.124,3.674-1.797,7.871
			c-0.525,3.472-1.424,5.733-2.697,6.781c-2.697,0.242-5.544,0.242-8.54,0c-3.896-0.242-6.367-0.363-7.416-0.363
			c-1.124-1.533-1.761-4.197-1.91-7.992c0-1.048,0.037-2.704,0.112-4.965c0-2.259-0.039-3.915-0.112-4.965
			c-4.42-1.291-9.701-1.453-15.843-0.484c0.374,4.602-0.449,9.527-2.472,14.773c-2.921,7.428-4.494,11.625-4.719,12.594
			c-0.151,0.647-0.225,1.616-0.225,2.906c0,1.292-0.039,2.221-0.112,2.785c-0.601,2.906-1.985,6.297-4.157,10.172
			c-2.772,5.006-4.421,8.155-4.944,9.445c-1.05,2.584-2.135,6.781-3.258,12.594c-1.124,6.297-2.173,10.94-3.146,13.926
			c3.969,3.311,7.115,9.042,9.438,17.195c2.247,7.832,3.371,16.389,3.371,25.672c0,0.566-0.075,1.737-0.225,3.512
			c-0.151,1.535-0.188,2.785-0.112,3.754c0.074,1.453,0.523,4.117,1.348,7.992c0.599,3.148,0.787,5.37,0.562,6.66
			c-0.525,2.342-1.949,3.917-4.27,4.723c-2.398,0.806-4.382,0.324-5.955-1.453c1.422-10.978-0.601-23.33-6.067-37.055
			c-0.899-2.18-2.472-3.996-4.719-5.449c-2.323-1.453-4.794-2.098-7.416-1.938c-1.949,1.292-3.634,3.996-5.056,8.113
			c-1.573,4.441-3.034,7.307-4.382,8.598c-0.674,0.647-1.91,1.453-3.708,2.422c-1.573,0.889-2.735,1.858-3.483,2.906
			c-0.151,1.211,0.037,3.714,0.562,7.508c0.374,2.906,0.037,5.046-1.011,6.418c-8.166,2.342-10.787-5.287-7.865-22.887
			c2.172-1.291,3.596-3.754,4.27-7.387c0.374-2.34,0.523-6.013,0.45-11.02c-0.151-10.575,1.16-16.953,3.933-19.133
			c-1.349-2.017-1.874-4.641-1.573-7.871l0.787-8.84c-0.151-4.278-1.275-9.041-3.371-14.289c-0.375-0.887-1.274-2.623-2.696-5.207
			c-0.975-1.856-1.573-3.512-1.798-4.965c-0.151-0.806-0.3-3.188-0.449-7.145c-0.076-2.986-0.45-5.368-1.124-7.145
			c-6.218-16.387-9.364-24.824-9.438-25.309c-1.798-0.161-4.42-0.08-7.865,0.242c-4.345,0.405-7.154,0.605-8.427,0.605
			c-0.449,1.374-0.75,4.522-0.899,9.445c-0.151,4.199-0.75,7.023-1.798,8.477c-2.398-1.048-5.656-1.048-9.775,0
			c-0.601-0.564-2.997-1.09-7.191-1.574c-1.423-2.18-2.061-6.66-1.91-13.441c-1.5-0.806-4.084-1.372-7.753-1.695
			c-4.045-0.322-6.742-0.727-8.09-1.211c-0.225-0.645-0.3-1.332-0.225-2.059c0.149-1.048,0.225-1.856,0.225-2.422
			c1.348-0.564,3.969-0.848,7.865-0.848c3.894,0,6.554-0.282,7.978-0.848c0.149-0.645,0.261-3.349,0.337-8.113
			c0.074-3.391,0.599-5.852,1.573-7.387c2.172-0.484,4.944-0.685,8.315-0.605c3.22,0.163,5.73-0.04,7.528-0.605
			C-79.584-551.355-78.647-550.065-78.647-550.065z M-48.872-522.092c2.846,6.217,4.231,10.011,4.158,11.383
			c1.646,0.889,3.483,3.835,5.505,8.84c1.647,4.359,4.119,6.581,7.416,6.66c-0.825-8.879,0.037-14.45,2.584-16.711
			c3.82-3.309,7.191-2.704,10.112,1.816c2.697,4.359,3.632,9.487,2.809,15.379c3.146,0,5.655-1.09,7.528-3.27
			c0.374-0.484,0.86-1.574,1.461-3.27c0.523-1.775,1.048-2.986,1.573-3.633c0.45-0.645,1.236-1.332,2.36-2.059
			c0.972-0.645,1.573-1.211,1.797-1.695c0.225-0.484,0.45-1.533,0.674-3.148c0.149-1.775,0.298-2.906,0.449-3.391
			c0.074-0.08,0.936-2.017,2.584-5.813c0.823-1.938,1.124-3.672,0.899-5.207c-0.151-0.645-0.674-1.493-1.573-2.543
			c-0.899-1.048-1.387-1.816-1.46-2.301c-5.095-0.08-13.409-0.403-24.944-0.969c-10.562-0.484-18.915-0.727-25.056-0.727
			C-51.568-530.729-51.194-527.178-48.872-522.092z"/>
	</g>
	<g>
		<path fill="#FFFFFF" d="M-28.858-368.918l24.238-35.669l99.485-72.68c11.146,3.598,17.095,11.63,17.846,24.099l-99.77,72.673
			L-28.858-368.918z M-15.47-382.484l3.961,5.212l22.296-6.117c3.288-2.787,4.945-4.869,4.973-6.247
			c0.011-0.57-0.135-0.989-0.437-1.257c-0.306-0.267-0.789-0.408-1.454-0.421c-1.379-0.027-3.771,0.757-7.178,2.353
			c2.905-2.651,4.375-4.88,4.411-6.686c0.018-0.902-0.217-1.584-0.708-2.046c-0.489-0.462-1.258-0.703-2.303-0.724
			c-1.094-0.021-3.342,0.742-6.749,2.29c3.045-2.506,4.587-4.732,4.626-6.682c0.01-0.522-0.125-0.917-0.405-1.185
			c-0.28-0.266-0.729-0.406-1.347-0.419c-2.139-0.042-4.437,0.839-6.898,2.645L-15.47-382.484z M4.12-406.695
			c0.812-0.174,1.479-0.256,2.002-0.246c1.899,0.038,2.833,0.96,2.797,2.766l-0.085,0.711l59.985-44.086
			c-1.545-1.219-3.071-2.176-4.578-2.872L4.12-406.695z M10.847-400.715c2.174,0.566,3.24,1.989,3.195,4.271l60.275-44.295
			c-0.682-1.582-1.652-3.004-2.911-4.265L10.847-400.715z M16.053-393.624c0.902,0.065,1.563,0.305,1.983,0.717
			c0.419,0.412,0.622,0.999,0.607,1.759c-0.013,0.666-0.342,1.634-0.985,2.903l59.912-43.944c-0.53-2.054-1.113-3.849-1.748-5.383
			L16.053-393.624z M77.049-459.865c7.099,3.943,11.446,10.066,13.04,18.369l18.594-13.535c-1.49-8.774-5.886-14.828-13.188-18.158
			L77.049-459.865z"/>
	</g>
</g>
<g id="C" display="none">
</g>
</svg>
