<?xml version="1.0" encoding="utf-8"?>
<!-- Generator: Adobe Illustrator 16.0.0, SVG Export Plug-In . SVG Version: 6.00 Build 0)  -->
<!DOCTYPE svg PUBLIC "-//W3C//DTD SVG 1.1//EN" "http://www.w3.org/Graphics/SVG/1.1/DTD/svg11.dtd">
<svg version="1.1" xmlns="http://www.w3.org/2000/svg" xmlns:xlink="http://www.w3.org/1999/xlink" x="0px" y="0px"
	 width="282.232px" height="282.232px" viewBox="150.531 -301.162 282.232 282.232"
	 enable-background="new 150.531 -301.162 282.232 282.232" xml:space="preserve">
<g id="_x2D_--" display="none">
	<rect x="116.272" y="-356.429" display="inline" fill="#FFFFFF" width="4471.75" height="5688"/>
</g>
<g id="fond">
	<circle fill="#00326E" cx="291.646" cy="-160.044" r="141.116"/>
</g>
<g id="A" display="none">
	<g display="inline">
		<path fill="#FFFFFF" d="M264.225-59.396l24.237-35.669l99.485-72.68c11.145,3.598,17.095,11.63,17.846,24.099l-99.77,72.673
			L264.225-59.396z M277.613-72.963l3.961,5.212l22.295-6.117c3.289-2.787,4.945-4.869,4.973-6.247
			c0.012-0.57-0.135-0.989-0.437-1.257c-0.306-0.267-0.789-0.408-1.454-0.421c-1.379-0.027-3.771,0.757-7.178,2.353
			c2.905-2.651,4.375-4.88,4.411-6.686c0.018-0.902-0.217-1.584-0.708-2.046c-0.488-0.462-1.258-0.703-2.303-0.724
			c-1.094-0.021-3.342,0.742-6.748,2.29c3.045-2.506,4.586-4.732,4.625-6.682c0.011-0.522-0.124-0.917-0.404-1.185
			c-0.279-0.266-0.729-0.406-1.347-0.419c-2.139-0.042-4.437,0.839-6.897,2.645L277.613-72.963z M297.203-97.174
			c0.811-0.174,1.479-0.256,2.002-0.246c1.898,0.038,2.832,0.96,2.797,2.766l-0.086,0.711l59.985-44.086
			c-1.545-1.219-3.071-2.176-4.577-2.872L297.203-97.174z M303.93-91.193c2.174,0.566,3.24,1.989,3.194,4.271l60.274-44.295
			c-0.682-1.582-1.651-3.004-2.91-4.265L303.93-91.193z M309.135-84.103c0.902,0.065,1.563,0.305,1.983,0.717
			c0.419,0.412,0.622,0.999,0.606,1.759c-0.013,0.666-0.342,1.634-0.984,2.903l59.912-43.944c-0.53-2.054-1.113-3.849-1.748-5.383
			L309.135-84.103z M370.131-150.344c7.1,3.943,11.447,10.066,13.041,18.369l18.594-13.535c-1.49-8.774-5.886-14.828-13.188-18.158
			L370.131-150.344z"/>
	</g>
	<g display="inline">
		<path fill="#FFFFFF" d="M201.305-204.143l-19.512-3.34v-13.008h80.771c14.766,0,26.572,4.073,35.42,12.217
			c8.319,7.677,12.48,16.963,12.48,27.861c0,2.109-0.176,4.219-0.527,6.328c-1.582,11.133-8.819,17.93-21.709,20.391v8.262
			l39.111,61.26h-24.17c-27.832-27.07-42.363-41.19-43.594-42.363c-5.567,2.755-16.26,7.998-32.08,15.732
			c-0.294,0.996-3.223,9.961-8.789,26.895h-24.609l6.592-40.43l0.791-0.439l33.574-21.094v-43.77h-33.75V-204.143z M320.396-87.951
			c-9.902-15.527-21.621-33.867-35.156-55.02h-47.813c-1.465,0.938-7.325,4.629-17.578,11.074
			c-10.078,6.387-15.293,9.668-15.645,9.844c0.117-0.644-1.788,10.811-5.713,34.365h17.49c0.527-1.582,3.34-10.166,8.438-25.752
			l35.859-17.666c28.886,28.066,43.711,42.451,44.473,43.154H320.396z M205.084-216.711v23.291h33.75v38.936h34.541v-12.656
			l-17.93-3.252v-12.92h34.893v3.779h-13.184v22.852c5.918,0.294,11.191-0.409,15.82-2.109c7.734-2.87,12.158-8.174,13.271-15.908
			c1.758-12.246-1.846-22.5-10.811-30.762c-8.145-7.5-19.103-11.25-32.871-11.25H205.084z M255.797-224.797
			c-4.277,0-7.94-1.523-10.986-4.57c-3.047-3.046-4.57-6.708-4.57-10.986c0-4.335,1.523-8.027,4.57-11.074
			c3.046-3.046,6.709-4.57,10.986-4.57c4.336,0,8.027,1.524,11.074,4.57c3.046,3.047,4.57,6.739,4.57,11.074
			c0,4.278-1.524,7.94-4.57,10.986C263.824-226.32,260.133-224.797,255.797-224.797z"/>
	</g>
	<g id="Calque_2" display="inline">
	</g>
	<g id="Calque_7" display="inline">
	</g>
</g>
<g id="B">
	<g opacity="0.95">
		<path fill="#FFFFFF" d="M346.805-120.448l-17.325-6.621c-4.488,2.281-10.521,4.488-18.098,6.621
			c-7.357-1.176-15.634-3.09-24.829-5.738c-3.238,3.826-6.806,5.738-10.704,5.738c-3.238,0-6.18-1.104-8.828-3.311
			c-2.869,2.207-5.702,3.311-8.497,3.311c-2.869,0-5.445-0.883-7.725-2.648c-2.281-1.766-4.304-4.376-6.069-7.835
			c-6.033-0.883-10.337-3.2-12.911-6.952l-13.904,8.607l-24.277,8.828l18.649-18.208l18.318-11.256
			c1.691-3.41,4.928-5.745,9.711-7.006c-3.164-0.148-6.695-1.002-10.594-2.563l11.697-34.857l21.298-23.693l49.217,6.832
			l5.959,6.833l59.038-37.026c3.973,1.396,5.959,3.894,5.959,7.493c0,0.515-0.038,1.177-0.11,1.983l-57.935,36.035l4.966,6.941
			c7.43,10.287,12.305,16.513,14.621,18.679c2.318,2.167,6.271,4.205,11.863,6.116c0.221,3.466,0.331,6.047,0.331,7.743
			C356.626-142.39,353.352-130.404,346.805-120.448z M344.377-127.511c4.34-9.663,6.511-19.361,6.511-29.1v-3.763
			c-7.578-3.087-14.751-9.668-21.519-19.741c-1.766-2.645-2.943-4.372-3.531-5.183l-5.849-7.609l-24.608,15.537l-0.221,9.058
			l0.11,9.389c-11.33,1.559-22.401,4.38-33.216,8.459c-4.047-0.809-7.542-1.214-10.483-1.214c-10.521,0-15.78,2.612-15.78,7.835
			c0,5.371,4.745,8.056,14.235,8.056c3.383,0,7.761-0.624,13.132-1.876c23.174,5.959,39.321,9.528,48.444,10.704
			c2.279-0.734,3.973-1.286,5.076-1.655c6.031-1.912,10.299-3.347,12.801-4.304L344.377-127.511z M313.147-201.612l-3.752-4.519
			l-44.582-5.84l-18.429,20.387l-9.27,28.65c1.324,0.221,2.39,0.331,3.2,0.331c6.473,0,11.808-6.428,16.001-19.284l3.642-2.645
			c4.561-3.306,9.049-7.089,13.463-11.351c4.707,3.014,10.042,6.063,16.001,9.146L313.147-201.612z M266.027-131.483l-2.759-0.772
			c-5.518,1.104-9.601,1.655-12.249,1.655c1.25,1.473,2.482,2.576,3.697,3.311c1.213,0.736,2.408,1.104,3.586,1.104
			C261.539-126.187,264.113-127.952,266.027-131.483z M284.235-183.319c-1.252-0.66-2.207-1.138-2.869-1.433
			c-2.648-1.249-4.93-2.535-6.842-3.857c-3.459,3.675-7.983,7.164-13.573,10.47c-1.398,4.628-3.531,8.963-6.4,13.003
			L284.235-183.319z M289.865-174.174l-28.362,17.925c12.432-3.931,21.85-6.452,28.25-7.565v-7.494L289.865-174.174z
			 M280.373-127.731l-10.483-2.759c0.514,2.943,2.354,4.414,5.518,4.414C277.319-126.076,278.975-126.628,280.373-127.731z"/>
	</g>
	<g>
		<path fill="#FFFFFF" d="M248.387-81.802v-7.544h75v7.544H248.387z"/>
		<path fill="#FFFFFF" d="M248.387-49.802v-7.544h75v7.544H248.387z"/>
	</g>
</g>
<g id="C" display="none">
</g>
</svg>
