<?xml version="1.0" encoding="utf-8"?>
<!-- Generator: Adobe Illustrator 16.0.0, SVG Export Plug-In . SVG Version: 6.00 Build 0)  -->
<!DOCTYPE svg PUBLIC "-//W3C//DTD SVG 1.1//EN" "http://www.w3.org/Graphics/SVG/1.1/DTD/svg11.dtd">
<svg version="1.1" xmlns="http://www.w3.org/2000/svg" xmlns:xlink="http://www.w3.org/1999/xlink" x="0px" y="0px"
	 width="282.232px" height="282.232px" viewBox="452.606 605.063 282.232 282.232"
	 enable-background="new 452.606 605.063 282.232 282.232" xml:space="preserve">
<g id="_x2D_--" display="none">
	<rect x="116.272" y="-356.429" display="inline" fill="#FFFFFF" width="4471.75" height="5688"/>
</g>
<g id="fond">
	<circle fill="#00326E" cx="593.722" cy="746.181" r="141.116"/>
</g>
<g id="A" display="none">
	<g display="inline">
		<path fill="#FFFFFF" d="M519.196,779.459c3.451,0,6.675,0.861,9.672,2.579c2.997,1.72,5.337,4.028,7.017,6.923
			c1.68,2.897,2.52,6.064,2.52,9.502c0,5.158-1.909,9.638-5.723,13.438s-8.31,5.701-13.485,5.701c-5.177,0-9.673-1.9-13.486-5.701
			s-5.721-8.28-5.721-13.438c0-5.247,1.86-9.727,5.585-13.438C509.298,781.314,513.839,779.459,519.196,779.459z M543.946,742.537
			c-5.167,0-9.605,1.9-13.319,5.701c-3.716,3.801-5.572,8.191-5.572,13.167c0,5.158,1.835,9.661,5.504,13.507
			c3.67,3.848,8.132,5.769,13.388,5.769c5.437,0,10.011-1.9,13.727-5.701c3.714-3.801,5.572-8.325,5.572-13.574
			c0-3.347-0.861-6.448-2.583-9.298c-1.723-2.852-4.077-5.158-7.067-6.924C550.604,743.42,547.389,742.537,543.946,742.537z
			 M568.811,705.615c3.347,0,6.469,0.84,9.366,2.52c2.896,1.68,5.247,3.996,7.059,6.948c1.81,2.952,2.715,6.198,2.715,9.739
			c0,5.178-1.9,9.674-5.701,13.488c-3.801,3.813-8.28,5.72-13.438,5.72c-5.249,0-9.773-1.907-13.574-5.72
			c-3.801-3.814-5.701-8.311-5.701-13.488c0-5.266,1.922-9.783,5.769-13.553C559.149,707.501,563.652,705.615,568.811,705.615z
			 M568.811,779.459c-5.341,0-9.888,1.832-13.642,5.498c-3.757,3.664-5.634,8.168-5.634,13.506c0,5.25,1.922,9.752,5.769,13.506
			c3.846,3.757,8.349,5.634,13.507,5.634s9.638-1.9,13.438-5.701s5.701-8.28,5.701-13.438c0-3.438-0.838-6.604-2.512-9.502
			c-1.675-2.895-4.004-5.203-6.99-6.923C575.462,780.32,572.249,779.459,568.811,779.459z M593.516,668.829
			c3.438,0,6.628,0.861,9.569,2.579c2.94,1.721,5.271,4.051,6.991,6.99c1.718,2.942,2.579,6.088,2.579,9.435
			c0,5.249-1.879,9.753-5.633,13.507c-3.757,3.756-8.26,5.633-13.507,5.633c-5.341,0-9.82-1.854-13.438-5.565
			c-3.62-3.71-5.43-8.233-5.43-13.574c0-5.158,1.832-9.614,5.498-13.37C583.81,670.709,588.267,668.829,593.516,668.829z
			 M593.787,742.537c5.158,0,9.591,1.9,13.303,5.701c3.71,3.801,5.565,8.191,5.565,13.167c0,5.158-1.832,9.661-5.498,13.507
			c-3.664,3.848-8.123,5.769-13.37,5.769c-5.249,0-9.752-1.921-13.507-5.769c-3.756-3.846-5.633-8.349-5.633-13.507
			c0-4.976,1.9-9.366,5.701-13.167S588.629,742.537,593.787,742.537z M618.221,705.615c3.438,0,6.651,0.863,9.638,2.59
			s5.339,4.063,7.059,7.014c1.718,2.953,2.579,6.153,2.579,9.604c0,5.178-1.855,9.674-5.565,13.488
			c-3.712,3.813-8.28,5.72-13.71,5.72c-5.158,0-9.638-1.907-13.438-5.72c-3.801-3.814-5.701-8.311-5.701-13.488
			c0-5.266,1.922-9.783,5.77-13.553C608.695,707.501,613.151,705.615,618.221,705.615z M618.221,779.459
			c3.438,0,6.651,0.861,9.638,2.579c2.986,1.72,5.339,4.028,7.059,6.923c1.718,2.897,2.579,6.064,2.579,9.502
			c0,3.44-0.861,6.631-2.579,9.57c-1.72,2.941-4.072,5.272-7.059,6.99c-2.986,1.721-6.199,2.579-9.638,2.579
			c-5.158,0-9.638-1.9-13.438-5.701s-5.701-8.28-5.701-13.438c0-5.247,1.854-9.727,5.565-13.438
			C608.356,781.314,612.88,779.459,618.221,779.459z M643.333,742.537c4.976,0,9.366,1.9,13.167,5.701s5.701,8.191,5.701,13.167
			c0,5.158-1.879,9.661-5.634,13.507c-3.756,3.848-8.167,5.769-13.234,5.769c-5.341,0-9.933-1.921-13.777-5.769
			c-3.848-3.846-5.77-8.349-5.77-13.507c0-4.976,1.945-9.366,5.837-13.167C633.513,744.438,638.084,742.537,643.333,742.537z
			 M667.767,779.459c3.438,0,6.651,0.861,9.638,2.579c2.986,1.72,5.315,4.028,6.991,6.923c1.673,2.897,2.511,6.064,2.511,9.502
			c0,5.158-1.9,9.638-5.701,13.438s-8.28,5.701-13.438,5.701s-9.661-1.877-13.506-5.634c-3.848-3.754-5.77-8.256-5.77-13.506
			c0-5.338,1.877-9.842,5.633-13.506C657.879,781.291,662.426,779.459,667.767,779.459z"/>
	</g>
	<g id="Calque_2" display="inline">
	</g>
	<g id="Calque_7" display="inline">
	</g>
</g>
<g id="B">
	<g opacity="0.8">
		<g>
			<g id="Graduation_x5F_Cap_1_">
				<g>
					<path fill="#FFFFFF" d="M512.232,847.022v-88.084l18,8.71v36.374c0,22.449,29.55,40.647,66,40.647
						c36.449,0,66-18.198,66-40.647v-36.369l35.364-17.112c3.936-1.905,6.636-5.848,6.636-10.395c0-4.546-2.7-8.49-6.636-10.395
						l-96.001-46.454c-1.619-0.784-3.438-1.22-5.363-1.22s-3.744,0.436-5.363,1.22l-96,46.454
						c-3.938,1.904-6.637,5.849-6.637,10.395c0,4.547,2.699,8.489,6.637,10.395l5.363,2.596v93.891 M644.232,804.022
						c0,10.742-20.965,23.227-48,23.227c-27.036,0-48-12.484-48-23.227v-27.664l42.637,20.638c1.619,0.784,3.438,1.219,5.363,1.219
						s3.744-0.435,5.363-1.219l42.637-20.638V804.022z M596.232,780.115l-82.596-39.969l82.596-39.969l82.596,39.969
						L596.232,780.115z"/>
				</g>
			</g>
		</g>
		<rect x="493.232" y="821.085" fill="#FFFFFF" width="25" height="12.001"/>
		<rect x="588.654" y="628.575" fill="#C89108" width="12.656" height="26.502"/>
		
			<rect x="632.732" y="645.498" transform="matrix(-0.5 0.866 -0.866 -0.5 1533.4697 418.2939)" fill="#C89108" width="26.5" height="12.657"/>
		
			<rect x="671.732" y="679.5" transform="matrix(-0.6828 0.7306 -0.7306 -0.6828 1653.7578 653.6679)" fill="#C89108" width="26.501" height="12.657"/>
		
			<rect x="531.068" y="645.498" transform="matrix(0.5 0.866 -0.866 0.5 836.6654 -145.4774)" fill="#C89108" width="26.5" height="12.657"/>
		
			<rect x="492.069" y="679.5" transform="matrix(0.6828 0.7306 -0.7306 0.6828 661.3289 -151.6495)" fill="#C89108" width="26.501" height="12.657"/>
	</g>
</g>
<g id="C" display="none">
	<g display="inline">
		<g>
			<path fill="#C89108" d="M485.975,746.79c0-28.664,10.416-53.717,31.255-75.156c20.836-21.438,46.069-32.158,75.698-32.158
				c28.785,0,54.019,10.54,75.698,31.616c10.357,10.479,18.156,22.162,23.396,35.049c5.238,12.889,7.858,26.438,7.858,40.649
				c0,29.389-10.419,54.501-31.255,75.337c-10.36,10.359-21.801,18.188-34.326,23.486c-6.143,2.529-12.678,4.488-19.602,5.871
				c-6.928,1.387-14.183,2.078-21.771,2.078c-28.906,0-53.959-10.507-75.156-31.526C496.571,801.021,485.975,775.938,485.975,746.79
				z M507.654,746.79c0,23.246,8.551,43.3,25.654,60.161c17.101,16.863,36.974,25.293,59.619,25.293
				c23.365,0,43.54-8.249,60.522-24.751c8.551-8.672,14.814-17.886,18.789-27.642c2.047-5.059,3.613-10.236,4.697-15.537l1.265-8.13
				l0.361-9.395c0-23.727-8.342-43.93-25.022-60.613c-16.683-16.68-36.886-25.021-60.612-25.021
				c-23.125,0-43.119,8.432-59.98,25.293C516.083,703.312,507.654,723.425,507.654,746.79z"/>
		</g>
	</g>
	<g display="inline">
		<path fill="#FFFFFF" d="M533.762,744.952h56.12v-58.19h7.82v58.19h56.58v7.36h-56.58v59.569h-7.82v-59.569h-56.12V744.952z"/>
	</g>
</g>
</svg>
