<?xml version="1.0" encoding="utf-8"?>
<!-- Generator: Adobe Illustrator 16.0.0, SVG Export Plug-In . SVG Version: 6.00 Build 0)  -->
<!DOCTYPE svg PUBLIC "-//W3C//DTD SVG 1.1//EN" "http://www.w3.org/Graphics/SVG/1.1/DTD/svg11.dtd">
<svg version="1.1" xmlns="http://www.w3.org/2000/svg" xmlns:xlink="http://www.w3.org/1999/xlink" x="0px" y="0px"
	 width="282.232px" height="282.232px" viewBox="-1057.768 302.988 282.232 282.232"
	 enable-background="new -1057.768 302.988 282.232 282.232" xml:space="preserve">
<g id="_x2D_--" display="none">
</g>
<g id="fond">
	<circle fill="#20558A" cx="-916.652" cy="444.105" r="141.116"/>
</g>
<g id="A" display="none">
	<g display="inline">
		<path fill="#FFFFFF" d="M-806.488,447.425c0,29.981-10.572,55.543-31.714,76.685c-21.145,21.145-46.706,31.714-76.685,31.714
			c-29.981,0-55.543-10.569-76.685-31.714c-21.145-21.142-31.714-46.703-31.714-76.685c0-29.979,10.569-55.54,31.714-76.685
			c21.142-21.142,46.703-31.714,76.685-31.714c29.979,0,55.54,10.572,76.685,31.714
			C-817.061,391.885-806.488,417.445-806.488,447.425z M-914.887,445.667l0.146,3.516c0.682,13.966,5.834,25.587,15.454,34.863
			c9.617,9.278,21.313,13.916,35.083,13.916c14.257,0,26.243-5.003,35.962-15.015c9.716-10.009,14.575-22.387,14.575-37.134
			c0-27.147-9.986-50.537-29.956-70.166c-19.973-19.629-43.726-29.443-71.265-29.443c-28.224,0-51.734,9.4-70.532,28.198
			c-18.801,18.801-29.029,43.14-30.688,73.022c2.146-16.601,7.519-29.198,16.113-37.793c8.592-8.593,20.116-12.891,34.57-12.891
			c13.77,0,25.438,4.665,35.01,13.989C-920.845,420.058-915.67,431.703-914.887,445.667z M-951.068,447.425
			c0-4.003-1.392-7.421-4.175-10.254c-2.783-2.831-6.178-4.248-10.181-4.248c-4.006,0-7.423,1.417-10.254,4.248
			c-2.834,2.833-4.248,6.251-4.248,10.254c0,4.005,1.414,7.423,4.248,10.254c2.831,2.833,6.248,4.248,10.254,4.248
			c3.904,0,7.273-1.439,10.107-4.321C-952.485,454.727-951.068,451.332-951.068,447.425z M-849.848,447.425
			c0,4.005-1.417,7.423-4.248,10.254c-2.834,2.833-6.203,4.248-10.107,4.248c-4.006,0-7.423-1.415-10.254-4.248
			c-2.834-2.831-4.248-6.249-4.248-10.254c0-4.003,1.414-7.421,4.248-10.254c2.831-2.831,6.248-4.248,10.254-4.248
			c4.003,0,7.397,1.417,10.181,4.248C-851.239,440.004-849.848,443.422-849.848,447.425z"/>
	</g>
	<g id="Calque_2" display="inline">
	</g>
	<g id="Calque_7" display="inline">
	</g>
</g>
<g id="B">
	<g>
		<path fill="#FFFFFF" d="M-938.242,378.686l-21.357,28.74l22.465,30.322h-11.443l-17.191-23.203l-17.191,23.203h-11.443
			l22.939-30.902l-20.988-28.16h11.443l15.662,21.041l15.662-21.041H-938.242z"/>
		<path fill="#FFFFFF" d="M-870.296,370.037v29.373h29.373v8.965h-29.373v29.373h-8.859v-29.373h-29.373v-8.965h29.373v-29.373
			H-870.296z"/>
	</g>
	<g>
		<path fill="#FFFFFF" d="M-995.42,493.346h62.598v8.203h-62.598V493.346z"/>
	</g>
	<g>
		<path fill="#FFFFFF" d="M-906.92,482.346h62.598v8.203h-62.598V482.346z M-906.92,502.268h62.598v8.301h-62.598V502.268z"/>
	</g>
	<g>
		<path fill="#FFFFFF" d="M-964.268,482.339c-3.4,0-5.8-2.699-5.8-6.3c0-3.7,2.5-6.301,6-6.301s5.9,2.601,5.9,6.301
			c0,3.601-2.3,6.3-6,6.3H-964.268z"/>
		<path fill="#FFFFFF" d="M-964.268,530.339c-3.4,0-5.8-2.699-5.8-6.3c0-3.7,2.5-6.301,6-6.301s5.9,2.601,5.9,6.301
			c0,3.601-2.3,6.3-6,6.3H-964.268z"/>
	</g>
</g>
<g id="C" display="none">
</g>
</svg>
