<?xml version="1.0" encoding="utf-8"?>
<!-- Generator: Adobe Illustrator 16.0.0, SVG Export Plug-In . SVG Version: 6.00 Build 0)  -->
<!DOCTYPE svg PUBLIC "-//W3C//DTD SVG 1.1//EN" "http://www.w3.org/Graphics/SVG/1.1/DTD/svg11.dtd">
<svg version="1.1" xmlns="http://www.w3.org/2000/svg" xmlns:xlink="http://www.w3.org/1999/xlink" x="0px" y="0px"
	 width="282.232px" height="282.232px" viewBox="-151.543 -301.162 282.232 282.232"
	 enable-background="new -151.543 -301.162 282.232 282.232" xml:space="preserve">
<g id="_x2D_--" display="none">
	<rect x="116.272" y="-356.429" display="inline" fill="#FFFFFF" width="4471.75" height="5688"/>
</g>
<g id="fond">
	<circle fill="#20558A" cx="-10.428" cy="-160.044" r="141.116"/>
</g>
<g id="A" display="none">
	<g id="Calque_2" display="inline">
	</g>
	<g id="Calque_7" display="inline">
	</g>
	<circle display="inline" fill="#20558A" cx="-65.768" cy="-132.768" r="20"/>
</g>
<g id="B">
	<g>
		<path fill="#FFFFFF" d="M36.805-106.45l-17.325-6.621c-4.488,2.281-10.521,4.488-18.098,6.621
			c-7.357-1.176-15.634-3.09-24.829-5.738c-3.238,3.826-6.806,5.738-10.704,5.738c-3.238,0-6.18-1.104-8.828-3.311
			c-2.869,2.207-5.702,3.311-8.497,3.311c-2.869,0-5.445-0.883-7.725-2.648c-2.281-1.766-4.304-4.376-6.069-7.835
			c-6.033-0.883-10.337-3.2-12.911-6.952l-13.904,8.607l-24.277,8.828l18.649-18.208l18.318-11.256
			c1.691-3.41,4.928-5.745,9.711-7.006c-3.164-0.148-6.695-1.002-10.594-2.563l11.697-34.857l21.298-23.693l49.217,6.832
			l5.959,6.833l59.038-37.026c3.973,1.396,5.959,3.894,5.959,7.493c0,0.515-0.038,1.177-0.11,1.983l-57.935,36.035l4.966,6.941
			c7.43,10.287,12.305,16.513,14.621,18.679c2.318,2.167,6.271,4.205,11.863,6.116c0.221,3.466,0.331,6.047,0.331,7.743
			C46.626-128.391,43.352-116.406,36.805-106.45z M34.377-113.512c4.34-9.663,6.511-19.361,6.511-29.1v-3.763
			c-7.578-3.087-14.751-9.668-21.519-19.741c-1.766-2.645-2.943-4.372-3.531-5.183l-5.849-7.609l-24.608,15.537l-0.221,9.058
			l0.11,9.389c-11.33,1.559-22.401,4.38-33.216,8.459c-4.047-0.809-7.542-1.214-10.483-1.214c-10.521,0-15.78,2.612-15.78,7.835
			c0,5.371,4.745,8.056,14.235,8.056c3.383,0,7.761-0.624,13.132-1.876c23.174,5.959,39.321,9.528,48.444,10.704
			c2.279-0.734,3.973-1.286,5.076-1.655c6.031-1.912,10.299-3.347,12.801-4.304L34.377-113.512z M3.147-187.614l-3.752-4.519
			l-44.582-5.84l-18.429,20.387l-9.27,28.65c1.324,0.221,2.39,0.331,3.2,0.331c6.473,0,11.808-6.428,16.001-19.284l3.642-2.645
			c4.561-3.306,9.049-7.089,13.463-11.351c4.707,3.014,10.042,6.063,16.001,9.146L3.147-187.614z M-43.973-117.485l-2.759-0.772
			c-5.518,1.104-9.601,1.655-12.249,1.655c1.25,1.473,2.482,2.576,3.697,3.311c1.213,0.736,2.408,1.104,3.586,1.104
			C-48.461-112.188-45.887-113.954-43.973-117.485z M-25.765-169.321c-1.252-0.66-2.207-1.138-2.869-1.433
			c-2.648-1.249-4.93-2.535-6.842-3.857c-3.459,3.675-7.983,7.164-13.573,10.47c-1.398,4.628-3.531,8.963-6.4,13.003
			L-25.765-169.321z M-20.135-160.175l-28.362,17.925c12.432-3.931,21.85-6.452,28.25-7.565v-7.494L-20.135-160.175z
			 M-29.627-113.733l-10.483-2.759c0.514,2.943,2.354,4.414,5.518,4.414C-32.681-112.078-31.025-112.629-29.627-113.733z"/>
	</g>
	<path fill="none" stroke="#FFFFFF" stroke-width="5" stroke-miterlimit="10" d="M103.162-169.633"/>
	<path fill="none" stroke="#FFFFFF" stroke-width="5" stroke-miterlimit="10" d="M-110.993-105.049
		c20.533,32.607,56.846,54.278,98.226,54.278c64.065,0,116-51.935,116-116c0-1.293-0.029-2.579-0.071-3.862"/>
	<path fill="none" stroke="#FFFFFF" stroke-width="5" stroke-miterlimit="10" d="M-104.768-107.768"/>
</g>
<g id="C" display="none">
</g>
</svg>
