<?xml version="1.0" encoding="utf-8"?>
<!-- Generator: Adobe Illustrator 16.0.0, SVG Export Plug-In . SVG Version: 6.00 Build 0)  -->
<!DOCTYPE svg PUBLIC "-//W3C//DTD SVG 1.1//EN" "http://www.w3.org/Graphics/SVG/1.1/DTD/svg11.dtd">
<svg version="1.1" xmlns="http://www.w3.org/2000/svg" xmlns:xlink="http://www.w3.org/1999/xlink" x="0px" y="0px"
	 width="282.232px" height="282.232px" viewBox="1056.757 907.139 282.232 282.232"
	 enable-background="new 1056.757 907.139 282.232 282.232" xml:space="preserve">
<g id="_x2D_--" display="none">
	<rect x="116.272" y="-356.429" display="inline" fill="#FFFFFF" width="4471.75" height="5688"/>
</g>
<g id="fond">
	<circle fill="#20558A" cx="1197.872" cy="1048.255" r="141.116"/>
</g>
<g id="A" display="none">
	<path display="inline" opacity="0.8" fill="none" stroke="#FFFFFF" stroke-width="7" stroke-miterlimit="10" d="M1300.873,1104.623
		c0,6.148-5.335,11.134-11.914,11.134h-182.184c-6.58,0-11.914-4.985-11.914-11.134V998.385c0-6.15,5.334-11.135,11.914-11.135
		h182.184c6.579,0,11.914,4.984,11.914,11.135V1104.623z"/>
	<g display="inline">
		<g>
			<path fill="#DAB902" d="M1192.246,1015.341c-2.393,0-4.713,0.311-6.958,0.929l-2.563,0.796c-1.025,0.311-1.831,0.787-2.417,1.427
				c-0.586,0.643-1.245,1.737-1.978,3.285l-2.637,5.772l-4.395-1.128l5.786-15.262c2.93-1.46,6.127-2.643,9.595-3.549
				c3.467-0.906,6.543-1.361,9.229-1.361c8.301,0,15.075,1.936,20.324,5.808c5.249,3.871,7.874,8.859,7.874,14.964
				c0,4.248-1.001,7.787-3.003,10.619c-2.003,2.83-6.69,7.388-14.063,13.669c-6.934,5.886-10.938,9.48-12.012,10.785
				c-1.074,1.305-1.611,3.284-1.611,5.938c0,0.886,0.34,1.903,1.021,3.053c0.682,1.151,1.533,2.146,2.555,2.986l-2.99,1.916
				c-2.393-1.282-4.139-2.721-5.236-4.313c-1.1-1.593-1.648-3.518-1.648-5.773c0-2.166,1-4.754,3.003-7.764
				c2.001-3.007,4.834-6.171,8.496-9.488c3.955-3.583,6.849-6.867,8.679-9.854c1.832-2.985,2.747-5.894,2.747-8.726
				c0-4.335-1.66-7.873-4.98-10.616C1201.742,1016.713,1197.471,1015.341,1192.246,1015.341z M1194.663,1085.478
				c2.44,0,4.505,0.763,6.188,2.289c1.686,1.525,2.527,3.395,2.527,5.606c0,2.213-0.842,4.082-2.527,5.606
				c-1.684,1.527-3.748,2.29-6.188,2.29c-2.442,0-4.505-0.763-6.188-2.29c-1.686-1.524-2.527-3.394-2.527-5.606
				c0-2.212,0.842-4.081,2.527-5.606C1190.158,1086.24,1192.221,1085.478,1194.663,1085.478z"/>
		</g>
	</g>
	
		<line display="inline" opacity="0.8" fill="none" stroke="#FFFFFF" stroke-width="11" stroke-miterlimit="10" x1="1148.867" y1="1137.25" x2="1246.867" y2="1137.25"/>
	<g id="Calque_2" display="inline">
	</g>
	<g id="Calque_7" display="inline">
	</g>
</g>
<g id="B">
	<path fill="#FFFFFF" d="M1148.278,1100.271c-12.447-37.039,9.317-78.418,49.28-97.398l-14.993-24.848l65.27,9.916l-17.466,69.321
		l-19.999-33.168c-31.451,21.05-47.234,57.197-36.228,89.949c4.291,12.771,12.152,23.485,22.35,31.688
		C1173.877,1138.366,1155.724,1122.43,1148.278,1100.271z"/>
</g>
<g id="C" display="none">
</g>
</svg>
