<?xml version="1.0" encoding="utf-8"?>
<!-- Generator: Adobe Illustrator 16.0.0, SVG Export Plug-In . SVG Version: 6.00 Build 0)  -->
<!DOCTYPE svg PUBLIC "-//W3C//DTD SVG 1.1//EN" "http://www.w3.org/Graphics/SVG/1.1/DTD/svg11.dtd">
<svg version="1.1" xmlns="http://www.w3.org/2000/svg" xmlns:xlink="http://www.w3.org/1999/xlink" x="0px" y="0px"
	 width="282.232px" height="282.232px" viewBox="-1057.768 -1509.46 282.232 282.232"
	 enable-background="new -1057.768 -1509.46 282.232 282.232" xml:space="preserve">
<g id="_x2D_--" display="none">
</g>
<g id="fond">
	<circle fill="#00326E" cx="-916.652" cy="-1368.344" r="141.116"/>
</g>
<g id="A" display="none">
	<g id="Calque_2" display="inline">
	</g>
	<g id="Calque_7" display="inline">
	</g>
	<g display="inline" opacity="0.7">
		<path fill="#FFFFFF" d="M-1002.96-1391.5v-27.441h27.441v27.441H-1002.96z"/>
		<path fill="#FFFFFF" d="M-1002.96-1343.5v-27.441h27.441v27.441H-1002.96z"/>
		<path fill="#FFFFFF" d="M-1002.96-1295.5v-27.441h27.441v27.441H-1002.96z"/>
		<path fill="#FFFFFF" d="M-947.394-1295.5v-27.441h27.441v27.441H-947.394z"/>
		<path fill="#FFFFFF" d="M-891.827-1295.5v-27.441h27.441v27.441H-891.827z"/>
	</g>
	<g display="inline">
		<path fill="#FFFFFF" d="M-855.44-1369.719c-3.438,11.745-8.394,20.41-14.867,25.996c-6.475,5.586-15.068,8.379-25.781,8.379
			c-11.115,0-20.654-3.989-28.617-11.968c-7.964-7.979-13.292-19.057-15.984-33.235h-12.289v-9.969h11.086
			c-0.115-1.432-0.172-3.781-0.172-7.047c0-2.578,0.057-4.469,0.172-5.672h-11.086v-10.055h12.117
			c2.692-14.953,8.379-26.053,17.059-33.301c8.68-7.247,18.318-10.871,28.918-10.871c20.625,0,33.716,10.972,39.273,32.914
			l-14.266,1.977c-4.183-15.525-12.576-23.289-25.18-23.289c-6.99,0-13.264,2.514-18.82,7.54c-5.558,5.027-9.425,13.37-11.602,25.03
			h34.461v10.055h-35.75c-0.115,1.433-0.172,3.725-0.172,6.875c0,2.693,0.057,4.641,0.172,5.844h35.75v9.969h-34.633
			c2.177,12.382,6.244,21.077,12.203,26.088c5.958,5.01,11.859,7.514,17.703,7.514c13.463,0,22.372-8.393,26.727-25.18
			L-855.44-1369.719z"/>
	</g>
</g>
<g id="B">
	<path opacity="0.9" fill="#FFFFFF" d="M-988.547-1406.997c12.082,0,21.873-9.799,21.873-21.875
		c0-12.077-9.791-21.867-21.873-21.867c-12.078,0-21.869,9.799-21.869,21.867
		C-1010.416-1416.805-1000.625-1406.997-988.547-1406.997z"/>
	<path opacity="0.9" fill="#FFFFFF" d="M-797.301-1439.17h-136.762c-2.855,0-5.186,2.322-5.186,5.18v34.049
		c3.111,2.953,5.779,6.563,7.529,11.138l1.453-0.998c0.43-0.397,0.925-0.702,1.381-1.054v-37.956H-802.5v90.191h-126.377v-9.712
		l-10.371,6.949v7.942c0,2.865,2.322,5.188,5.186,5.188h136.762c2.873,0,5.188-2.323,5.188-5.188v-100.551
		C-792.113-1436.856-794.428-1439.17-797.301-1439.17z"/>
	<path opacity="0.9" fill="#FFFFFF" d="M-914.568-1365.834l6.211-4.163h-0.012c0.012-0.035,0.027-0.035,0.045-0.069
		c3.154-3.13,3.647-7.781,1.682-11.454l50.255-34.092l-2.28-3.366l-50.673,34.373c-1.586-1.157-3.36-1.875-5.228-1.947
		c-2.656-0.087-5.357,0.816-7.389,2.85c0,0-0.043,0.053-0.061,0.053l-1.24,0.858l-11.252,7.685v-3.268
		c-2.09-24.847-30.891-24.479-30.891-24.479h-12.477l-10.481,17.249l-10.532-17.241h-11.963
		c-32.497,0.606-31.35,24.471-31.35,24.471v55.694h0.018c0.008,0.15-0.018,0.314-0.018,0.432c0,5.31,4.281,9.568,9.564,9.568
		c5.268,0,9.551-4.285,9.551-9.568c0-0.117,0-0.281-0.02-0.432h0.02v-51.516h5.977l-0.043,98.808
		c6.848,7.28,16.882,12.115,25.79,15.976v-57.229h5.755v59.635c8.473,3.421,17.139,6.309,25.792,9.231l-0.026-126.683h6.219v17.021
		c0,5.268,4.281,9.561,9.539,9.561c1.551,0,2.944-0.438,4.264-1.12l0.045,0.061l16.51-11.078L-914.568-1365.834z"/>
</g>
<g id="C" display="none">
	<path display="inline" opacity="0.9" fill="#FFFFFF" d="M-822.73-1385.892h-181.608c-14.837,0-26.904,12.049-26.904,26.903
		c0,14.823,12.067,26.896,26.904,26.896h181.598c14.823,0,26.923-12.049,26.923-26.896
		C-795.818-1373.843-807.91-1385.892-822.73-1385.892z M-822.73-1337.137h-75.141c8.139-3.963,13.748-12.214,13.748-21.852
		c0-9.645-5.65-17.903-13.748-21.857h75.141c12.049,0,21.856,9.8,21.856,21.857C-800.874-1346.937-810.682-1337.137-822.73-1337.137
		z M-922.824-1423.265c-0.635-0.595-1.037-1.443-1.037-2.38c0-1.786,1.443-3.246,3.229-3.246c0.018,0,0.034,0,0.034,0h14.944
		v-23.497c-0.008-1.802,1.428-3.245,3.22-3.245h12.099c1.777,0,3.244,1.443,3.229,3.245v23.488h14.928
		c1.263,0,2.407,0.735,2.942,1.9c0.515,1.158,0.328,2.512-0.472,3.474l-24.23,27.997c-0.604,0.708-1.517,1.126-2.445,1.126
		c-0.93,0-1.843-0.417-2.446-1.126L-922.824-1423.265z"/>
</g>
</svg>
