<?xml version="1.0" encoding="utf-8"?>
<!-- Generator: Adobe Illustrator 16.0.0, SVG Export Plug-In . SVG Version: 6.00 Build 0)  -->
<!DOCTYPE svg PUBLIC "-//W3C//DTD SVG 1.1//EN" "http://www.w3.org/Graphics/SVG/1.1/DTD/svg11.dtd">
<svg version="1.1" xmlns="http://www.w3.org/2000/svg" xmlns:xlink="http://www.w3.org/1999/xlink" x="0px" y="0px"
	 width="282.232px" height="282.232px" viewBox="-1057.768 -603.236 282.232 282.232"
	 enable-background="new -1057.768 -603.236 282.232 282.232" xml:space="preserve">
<g id="_x2D_--" display="none">
</g>
<g id="fond">
	<circle fill="#00326E" cx="-916.652" cy="-462.119" r="141.116"/>
</g>
<g id="A" display="none">
	<g display="inline">
		<path fill="#FFFFFF" d="M-904.027-467.918l24.238-35.669l99.485-72.68c11.146,3.598,17.095,11.63,17.846,24.099l-99.77,72.673
			L-904.027-467.918z M-890.638-481.484l3.961,5.212l22.296-6.117c3.288-2.787,4.945-4.869,4.973-6.247
			c0.011-0.57-0.135-0.989-0.437-1.257c-0.306-0.267-0.789-0.408-1.454-0.421c-1.379-0.027-3.771,0.757-7.178,2.353
			c2.905-2.651,4.375-4.88,4.411-6.686c0.018-0.902-0.217-1.584-0.708-2.046c-0.489-0.462-1.258-0.703-2.303-0.724
			c-1.094-0.021-3.342,0.742-6.749,2.29c3.045-2.506,4.587-4.732,4.626-6.682c0.01-0.522-0.125-0.917-0.405-1.185
			c-0.28-0.266-0.729-0.406-1.347-0.419c-2.139-0.042-4.437,0.839-6.898,2.645L-890.638-481.484z M-871.048-505.695
			c0.812-0.174,1.479-0.256,2.002-0.246c1.899,0.038,2.833,0.96,2.797,2.766l-0.085,0.711l59.985-44.086
			c-1.545-1.219-3.071-2.176-4.578-2.872L-871.048-505.695z M-864.322-499.715c2.174,0.566,3.24,1.989,3.195,4.271l60.275-44.295
			c-0.682-1.582-1.652-3.004-2.911-4.265L-864.322-499.715z M-859.116-492.624c0.902,0.065,1.563,0.305,1.983,0.717
			c0.419,0.412,0.622,0.999,0.607,1.759c-0.013,0.666-0.342,1.634-0.985,2.903l59.912-43.944c-0.53-2.054-1.113-3.849-1.748-5.383
			L-859.116-492.624z M-798.12-558.865c7.099,3.943,11.446,10.066,13.04,18.369l18.594-13.535
			c-1.49-8.774-5.886-14.828-13.188-18.158L-798.12-558.865z"/>
	</g>
	<g display="inline">
		<path fill="#FFFFFF" d="M-971.238-468.356c6.937,0,13.17-2.25,18.703-6.75c2.813,1.22,4.943,2.158,6.398,2.813
			c1.452,0.657,3.396,1.595,5.836,2.813c2.437,1.22,4.311,2.274,5.625,3.164c1.312,0.892,2.834,2.039,4.57,3.445
			c1.733,1.406,2.999,2.742,3.797,4.008c0.795,1.266,1.477,2.742,2.039,4.43s0.844,3.47,0.844,5.344v48.234h-95.625v-48.234
			c0.281-2.999,1.03-5.717,2.25-8.156c1.217-2.437,2.623-4.5,4.219-6.188c1.593-1.688,3.748-3.327,6.469-4.922
			c2.718-1.593,5.133-2.883,7.242-3.867s4.852-2.131,8.227-3.445C-985.02-470.793-978.551-468.356-971.238-468.356z
			 M-971.309-526.294c-6.891,0-12.775,2.439-17.648,7.313c-4.876,4.876-7.313,10.782-7.313,17.719
			c0,6.939,2.437,12.845,7.313,17.719c4.873,4.876,10.758,7.313,17.648,7.313s12.797-2.437,17.719-7.313
			c4.922-4.874,7.383-10.78,7.383-17.719c0-6.937-2.461-12.843-7.383-17.719C-958.512-523.855-964.418-526.294-971.309-526.294z"/>
	</g>
	<g id="Calque_2" display="inline">
	</g>
	<g id="Calque_7" display="inline">
	</g>
</g>
<g id="B">
	<g opacity="0.7">
		<path fill="#FFFFFF" d="M-816.614-486.295H-962.61c-4.194,0-7.937,3.744-11.23,11.23l-33.691,67.383
			c0,7.488,3.743,11.23,11.23,11.23h145.996c4.192,0,7.935-3.742,11.23-11.23l33.691-67.383
			C-805.383-482.551-809.128-486.295-816.614-486.295z"/>
		<path fill="#FFFFFF" d="M-1007.532-508.756v78.613l28.413-56.152c3.519-7.486,9.021-11.23,16.509-11.23h123.535
			c0-7.486-3.745-11.23-11.23-11.23H-1007.532z"/>
	</g>
	<path fill="#FFFFFF" d="M-816.614-486.295H-962.61c-4.194,0-7.937,3.744-11.23,11.23l-33.691,67.383
		c0,7.488,3.743,11.23,11.23,11.23h145.996c4.192,0,7.935-3.742,11.23-11.23l33.691-67.383
		C-805.383-482.551-809.128-486.295-816.614-486.295z"/>
</g>
<g id="C" display="none">
</g>
</svg>
