<?xml version="1.0" encoding="utf-8"?>
<!-- Generator: Adobe Illustrator 16.0.0, SVG Export Plug-In . SVG Version: 6.00 Build 0)  -->
<!DOCTYPE svg PUBLIC "-//W3C//DTD SVG 1.1//EN" "http://www.w3.org/Graphics/SVG/1.1/DTD/svg11.dtd">
<svg version="1.1" xmlns="http://www.w3.org/2000/svg" xmlns:xlink="http://www.w3.org/1999/xlink" x="0px" y="0px"
	 width="282.232px" height="282.232px" viewBox="452.606 -603.236 282.232 282.232"
	 enable-background="new 452.606 -603.236 282.232 282.232" xml:space="preserve">
<g id="_x2D_--" display="none">
	<rect x="116.272" y="-356.429" display="inline" fill="#FFFFFF" width="4471.75" height="5688"/>
</g>
<g id="fond">
	<circle fill="#00326E" cx="593.722" cy="-462.119" r="141.116"/>
</g>
<g id="A" display="none">
	<g id="Calque_2" display="inline">
	</g>
	<g id="Calque_7" display="inline">
	</g>
</g>
<g id="B">
	<g>
		<path fill="#FFFFFF" d="M577.869-492.696c0-14.375,6.743-26.641,20.234-36.797c13.488-10.156,30.024-15.234,49.609-15.234
			c19.375,0,35.859,5.078,49.453,15.234s20.391,22.422,20.391,36.797c0,14.479-6.797,26.772-20.391,36.875
			c-13.594,10.104-30.078,15.156-49.453,15.156c-19.585,0-36.121-5.052-49.609-15.156
			C584.612-465.924,577.869-478.217,577.869-492.696z M688.963-451.134l10.469,26.406l-32.656-19.844L688.963-451.134z"/>
	</g>
	<g opacity="0.7">
		<path fill="none" stroke="#FFFFFF" stroke-width="9" stroke-miterlimit="10" d="M633.467-420.444
			c-16.861,12.631-37.53,18.945-62.012,18.945c-24.219,0-44.824-6.314-61.816-18.945c-16.992-12.628-25.488-27.994-25.488-46.094
			c0-17.969,8.496-33.301,25.488-45.996s37.598-19.043,61.816-19.043c24.481,0,45.15,6.348,62.012,19.043
			c16.864,12.695,25.293,28.027,25.293,45.996C658.76-448.438,650.331-433.072,633.467-420.444z M547.627-406.382l-40.82,24.805
			l13.086-33.008L547.627-406.382z"/>
	</g>
	<g opacity="0.6">
		<path fill="#20558A" d="M592.174-491.836c0-3.182,1.1-5.906,3.301-8.176c2.199-2.268,4.891-3.367,8.074-3.301
			c3.25,0.068,5.992,1.186,8.227,3.352c2.234,2.168,3.385,4.875,3.453,8.125c0.066,3.184-1.033,5.824-3.301,7.922
			c-2.27,2.098-4.994,3.25-8.176,3.453c-3.184-0.203-5.908-1.371-8.176-3.504C593.307-486.098,592.174-488.721,592.174-491.836z"/>
		<path fill="#20558A" d="M636.224-491.836c0-3.182,1.1-5.906,3.301-8.176c2.199-2.268,4.891-3.367,8.074-3.301
			c3.25,0.068,5.992,1.186,8.227,3.352c2.234,2.168,3.385,4.875,3.453,8.125c0.066,3.184-1.033,5.824-3.301,7.922
			c-2.27,2.098-4.994,3.25-8.176,3.453c-3.184-0.203-5.908-1.371-8.176-3.504C637.356-486.098,636.224-488.721,636.224-491.836z"/>
		<path fill="#20558A" d="M680.273-491.836c0-3.182,1.1-5.906,3.301-8.176c2.199-2.268,4.891-3.367,8.074-3.301
			c3.25,0.068,5.992,1.186,8.227,3.352c2.234,2.168,3.385,4.875,3.453,8.125c0.066,3.184-1.033,5.824-3.301,7.922
			c-2.27,2.098-4.994,3.25-8.176,3.453c-3.184-0.203-5.908-1.371-8.176-3.504C681.406-486.098,680.273-488.721,680.273-491.836z"/>
	</g>
</g>
<g id="C" display="none">
</g>
</svg>
