<?xml version="1.0" encoding="utf-8"?>
<!-- Generator: Adobe Illustrator 16.0.0, SVG Export Plug-In . SVG Version: 6.00 Build 0)  -->
<!DOCTYPE svg PUBLIC "-//W3C//DTD SVG 1.1//EN" "http://www.w3.org/Graphics/SVG/1.1/DTD/svg11.dtd">
<svg version="1.1" xmlns="http://www.w3.org/2000/svg" xmlns:xlink="http://www.w3.org/1999/xlink" x="0px" y="0px"
	 width="282.232px" height="282.232px" viewBox="-453.618 605.063 282.232 282.232"
	 enable-background="new -453.618 605.063 282.232 282.232" xml:space="preserve">
<g id="_x2D_--" display="none">
</g>
<g id="fond">
	<circle fill="#00326E" cx="-312.503" cy="746.181" r="141.116"/>
</g>
<g id="A" display="none">
	<g id="Calque_2" display="inline">
	</g>
	<g id="Calque_7" display="inline">
	</g>
</g>
<g id="B">
	<g>
		<path fill="#C89108" d="M-271.11,693.2l7.147-3.922c4.771-2.342,8.033-3.016,9.789-2.025c0.862,1.219,0.504,4.648-1.07,10.287
			l-3.639,7.246l-4.865,7.902c-0.397,0.701-1.081,1.568-2.054,2.594c-0.975,1.029-1.729,1.895-2.261,2.6l-1.612,1.701l-7.758,8.188
			l21.333,88.02l-12.09,12.76l-34.078-76.484l-47.835,47.502l5.142,21.621l-9.068,9.57l-10.973-26.543l-26.881-9.326l9.068-9.57
			l21.76,3.869l45.071-50.121l-78.208-29.91l12.09-12.76l88.933,16.463l7.758-8.188l6.566-6.291c0.606-0.5,2.474-1.758,5.597-3.777
			C-272.776,694.245-272.063,693.778-271.11,693.2z"/>
	</g>
	<g opacity="0.8">
		<path fill="#FFFFFF" d="M-349.766,702.383l-32.336-5.985l-12.09,12.76l26.434,10.109
			C-361.383,713.985-355.227,708.49-349.766,702.383z"/>
		<path fill="#FFFFFF" d="M-254.173,687.253c-1.756-0.99-5.018-0.316-9.789,2.025l-7.147,3.922
			c-0.953,0.578-1.666,1.045-2.138,1.404c-3.124,2.02-4.991,3.277-5.597,3.777l-6.566,6.291l-7.758,8.188l-45.261-8.379
			c-5.545,6.892-11.956,13.034-18.714,18.845l41.159,15.741l-45.071,50.121l-21.76-3.869l-9.068,9.57l26.881,9.326l10.973,26.543
			l9.068-9.57l-5.142-21.621l47.835-47.502l13.574,30.465c7.268-5.322,13.947-11.448,20.17-18.006l-8.908-36.754l7.758-8.188
			l1.612-1.701c0.533-0.705,1.287-1.57,2.261-2.6c0.973-1.025,1.657-1.893,2.054-2.594l4.865-7.902l3.639-7.246
			C-253.669,691.901-253.312,688.472-254.173,687.253z"/>
		<path fill="#FFFFFF" d="M-284.542,791.849l16.353,36.701l12.09-12.76l-9.655-39.837
			C-271.608,781.731-277.849,787.103-284.542,791.849z"/>
	</g>
	<g opacity="0.98">
		<path fill="#FFFFFF" d="M-349.766,702.383l-32.336-5.985l-12.09,12.76l26.434,10.109
			C-361.383,713.985-355.227,708.49-349.766,702.383z"/>
		<path fill="#00326E" d="M-254.173,687.253c-1.756-0.99-5.018-0.316-9.789,2.025l-7.147,3.922
			c-0.953,0.578-1.666,1.045-2.138,1.404c-3.124,2.02-4.991,3.277-5.597,3.777l-6.566,6.291l-7.758,8.188l-45.261-8.379
			c-5.545,6.892-11.956,13.034-18.714,18.845l41.159,15.741l-45.071,50.121l-21.76-3.869l-9.068,9.57l26.881,9.326l10.973,26.543
			l9.068-9.57l-5.142-21.621l47.835-47.502l13.574,30.465c7.268-5.322,13.947-11.448,20.17-18.006l-8.908-36.754l7.758-8.188
			l1.612-1.701c0.533-0.705,1.287-1.57,2.261-2.6c0.973-1.025,1.657-1.893,2.054-2.594l4.865-7.902l3.639-7.246
			C-253.669,691.901-253.312,688.472-254.173,687.253z"/>
		<path fill="#FFFFFF" d="M-284.542,791.849l16.353,36.701l12.09-12.76l-9.655-39.837
			C-271.608,781.731-277.849,787.103-284.542,791.849z"/>
	</g>
	<path opacity="0.95" fill="#FFFFFF" d="M-254.173,687.253c-1.756-0.99-5.018-0.316-9.789,2.025l-7.147,3.922
		c-0.953,0.578-1.666,1.045-2.138,1.404c-3.124,2.02-4.991,3.277-5.597,3.777l-6.566,6.291l-7.758,8.188l-45.261-8.379
		c-5.545,6.892-11.956,13.034-18.714,18.845l41.159,15.741l-45.071,50.121l-21.76-3.869l-9.068,9.57l26.881,9.326l10.973,26.543
		l9.068-9.57l-5.142-21.621l47.835-47.502l13.574,30.465c7.268-5.322,13.947-11.448,20.17-18.006l-8.908-36.754l7.758-8.188
		l1.612-1.701c0.533-0.705,1.287-1.57,2.261-2.6c0.973-1.025,1.657-1.893,2.054-2.594l4.865-7.902l3.639-7.246
		C-253.669,691.901-253.312,688.472-254.173,687.253z"/>
</g>
<g id="C" display="none">
	<g display="inline">
		<path fill="#FFFFFF" d="M-196.456,714.953l-13.027,4.268c-9.434,17.371-17.183,35.189-23.247,53.457
			c-5.84,17.445-10.856,37.435-15.049,59.971l9.097,12.466l-5.166,3.818l-6.738-9.209c-20.515-3.818-40.918-5.728-61.206-5.728
			c-20.215,0-40.581,1.909-61.094,5.728l-6.738,9.209l-5.166-3.818l9.097-12.466c-4.194-22.536-9.209-42.525-15.049-59.971
			c-6.064-18.268-13.813-36.086-23.247-53.457l-13.027-4.268l2.021-6.064l12.578,4.043c20.288-11.08,37.92-22.124,52.896-33.13
			c16.021-11.829,30.884-25.044,44.585-39.644v-12.129h6.401v12.129c13.701,14.6,28.563,27.814,44.585,39.644
			c14.974,11.006,32.642,22.05,53.008,33.13l12.466-4.043L-196.456,714.953z M-356.49,806.145
			c-1.572-10.93-4.941-24.146-10.107-39.644c-5.391-16.172-10.407-28.45-15.049-36.836l-23.696-7.637
			c8.76,16.846,15.647,32.905,20.664,48.179c5.54,17.07,10.181,35.601,13.926,55.591L-356.49,806.145z M-314.937,674.187v-24.932
			c-13.552,13.926-26.992,25.757-40.317,35.488c-14.751,10.708-31.147,20.964-49.189,30.771l23.022,7.524
			c10.032-4.865,21.787-12.277,35.264-22.236C-331.633,690.098-321.226,681.225-314.937,674.187z M-314.937,704.284v-21.001
			c-6.738,6.814-15.723,14.301-26.953,22.461c-12.354,8.984-22.798,15.648-31.333,19.99l21.563,6.963
			c6.738-3.668,13.252-7.822,19.541-12.466C-325.831,715.59-320.103,710.275-314.937,704.284z M-338.072,780.876
			c-1.423-7.337-3.332-14.6-5.728-21.787c-2.246-6.812-5.278-13.477-9.097-19.99l-20.215-6.626
			c4.268,8.461,8.46,18.979,12.578,31.558c4.565,14.077,7.598,25.794,9.097,35.151L-338.072,780.876z M-255.865,832.424
			l-14.712-20.215c-10.107-2.021-23.809-3.032-41.104-3.032c-17.37,0-31.108,1.011-41.216,3.032l-14.6,20.215
			c19.69-3.22,38.257-4.829,55.703-4.829C-294.273,827.595-275.63,829.204-255.865,832.424z M-275.855,804.909l-12.578-17.183
			c-7.788-1.646-15.537-2.471-23.247-2.471c-7.788,0-15.573,0.824-23.359,2.471l-12.466,17.183
			c9.883-1.497,21.787-2.246,35.713-2.246C-297.793,802.663-285.813,803.412-275.855,804.909z M-316.285,750.891l-27.852-8.984
			c2.845,5.391,4.979,10.295,6.401,14.712c1.646,5.466,3.145,11.343,4.492,17.632L-316.285,750.891z M-314.937,744.602v-30.996
			c-4.567,4.867-8.872,8.723-12.915,11.567c-4.792,3.444-10.107,6.813-15.947,10.107L-314.937,744.602z M-293.824,780.314
			l-17.856-24.595l-17.969,24.595c6.514-1.047,12.466-1.572,17.856-1.572S-300.413,779.268-293.824,780.314z M-218.917,715.515
			c-18.12-9.808-34.517-20.063-49.189-30.771c-13.403-9.731-26.88-21.563-40.43-35.488v24.932
			c6.289,7.038,16.694,15.911,31.221,26.616c13.477,9.959,25.229,17.371,35.264,22.236L-218.917,715.515z M-250.25,725.734
			c-8.535-4.342-18.979-11.006-31.333-19.99c-11.23-8.16-20.215-15.646-26.953-22.461v21.001
			c5.166,5.991,10.894,11.306,17.183,15.947c6.289,4.644,12.803,8.798,19.541,12.466L-250.25,725.734z M-279.673,735.28
			c-5.84-3.294-11.157-6.663-15.947-10.107c-4.043-2.845-8.35-6.7-12.915-11.567v30.996L-279.673,735.28z M-279.336,741.906
			l-27.852,8.984l16.958,23.359c1.348-6.289,2.845-12.166,4.492-17.632C-284.317,752.201-282.183,747.297-279.336,741.906z
			 M-250.362,732.473l-20.215,6.626c-6.738,11.606-11.68,25.532-14.824,41.777l13.364,18.306c1.497-9.357,4.529-21.074,9.097-35.151
			C-258.824,751.452-254.629,740.934-250.362,732.473z M-218.13,722.028l-23.696,7.637c-4.644,8.386-9.658,20.664-15.049,36.836
			c-5.166,15.498-8.535,28.714-10.107,39.644l14.263,19.653c3.743-19.99,8.384-38.521,13.926-55.591
			C-233.78,754.934-226.89,738.874-218.13,722.028z"/>
	</g>
</g>
</svg>
