<?xml version="1.0" encoding="utf-8"?>
<!-- Generator: Adobe Illustrator 16.0.0, SVG Export Plug-In . SVG Version: 6.00 Build 0)  -->
<!DOCTYPE svg PUBLIC "-//W3C//DTD SVG 1.1//EN" "http://www.w3.org/Graphics/SVG/1.1/DTD/svg11.dtd">
<svg version="1.1" xmlns="http://www.w3.org/2000/svg" xmlns:xlink="http://www.w3.org/1999/xlink" x="0px" y="0px"
	 width="282.232px" height="282.232px" viewBox="1056.757 -603.236 282.232 282.232"
	 enable-background="new 1056.757 -603.236 282.232 282.232" xml:space="preserve">
<g id="_x2D_--" display="none">
	<rect x="116.272" y="-356.429" display="inline" fill="#FFFFFF" width="4471.75" height="5688"/>
</g>
<g id="fond">
	<circle fill="#00326E" cx="1197.872" cy="-462.119" r="141.116"/>
</g>
<g id="A" display="none">
	<g display="inline">
		<path fill="#FFFFFF" d="M1175.637-351.467l24.237-35.669l99.485-72.68c11.145,3.598,17.095,11.63,17.846,24.099l-99.77,72.673
			L1175.637-351.467z M1189.025-365.033l3.961,5.212l22.295-6.117c3.289-2.787,4.945-4.869,4.973-6.247
			c0.012-0.57-0.135-0.989-0.437-1.257c-0.306-0.267-0.789-0.408-1.454-0.421c-1.379-0.027-3.771,0.757-7.178,2.353
			c2.905-2.651,4.375-4.88,4.411-6.686c0.018-0.902-0.217-1.584-0.708-2.046c-0.488-0.462-1.258-0.703-2.303-0.724
			c-1.094-0.021-3.342,0.742-6.748,2.29c3.045-2.506,4.586-4.732,4.625-6.682c0.011-0.522-0.124-0.917-0.404-1.185
			c-0.279-0.266-0.729-0.406-1.347-0.419c-2.139-0.042-4.437,0.839-6.897,2.645L1189.025-365.033z M1208.615-389.244
			c0.811-0.174,1.479-0.256,2.002-0.246c1.898,0.038,2.832,0.96,2.797,2.766l-0.086,0.711l59.985-44.086
			c-1.545-1.219-3.071-2.176-4.577-2.872L1208.615-389.244z M1215.342-383.264c2.174,0.566,3.24,1.989,3.194,4.271l60.274-44.295
			c-0.682-1.582-1.651-3.004-2.91-4.265L1215.342-383.264z M1220.547-376.173c0.902,0.065,1.563,0.305,1.983,0.717
			c0.419,0.412,0.622,0.999,0.606,1.759c-0.013,0.666-0.342,1.634-0.984,2.903l59.912-43.944c-0.53-2.054-1.113-3.849-1.748-5.383
			L1220.547-376.173z M1281.543-442.414c7.1,3.943,11.447,10.066,13.041,18.369l18.594-13.535
			c-1.49-8.774-5.886-14.828-13.188-18.158L1281.543-442.414z"/>
	</g>
	<g display="inline">
		<path fill="#FFFFFF" d="M1094.282-490.768c0-14.375,6.743-26.641,20.234-36.797c13.488-10.156,30.024-15.234,49.609-15.234
			c19.375,0,35.859,5.078,49.453,15.234s20.391,22.422,20.391,36.797c0,14.48-6.797,26.772-20.391,36.875
			c-13.594,10.105-30.078,15.156-49.453,15.156c-19.585,0-36.121-5.051-49.609-15.156
			C1101.025-463.995,1094.282-476.288,1094.282-490.768z M1205.376-449.205l10.469,26.406l-32.656-19.844L1205.376-449.205z"/>
	</g>
	<g id="Calque_2" display="inline">
	</g>
	<g id="Calque_7" display="inline">
	</g>
</g>
<g id="B">
	<g opacity="0.9">
		<path fill="#FFFFFF" d="M1253.725-477.834c7.225,0,13.719-2.344,19.482-7.031c2.93,1.271,5.148,2.247,6.664,2.93
			c1.514,0.685,3.539,1.661,6.08,2.93c2.537,1.271,4.49,2.369,5.859,3.296c1.365,0.929,2.951,2.124,4.76,3.589
			c1.807,1.465,3.125,2.856,3.955,4.175c0.828,1.318,1.539,2.856,2.125,4.614s0.879,3.614,0.879,5.566v50.244h-99.609v-50.244
			c0.293-3.124,1.072-5.956,2.344-8.496c1.268-2.538,2.732-4.688,4.395-6.445c1.658-1.758,3.904-3.466,6.738-5.127
			c2.83-1.659,5.346-3.003,7.543-4.028s5.055-2.221,8.57-3.589C1239.369-480.372,1246.107-477.834,1253.725-477.834z
			 M1253.65-538.186c-7.178,0-13.307,2.54-18.383,7.617c-5.08,5.079-7.617,11.231-7.617,18.457c0,7.228,2.537,13.38,7.617,18.457
			c5.076,5.079,11.205,7.617,18.383,7.617s13.33-2.538,18.457-7.617c5.127-5.077,7.691-11.229,7.691-18.457
			c0-7.226-2.564-13.378-7.691-18.457C1266.98-535.646,1260.828-538.186,1253.65-538.186z"/>
	</g>
	<g opacity="0.8">
		<path fill="#FFFFFF" d="M1103.263-466.004c1.22,1.222,1.831,2.71,1.831,4.468v42.773h101.953v-42.773
			c0-1.758,0.608-3.246,1.831-4.468c1.22-1.22,2.685-1.831,4.395-1.831c1.707,0,3.149,0.611,4.321,1.831
			c1.172,1.222,1.758,2.71,1.758,4.468v48.926c0,1.758-0.586,3.223-1.758,4.395s-2.637,1.758-4.395,1.758h-114.258
			c-1.758,0-3.223-0.586-4.395-1.758s-1.758-2.637-1.758-4.395v-48.926c0-1.758,0.586-3.223,1.758-4.395s2.586-1.806,4.248-1.904
			C1100.553-467.835,1102.04-467.224,1103.263-466.004z M1160.318-494.788c15.234-3.417,28.466-8.643,39.697-15.674l-0.732,29.297
			h-87.158v-8.203C1129.019-489.563,1145.084-491.369,1160.318-494.788z M1199.576-475.159v8.203h-87.012v-8.203H1199.576z
			 M1199.576-461.536v8.057h-87.012v-8.057H1199.576z M1199.576-447.913v8.057h-87.012v-8.057H1199.576z M1199.576-434.29v8.057
			h-87.012v-8.057H1199.576z"/>
	</g>
</g>
<g id="C" display="none">
</g>
</svg>
