<?xml version="1.0" encoding="utf-8"?>
<!-- Generator: Adobe Illustrator 16.0.0, SVG Export Plug-In . SVG Version: 6.00 Build 0)  -->
<!DOCTYPE svg PUBLIC "-//W3C//DTD SVG 1.1//EN" "http://www.w3.org/Graphics/SVG/1.1/DTD/svg11.dtd">
<svg version="1.1" xmlns="http://www.w3.org/2000/svg" xmlns:xlink="http://www.w3.org/1999/xlink" x="0px" y="0px"
	 width="282.232px" height="282.232px" viewBox="754.682 302.988 282.232 282.232"
	 enable-background="new 754.682 302.988 282.232 282.232" xml:space="preserve">
<g id="_x2D_--" display="none">
	<rect x="116.272" y="-356.429" display="inline" fill="#FFFFFF" width="4471.75" height="5688"/>
</g>
<g id="fond">
	<circle fill="#00326E" cx="895.797" cy="444.105" r="141.116"/>
</g>
<g id="A" display="none">
	<g id="Calque_2" display="inline">
	</g>
	<g id="Calque_7" display="inline">
	</g>
</g>
<g id="B">
	<g>
		<g>
			<path fill="#C89108" d="M833.444,427.757c7.274,0,13.811-2.359,19.612-7.078c2.949,1.278,5.185,2.263,6.709,2.949
				c1.523,0.688,3.563,1.673,6.12,2.949c2.556,1.278,4.521,2.385,5.898,3.317c1.376,0.936,2.973,2.139,4.792,3.613
				c1.818,1.475,3.146,2.875,3.982,4.203c0.834,1.326,1.548,2.875,2.138,4.645s0.885,3.639,0.885,5.604v50.579H783.308v-50.579
				c0.295-3.145,1.081-5.995,2.359-8.553c1.276-2.555,2.751-4.719,4.424-6.488c1.671-1.77,3.931-3.488,6.783-5.161
				c2.851-1.671,5.382-3.022,7.595-4.056c2.211-1.031,5.087-2.234,8.626-3.612C818.993,425.201,825.776,427.757,833.444,427.757z
				 M833.371,367.003c-7.227,0-13.396,2.558-18.507,7.668c-5.112,5.112-7.668,11.306-7.668,18.58c0,7.276,2.556,13.47,7.668,18.58
				c5.11,5.112,11.28,7.668,18.507,7.668c7.225,0,13.418-2.556,18.58-7.668c5.16-5.11,7.741-11.304,7.741-18.58
				c0-7.274-2.581-13.468-7.741-18.58C846.789,369.561,840.596,367.003,833.371,367.003z"/>
		</g>
	</g>
	<circle fill="#00326E" cx="911.121" cy="490.467" r="68"/>
	<g>
		<g>
			<path fill="#C89108" d="M987.232,552.232l-25.723-25.777c6.563-8.847,9.844-19.072,9.844-30.674
				c0-14.531-5.127-26.924-15.381-37.178c-10.313-10.253-22.733-15.381-37.266-15.381c-14.531,0-26.924,5.128-37.178,15.381
				c-10.253,10.254-15.381,22.646-15.381,37.178c0,14.532,5.128,26.925,15.381,37.178c10.254,10.313,22.646,15.469,37.178,15.469
				c11.426,0,21.533-3.193,30.322-9.58l23.953,24.135 M947.271,524.697c-8.027,8.028-17.739,12.041-29.136,12.041
				c-11.396,0-21.138-4.013-29.224-12.041c-8.027-8.086-12.041-17.827-12.041-29.224c0-11.396,4.014-21.107,12.041-29.136
				c8.086-8.086,17.828-12.129,29.224-12.129c11.396,0,21.108,4.043,29.136,12.129c8.086,8.028,12.129,17.74,12.129,29.136
				C959.4,506.87,955.357,516.611,947.271,524.697z"/>
		</g>
	</g>
	<g>
		<g>
			<path fill="#C89108" d="M873.323,372.32v-9.053h90v9.053H873.323z"/>
			<path fill="#C89108" d="M873.323,397.32v-9.053h90v9.053H873.323z"/>
			<path fill="#C89108" d="M873.323,422.32v-9.053h90v9.053H873.323z"/>
		</g>
	</g>
</g>
<g id="C" display="none">
</g>
</svg>
